<svg width="40" height="38" viewBox="0 0 40 38" fill="none" xmlns="http://www.w3.org/2000/svg">
<path d="M4.11458 28.9687L4.21549 8.37957H2.19727V34.5771C4.9707 33.7523 7.75391 33.2275 10.5566 33.205C13.1445 33.1862 15.7324 33.6024 18.3268 34.6146C16.7155 33.1113 14.9186 32.0053 13.0013 31.2855C10.5859 30.3783 7.97526 30.0784 5.29948 30.3408C4.69401 30.397 4.16667 29.8797 4.11458 29.1861C4.10807 29.1112 4.10807 29.0399 4.11458 28.9687ZM33.7305 7.30363C33.724 7.24364 33.7174 7.17991 33.7174 7.11243C33.7174 7.0487 33.7207 6.98497 33.7305 6.92124V2.75243C31.1914 2.475 28.5742 2.79741 26.2891 3.79463C24.1536 4.72811 22.3112 6.26142 21.1133 8.4583V32.204C22.9753 30.7719 24.8796 29.5948 26.8359 28.7925C29.0658 27.8778 31.3574 27.4429 33.7305 27.6603V7.30363ZM35.9277 5.84904H38.903C39.5085 5.84904 40 6.41513 40 7.11243V36.2266C40 36.9239 39.5085 37.49 38.903 37.49C38.7793 37.49 38.6589 37.4675 38.5482 37.4225C35.4883 36.4141 32.4479 35.743 29.4368 35.7205C26.5007 35.698 23.5677 36.2941 20.6217 37.7899C20.4395 37.9286 20.2214 38.0036 19.9967 37.9999C19.7754 38.0036 19.5573 37.9286 19.3717 37.7899C16.429 36.2904 13.4928 35.698 10.5566 35.7205C7.54557 35.743 4.50846 36.4141 1.44531 37.4225C1.33464 37.4675 1.21419 37.49 1.09049 37.49C0.491536 37.4938 0 36.9277 0 36.2304V7.11243C0 6.41513 0.491536 5.84904 1.09701 5.84904H4.22526L4.24479 1.62775C4.24805 1.02042 4.61914 0.518063 5.11719 0.398097C8.00456 -0.295455 11.5137 -0.123004 14.5898 1.23411C16.7155 2.17134 18.6458 3.66716 20.0553 5.82655C21.4779 3.81337 23.3789 2.36629 25.5176 1.4328C28.4408 0.154417 31.8132 -0.152995 34.987 0.383102C35.5339 0.473076 35.9245 1.01667 35.9245 1.6315V5.84904H35.9277ZM22.1777 34.4234C24.6029 33.5461 27.0247 33.1862 29.4466 33.2012C32.2493 33.22 35.0326 33.7486 37.806 34.5733V8.37957H35.9277V29.0812C35.9277 29.7785 35.4362 30.3446 34.8307 30.3446C34.7428 30.3446 34.6582 30.3333 34.5768 30.3108C32.1745 29.8759 29.847 30.2358 27.5749 31.1693C25.7454 31.9228 23.9486 33.0475 22.1777 34.4234ZM18.9193 31.9603V8.42081C17.7702 6.08522 15.9115 4.52192 13.8118 3.59593C11.4323 2.54623 8.75977 2.31005 6.42904 2.69244L6.30534 27.739C8.84766 27.6341 11.3346 28.0052 13.6751 28.8862C15.5371 29.5835 17.3014 30.607 18.9193 31.9603Z" fill="white"/>
</svg>
