<svg width="50" height="50" viewBox="0 0 50 50" fill="none" xmlns="http://www.w3.org/2000/svg">
<!--<rect width="50" height="50" rx="2" fill="black"/>-->
<g clip-path="url(#clip0_103_1527)">
<path d="M8.70728 3.28876C9.80306 3.8394 10.8772 4.71584 11.3443 5.78843C11.5154 6.19762 11.5709 6.57469 11.5287 6.78782C11.5076 6.89439 11.4726 6.95317 11.4256 6.99145C11.3785 7.02973 11.3075 7.05791 11.1755 7.05411H11.1724C11.1724 7.05411 10.2139 7.21978 9.87682 6.94696L5.00055 3.00085L9.65935 7.52401C9.88196 7.74014 9.85933 8.04615 9.88755 8.23517C9.91753 8.43598 9.90227 8.59847 9.8219 8.80849C9.59807 9.51593 7.95416 11.5468 7.95416 11.5468C7.95416 11.5468 9.97445 10.0654 10.8347 9.78915C11.3395 9.63567 11.745 9.71153 12.3509 9.9364L19.4658 16.3619C19.0156 16.613 18.5377 16.8457 18.0778 17.1514C17.6414 17.4416 17.4715 18.025 17.2963 18.6051C17.1211 19.1851 16.959 19.7897 16.8086 20.0274C16.2742 20.8719 15.6426 21.5437 15.6426 21.5437C15.5657 21.6252 15.5539 21.7608 15.6156 21.8544C15.6774 21.948 15.8066 21.9902 15.9115 21.951C16.4161 21.763 16.8793 21.6141 17.3089 21.3088C17.4829 21.185 17.6473 21.0288 17.8028 20.8451C17.6169 21.6687 17.3217 22.519 17.3433 23.4486C17.3432 23.4506 17.3432 23.4527 17.3433 23.4548C17.4048 25.0891 18.0338 26.3459 17.7965 27.8095C17.736 28.1826 17.4907 28.5239 17.2026 28.8967C16.9144 29.2695 16.5854 29.6685 16.4648 30.1874C16.1391 31.5893 16.4402 33.0109 16.2741 34.3072C16.1883 34.9758 15.8083 35.6394 15.6552 36.4219C15.5036 37.1966 15.4782 37.9795 15.402 38.7277C14.6126 39.2102 13.4277 39.6425 12.7449 40.4476C12.2535 41.0269 12.001 41.6777 11.7664 42.3053C11.5317 42.933 11.3149 43.5374 10.9192 44.0692C10.7037 44.3587 10.5161 44.4798 10.2815 44.6143C10.0469 44.7488 9.76185 44.8924 9.44372 45.1876C9.31136 45.3104 9.12891 45.5208 8.97481 45.7578C8.89776 45.8763 8.82777 46.0017 8.78099 46.1306C8.73421 46.2595 8.6991 46.3991 8.75598 46.5598C9.05566 47.4062 9.53499 47.9606 10.0314 48.6338C10.0746 48.6918 10.1438 48.7294 10.2159 48.7341L13.8483 49.0003C13.9607 49.0103 14.0748 48.9339 14.1088 48.8261C14.1427 48.7183 14.093 48.5901 13.9953 48.5336C13.1393 48.0252 12.1471 47.8318 11.6789 47.1864C11.5903 47.0644 11.5796 46.8807 11.6413 46.6444C11.7031 46.4081 11.8348 46.1454 11.9571 45.9332C12.4705 45.0426 13.2309 44.2892 13.9578 43.4865C14.6875 42.6806 15.4235 41.8867 16.246 41.2089C16.4588 41.0336 16.742 40.9102 17.0463 40.7734C17.3506 40.6366 17.6776 40.4855 17.9435 40.2095C18.1978 39.9455 18.3842 39.5571 18.5531 39.1599C18.722 38.7628 18.8667 38.3562 18.9751 38.0917C19.412 37.0255 19.6272 36.3134 20.0005 35.2846C20.2029 35.2557 20.3543 35.2115 20.4881 35.175C20.6901 35.7961 21.0145 36.4265 21.3228 36.9544C21.6836 37.5722 22.0358 38.177 22.5263 38.7308C22.0404 39.5834 21.6831 40.319 21.4353 41.3123C21.0989 42.6609 21.1867 44.1582 20.907 45.41C20.8381 45.7189 20.6352 45.9957 20.3881 46.2935C20.1411 46.5914 19.8525 46.9048 19.6785 47.3117C19.4842 47.766 19.5915 48.2253 19.566 48.5586C19.5558 48.6939 19.6744 48.825 19.8098 48.828C21.2402 48.8573 22.7082 49.0569 24.1894 48.9063C24.912 48.8329 25.4734 48.4098 26.0244 48.1889C26.1338 48.1482 26.2046 48.0229 26.1832 47.9079C26.1617 47.7929 26.0505 47.7017 25.9338 47.7033C25.0592 47.7033 24.2238 47.9208 23.5173 47.7159C23.205 47.6253 22.8703 47.2502 22.8077 46.9264C22.7121 46.4312 22.9268 45.8368 23.1516 45.2784C23.6039 44.155 23.9791 43.6538 24.3989 42.4683C24.6529 41.7508 24.8186 41.0806 25.0241 40.3692C25.079 40.1792 25.2116 39.8546 25.3305 39.5265C25.4494 39.1984 25.5618 38.8717 25.5618 38.571C25.5618 37.8386 25.2828 37.2106 25.1179 36.591C24.8267 35.4965 24.8184 34.1319 24.2957 32.9881C23.8098 31.9247 23.4459 31.5289 23.1892 31.1084C22.9324 30.688 22.7446 30.2065 22.5483 28.8402C22.418 27.9331 22.6365 27.2991 22.814 26.3746C23.5715 26.3816 24.484 26.4219 25.2493 26.3245C26.3252 26.1876 26.859 26.1564 27.8908 25.7293C28.1837 25.608 28.3407 25.3491 28.4941 25.1184C28.5924 24.9704 28.6846 24.8445 28.7692 24.7424L43.8714 38.3516C43.8764 38.356 43.8816 38.3601 43.887 38.3641C44.0467 38.4894 44.2746 38.4846 44.4247 38.4111C44.5748 38.3376 44.6822 38.2235 44.7717 38.0978C44.8612 37.9721 44.9313 37.8342 44.9686 37.6937C45.006 37.5532 45.0398 37.3809 44.8936 37.2206C44.8868 37.2129 44.8795 37.2055 44.8717 37.1987L30.3447 24.6111C30.3722 24.5389 30.3638 24.4541 30.3229 24.3887C30.135 24.0794 30.1318 23.9336 30.0665 23.7245C30.0013 23.5154 29.8456 23.2881 29.4819 23.0603C29.1198 22.8335 28.7124 22.7738 28.3284 22.8755L24.127 19.2476C24.1328 19.1644 24.1396 19.0835 24.1489 18.9875C24.1662 18.8078 24.1212 18.6592 24.0926 18.5677C24.0865 18.5482 24.0861 18.5461 24.0832 18.5333C24.0992 18.5257 24.1071 18.5192 24.152 18.5051C24.2821 18.464 24.529 18.4126 24.8929 18.3578C24.9386 18.3612 24.9844 18.3607 25.0179 18.3484C25.0986 18.3189 25.1434 18.2785 25.1836 18.2356C25.264 18.1499 25.3258 18.0453 25.3899 17.9161C25.5181 17.6578 25.6437 17.2986 25.7369 16.8854C25.9233 16.059 25.9866 15.0166 25.5275 14.2162C25.2805 13.7856 24.8277 13.5641 24.3583 13.4675C23.8888 13.3708 23.3882 13.3893 22.9672 13.4706C22.2585 13.6074 21.8283 14.2186 21.4167 14.589C20.9461 15.0125 20.6382 15.5258 20.2413 15.8672L12.8262 9.45109L12.5074 8.38591C12.4402 8.16145 12.448 8.01021 12.4824 7.91598C12.5167 7.82176 12.5737 7.76435 12.6887 7.71235C12.9187 7.60835 13.379 7.60536 13.8922 7.73428C15.4383 8.28265 16.1568 8.71789 16.9115 10.1956C17.0754 8.47164 16.1189 5.64374 15.0707 4.69225C13.192 2.98697 10.8723 2.86005 8.70741 3.28913L8.70728 3.28876ZM10.297 3.60479C12.3283 3.59206 13.6385 4.23218 14.5735 5.27779C15.2857 6.0742 15.7741 7.12111 16.1459 8.30418C15.5434 7.79956 14.7458 7.42913 14.014 7.24533C13.4402 7.10119 12.9007 7.06552 12.4823 7.25472C12.273 7.34933 12.0961 7.51647 12.0134 7.74345C11.9306 7.97043 11.9412 8.23643 12.029 8.5298L12.2853 9.38821C11.7367 9.21029 11.2362 9.14317 10.6879 9.30989C10.4377 9.38597 10.1749 9.51839 9.89386 9.68583C10.0671 9.43417 10.2082 9.20337 10.2909 8.9872C10.3979 8.70747 10.4256 8.43423 10.3847 8.16012C10.3541 7.95568 10.2834 7.74333 10.1971 7.51789L11.1568 7.55548C11.38 7.56294 11.5874 7.50527 11.7414 7.38004C11.8954 7.25482 11.9819 7.07541 12.0196 6.88505C12.0949 6.50433 11.9988 6.06038 11.8039 5.59431C11.5099 4.89151 10.9724 4.13775 10.2659 3.60812C10.2758 3.60802 10.2872 3.60506 10.2971 3.605L10.297 3.60479ZM23.6486 13.9056C23.8543 13.9031 24.0657 13.9193 24.2582 13.9589C24.6432 14.0382 24.9461 14.2019 25.096 14.4633C25.4457 15.0731 25.4198 16.0189 25.2492 16.7753C25.1639 17.1535 25.0428 17.4854 24.9397 17.6932C24.8966 17.7801 24.8636 17.8282 24.8396 17.8593H24.8365C24.4461 17.9173 24.1882 17.9665 24.0019 18.0253C23.8148 18.0843 23.6571 18.1634 23.5923 18.3386C23.5276 18.5138 23.5918 18.6361 23.6173 18.7177C23.6428 18.7992 23.6562 18.8582 23.6486 18.937C23.6364 19.0633 23.62 19.1967 23.6173 19.3474C23.6162 19.4207 23.6492 19.4939 23.7049 19.5416L23.9643 19.7672C23.81 19.7138 23.6241 19.8545 23.633 20.0178C23.6773 20.9738 23.7703 21.8875 23.3204 22.7528C23.1879 23.0076 23.0008 23.3493 22.9265 23.7333C22.8522 24.1174 22.9162 24.574 23.2766 24.9175C23.7372 25.3565 24.4064 25.5183 25.1491 25.4438C25.8919 25.3693 26.721 25.0632 27.5688 24.5447C27.7897 24.4096 27.8875 24.1863 27.9283 24.0152C27.969 23.8442 27.9837 23.7099 28.0221 23.6299C28.068 23.5329 28.0426 23.4069 27.9627 23.3354L24.6584 20.3655L28.1002 23.3385C28.1684 23.3973 28.2695 23.4148 28.3534 23.3824C28.638 23.2689 28.9125 23.2955 29.2162 23.4858C29.5279 23.681 29.5454 23.737 29.5882 23.8742C29.6117 23.9496 29.6449 24.0696 29.6976 24.2188C29.6158 24.2484 29.5521 24.3236 29.5364 24.4094C29.5206 24.4951 29.5535 24.5881 29.6195 24.6449L44.4866 37.5273C44.4874 37.5351 44.4896 37.5416 44.4835 37.5648C44.466 37.6306 44.4207 37.7273 44.3647 37.8061C44.3086 37.8849 44.24 37.9426 44.2052 37.9596C44.1705 37.9766 44.2059 37.9793 44.1927 37.969L28.9245 24.2064C28.8414 24.132 28.7065 24.1238 28.615 24.1876C28.3695 24.3593 28.225 24.6203 28.0773 24.8424C27.9297 25.0645 27.7774 25.2329 27.6991 25.2653C26.7145 25.6729 26.274 25.6876 25.1857 25.8261C24.4311 25.9222 23.4197 25.87 22.6098 25.87C22.4924 25.8699 22.382 25.9638 22.3629 26.0799C22.1898 27.0915 21.892 27.8109 22.0503 28.912C22.2509 30.3083 22.472 30.8916 22.763 31.3682C23.0541 31.8448 23.3751 32.1771 23.8415 33.1978C24.2995 34.2 24.3199 35.5361 24.6355 36.7222C24.8132 37.39 25.0606 37.9707 25.0606 38.5706C25.0606 38.7224 24.9712 39.0432 24.8575 39.357C24.7437 39.6708 24.6124 39.9834 24.5417 40.2279C24.333 40.9505 24.17 41.6094 23.9259 42.2987C23.5228 43.4372 23.1564 43.9268 22.688 45.0901C22.4613 45.6532 22.1823 46.3311 22.316 47.0231C22.4205 47.5645 22.8464 48.0403 23.3788 48.1948C23.7799 48.3112 24.1808 48.3189 24.573 48.2982C24.4277 48.3503 24.2811 48.3899 24.1354 48.4047C22.8114 48.5393 21.4482 48.383 20.0652 48.3389C20.0673 48.0112 20.0506 47.711 20.1371 47.5087C20.2669 47.2051 20.5157 46.9245 20.7717 46.6159C21.0277 46.3073 21.2942 45.9649 21.3938 45.5193C21.6959 44.1671 21.6096 42.6743 21.919 41.4341C22.1695 40.4296 22.513 39.7329 23.0412 38.8213C23.0948 38.7287 23.0801 38.6016 23.0069 38.5237C22.4997 37.9872 22.1449 37.3708 21.7533 36.7003C21.4177 36.1257 21.0602 35.4295 20.8937 34.8175C20.8651 34.7125 20.7615 34.6329 20.653 34.6326C20.2609 34.6326 20.0147 34.8018 19.8152 34.8018C19.7132 34.8022 19.6151 34.8717 19.5807 34.9678C19.164 36.1012 18.9624 36.8 18.5115 37.9002C18.3938 38.1875 18.253 38.5853 18.0926 38.9623C17.9323 39.3393 17.7422 39.6931 17.5831 39.8583C17.3979 40.0505 17.1383 40.1826 16.8422 40.3157C16.5461 40.4488 16.2183 40.582 15.9294 40.8201C15.0718 41.5267 14.3199 42.3394 13.588 43.1478C12.8744 43.9359 12.0806 44.7128 11.5217 45.6823C11.3886 45.9132 11.2374 46.2067 11.1559 46.5187C11.0744 46.8308 11.0598 47.1887 11.2716 47.4805C11.5937 47.9244 12.045 48.1864 12.5064 48.3985L10.3682 48.245C9.89039 47.6037 9.48063 47.1092 9.2272 46.3934C9.23462 46.4144 9.22258 46.3725 9.24908 46.2994C9.27559 46.2264 9.32941 46.1308 9.39288 46.0331C9.51983 45.8379 9.69583 45.6355 9.78052 45.5569C10.0488 45.308 10.2783 45.1942 10.5308 45.0494C10.7833 44.9047 11.0563 44.722 11.3185 44.3696C11.7696 43.7634 12.0017 43.1031 12.2345 42.4804C12.4672 41.8578 12.6995 41.2752 13.1254 40.7731C13.6911 40.1061 14.9026 39.6548 15.7732 39.0938C15.8357 39.0532 15.8782 38.9833 15.8857 38.909C15.9761 38.0942 15.9961 37.2808 16.1452 36.5186C16.2767 35.8465 16.6676 35.1708 16.7704 34.3694C16.9513 32.9582 16.6597 31.5597 16.9517 30.303C17.0384 29.9302 17.3046 29.58 17.5957 29.2033C17.8869 28.8267 18.2037 28.4182 18.2897 27.8875C18.5555 26.2486 17.9003 24.9453 17.8427 23.4389C17.8426 23.4378 17.8427 23.4368 17.8427 23.4357C17.8164 22.253 18.4808 21.0532 18.4491 19.6888C18.4485 19.5741 18.3592 19.4661 18.2469 19.4442C18.1345 19.4222 18.0113 19.4888 17.9677 19.5948C17.6756 20.2881 17.3715 20.6517 17.0205 20.9012C16.914 20.977 16.787 21.0292 16.6673 21.0892C16.8487 20.8531 17.0415 20.5913 17.23 20.2935C17.4756 19.9053 17.6043 19.3138 17.7739 18.7521C17.9435 18.1904 18.1725 17.6873 18.3522 17.5679C18.8625 17.2286 19.4548 16.9703 20.0216 16.6218C20.0895 16.58 20.1352 16.5041 20.1404 16.4244C20.2189 16.4556 20.3131 16.4434 20.3811 16.3931C20.4048 16.3754 20.4457 16.3494 20.4967 16.3085C21.021 15.8888 21.3393 15.3312 21.7503 14.9613C22.219 14.5395 22.607 14.0494 23.0601 13.9619C23.2407 13.9271 23.4421 13.9081 23.6478 13.9055L23.6486 13.9056ZM24.1613 20.5912L27.5093 23.6019C27.4788 23.7164 27.4589 23.8223 27.4406 23.8995C27.4123 24.018 27.3964 24.0624 27.3093 24.1157C26.5118 24.6034 25.7429 24.8782 25.0991 24.9428C24.4553 25.0073 23.9502 24.8686 23.6205 24.5543C23.3869 24.3317 23.3631 24.1108 23.4173 23.8306C23.4715 23.5504 23.6306 23.2419 23.7643 22.9847C24.1834 22.1787 24.195 21.362 24.1613 20.5912L24.1613 20.5912Z" fill="white"/>
<path d="M10.2948 3.35181C10.0166 3.35355 9.72839 3.37157 9.42515 3.39849C11.4057 4.25662 12.5952 7.35252 11.1643 7.3047L9.92202 7.25801L5.65155 3.56965L9.8754 7.38252C10.4051 8.66203 10.2879 8.92279 8.49333 11.0397C10.522 9.31558 11.1804 9.22465 12.4843 9.71688L19.8915 16.4088C19.3453 16.7447 18.7495 17.0023 18.2145 17.3581C17.5983 17.7678 17.4148 19.5336 17.0188 20.1593C16.4689 21.0283 15.823 21.7156 15.823 21.7156C16.8433 21.3356 17.5894 21.1391 18.199 19.6925C18.2285 20.9671 17.5638 22.1684 17.5933 23.4431C17.6525 25.0141 18.2953 26.2954 18.0437 27.8473C17.8971 28.7511 16.9154 29.3522 16.7082 30.2439C16.3993 31.5733 16.6954 32.9832 16.5219 34.3369C16.4276 35.072 16.043 35.7417 15.9007 36.469C15.7461 37.2592 15.7254 38.0808 15.6367 38.8811C14.8085 39.4147 13.5723 39.8568 12.9347 40.6086C12.0174 41.6901 11.9646 43.0812 11.1178 44.2191C10.64 44.8612 10.1979 44.8266 9.61145 45.3707C9.39441 45.5721 8.89138 46.1963 8.9903 46.4757C9.2732 47.2747 9.72977 47.8015 10.2326 48.4832L13.8664 48.7478C13.0677 48.2735 12.0209 48.084 11.4749 47.3316C11.1746 46.9178 11.4835 46.2496 11.7389 45.8065C12.2751 44.8765 13.053 44.112 13.7732 43.3165C14.5041 42.5093 15.2469 41.7054 16.087 41.0132C16.5886 40.5999 17.3131 40.5009 17.7641 40.0327C18.1776 39.6036 18.5163 38.5459 18.7424 37.994C19.1975 36.8836 19.3998 36.1792 19.8139 35.0527C20.1097 35.0527 20.3567 34.8815 20.6524 34.8815C20.8299 35.5337 21.1969 36.2435 21.5376 36.8268C21.9287 37.4964 22.2941 38.1311 22.8265 38.6943C22.2941 39.6133 21.9346 40.3402 21.6774 41.371C21.3545 42.6655 21.4403 44.1619 21.1495 45.464C20.981 46.2183 20.211 46.6988 19.9071 47.4093C19.7552 47.7645 19.8435 48.1911 19.814 48.5765C21.2634 48.6062 22.7198 48.801 24.1621 48.6543C24.7959 48.5899 25.3408 48.1912 25.9324 47.954C25.1042 47.954 24.2433 48.1848 23.4477 47.954C23.0253 47.8315 22.6461 47.4062 22.5626 46.9736C22.4479 46.38 22.694 45.7446 22.9197 45.1839C23.3801 44.0405 23.7506 43.5446 24.1621 42.3827C24.4111 41.6792 24.5761 41.0142 24.7832 40.2972C24.9088 39.8626 25.3112 39.0222 25.3112 38.5698C25.3112 37.9036 25.0476 37.2992 24.8764 36.6556C24.573 35.5153 24.5592 34.1647 24.0689 33.0917C23.1165 31.0076 22.6955 31.6368 22.2986 28.8743C22.1489 27.8323 22.4317 27.1571 22.6092 26.1196C23.4078 26.1196 24.4258 26.1738 25.218 26.0729C26.3002 25.9352 26.7877 25.9145 27.7958 25.4971C28.1671 25.3434 28.4084 24.637 28.7586 24.3922L44.0389 38.1647C44.3847 38.4361 44.8813 37.5781 44.7066 37.3866L29.7835 24.4541C29.8885 24.4851 29.9987 24.509 30.1096 24.5164C29.6955 23.8346 30.024 23.6944 29.3487 23.2714C28.9907 23.0471 28.6178 23.0048 28.2617 23.1469L23.867 19.3496C23.8694 19.2163 23.8854 19.0919 23.898 18.9606C23.948 18.4437 23.3263 18.3348 24.8764 18.1046C25.1269 18.3138 26.12 15.7487 25.3112 14.3385C24.9143 13.6465 23.795 13.565 23.0129 13.716C22.432 13.8281 22.0244 14.3781 21.5842 14.7742C21.1326 15.1806 20.8161 15.733 20.3419 16.1126C20.3071 16.1404 20.2689 16.1639 20.2332 16.1904L12.6085 9.59182L12.2668 8.45576C11.6468 6.38446 15.9014 7.63525 16.708 9.38952C15.8919 6.05274 14.4664 3.3251 10.2946 3.35126L10.2948 3.35181ZM23.8824 20.0036L27.7957 23.5207C27.6652 23.7928 27.7466 24.1416 27.4385 24.33C25.7933 25.3362 24.238 25.4879 23.4475 24.7346C22.8535 24.1685 23.2745 23.3791 23.5407 22.8671C24.0301 21.9259 23.9262 20.9492 23.8824 20.0036L23.8824 20.0036Z" fill="white"/>
</g>
<defs>
<clipPath id="clip0_103_1527">
<rect width="40" height="46" fill="white" transform="translate(5 3)"/>
</clipPath>
</defs>
</svg>
