<svg width="50" height="50" viewBox="0 0 50 50" fill="none" xmlns="http://www.w3.org/2000/svg">
<!--<rect width="50" height="50" rx="2" fill="black"/>-->
<g clip-path="url(#clip0_103_1529)">
<path d="M30.1309 1C30.1197 1.00033 30.1131 1.00668 30.111 1.01906L28.4756 8.27809L27.4775 8.71285C27.4752 9.05693 27.1868 9.29142 26.6122 9.41632C26.3365 9.49663 26.1029 9.53679 25.9116 9.53679C25.6074 9.53679 25.41 9.43526 25.3192 9.23221L24.5108 9.488C24.6021 9.15128 24.7998 8.79037 25.1039 8.40525C25.1954 8.21912 25.2765 8.00104 25.347 7.751C25.4784 7.24926 25.4856 6.80244 25.3686 6.41053C24.9092 5.33485 24.1128 4.71861 22.9793 4.56182L22.9624 4.56173C22.948 4.5612 22.9334 4.56094 22.9188 4.56094C22.4215 4.56094 21.8076 4.86676 21.077 5.47842C21.0681 5.47837 21.0592 5.47835 21.0504 5.47835C20.5138 5.47835 20.1886 5.56442 20.0749 5.73655C19.8945 6.24407 20.0391 6.56766 20.5088 6.70733C20.1538 7.9037 19.8425 8.81506 19.5751 9.44142C19.2675 10.1954 18.981 10.7274 18.7154 11.0372C18.5187 11.2656 18.2872 11.4179 18.0209 11.4943L17.1965 12.2246C17.0536 12.4005 16.9886 12.7076 17.0016 13.146C17.2875 15.3567 17.676 17.2298 18.1673 18.7651C18.4952 19.6899 18.879 20.1523 19.3188 20.1523C19.3782 20.1523 19.4387 20.1438 19.5002 20.1269H19.5004L19.0549 22.9441C19.0093 23.2578 19.0344 23.4989 19.1302 23.6675C18.9087 24.8676 18.8127 25.7808 18.8422 26.4073C18.8492 26.8561 18.9098 27.3927 19.0237 28.0172C19.0153 28.1214 19.2903 29.2257 19.8489 31.3301C19.956 31.8081 20.0319 32.3659 20.0766 33.0033C19.9274 38.4226 19.9621 42.7633 20.1805 46.0255C20.2309 46.2867 20.3438 46.4368 20.5191 46.476C20.579 46.4975 20.6699 46.5083 20.7916 46.5083C20.8651 46.5083 20.95 46.5043 21.0461 46.4965H21.0464C21.0865 46.5471 21.1335 46.5942 21.1875 46.6378C21.4115 46.8162 21.7383 46.9201 22.1677 46.9495C22.3028 46.9602 22.4524 46.9655 22.6165 46.9655C22.8389 46.9655 23.088 46.9557 23.3639 46.9361H23.3641C23.7195 46.9965 24.1453 47.0781 24.6413 47.1808C24.6476 47.1809 24.6539 47.1809 24.6602 47.1809C25.0515 47.1809 25.3104 47.0124 25.4368 46.6753C25.4714 46.5582 25.4677 46.4567 25.4256 46.3708C25.1659 46.1339 25.0458 45.9773 25.0653 45.9011C25.0329 45.6457 25.0386 45.4736 25.0824 45.3848L26.4428 45.3782C26.9077 45.7655 27.3253 45.9592 27.6957 45.9592C27.7201 45.9592 27.7443 45.9584 27.7684 45.9567C28.9382 45.8309 29.5273 45.6065 29.5355 45.2835C29.5482 45.1233 29.4719 45.0081 29.3065 44.938L28.2916 44.7349C28.289 44.7413 28.2859 44.7445 28.2824 44.7445C28.2559 44.7445 28.2045 44.5628 28.1281 44.1992C28.5078 41.9899 28.539 39.4513 28.2215 36.5835L27.0273 27.4476C26.9227 26.8787 26.7984 26.3291 26.6542 25.7989L25.8449 23.0581C25.9464 22.7354 25.9844 22.5638 25.9588 22.5433C25.6161 21.75 25.3619 20.8839 25.1962 19.9449C25.0797 19.266 25.0862 18.4201 25.2157 17.4072C25.2536 17.3124 26.0233 17.0991 27.5247 16.7673C27.9051 16.6113 28.1295 16.3746 28.1979 16.0572C28.7661 16.2606 29.2182 16.3624 29.5542 16.3624C29.8418 16.3624 30.0443 16.2879 30.1618 16.1389L31.0871 15.0652L31.4114 14.7988L31.5969 14.3841L34.0017 11.3299C34.0812 11.1813 34.1326 10.9939 34.1559 10.7677C34.2115 9.51417 34.2969 8.67781 34.4121 8.25861C34.4459 8.26445 34.4775 8.26737 34.5067 8.26737C34.6467 8.26737 34.7327 8.20027 34.7648 8.06606L35.3866 8.03247C35.4065 8.21407 35.4426 8.31491 35.495 8.33501C35.534 8.35827 35.5715 8.36991 35.6076 8.36991C35.7043 8.36991 35.7903 8.28629 35.8658 8.11907C35.8763 8.38447 35.9876 8.51717 36.1996 8.51717C36.212 8.51717 36.2248 8.51671 36.238 8.5158C36.3365 8.47903 36.3968 8.42958 36.4189 8.36746L36.3904 8.0741C36.6823 7.88538 36.823 7.67617 36.8125 7.44646C36.8074 7.14112 36.6357 6.94945 36.2974 6.87145C36.27 6.86905 36.2438 6.86786 36.2186 6.86786C36.0374 6.86786 35.9137 6.92991 35.8473 7.05403C35.7814 7.18741 35.8261 7.349 35.9815 7.53881C36.0091 7.57243 35.9876 7.60992 35.9168 7.65129C35.4959 7.37644 35.1364 7.23901 34.8381 7.23901C34.7142 7.23901 34.6009 7.26273 34.4981 7.31017C34.4557 7.09417 34.3568 6.98617 34.2014 6.98617C34.1795 6.98617 34.1566 6.9883 34.1325 6.99256C33.9876 7.00597 33.9291 7.10744 33.9568 7.29697L33.0854 7.42937C33.0378 7.45445 32.9941 7.49995 32.9545 7.56588L30.686 8.28805C30.3851 8.02574 30.056 7.89459 29.6987 7.89459C29.5007 7.89459 29.2941 7.93485 29.0788 8.01536L28.9503 8.07131L30.3769 1.08806C30.3821 1.07919 30.3782 1.07027 30.3652 1.06129L30.1315 1.00002L30.1309 1ZM33.0436 8.30777L33.1242 8.74377C32.8246 8.57433 32.6681 8.46002 32.6547 8.40083C32.6439 8.3536 32.7733 8.32259 33.043 8.3078L33.0436 8.30777ZM28.3329 11.0035C28.333 11.0035 28.333 11.0035 28.3331 11.0035H28.3328C28.3328 11.0035 28.3329 11.0035 28.3329 11.0035ZM27.5572 11.914L27.2544 13.2242L26.6919 12.8958C26.7589 12.7818 26.8303 12.7074 26.9062 12.6727C26.9413 12.655 26.9842 12.6409 27.0348 12.6304L27.3124 12.5856C27.3435 12.5781 27.364 12.5684 27.3742 12.5565C27.3852 12.5414 27.3853 12.5251 27.3746 12.5076L27.2899 12.4046C27.2767 12.387 27.2662 12.3688 27.2585 12.3499C27.246 12.318 27.2442 12.2869 27.2531 12.2565C27.2776 12.1722 27.3788 12.0582 27.5566 11.9145L27.5572 11.914ZM32.2745 8.6064C32.3895 8.64291 32.4754 8.67597 32.5324 8.70556L32.5384 8.70867C32.7339 8.80679 32.8503 8.97799 32.8875 9.22229C32.9039 9.31184 32.915 9.42686 32.9209 9.56738L32.9378 10.4865C32.9502 10.6244 33.0027 10.7282 33.0955 10.798C33.0974 10.8275 33.0481 10.9025 32.9475 11.0231C32.829 11.1821 32.1083 11.9339 30.7857 13.2784C30.8188 13.176 30.8124 13.1247 30.7663 13.1247C30.7438 13.1247 30.7119 13.1369 30.6705 13.1613L29.8482 13.9178C29.719 14.0313 29.6168 14.1104 29.5414 14.1549C29.4617 14.2042 29.3889 14.2288 29.3231 14.2288C29.2979 14.2288 29.2738 14.2252 29.2506 14.218L28.8806 14.0279L28.2988 13.7923L27.8039 13.5026L28.2101 11.6498C28.5755 11.505 28.8314 11.4326 28.9778 11.4326C28.9802 11.4326 28.9826 11.4327 28.9849 11.4327C29.0532 11.4338 29.1091 11.4513 29.1527 11.4852C29.1914 11.5131 29.2316 11.5689 29.2732 11.6528C29.2772 11.659 29.2828 11.6621 29.2898 11.6621C29.2904 11.6621 29.291 11.6621 29.2917 11.662C29.3739 11.5186 29.4523 11.4381 29.527 11.4206C29.5496 11.4122 29.5845 11.4073 29.6319 11.406L30.0654 11.4172C30.1647 11.4121 30.2626 11.3989 30.3589 11.3775C30.6148 11.3184 30.8422 11.2216 31.041 11.0872C31.3415 10.8831 31.5295 10.6188 31.6051 10.2945C31.6887 10.0082 31.6991 9.49562 31.6362 8.7568L32.2745 8.6064ZM23.3191 30.22L24.1944 32.711C24.2544 32.7861 24.2925 32.8489 24.3087 32.8992C24.3273 32.9465 24.3387 33.009 24.343 33.0867C24.3483 33.2035 24.3304 33.3556 24.2892 33.5429C24.282 33.6057 24.1789 33.9992 23.9801 34.7234C23.948 34.8546 23.9313 34.9536 23.9301 35.0204C23.9284 35.0436 23.928 35.0859 23.9289 35.1475C23.9444 35.5154 23.9523 35.8366 23.9527 36.1114C23.9543 36.4164 23.9502 36.8067 23.9405 37.2821C23.9205 38.3102 23.8661 40.0855 23.7772 42.6078C23.3621 42.2153 23.1529 41.8475 23.1494 41.5045C23.1458 41.4006 23.1549 41.2815 23.1767 41.1472C23.1794 41.1122 23.2208 40.9061 23.3008 40.5289C23.3162 40.4496 23.3294 40.3692 23.3404 40.2877C23.3579 40.1555 23.3676 40.0138 23.3694 39.8626C23.3717 39.7072 23.3656 39.5192 23.3512 39.2986L23.2334 37.7827C23.2034 37.3529 23.1753 36.8922 23.1489 36.4006C23.0988 35.4491 23.0727 34.7359 23.0709 34.2611C23.0676 33.8354 23.0824 33.3675 23.1153 32.8572C23.1458 32.3468 23.2137 31.4681 23.319 30.2208L23.3191 30.22Z" fill="white"/>
</g>
<defs>
<clipPath id="clip0_103_1529">
<rect width="29" height="46" fill="white" transform="translate(11 3)"/>
</clipPath>
</defs>
</svg>
