<svg width="62" height="62" viewBox="0 0 62 62" fill="none" xmlns="http://www.w3.org/2000/svg">
<rect x="6" y="5" width="50" height="50" rx="2" fill="black"/>
<path d="M24.8037 49.6441C24.3494 50.4901 23.9881 51.3508 23.9518 52.246C23.9518 52.246 24.1257 53.0797 23.9054 53.3921C23.6744 53.7196 23.1867 53.7831 22.7902 53.8412C22.2311 53.9233 21.7606 53.5905 20.9782 53.6399C19.9829 53.7028 19.9178 53.9572 19.3829 54.0426C18.9786 54.1071 18.4083 54.1569 18.0045 54.0891C17.6809 54.0347 17.4081 54.0417 17.2611 53.7483C17.1236 53.474 17.1754 53.1516 17.385 52.9274C17.7086 52.5815 18.2889 52.521 18.8254 52.4473C19.4616 52.36 20.0413 51.9984 20.5755 51.6419C21.8005 50.8245 22.3708 49.0903 22.2946 49.1174C22.8544 47.6777 22.7344 45.8984 22.9142 44.1458C23.0487 42.8339 23.7496 42.4768 24.1687 42.1944C24.5456 41.9403 24.1242 40.8231 24.2434 40.2054C24.3911 39.44 25.0824 39.391 25.0824 39.391C25.1114 39.1439 25.0903 38.8867 25.3148 38.6786C25.1971 36.8474 25.03 34.9845 25.5316 33.5057C25.699 33.0121 25.3128 33.1368 25.1754 33.2114C23.0616 34.3595 22.3281 33.0384 21.9229 32.437C21.7579 32.1921 21.6893 32.206 21.4738 32.1892C20.8951 32.2639 20.4779 32.2694 20.1882 32.2202C20.0909 32.3908 19.9294 32.5401 19.7081 32.6694C19.6209 33.1134 19.4033 33.614 19.0421 34.0013C19.0421 34.0013 18.2781 34.7231 17.9735 35.1474C17.7579 35.4476 17.693 35.8474 17.4469 36.1231C16.9777 36.6488 16.4051 37.2026 15.7123 37.3312C15.0536 37.4535 14.3312 37.2025 13.7608 36.8511C13.2402 36.5304 12.9719 35.9165 12.5683 35.4572C12.3801 35.243 12.2628 34.9206 11.9952 34.8222C11.2898 34.5629 11.7022 34.1752 11.7629 33.8464C11.832 33.472 11.8246 33.2421 11.7474 32.9017C11.6317 32.392 11.2912 31.922 11.2983 31.3994C11.3036 31.0027 11.6837 30.6652 11.67 30.2687C11.6648 30.1183 11.5095 30.0008 11.4996 29.8506C11.4915 29.7281 11.5978 29.6169 11.5925 29.4943C11.5746 29.0783 11.1969 28.733 11.1744 28.3173C11.1404 27.6921 11.3979 27.0795 11.608 26.4897C11.7351 26.133 11.8278 25.727 12.1036 25.4675C12.1727 25.4025 12.3132 25.4373 12.3669 25.3591C12.4897 25.1803 12.249 24.8796 12.3824 24.7086C12.478 24.5862 12.712 24.6839 12.8315 24.5847C13.0306 24.4196 12.9723 24.0517 13.1723 23.8877C13.2507 23.8234 13.3911 23.8781 13.4665 23.8103C13.5528 23.7328 13.5147 23.573 13.5904 23.4851C13.6523 23.4133 13.8382 23.3457 13.8382 23.3457C13.9216 22.9791 13.838 22.6126 13.7608 22.246C13.3766 22.48 13.2353 22.1997 13.0329 22.0137C12.867 21.8613 12.7708 21.7572 12.6612 21.611C11.923 20.6272 12.3304 20.3244 12.5682 20.372C12.5682 20.372 11.6812 18.7643 11.7319 17.894C11.7628 17.3638 12.0335 16.8249 12.4134 16.4536C12.9671 15.9125 13.7611 15.5218 14.5352 15.5089C15.4822 15.4931 16.4009 16.0221 17.1681 16.5775C17.4676 16.7943 18.2022 18.2502 18.1128 19.0246C18.1128 19.0246 18.11 19.4369 18.1748 19.6286C18.2349 19.8064 18.469 20.1087 18.469 20.1087C18.469 20.1087 19.2406 19.4115 19.7236 19.2724C20.0908 19.1666 20.5275 19.4737 20.8696 19.3034C21.0287 19.2243 21.0198 18.9477 21.1794 18.8697C21.8479 18.5431 22.7406 19.2883 23.4096 18.9627C23.5926 18.8736 23.597 18.5806 23.7659 18.4671C24.0038 18.3071 24.3155 18.2713 24.6022 18.2657C24.7338 18.2632 24.8653 18.387 24.9894 18.3432C25.1034 18.3029 25.1033 18.0891 25.2217 18.0644C25.4364 18.0195 25.6007 18.2938 25.8102 18.3586C26.099 18.4481 26.4118 18.4252 26.7085 18.4825C26.8966 18.5189 27.0748 18.6315 27.2661 18.6219C28.1811 18.5762 28.9395 17.6173 29.8526 17.6927C30.2534 17.7257 30.5528 18.0883 30.9058 18.2812C31.2037 18.444 31.5488 18.5375 31.8041 18.7613C32.0572 18.9833 32.1216 19.3824 32.3926 19.5822C32.7211 19.8244 33.1514 20.0351 33.5542 19.9694C34.1727 19.8685 34.5169 19.1576 35.0565 18.8388C35.3927 18.6401 35.8037 18.5804 36.1251 18.3587C36.2453 18.2757 36.3082 18.1215 36.4349 18.0489C36.5414 17.9879 36.699 18.037 36.7911 17.956C37.1337 17.6545 37.0251 17.0485 37.3022 16.686C37.6915 16.1765 38.4359 16.0258 38.8355 15.5244C39.1566 15.1214 39.0593 14.4256 39.4705 14.115C41.4697 12.6048 45.9693 9.90329 46.053 9.73198C46.1454 9.54219 46.4798 9.78704 46.7654 10.4289C46.7654 10.4289 47.1742 10.1057 47.3695 9.93332C47.5775 9.74967 47.7312 9.49562 47.9735 9.36027C48.3419 9.15446 48.8342 9.25066 49.197 9.03503C49.5859 8.80386 50.1318 8.18414 50.6374 8.49296C51.3117 8.90485 51.3096 9.87692 51.3498 10.4754C51.3735 10.8281 51.2782 11.179 51.2259 11.5286C51.1918 11.7569 51.1818 11.9934 51.102 12.21C50.9778 12.5476 50.701 12.6792 50.2657 12.845C50.1492 12.8894 50.1418 13.1733 49.863 13.1393C49.5612 13.1025 49.1508 12.8545 49.1661 12.5508C49.181 12.2531 49.5717 12.39 49.4913 12.272C49.3751 12.1014 49.5945 11.9427 49.5378 11.8693C49.4234 11.7213 49.13 11.6243 48.9028 11.6215C48.4031 11.6155 47.4934 12.1326 47.4934 12.1326C47.607 12.5559 47.9766 12.6805 47.8341 13.4026C46.7302 14.5821 46.5492 14.1405 46.0995 14.6881C46.0995 14.6881 44.8624 16.2848 44.179 17.0268C43.2342 18.0526 42.1271 18.9199 41.1743 19.9385C40.296 20.8774 39.5939 21.976 38.6808 22.8811C37.8555 23.6992 36.5088 24.0659 36.0014 25.1114C35.3308 26.4933 33.3525 28.249 33.2291 28.0695C33.044 28.6235 32.8624 29.1844 32.718 29.8197C32.718 29.8197 33.1749 30.7616 33.1362 31.26C32.9943 33.086 31.5564 34.3266 31.5564 34.3266C31.5564 34.3266 30.9784 36.3773 30.6581 37.3932C30.4205 38.1468 30.0698 38.8674 29.8992 39.6389C29.7971 40.1004 29.8679 40.5921 29.7443 41.0483C29.6483 41.403 29.4049 41.7043 29.2952 42.055C29.154 42.5063 29.1194 42.9842 29.0319 43.4489C28.9697 43.7792 28.8532 44.104 28.8461 44.4401C28.8104 46.121 28.7594 49.774 28.6757 49.8298C27.3383 49.8848 26.0589 49.7946 24.8037 49.6439L24.8037 49.6441Z" fill="white"/>
</svg>
