<svg width="50" height="50" viewBox="0 0 50 50" fill="none" xmlns="http://www.w3.org/2000/svg">
<!--<rect width="50" height="50" rx="2" fill="black"/>-->
<path d="M40.3751 5.03543C40.405 5.06553 40.2855 5.23258 40.077 5.45334C40.0349 5.49465 39.9989 5.54271 39.9989 5.56081C39.9989 5.57911 39.9573 5.64401 39.9033 5.70972C39.8258 5.79944 39.7664 5.81109 39.5872 5.76977C39.414 5.72747 39.3542 5.73968 39.3006 5.8172C39.2587 5.87131 39.2225 5.94842 39.2225 5.99013C39.2225 6.13337 38.9416 6.92136 38.8583 6.99888C38.8107 7.04039 38.5474 7.22505 38.267 7.41078C37.6938 7.78658 37.1684 8.15649 37.0369 8.27002C36.9892 8.31744 36.6127 8.52651 36.189 8.74137C35.7709 8.95642 35.3587 9.18273 35.2689 9.24274C35.1856 9.30826 35.0897 9.35562 35.0598 9.35562C35.0001 9.36172 34.385 9.84468 33.6566 10.4538C32.8207 11.1582 32.6711 11.3011 32.5876 11.4566C32.3966 11.8206 31.2321 13.0498 30.8256 13.3179C30.5448 13.5029 30.2949 13.6824 29.9897 13.9148C29.8584 14.01 29.6076 14.2014 29.4284 14.3387C29.2496 14.4756 28.807 14.7567 28.4429 14.971C28.0847 15.1799 27.7499 15.3832 27.708 15.4249C27.5709 15.5561 26.9019 16.0148 26.6215 16.1707C26.0776 16.4689 25.8746 16.5887 25.5644 16.7909C25.3908 16.9042 25.2238 16.9939 25.1937 16.9939C25.1702 16.9939 25.0981 17.0478 25.0386 17.1134C24.9792 17.1787 24.8957 17.2328 24.8535 17.2328C24.8055 17.2328 24.6866 17.2864 24.5789 17.3523C24.4119 17.4539 24.2744 17.4712 23.6234 17.4712C22.6975 17.4712 22.6855 17.4535 23.2532 16.845C23.4679 16.6177 23.8265 16.1588 24.0471 15.8302C24.2684 15.4965 24.5015 15.1682 24.5669 15.0905C24.6264 15.0192 24.728 14.8994 24.788 14.8341C24.9131 14.6786 24.919 14.4342 24.8 14.3921C24.752 14.3687 24.7099 14.3209 24.7099 14.2847C24.7099 14.2431 24.6444 14.1715 24.5609 14.1298C24.4774 14.0874 24.4118 14.0284 24.4118 13.9983C24.4118 13.9746 24.3577 13.9508 24.2983 13.9508C24.2321 13.9508 24.1607 13.9209 24.1426 13.8908C24.1253 13.8554 24.0533 13.8313 23.9936 13.8313C23.9345 13.8313 23.874 13.8014 23.862 13.7719C23.8496 13.7359 23.6173 13.6824 23.3428 13.6584C23.0675 13.6283 22.8292 13.5811 22.8049 13.5449C22.787 13.515 22.4228 13.4431 21.9931 13.39C21.5687 13.3357 21.2047 13.2704 21.1866 13.2405C21.1687 13.2163 20.9715 13.1811 20.7389 13.163C20.5119 13.1451 20.0639 13.0617 19.7534 12.9781C19.4427 12.8945 19.0366 12.7931 18.8574 12.7571C18.4813 12.6737 16.4687 12.6263 16.3792 12.6977C16.3191 12.7449 15.979 12.7751 15.5306 12.7631C15.304 12.757 15.28 12.7451 15.244 12.5602C15.2206 12.4591 15.1785 12.3393 15.1544 12.3098C15.131 12.2736 15.0771 12.1541 15.0409 12.0294C14.9993 11.9098 14.9341 11.7965 14.8858 11.7784C14.8384 11.7611 14.7963 11.707 14.7963 11.6655C14.7963 11.6175 14.7484 11.492 14.6887 11.3785C14.6113 11.2237 14.5931 11.0568 14.5992 10.6688C14.6171 10.072 14.5632 9.81569 14.3125 9.27816C14.1989 9.0338 13.7513 8.59181 13.5121 8.49638C13.3871 8.44287 13.2498 8.35325 13.2074 8.29343C13.1418 8.20372 13.0281 8.19206 12.3655 8.19796C11.786 8.19796 11.5536 8.22182 11.422 8.29343C11.2369 8.39457 10.9085 8.53852 10.8548 8.54442C10.7833 8.55662 10.5619 8.81889 10.526 8.95032C10.502 9.02174 10.4545 9.12327 10.4185 9.17068C10.383 9.21279 10.3474 9.27809 10.335 9.32019C10.2515 9.70819 10.1799 9.93439 10.1198 10.0005C10.0844 10.0479 10.0485 10.2569 10.0363 10.4658C10.0245 10.8835 9.79194 11.4506 9.469 11.8679C9.27209 12.125 9.25996 12.1901 9.41552 12.0948C9.69022 11.916 9.83927 12.3037 9.60061 12.5782C9.53464 12.6557 9.48102 12.739 9.48102 12.7691C9.48102 12.7931 9.41548 12.8172 9.33199 12.8172C9.22448 12.8172 9.18236 12.8468 9.18236 12.9301C9.18236 12.9964 9.14008 13.0857 9.09282 13.139C8.99121 13.2348 8.97327 13.5088 9.05676 13.5629C9.093 13.581 9.12287 13.4916 9.13488 13.372C9.15241 13.1811 9.17671 13.1451 9.30194 13.127C9.4453 13.1097 9.45087 13.121 9.43295 13.354C9.41542 13.5448 9.37951 13.6105 9.26589 13.6524C9.0989 13.7177 9.09299 13.9508 9.25387 13.9508C9.31413 13.9508 9.37938 13.9923 9.39749 14.0403C9.42762 14.1178 9.45697 14.1178 9.64207 14.0403C9.7614 13.9923 9.88737 13.9508 9.92872 13.9508C10.0484 13.9508 10.0842 14.2786 9.9828 14.4816C9.8871 14.6725 9.82744 14.6967 9.36745 14.7506C9.10476 14.7801 8.90789 14.8934 9.04474 14.9476C9.08078 14.959 9.18841 15.0371 9.28392 15.1205C9.37351 15.198 9.48075 15.2634 9.52309 15.2634C9.55853 15.2634 9.64831 15.3469 9.71959 15.4423C9.79206 15.5377 9.88727 15.6219 9.93473 15.6219C9.98297 15.6219 10.0183 15.6633 10.0183 15.7113C10.0183 15.7587 10.0725 15.8008 10.1378 15.8008C10.2456 15.8008 10.2574 15.8423 10.2574 16.1346C10.2574 16.4571 10.2452 16.4812 9.97679 16.7315C9.81532 16.8747 9.67171 16.9939 9.64808 16.9939C9.58842 16.9939 9.30194 17.2863 9.30194 17.3463C9.30194 17.3756 9.26587 17.4298 9.21841 17.4652C9.08707 17.5789 9.0508 17.8178 9.12287 18.1635C9.17643 18.4266 9.24189 18.5333 9.51107 18.7964C9.89328 19.1663 10.0662 19.3212 10.1078 19.3212C10.1681 19.3212 10.7174 19.9003 10.7532 19.9955C10.7776 20.0557 10.8306 20.097 10.8788 20.097C10.9261 20.097 10.9797 20.1447 10.9978 20.1984C11.0157 20.2584 11.1291 20.3715 11.243 20.4494C11.3562 20.5269 11.4521 20.6101 11.4521 20.6404C11.4521 20.6695 11.4934 20.6938 11.5416 20.6938C11.5891 20.6938 11.6312 20.7179 11.6312 20.7478C11.6312 20.7774 11.721 20.8315 11.8283 20.8787C11.9301 20.9208 12.0317 20.9743 12.0488 20.9922C12.1331 21.0997 13.172 21.4694 13.6377 21.553C13.9303 21.613 14.2765 21.6784 14.4081 21.7086C14.5396 21.7379 14.76 21.7798 14.8978 21.804C15.0408 21.8215 15.1544 21.8576 15.1544 21.8875C15.1544 21.9109 15.2023 21.9472 15.262 21.9649C15.3158 21.9891 15.4829 22.0724 15.6322 22.1619C16.0201 22.3943 16.5763 22.6633 16.6718 22.6633C16.7195 22.6633 16.7672 22.6868 16.7794 22.7167C16.7906 22.7527 17.0661 22.8482 17.3941 22.9317C17.723 23.0155 18.0748 23.1226 18.1705 23.17C18.2719 23.2121 18.4154 23.2775 18.4992 23.3135C18.7493 23.4212 19.3531 23.8271 19.6873 24.1133C19.8011 24.2088 19.9686 24.3166 20.0641 24.3457C20.1537 24.376 20.2311 24.4291 20.2311 24.4592C20.2311 24.4891 20.2848 24.5132 20.3507 24.5132C20.4165 24.5132 20.6134 24.6563 20.7924 24.8291L21.1151 25.1455L20.9655 25.4914C20.8881 25.6822 20.8285 25.8973 20.8399 25.9687C20.846 26.0348 20.8346 26.1241 20.8165 26.1542C20.7745 26.2198 20.5832 28.0637 20.5893 28.3321C20.5893 28.4155 20.5773 28.6125 20.5532 28.7794C20.5355 28.9409 20.512 29.1973 20.4998 29.3468C20.4877 29.4955 20.4343 29.896 20.3802 30.2415C20.2967 30.779 20.2726 31.2445 20.2966 32.1215C20.3087 32.6405 20.2132 34.1201 20.1596 34.2933C20.1238 34.4127 20.1112 34.6692 20.1356 34.9261C20.1769 35.3735 20.1236 35.7374 19.9265 36.3582C19.8609 36.5551 19.8012 36.8236 19.7949 36.955C19.7829 37.0859 19.7535 37.2355 19.7354 37.2829C19.7175 37.3313 19.6873 37.5221 19.6759 37.7008C19.5262 39.3716 19.3891 40.7741 19.3351 41.0422C19.2989 41.2221 19.2336 41.7052 19.1861 42.1164C19.0365 43.3698 19.0486 43.3342 18.7378 43.3696C18.5173 43.3936 18.4693 43.4237 18.4392 43.5431C18.3978 43.728 18.105 43.8949 17.6988 43.9724C17.3345 44.0379 17.167 44.2053 16.8449 44.8497C16.5875 45.3567 16.4747 45.4585 16.14 45.4585C15.5193 45.4585 15.1666 45.769 15.244 46.2343C15.2682 46.3651 15.3576 46.562 15.4411 46.6576L15.5967 46.8425L17.5972 46.8071C18.7023 46.7894 19.8904 46.7532 20.2372 46.7236C20.7986 46.6817 20.8819 46.6635 21.0316 46.5207C21.2699 46.2997 21.2525 46.0611 20.924 45.1901C20.876 45.0587 20.8346 44.7961 20.8285 44.6053C20.8285 44.3544 20.8043 44.253 20.7389 44.2288C20.6072 44.1755 20.6254 43.7937 20.7684 43.5605C20.8345 43.4537 20.888 43.3224 20.888 43.2681C20.888 43.167 21.1505 42.2422 21.2401 42.027C21.27 41.9617 21.3416 41.7347 21.3958 41.5202C21.4552 41.3053 21.5871 40.9417 21.6944 40.7144C21.8017 40.4813 21.9633 40.1416 22.0466 39.9566C22.2911 39.4193 22.6199 37.2354 22.6199 36.1432C22.6199 35.7198 22.8107 34.8963 23.0736 34.1624C23.1628 33.9235 23.2589 33.6249 23.2947 33.4941C23.3246 33.3626 23.4263 33.0105 23.5159 32.7183C23.8981 31.4766 24.2205 30.3971 24.7159 28.7199C24.8112 28.3916 24.919 28.0759 24.9491 28.0216C24.9851 27.9622 25.0086 27.8606 25.0086 27.7953C25.0086 27.6756 25.1997 27.1504 25.4689 26.5121C25.5524 26.315 25.642 26.1005 25.666 26.0348C25.6953 25.9686 25.7557 25.8196 25.803 25.7063C25.8511 25.5928 25.9227 25.3898 25.9647 25.259C26.006 25.1275 26.0602 24.9909 26.0836 24.9606C26.2272 24.7577 26.3407 24.0833 26.3348 23.4685C26.3289 23.1045 26.3525 22.7167 26.3883 22.6032C26.4899 22.2634 26.8419 21.5713 27.0097 21.3981C27.0932 21.3086 27.1587 21.2132 27.1587 21.1772C27.1587 21.1473 27.2243 21.0696 27.3083 21.0042C27.3922 20.9389 27.4574 20.8608 27.4574 20.8313C27.4574 20.8012 27.6364 20.5982 27.8636 20.3834C28.467 19.7925 29.4224 18.7965 29.7566 18.3965C30.0793 18.0148 30.0913 18.0025 30.8917 17.1374C31.1899 16.8149 31.423 16.5223 31.423 16.4751C31.417 16.4328 31.4348 16.3976 31.459 16.3976C31.6321 16.3976 33.3339 14.6432 33.7281 14.0643C33.9314 13.7719 34.2538 13.4134 34.3134 13.4134C34.343 13.4134 34.4269 13.3421 34.5106 13.2585C34.5879 13.1692 34.7497 13.0376 34.8627 12.9601C35.8422 12.31 36.123 12.0589 36.9534 11.0867C38.2136 9.60082 38.6795 9.06911 38.8824 8.86626C39.0025 8.74132 39.1035 8.61586 39.1035 8.59186C39.1035 8.52063 39.5572 8.30559 39.9274 8.19796C40.1066 8.14484 40.3515 8.01298 40.4947 7.89414C40.6321 7.77491 40.8112 7.66735 40.8949 7.64315C40.9784 7.62545 41.0979 7.57768 41.1635 7.54168C41.2293 7.50626 41.4439 7.42206 41.6412 7.35674L42 7.23725L41.982 6.94484C41.9639 6.62925 41.8152 6.24702 41.6352 6.03216C41.5703 5.96664 41.4802 5.84709 41.4327 5.76977C41.3849 5.69756 41.2952 5.58421 41.2416 5.52479C41.1816 5.46537 41.1341 5.39338 41.1341 5.36387C41.1341 5.32786 41.056 5.25635 40.955 5.19635C40.8587 5.14283 40.7753 5.07144 40.7753 5.04744C40.7753 5.02343 40.68 5 40.5548 5C40.4352 5 40.3516 5.01732 40.3751 5.03543ZM21.9991 15.3889C22.0826 15.4784 22.0766 15.5025 21.969 15.7053C21.8974 15.8242 21.8435 15.9617 21.8435 16.0097C21.8435 16.1166 21.4913 16.6361 21.3958 16.678C21.3536 16.6898 21.3005 16.7673 21.2822 16.851C21.2585 16.9283 21.2105 16.9939 21.1686 16.9939C21.1271 16.9939 21.0609 17.0478 21.0196 17.1134C20.9774 17.1787 20.8822 17.2328 20.7924 17.2328C20.7148 17.2328 20.5893 17.2864 20.5178 17.3523C20.4461 17.4179 20.3269 17.4712 20.2552 17.4712C20.1175 17.4712 19.8129 17.3583 19.7534 17.2863C19.7353 17.2688 19.6756 17.2384 19.6158 17.2148C19.562 17.1906 19.5024 17.1433 19.4902 17.1013C19.3533 16.612 19.3049 16.4752 19.2336 16.3916C19.192 16.3434 19.1561 16.2721 19.1561 16.2361C19.1561 16.2068 19.0784 16.0992 18.977 16.0037C18.8273 15.8603 18.804 15.7827 18.7979 15.5378V15.2514L20.3507 15.2754C21.6586 15.2937 21.915 15.3116 21.9991 15.3889Z" fill="white"/>
</svg>
