<svg width="50" height="50" viewBox="0 0 50 50" fill="none" xmlns="http://www.w3.org/2000/svg">
<rect width="50" height="50" rx="2" fill="black"/>
<g clip-path="url(#clip0_103_1517)">
<path d="M24.9776 4.66336C24.9689 4.67208 24.873 4.69247 24.7655 4.70993C24.4952 4.74778 23.8994 4.9807 23.7832 5.09425C23.7541 5.12337 23.7018 5.1583 23.6669 5.17577C23.4664 5.26602 23.3414 5.40868 23.1932 5.71148C23.1467 5.80756 23.0973 5.8949 23.0799 5.90654C23.0654 5.91819 23.0595 5.92984 23.0712 5.92984C23.0915 5.92984 23.077 5.98515 22.9636 6.30833C22.8939 6.50631 22.8852 6.57327 22.8794 7.00125C22.8736 7.51659 22.8619 7.5457 22.7137 7.51659C22.6323 7.49912 22.4841 7.5457 22.4493 7.59811C22.3882 7.69419 22.4493 8.35218 22.551 8.68118C22.5829 8.79181 22.6091 8.89662 22.6062 8.91118C22.5975 8.9403 22.7312 9.12081 22.8416 9.22562C22.8881 9.2722 22.9578 9.30714 22.9956 9.30714C23.0654 9.30714 23.0654 9.31005 23.0654 9.63322C23.0654 9.81082 23.077 9.99715 23.0944 10.0466C23.109 10.0961 23.1351 10.198 23.1555 10.2737C23.1729 10.3524 23.1961 10.4135 23.2078 10.4135C23.2165 10.4135 23.2572 10.4746 23.2979 10.5503C23.3385 10.626 23.4054 10.7279 23.4519 10.7745C23.4955 10.824 23.5333 10.8764 23.5333 10.8939C23.5391 10.9521 23.5478 10.9812 23.571 11.0278C23.5827 11.054 23.5885 11.1268 23.5827 11.1879C23.5768 11.2695 23.5565 11.3102 23.5071 11.3335C23.4722 11.351 23.4112 11.3947 23.3734 11.4296C23.3385 11.4616 23.2862 11.4907 23.2601 11.4907C23.2339 11.4907 23.2107 11.5024 23.2107 11.5169C23.2107 11.5315 23.17 11.5577 23.1235 11.5781C23.0741 11.5985 23.0218 11.6392 23.0043 11.6683C22.9898 11.7004 22.9578 11.7237 22.9346 11.7237C22.9142 11.7237 22.891 11.7528 22.8852 11.7877C22.8794 11.8401 22.8532 11.8576 22.7747 11.8634C22.7195 11.8692 22.6614 11.8867 22.644 11.9012C22.6294 11.9158 22.5829 11.9275 22.5393 11.9275C22.4957 11.9275 22.4463 11.9478 22.426 11.9711C22.4057 11.9944 22.3563 12.0148 22.3185 12.0148C22.1964 12.0148 21.932 12.1051 21.932 12.1458C21.932 12.1691 21.868 12.1895 21.7372 12.2011C21.5047 12.2244 21.4176 12.2623 21.2228 12.4195L21.0775 12.533L20.9758 12.4573C20.9177 12.4137 20.8363 12.3525 20.7956 12.3205C20.755 12.2856 20.6445 12.2361 20.5544 12.207C20.4643 12.1778 20.3917 12.1429 20.3917 12.1283C20.3917 12.1138 20.2231 12.1021 20.0168 12.1021C19.7116 12.1021 19.639 12.1109 19.6245 12.1458C19.6157 12.172 19.5721 12.1895 19.5227 12.1895C19.4733 12.1895 19.392 12.207 19.3397 12.2302C19.2873 12.2535 19.2234 12.2797 19.2002 12.2885C19.1072 12.3234 18.77 12.5884 18.6596 12.7136C18.5114 12.8795 18.4416 12.9872 18.3719 13.1503C18.3428 13.2231 18.3021 13.3017 18.2818 13.325C18.2644 13.3483 18.2382 13.4152 18.2266 13.4705C18.215 13.5259 18.1946 13.5899 18.183 13.6161C18.0842 13.8083 18.0057 14.5216 18.0638 14.6963C18.0813 14.7516 18.0958 14.8069 18.0929 14.8185C18.0929 14.8331 18.1191 14.868 18.151 14.8942C18.1859 14.9234 18.2121 14.9612 18.2121 14.9758C18.2121 14.9932 18.2324 15.0223 18.2556 15.0427C18.3051 15.0835 18.3196 15.4358 18.2731 15.4649C18.2556 15.4736 18.2353 15.5435 18.2237 15.6192C18.215 15.6949 18.183 15.8288 18.1539 15.9162C18.1191 16.021 18.1016 16.1578 18.1045 16.3121C18.1074 16.5305 18.1016 16.5567 18.0261 16.6469C17.9825 16.6993 17.9331 16.7721 17.9185 16.81C17.904 16.8478 17.8808 16.8769 17.8662 16.8769C17.8517 16.8769 17.8255 16.9206 17.8052 16.9701C17.7674 17.0749 17.6977 17.2409 17.657 17.3195C17.6424 17.3486 17.6308 17.3923 17.6308 17.4156C17.6308 17.4389 17.6192 17.4592 17.6076 17.4592C17.5727 17.4592 17.5582 17.7591 17.5582 18.4783C17.5582 19.5322 17.5727 19.8059 17.6395 19.9282C17.6715 19.9864 17.718 20.0504 17.7442 20.0708C17.7703 20.0883 17.7819 20.1145 17.7703 20.1232C17.7209 20.1727 18.0522 20.5454 18.1423 20.5454C18.1801 20.5454 18.2179 20.557 18.2266 20.5745C18.2353 20.592 18.3777 20.6036 18.5463 20.6036C18.7148 20.6036 18.8572 20.592 18.8659 20.5745C18.8747 20.557 18.9473 20.5454 19.0258 20.5454C19.1043 20.5454 19.1769 20.5308 19.1856 20.5163C19.1943 20.4988 19.2292 20.4872 19.2583 20.4872C19.3367 20.4872 19.6245 20.327 19.7204 20.231C19.8569 20.097 20.2464 19.6516 20.2464 19.6312C20.2464 19.6225 20.3248 19.5147 20.4207 19.3925C20.5166 19.2731 20.5951 19.1595 20.5951 19.145C20.5951 19.1304 20.6126 19.1188 20.6329 19.1188C20.6561 19.1188 20.7201 19.0489 20.7811 18.9616C20.8392 18.8771 20.9264 18.7694 20.9729 18.7228C21.0194 18.6762 21.0601 18.6296 21.0601 18.618C21.0601 18.6064 21.095 18.5598 21.1415 18.5161C21.2228 18.4317 21.3507 18.2599 21.3507 18.2308C21.3507 18.222 21.3769 18.1842 21.4088 18.1522C21.4408 18.1172 21.5106 17.9979 21.5629 17.8901C21.6471 17.7096 21.7198 17.6397 21.7343 17.7271C21.7431 17.797 21.7547 18.0823 21.7663 18.4783C21.775 18.6937 21.7866 18.8917 21.7954 18.915C21.8041 18.9383 21.8331 19.11 21.8593 19.2935C21.9378 19.8874 21.9029 20.426 21.7634 20.7259C21.7285 20.7987 21.6907 20.9006 21.682 20.9501C21.6704 20.9967 21.6384 21.0607 21.6094 21.0869C21.5774 21.1131 21.5542 21.1597 21.5542 21.1888C21.5542 21.2733 21.496 21.5062 21.4379 21.6517C21.3158 21.9545 21.2752 22.4728 21.3507 22.7581C21.4176 23.0143 21.4176 23.0725 21.3536 23.1541C21.3217 23.1948 21.3013 23.2443 21.31 23.2589C21.3275 23.288 21.2112 23.5442 21.1647 23.5762C21.1502 23.5879 21.1473 23.6083 21.1589 23.6257C21.1676 23.6432 21.1618 23.6665 21.1444 23.6781C21.1269 23.6869 21.1182 23.7334 21.1298 23.78C21.1386 23.8237 21.1357 23.8703 21.1211 23.8761C21.1066 23.8848 21.0804 24.0217 21.0601 24.176C21.0398 24.3332 21.0078 24.4933 20.9874 24.5341C20.9671 24.5749 20.9439 24.6709 20.9322 24.7466C20.9235 24.8253 20.8974 24.9301 20.8741 24.9795C20.8509 25.032 20.816 25.2037 20.7985 25.3639C20.7782 25.524 20.752 25.6929 20.7375 25.7365C20.723 25.7831 20.7026 25.9083 20.6939 26.0131C20.6823 26.1209 20.6649 26.2198 20.6532 26.2373C20.6416 26.2519 20.6242 26.3509 20.6126 26.4557C20.5719 26.8633 20.5486 27.003 20.5166 27.0409C20.4992 27.0642 20.476 27.134 20.4643 27.1981C20.4353 27.3815 20.383 27.6028 20.3626 27.6348C20.351 27.6494 20.3277 27.7484 20.3074 27.8532C20.29 27.958 20.2551 28.1065 20.2318 28.188C20.1563 28.4617 20.1011 29.1342 20.1011 29.7718C20.1011 30.2842 20.0923 30.4036 20.0575 30.4444C20.0342 30.4706 20.0023 30.5608 19.9848 30.6482C19.9674 30.7326 19.9354 30.8403 19.9122 30.8869C19.8453 31.0238 19.7843 31.4168 19.7552 31.8855C19.7204 32.4911 19.607 33.679 19.578 33.7489C19.5489 33.8217 19.4908 34.2613 19.4908 34.4273C19.4908 34.5321 19.5024 34.5554 19.5634 34.5787C19.6041 34.5932 19.6361 34.6223 19.6361 34.6427C19.639 34.6951 19.8599 34.8552 19.9935 34.9018C20.0517 34.9222 20.1011 34.9484 20.1011 34.9601C20.1011 34.995 20.2754 35.0445 20.3917 35.0445C20.4672 35.0445 20.5254 35.0678 20.5951 35.1318C20.6474 35.1784 20.7056 35.2192 20.7201 35.2192C20.7317 35.2192 20.7637 35.2396 20.7869 35.2629C20.8131 35.2861 20.8683 35.3065 20.9119 35.3065C20.9584 35.3065 21.031 35.3415 21.0892 35.3939C21.2199 35.5103 21.2374 35.6297 21.249 36.4129C21.2577 36.9573 21.2723 37.263 21.3071 37.6939C21.3129 37.7492 21.3304 37.8482 21.3478 37.9123C21.3653 37.9763 21.3798 38.0753 21.3798 38.1306C21.3798 38.186 21.4059 38.3082 21.435 38.3985C21.467 38.4888 21.4844 38.5907 21.4757 38.6227C21.467 38.6576 21.4815 38.7158 21.5077 38.7566C21.5338 38.7945 21.5542 38.8818 21.5542 38.9459C21.5542 39.0099 21.5658 39.0856 21.5803 39.1147C21.6297 39.2137 21.6675 39.3098 21.6849 39.3971C21.6936 39.4437 21.7169 39.5427 21.7314 39.6155C21.746 39.6883 21.7721 39.8047 21.7837 39.8775C21.8331 40.1425 21.9058 40.4482 21.932 40.518C21.9494 40.5588 21.9814 40.716 22.0075 40.8674C22.0308 41.0188 22.0773 41.3012 22.1121 41.4934C22.2168 42.1077 22.2109 42.9054 22.0976 43.38C22.0627 43.5256 22.0104 43.5926 21.6995 43.8662C21.4873 44.0526 21.2984 44.2476 21.2345 44.3466C21.1734 44.4398 20.9816 44.6232 20.9468 44.6232C20.9322 44.6232 20.8276 44.6669 20.7201 44.7222C20.6126 44.7746 20.4847 44.8299 20.4353 44.8387C20.3888 44.8503 20.3423 44.8707 20.3336 44.8823C20.3248 44.8969 20.2551 44.9406 20.1737 44.9813C19.9935 45.0745 19.7872 45.2696 19.7639 45.3744C19.7523 45.418 19.732 45.4704 19.7145 45.4908C19.6971 45.5141 19.6826 45.6684 19.6826 45.8373C19.6797 46.1896 19.6913 46.207 19.9122 46.2391C20.1418 46.2682 20.8276 46.2653 20.9787 46.2332C21.0659 46.2158 21.1822 46.1546 21.2839 46.076C21.5018 45.9101 21.5512 45.8839 21.7053 45.8664C21.9494 45.8344 22.0191 45.8082 22.0918 45.7237C22.1325 45.6772 22.1645 45.6248 22.1645 45.6102C22.1645 45.5607 22.3475 45.3511 22.3911 45.3511C22.4115 45.3511 22.4376 45.3249 22.4463 45.2928C22.4551 45.2608 22.4783 45.2346 22.4957 45.2346C22.5161 45.2346 22.5597 45.2084 22.5946 45.1764C22.6294 45.1444 22.6701 45.1182 22.6905 45.1182C22.7079 45.1182 22.7718 45.092 22.83 45.0599C23.0683 44.9289 23.4897 44.8328 23.8442 44.8299C23.9808 44.827 24.0099 44.8154 24.1232 44.7106C24.3266 44.5213 24.3557 44.335 24.254 43.8662C24.1436 43.3538 24.036 42.6434 23.9808 42.0466C23.914 41.3187 23.8616 39.7669 23.9023 39.6999C23.9227 39.6708 23.9372 39.6242 23.9372 39.6009C23.9372 39.5776 23.9837 39.4175 24.0389 39.2457C24.1842 38.8032 24.2191 38.4218 24.1755 37.79C24.1406 37.3096 24.0476 36.6574 23.9982 36.5439C23.9837 36.5119 23.9634 36.4303 23.9546 36.3634C23.943 36.2935 23.9169 36.18 23.8907 36.1072C23.8675 36.0344 23.85 35.9063 23.8558 35.8219L23.8646 35.6705L24.1552 35.6326C24.4981 35.5889 25.367 35.6035 25.5589 35.6588C25.6286 35.6763 25.6925 35.7141 25.7013 35.7403C25.7216 35.8102 25.771 35.9237 25.8059 35.9907C25.8233 36.0227 25.8524 36.081 25.8727 36.1217C25.9279 36.2265 26.0907 36.3721 26.175 36.3925C26.2156 36.4041 26.4685 36.4129 26.7388 36.4129C27.0061 36.4158 27.2648 36.4303 27.3113 36.4478C27.3578 36.4653 27.4159 36.5119 27.4391 36.5555C27.4595 36.5992 27.5002 36.6516 27.5234 36.672C27.5496 36.6953 27.5699 36.736 27.5699 36.7652C27.5699 36.7972 27.5845 36.8205 27.599 36.8205C27.6164 36.8205 27.628 36.8409 27.628 36.8642C27.628 36.8874 27.6426 36.9078 27.6571 36.9078C27.6745 36.9078 27.6862 36.9253 27.6862 36.9486C27.6862 36.969 27.7385 37.0883 27.8024 37.2135C27.8664 37.3387 27.9187 37.4552 27.9187 37.4756C27.9187 37.493 27.9448 37.5338 27.9768 37.5629C28.0088 37.592 28.0349 37.6357 28.0349 37.659C28.0349 37.6823 28.064 37.7551 28.0959 37.822C28.1308 37.8861 28.1686 37.9647 28.1831 37.9909C28.1977 38.02 28.2093 38.0608 28.2093 38.0841C28.2093 38.1073 28.2209 38.1306 28.2325 38.1365C28.2442 38.1394 28.2907 38.2296 28.3342 38.3344C28.3807 38.4393 28.4272 38.547 28.4447 38.5732C28.4825 38.6431 28.4767 38.7624 28.4302 38.9953C28.3575 39.3418 28.311 40.0522 28.3488 40.2065C28.3691 40.2793 28.3837 40.4016 28.3837 40.4802C28.3866 40.5559 28.4069 40.7044 28.4302 40.8092C28.4767 41.0043 28.5144 41.2022 28.5435 41.406C28.5551 41.4701 28.5726 41.5487 28.5842 41.5807C28.5987 41.6128 28.6423 41.7496 28.683 41.8864C28.8486 42.4454 28.9184 42.6463 28.9416 42.6609C28.9533 42.6696 28.9649 42.7075 28.9649 42.7482C28.9649 42.789 28.9881 42.8822 29.0201 42.9579C29.1422 43.2694 29.2904 43.741 29.2904 43.8284C29.2904 43.8662 29.302 43.8953 29.3165 43.8953C29.3311 43.8953 29.3427 43.907 29.3427 43.9215C29.3427 43.9361 29.3572 43.9856 29.3776 44.0322C29.395 44.0759 29.427 44.1778 29.4473 44.2593C29.4677 44.3379 29.5112 44.5155 29.5432 44.6523C29.5781 44.7892 29.6188 44.9813 29.6333 45.0803C29.6711 45.3249 29.6478 45.8751 29.5868 46.1372C29.5258 46.4138 29.5258 46.8505 29.5868 47.0834C29.6391 47.2756 29.6478 47.6395 29.6042 47.7967C29.5723 47.9161 29.4822 48.4401 29.4735 48.5682C29.4618 48.7488 29.4182 48.8885 29.3543 48.9584C29.3165 48.9991 29.2846 49.0428 29.2846 49.0545C29.2846 49.0661 29.2381 49.1185 29.1799 49.1709C29.0666 49.2786 29.0259 49.4067 29.023 49.66C29.0201 49.8202 28.9678 50.0764 28.9271 50.1142C28.8951 50.1463 28.9039 50.2947 28.9358 50.3151C28.9533 50.3239 28.9649 50.3588 28.9649 50.3879C28.9649 50.4199 28.991 50.4578 29.0201 50.4753C29.0898 50.5102 29.3921 50.5131 29.5054 50.4782C29.7263 50.4083 29.7728 50.4141 29.8745 50.5189C30.0024 50.6499 30.0925 50.682 30.2 50.6354C30.2494 50.6179 30.3046 50.5801 30.3279 50.5539C30.3569 50.5189 30.4151 50.5044 30.54 50.5044C30.7144 50.5044 30.8219 50.4694 30.8626 50.3996C30.8771 50.3734 30.9411 50.3588 31.0428 50.3588C31.1852 50.3588 31.2143 50.3471 31.3189 50.254C31.3828 50.1958 31.4438 50.1171 31.4526 50.0822C31.4613 50.0473 31.5194 49.989 31.5804 49.9541C31.6473 49.9163 31.7403 49.8202 31.8129 49.7095L31.935 49.529L31.9234 49.267C31.9176 49.0981 31.8943 48.9729 31.8652 48.9176C31.8391 48.8681 31.81 48.807 31.8013 48.7779C31.7926 48.7458 31.7577 48.7167 31.7257 48.708C31.6938 48.6993 31.6676 48.6789 31.6676 48.6643C31.6676 48.6469 31.6415 48.6003 31.6124 48.5566C31.5804 48.5129 31.5456 48.4401 31.5368 48.3906C31.5252 48.3441 31.4991 48.2538 31.4787 48.1898C31.4555 48.1257 31.4235 47.9656 31.4032 47.8316C31.3654 47.5813 31.3886 47.3571 31.4816 47.0863C31.5601 46.8621 31.5078 46.4109 31.3741 46.1634C31.3334 46.0819 31.3218 45.9799 31.2985 45.4239C31.2811 44.9522 31.3276 43.5955 31.377 43.1966C31.3915 43.0772 31.4235 42.6056 31.4468 42.1485C31.4845 41.4293 31.4845 41.2401 31.4497 40.7364C31.4264 40.4161 31.409 40.0464 31.4061 39.9154C31.4061 39.7844 31.3915 39.6417 31.3741 39.5951C31.3567 39.5514 31.3363 39.4466 31.3305 39.368C31.3218 39.2224 31.1968 38.7653 31.1503 38.7013C31.1358 38.6838 31.1067 38.6023 31.0893 38.5237C31.0254 38.2733 30.9585 38.0899 30.9062 38.0171C30.8771 37.9792 30.8539 37.9123 30.8539 37.8686C30.8539 37.7696 30.7696 37.5163 30.7173 37.4668C30.697 37.4464 30.6795 37.4028 30.6795 37.3737C30.6795 37.3445 30.6679 37.3125 30.6534 37.3038C30.6388 37.2951 30.6185 37.2514 30.6069 37.2077C30.5982 37.1611 30.572 37.0854 30.5517 37.0388C30.3918 36.6633 30.3918 36.6691 30.3802 36.2324C30.3715 35.9354 30.3773 35.7927 30.4005 35.7636C30.418 35.7432 30.4906 35.7025 30.5633 35.6734C30.6359 35.6442 30.7464 35.5977 30.8103 35.5686C31.1387 35.4201 31.2055 35.3939 31.2404 35.3939C31.2608 35.3939 31.2898 35.3822 31.3044 35.3706C31.3218 35.356 31.4264 35.3153 31.5368 35.2774C31.6502 35.2396 31.7781 35.1726 31.8275 35.126L31.9117 35.0474L31.8623 34.8931C31.8362 34.8087 31.7955 34.666 31.7722 34.5787C31.749 34.4913 31.717 34.3778 31.6996 34.3312C31.656 34.2002 31.5572 33.7955 31.5368 33.6615C31.5281 33.5975 31.502 33.4665 31.4816 33.3704C31.4584 33.2743 31.4119 33.0589 31.377 32.89C31.3421 32.7211 31.3014 32.5377 31.2898 32.4824C31.2753 32.4271 31.2491 32.3135 31.2288 32.2349C31.2084 32.1534 31.1823 32.0748 31.1707 32.0602C31.159 32.0428 31.1067 31.8593 31.0544 31.6526C31.0021 31.443 30.9382 31.2421 30.912 31.2014C30.883 31.1606 30.8452 31.0179 30.8277 30.8811C30.79 30.5987 30.7202 30.2959 30.665 30.1678C30.5575 29.9232 30.5371 29.8592 30.5081 29.6583C30.4906 29.5389 30.4616 29.3555 30.4441 29.2507C30.4267 29.1459 30.4034 28.9566 30.3889 28.8285C30.3773 28.7004 30.3395 28.386 30.3075 28.1298C30.2756 27.8736 30.2407 27.5708 30.2291 27.4601C30.2174 27.3466 30.1826 27.1311 30.1506 26.9797C30.1186 26.8283 30.0779 26.6042 30.0576 26.4848C30.0373 26.3654 30.0053 26.2257 29.985 26.1791C29.9617 26.1296 29.9385 26.0219 29.9297 25.9374C29.9239 25.853 29.9065 25.7773 29.892 25.7686C29.8774 25.7598 29.8658 25.7103 29.8658 25.655C29.8658 25.6026 29.8425 25.4774 29.8106 25.3755C29.7815 25.2736 29.7408 25.1222 29.7205 25.0436C29.7001 24.9621 29.6653 24.8777 29.642 24.8515C29.6217 24.8282 29.6042 24.7903 29.6042 24.7699C29.6042 24.7525 29.5577 24.6389 29.5025 24.5225C29.4473 24.4031 29.4008 24.2924 29.4008 24.275C29.4008 24.2575 29.3863 24.2429 29.3717 24.2429C29.3427 24.2429 29.1683 23.8907 29.1683 23.8324C29.1683 23.8179 29.1451 23.7567 29.1131 23.6956C28.9678 23.4015 28.9329 22.7261 29.055 22.4961C29.1015 22.4116 29.1102 22.3272 29.1102 21.972C29.1102 21.7391 29.1305 21.413 29.1538 21.2441C29.1916 20.9559 29.3078 20.557 29.363 20.5192C29.3979 20.4959 29.4589 20.2804 29.4589 20.1815C29.4589 20.1378 29.4851 20.0708 29.5171 20.0301C29.549 19.9893 29.5752 19.9252 29.5752 19.8874C29.5752 19.8437 29.5926 19.8175 29.6217 19.8175C29.6566 19.8175 29.6653 19.835 29.6536 19.8787C29.642 19.9194 29.6595 19.966 29.706 20.0155C29.7437 20.0563 29.7815 20.132 29.7931 20.1873C29.8019 20.2426 29.828 20.2921 29.8513 20.3008C29.8716 20.3096 29.8978 20.3591 29.9065 20.4115C29.9181 20.4639 29.9501 20.5337 29.982 20.5658C30.0489 20.6386 30.1564 20.8365 30.1564 20.886C30.1564 20.9996 30.5517 21.3664 30.8132 21.4945C31.0254 21.5964 31.0428 21.6023 31.2608 21.5848C31.3886 21.5761 31.531 21.5498 31.5833 21.5236C31.6357 21.4974 31.6996 21.4771 31.7316 21.4771C31.7606 21.4771 31.7839 21.4654 31.7839 21.4509C31.7839 21.4363 31.842 21.3897 31.9147 21.349C31.9873 21.3053 32.0948 21.2034 32.1559 21.119C32.2779 20.9559 32.2866 20.9122 32.3331 20.3765C32.3477 20.1931 32.368 20.097 32.3971 20.0708C32.4232 20.0534 32.4843 19.9252 32.5366 19.7913C32.6238 19.57 32.6325 19.5147 32.6354 19.2061C32.6383 18.9848 32.6296 18.8422 32.6063 18.7956C32.5395 18.6675 32.4523 18.42 32.4523 18.3647C32.4523 18.3327 32.4319 18.3036 32.4087 18.2919C32.3854 18.2832 32.3651 18.2482 32.3651 18.2162C32.3651 18.1842 32.3389 18.1085 32.307 18.0503C32.275 17.9891 32.2489 17.9163 32.2489 17.8872C32.2489 17.8581 32.2285 17.829 32.2053 17.8203C32.182 17.8086 32.1617 17.7737 32.1617 17.7387C32.1617 17.7067 32.1297 17.5786 32.0919 17.4592C32.0541 17.3399 31.9873 17.1215 31.9437 16.9788C31.9001 16.8333 31.8507 16.6761 31.8333 16.6295C31.7868 16.513 31.7897 15.6774 31.8362 15.5231C31.8885 15.3513 31.9117 14.6817 31.874 14.475C31.8042 14.0761 31.7548 13.9102 31.656 13.7238C31.5979 13.619 31.5514 13.5171 31.5514 13.4996C31.5514 13.4822 31.5368 13.4531 31.5223 13.4327C31.4584 13.3599 31.2898 13.0775 31.2898 13.0455C31.2898 13.0251 31.2782 13.0047 31.2666 12.9989C31.2549 12.9931 31.1997 12.9232 31.1445 12.8446C31.0893 12.763 31.0108 12.667 30.9701 12.6262C30.9295 12.5854 30.8626 12.4981 30.8161 12.4341C30.7464 12.3322 30.5371 12.1895 30.4587 12.1895C30.4441 12.1895 30.418 12.1604 30.4034 12.1254C30.3802 12.0759 30.3133 12.0439 30.0983 11.9857C29.9472 11.942 29.7961 11.8983 29.7641 11.8867C29.613 11.8285 29.4967 11.7615 29.4386 11.7004C29.4037 11.6654 29.3543 11.6363 29.3311 11.6363C29.3078 11.6363 29.2642 11.6043 29.2323 11.5635C29.2003 11.5228 29.1654 11.4907 29.1538 11.4907C29.1422 11.4907 29.0666 11.45 28.9852 11.4005C28.8893 11.3423 28.7847 11.3044 28.6859 11.2957C28.5696 11.284 28.5261 11.2666 28.5144 11.2258C28.5028 11.1938 28.4708 11.1705 28.4389 11.1705C28.3749 11.1705 28.0959 11.086 28.0494 11.054C28.0349 11.0424 27.9245 11.0103 27.8053 10.9783C27.6891 10.9492 27.5845 10.9084 27.5786 10.8881C27.5699 10.8677 27.5467 10.8502 27.5263 10.8502C27.5089 10.8502 27.4188 10.8269 27.3258 10.7949C27.2008 10.7541 27.134 10.7076 27.0381 10.6027C26.9713 10.5241 26.8986 10.4222 26.8812 10.3756C26.8405 10.2854 26.8318 9.83703 26.8666 9.64196C26.8841 9.54297 26.9015 9.52258 26.9858 9.4993C27.0555 9.47892 27.0933 9.44398 27.1166 9.38866C27.134 9.34207 27.1689 9.30714 27.1979 9.30714C27.2299 9.30714 27.2793 9.24599 27.3374 9.12662C27.3839 9.02473 27.4246 8.92865 27.4246 8.90827C27.4246 8.8908 27.4479 8.85586 27.4798 8.83547C27.5089 8.8151 27.5467 8.73067 27.567 8.64333C27.6019 8.48028 27.6106 7.99988 27.5815 7.88925C27.5612 7.81937 27.4391 7.76406 27.2967 7.76406H27.2067V6.83822C27.2067 5.76971 27.2183 5.8192 26.9218 5.52806C26.8201 5.42907 26.73 5.34755 26.7242 5.34755C26.7155 5.34755 26.6225 5.26602 26.5179 5.16412C26.2912 4.95158 25.9715 4.77107 25.71 4.71285C25.5065 4.66627 25.0096 4.63424 24.9776 4.66336Z" fill="white"/>
<path d="M20.6656 12.7976L20.6654 12.7977L20.6657 12.7976L20.6658 12.7975C21.3703 12.4202 22.0766 12.0418 22.5972 11.7803C23.1191 11.5182 23.4545 11.3734 23.788 11.2294C23.8451 11.2048 23.9113 11.2312 23.9359 11.2884C23.9605 11.3455 23.9341 11.4118 23.8771 11.4365C23.5447 11.5799 23.2141 11.7226 22.698 11.9818C22.1807 12.2417 21.4773 12.6184 20.7719 12.9963L20.772 12.9962L20.7718 12.9964C20.7169 13.0258 20.6487 13.0051 20.6194 12.9502C20.5901 12.8953 20.6108 12.827 20.6656 12.7976Z" fill="white"/>
</g>
<defs>
<clipPath id="clip0_103_1517">
<rect width="27" height="44" fill="white" transform="translate(12 4)"/>
</clipPath>
</defs>
</svg>
