<svg width="50" height="50" viewBox="0 0 50 50" fill="none" xmlns="http://www.w3.org/2000/svg">
<rect width="50" height="50" rx="2" fill="black"/>
<g clip-path="url(#clip0_103_1531)">
<path fill-rule="evenodd" clip-rule="evenodd" d="M22.6628 21.2759C20.3637 21.4152 20.6098 21.5825 20.6098 21.5825C19.9071 21.6905 18.5096 22.3207 17.951 22.9289C16.6773 23.2054 16.5042 24.3567 15.5707 25.1055C15.5707 25.1055 14.922 25.3802 14.4228 26.2095C13.9236 27.0387 13.9373 27.6224 14.1038 28.7447C14.5077 31.4676 17.2629 31.5865 17.8901 30.5094C18.2591 29.8756 18.1286 27.618 18.655 27.3024C19.1356 28.9746 19.5826 28.9536 19.7708 30.1084C24.4819 33.3942 26.3077 33.208 30.2683 30.6094C30.9494 28.4108 31.4158 28.0539 31.6904 26.962C31.6904 26.962 32.657 30.7856 34.1475 30.925C35.638 31.0643 36.4979 30.2818 36.889 28.7963C37.2801 27.3108 36.5804 25.1356 35.712 24.9829C35.41 24.468 35.009 24.0315 34.334 23.8122C33.4727 22.7905 32.7066 22.5231 31.9154 22.0562C31.9138 22.059 31.7215 21.9457 29.8062 21.0249C29.0223 20.6481 24.9618 21.1364 22.6628 21.2758L22.6628 21.2759Z" fill="white"/>
<path fill-rule="evenodd" clip-rule="evenodd" d="M21.1387 20.9341C20.9162 21.2389 20.6015 21.1901 20.3234 21.6494C20.8121 23.3542 23.5772 27.1953 25.7961 26.9072L25.3672 25.7C24.7154 24.6469 22.0887 24.1731 21.7487 22.5535C21.2745 22.1926 21.2976 21.503 21.1386 20.9338L21.1387 20.9341Z" fill="white"/>
<path fill-rule="evenodd" clip-rule="evenodd" d="M30.6196 20.9553C31.0636 21.2275 31.1723 21.627 31.5815 21.8769C29.7491 25.0183 26.777 27.1404 26.4398 27.0168L26.6438 25.7535C26.9059 25.086 28.8063 24.132 29.7483 23.633C30.3361 22.8386 30.5527 21.9216 30.6198 20.9552L30.6196 20.9553Z" fill="white"/>
<path fill-rule="evenodd" clip-rule="evenodd" d="M20.8304 18.1877C19.8322 16.869 19.6079 15.5504 20.0967 14.2317C20.9328 13.1924 21.8563 12.6727 22.7675 12.0792C22.7675 12.0792 23.5232 10.7266 24.411 10.2758C25.2988 9.8249 25.6978 9.97992 26.7296 10.4503C27.4633 10.7848 28.5199 12.1956 28.5199 12.1956L31.4841 14.5517C31.8717 15.1987 31.9543 15.7852 31.9537 16.3552C32.0128 17.3897 31.6198 18.1255 31.22 18.8568C31.3962 19.7736 30.8633 21.1879 30.633 22.1146C30.4496 22.8523 29.8842 23.2716 29.8993 23.8017C28.7723 24.0647 28.9232 24.8343 28.4905 25.3725C27.6471 25.3273 27.0964 27.5855 25.585 28.3977L24.7339 26.4779C23.9941 26.3877 23.4643 25.7191 23.061 25.0816C23.061 25.0816 22.1218 24.0417 21.799 23.4236C21.4762 22.8054 21.7696 22.6091 21.7696 22.6091C21.7696 22.6091 21.3954 22.4782 21.2413 21.911C21.0873 21.3438 21.1533 20.3402 21.1533 20.3402L20.8305 18.1877L20.8304 18.1877Z" fill="white"/>
<path fill-rule="evenodd" clip-rule="evenodd" d="M33.331 27.6774C31.718 28.9749 29.9198 31.0287 29.9198 31.0287L30.5585 33.8604C30.5585 33.8604 31.6504 33.4357 31.9367 32.8328C32.223 32.2298 31.9903 31.9539 31.9903 31.9539C31.9903 31.9539 35.1579 31.0294 35.7692 30.2594C36.8688 28.8744 35.5586 25.8856 33.331 27.6774H33.331Z" fill="white"/>
<path fill-rule="evenodd" clip-rule="evenodd" d="M17.8575 27.725C15.9359 27.549 15.2274 29.4335 15.9296 30.6438L18.4614 32.9352C18.4614 33.6792 19.4481 35.4424 19.8004 34.5836C19.8795 34.3907 20.108 34.7439 20.4612 34.5258C21.0279 34.1759 20.2177 33.7573 19.6963 32.7006C21.1925 34.53 21.3074 33.7956 21.365 33.5319C21.4859 32.9793 20.543 32.9306 20.4928 31.9645L21.0084 31.3438C20.7546 30.4541 20.1051 30.4796 19.4815 30.4453C19.4815 30.4453 18.5349 27.7865 17.8575 27.725Z" fill="white"/>
<path fill-rule="evenodd" clip-rule="evenodd" d="M30.2895 30.4822C26.4709 31.3282 23.9039 31.1209 19.7516 30.0677C19.5143 31.9614 19.3516 34.2925 19.1624 36.1902C19.1662 36.8223 19.3477 37.4599 19.7458 37.9571C18.9435 38.7004 19.0851 39.8988 19.157 40.8893C19.2139 41.4933 19.4073 42.1972 18.9766 42.7145C18.4554 43.7165 17.5862 44.4932 16.9576 45.4142C17.2272 45.6771 17.5261 45.9158 17.7638 46.2042C17.9253 46.3345 18.0504 46.037 18.2213 46.0345C19.2024 45.5159 20.304 45.1638 21.1788 44.4751C21.4791 44.0741 21.6031 43.4523 21.8785 43.0316C21.3803 42.4519 21.1529 41.9051 21.4378 41.1299C21.6833 40.4026 22.4318 39.8921 22.4397 39.0775C22.5164 38.6424 22.3592 38.1658 22.4995 37.7542C23.3126 37.0617 23.719 36.028 24.2351 35.1236C24.672 34.6104 25.5968 34.5356 26.0087 35.1182C26.7183 35.9447 26.9247 37.0437 27.2955 38.0361C27.3113 38.2636 27.6163 38.5949 27.324 38.7076C26.9485 39.0155 27.3022 40.3877 27.5413 40.7132C27.9841 41.5412 28.2339 41.5952 27.8696 42.5152C27.8066 42.8484 27.6789 43.5552 28.0575 43.8212C28.6052 44.5321 28.9449 45.0713 29.4926 45.7823L31.7734 46.2635C31.7524 45.6527 32.028 44.9254 31.5395 44.4363C30.9398 43.6138 30.3404 42.791 29.7408 41.9684C30.1561 40.4707 30.3098 38.8821 30.9655 37.4669C31.3051 36.3795 31.1354 35.2129 31.0797 34.0953C30.8243 32.8881 30.5828 31.6779 30.3169 30.4731L30.2897 30.482L30.2895 30.4822Z" fill="white"/>
<path fill-rule="evenodd" clip-rule="evenodd" d="M20.0964 14.2529C20.0964 14.2529 20.8739 12.6562 21.5245 11.4549C22.1751 10.2535 22.6476 9.853 22.6476 9.853C22.5186 9.50637 22.7803 8.85005 23.0037 8.22399C22.9763 7.56337 23.1429 6.99879 23.2502 6.40498C23.2502 6.40498 22.676 5.60943 22.4832 4.15156C22.3408 3.07459 22.0515 1.88716 23.3324 1.00217C24.389 0.956981 24.9127 1.58386 25.1677 2.54971L27.6331 6.43214L29.441 10.5318C29.441 10.5318 30.0711 11.4006 30.2628 11.835C30.4546 12.2693 30.2081 12.2693 30.2081 12.2693C30.2081 12.2693 31.1477 13.4962 31.5449 14.3447C31.9421 15.1931 31.8813 15.6511 31.8813 15.6511C31.3814 15.0745 30.8783 14.1722 29.9779 14.4555C29.8811 13.5027 28.8081 12.9374 28.1262 12.2422C27.6955 11.5542 27.0583 10.9942 26.0444 10.6675C25.5252 10.3463 24.9924 10.1725 24.4008 10.6403C23.2139 11.3421 23.013 12.0332 22.5107 12.5951C21.7256 13.4734 21.5254 13.4567 20.9219 13.8712C20.3183 14.2856 20.0965 14.2529 20.0965 14.2529L20.0964 14.2529Z" fill="white"/>
<path fill-rule="evenodd" clip-rule="evenodd" d="M18.5513 42.9256C19.4133 42.5887 20.2102 42.6605 20.7107 44.7281C21.0968 44.1354 21.9005 43.531 21.7261 42.8457C21.7261 42.8457 22.1537 43.2771 21.9527 43.6902C21.5459 44.5261 21.2809 44.6691 19.9459 46.2053C19.0927 47.1872 17.8657 47.1444 17.1219 46.6913C16.7257 46.4524 16.6687 45.9385 16.8473 45.2335C17.0253 44.6642 17.4384 43.9068 18.5513 42.9256H18.5513Z" fill="white"/>
<path fill-rule="evenodd" clip-rule="evenodd" d="M28 42.2382C28 42.2382 27.7815 42.5177 27.6625 42.9182C27.5435 43.3186 27.5518 43.6753 27.5518 43.6753C28.1057 44.4965 28.6057 45.4112 29.2676 46.0452C29.2676 46.0452 29.8988 46.6254 30.6292 46.6925C31.1788 46.743 32.054 46.5638 32.2344 46.2426C32.4095 45.9307 32.3417 45.5229 32.2012 45.0686C31.9459 44.2436 30.6514 43.1486 30.6514 43.1486C30.455 42.7425 30.2797 42.7261 30.0703 42.5612C29.5221 42.7565 28.9938 43.1648 28.5924 43.8837C28.1496 43.2985 27.941 42.7941 28 42.2382L28 42.2382Z" fill="white"/>
</g>
<defs>
<clipPath id="clip0_103_1531">
<rect width="23" height="46" fill="white" transform="translate(14 1)"/>
</clipPath>
</defs>
</svg>
