<svg width="50" height="50" viewBox="0 0 50 50" fill="none" xmlns="http://www.w3.org/2000/svg">
<rect width="50" height="50" rx="2" fill="black"/>
<g clip-path="url(#clip0_103_1510)">
<path d="M20.1594 10.495C20.1576 10.4916 20.1557 10.4883 20.1539 10.4849C20.1514 10.4877 20.1461 10.4916 20.1467 10.493C20.1486 10.4976 20.1526 10.5012 20.1559 10.5052C20.1571 10.5018 20.1582 10.4984 20.1594 10.495ZM20.3408 9.2543L20.3336 9.25337L20.336 9.26343L20.3408 9.2543ZM19.9594 10.7535C19.9649 10.7548 19.9702 10.756 19.9757 10.7574C19.9778 10.7447 19.9802 10.7321 19.9816 10.7194C19.9817 10.7184 19.9755 10.7166 19.9723 10.7152C19.968 10.728 19.9637 10.7407 19.9594 10.7535ZM25.7541 15.9227C25.8183 15.8718 25.9055 15.8839 25.947 15.7953C25.8773 15.808 25.8168 15.819 25.7541 15.8304V15.9227ZM22.9992 15.8515C23.0009 15.8372 23.0025 15.8229 23.0041 15.8085C22.9737 15.8003 22.9436 15.7858 22.913 15.7848C22.6679 15.7768 22.4228 15.7689 22.1778 15.7675C22.1402 15.7674 22.0993 15.7966 22.0656 15.8203C22.0124 15.8579 21.9672 15.9072 21.9129 15.9431C21.5939 16.1539 21.2535 16.3239 20.9004 16.4689C20.8438 16.4922 20.7867 16.5154 20.7327 16.5439C20.7155 16.553 20.7074 16.5794 20.6952 16.5979C20.6999 16.6055 20.7047 16.6132 20.7095 16.6208C20.7488 16.6093 20.7892 16.601 20.8271 16.586C21.1366 16.4627 21.4378 16.3212 21.7263 16.1546C21.8509 16.0827 21.9728 16.0027 22.0832 15.9111C22.1392 15.8646 22.1884 15.8437 22.2576 15.846C22.4588 15.8525 22.6602 15.8557 22.8616 15.8588C22.9075 15.8595 22.9534 15.8541 22.9992 15.8515ZM21.3302 10.1803C21.3402 10.1816 21.3502 10.183 21.3603 10.1843C21.3866 10.1107 21.4088 10.0354 21.4402 9.96416C21.4769 9.88091 21.5083 9.7897 21.5659 9.7225C21.6706 9.60025 21.793 9.49316 21.9151 9.37266C21.9105 9.33425 21.9046 9.28463 21.8981 9.23013C21.6311 9.282 21.4659 9.45327 21.3215 9.65217C21.3095 9.6686 21.3019 9.693 21.3028 9.71316C21.3105 9.86893 21.3207 10.0246 21.3302 10.1803ZM22.426 14.2271C22.4228 14.1884 22.4227 14.1672 22.4191 14.1466C22.3882 13.9702 22.3569 13.7939 22.3254 13.6176C22.3231 13.6047 22.3194 13.5919 22.3148 13.5796C22.2682 13.4544 22.0987 13.2175 22.0047 13.1381C22.0491 13.4748 22.0953 13.825 22.1421 14.181C22.2277 14.1949 22.3177 14.2095 22.426 14.2271ZM25.7154 16.0092C25.6586 16.0092 25.6011 16.0235 25.5571 16.0052C25.5118 15.9864 25.4797 15.9357 25.4486 15.9056C25.4084 15.9553 25.3753 16.0149 25.3258 16.0533C25.2261 16.1305 25.1133 16.0961 25.0786 15.9746C25.0603 15.9108 25.0722 15.8371 25.0763 15.7683C25.0873 15.5851 25.0195 15.3591 24.7279 15.394C24.6975 15.3977 24.6669 15.4014 24.637 15.408C24.513 15.4354 24.3896 15.466 24.2652 15.4915C24.0722 15.5309 23.879 15.569 23.6851 15.6036C23.6306 15.6133 23.5741 15.6211 23.537 15.5519C23.5233 15.5263 23.4721 15.5153 23.4359 15.5086C23.3862 15.4993 23.3345 15.5003 23.2732 15.4962C23.3469 15.3414 23.3517 15.1902 23.3295 15.0381C23.2571 15.0266 23.2603 15.0659 23.2597 15.1012C23.2573 15.2415 23.2603 15.3828 23.1706 15.5042C23.1645 15.5125 23.1698 15.5295 23.1698 15.5604C23.2663 15.575 23.3638 15.5898 23.4698 15.6058C23.5499 15.6984 23.5511 15.706 23.6856 15.6828C23.9184 15.6426 24.1495 15.5921 24.3812 15.5456C24.4971 15.5223 24.6119 15.4905 24.7289 15.4762C24.9137 15.4536 25.017 15.5645 24.997 15.7519C24.9933 15.7869 24.9874 15.8216 24.9819 15.8563C24.9663 15.9568 24.9931 16.0378 25.0859 16.0904C25.1048 16.1011 25.1205 16.1172 25.1386 16.1294C25.2355 16.1949 25.2897 16.1898 25.3681 16.1067C25.391 16.0824 25.411 16.0554 25.4313 16.0307C25.5876 16.1177 25.659 16.1136 25.7154 16.0092ZM19.3753 23.1033C19.3872 23.0995 19.3991 23.0958 19.411 23.092C19.4061 23.0276 19.4051 22.9625 19.3955 22.8987C19.3316 22.4733 19.2831 22.0464 19.2761 21.616C19.2704 21.2728 19.2123 20.9358 19.1732 20.5963C19.1596 20.479 19.1475 20.3612 19.1416 20.2433C19.1357 20.1294 19.1385 20.0151 19.1376 19.9009C19.1371 19.8464 19.123 19.8047 19.0755 19.7656C19.0309 19.7289 19.0023 19.67 18.9739 19.6171C18.9427 19.5591 18.9196 19.4968 18.8891 19.4277C18.8176 19.5187 18.8109 19.6096 18.8031 19.7011C18.7994 19.7439 18.8023 19.8 18.7774 19.826C18.6901 19.9171 18.7282 20.0139 18.7477 20.1112C18.7863 20.3039 18.8257 20.4965 18.8663 20.6888C18.8852 20.7782 18.9079 20.8669 18.9286 20.956C18.9534 21.0622 18.9902 21.1675 18.9993 21.275C19.0117 21.4201 19.036 21.5598 19.0755 21.7003C19.1154 21.8424 19.1289 21.9918 19.1542 22.138C19.1669 22.2113 19.1747 22.2861 19.1941 22.3577C19.2439 22.5425 19.3105 22.7233 19.3064 22.9194C19.3056 22.9578 19.3168 22.998 19.3296 23.0349C19.3383 23.06 19.3596 23.0807 19.3753 23.1033ZM31.9506 28.448C32.0121 28.3339 32.0579 28.2401 32.1114 28.151C32.2128 27.9826 32.3182 27.8167 32.4226 27.6501C32.5037 27.5208 32.5737 27.3822 32.6697 27.2651C32.9001 26.9842 33.1432 26.7136 33.3807 26.4386C33.7557 26.0042 34.1275 25.567 34.4633 25.101C34.6853 24.7929 34.906 24.4834 35.0201 24.1131C35.0521 24.0093 35.1 23.9103 35.1322 23.8065C35.1672 23.694 35.193 23.5785 35.2218 23.4641C35.2367 23.405 35.2497 23.3454 35.2635 23.2861C35.2734 23.2436 35.2859 23.2015 35.2925 23.1584C35.3228 22.9595 35.3527 22.7604 35.3803 22.5611C35.4224 22.2574 35.4804 21.9547 35.4988 21.6495C35.5252 21.2113 35.523 20.7712 35.5306 20.3319C35.5323 20.2325 35.5033 20.1326 35.5541 20.0351C35.5684 20.0076 35.5653 19.9634 35.555 19.9317C35.5149 19.8079 35.4876 19.677 35.3712 19.5928C35.3292 19.5624 35.2966 19.5188 35.2609 19.4803C35.0598 19.2633 35.0415 18.9984 35.0952 18.7311C35.1228 18.594 35.2082 18.4686 35.2672 18.3377C35.3243 18.2112 35.4068 18.0893 35.4317 17.9566C35.4656 17.7773 35.4602 17.5896 35.4619 17.4054C35.4632 17.2697 35.451 17.1336 35.4407 16.998C35.4354 16.9283 35.4328 16.8549 35.4083 16.7913C35.3674 16.6852 35.3613 16.5776 35.3624 16.4677C35.3635 16.3622 35.3701 16.2568 35.3705 16.1515C35.3708 16.0329 35.3883 15.9085 35.3584 15.7974C35.3305 15.6929 35.3236 15.5922 35.3197 15.4876C35.3187 15.4573 35.3061 15.4274 35.2962 15.3863C35.2699 15.4072 35.2515 15.4151 35.2516 15.4227C35.2537 15.5352 35.2401 15.6522 35.2672 15.7587C35.2953 15.8691 35.2864 15.9708 35.2854 16.0945C35.1846 16.0803 35.101 16.077 35.0224 16.0556C34.9061 16.024 34.7931 15.9802 34.6794 15.94C34.6431 15.9271 34.6101 15.9032 34.5733 15.8947C34.5283 15.8845 34.4777 15.873 34.4352 15.884C34.3689 15.9011 34.3071 15.9361 34.2438 15.9645C34.1104 16.0242 33.9793 16.0899 33.8434 16.1434C33.6871 16.205 33.5268 16.2563 33.3681 16.3119C33.2419 16.3561 33.1158 16.4006 32.9894 16.4441C32.9042 16.4734 32.8182 16.5005 32.7332 16.53C32.6232 16.5683 32.5154 16.6136 32.4039 16.6458C32.2377 16.6937 32.0707 16.7421 31.9009 16.773C31.7516 16.8002 31.6016 16.8231 31.4523 16.8515C31.3212 16.8765 31.1817 16.8568 31.046 16.8577C30.9757 16.8582 30.9094 16.8559 30.8452 16.8133C30.815 16.7932 30.7565 16.7922 30.7216 16.8075C30.6069 16.8575 30.5016 16.9318 30.3844 16.9731C30.1968 17.0392 30.029 17.1684 29.8167 17.1594C29.8003 17.1587 29.7835 17.1688 29.7668 17.1738C29.6388 17.2116 29.511 17.2501 29.3826 17.2866C29.3621 17.2925 29.3385 17.2871 29.3173 17.2911C29.2745 17.2992 29.2324 17.3102 29.1899 17.3199C29.1395 17.3316 29.0891 17.3434 29.0387 17.3546C28.979 17.3678 28.9193 17.3809 28.8594 17.3931C28.7998 17.4054 28.74 17.4167 28.6803 17.4282C28.6376 17.4365 28.595 17.4452 28.5521 17.4526C28.4534 17.4697 28.3544 17.4856 28.2557 17.5029C28.1233 17.5261 27.991 17.5499 27.8588 17.5746C27.8466 17.5768 27.8358 17.587 27.8246 17.5939C27.7321 17.6507 27.6415 17.7113 27.5467 17.764C27.3196 17.89 27.0947 18.0191 26.8378 18.0827C26.7553 18.1032 26.6481 18.13 26.6277 18.2383C26.6143 18.309 26.6129 18.3885 26.6308 18.4577C26.6744 18.6271 26.726 18.7951 26.7866 18.9592C26.8316 19.0811 26.8403 19.2118 26.9114 19.329C27.0467 19.5519 27.1602 19.7879 27.287 20.0161C27.4417 20.2948 27.6038 20.5694 27.7572 20.8487C28.0111 21.3111 28.259 21.7769 28.5127 22.2395C28.7414 22.6566 28.9766 23.0701 29.2052 23.4874C29.4544 23.9421 29.6976 24.4002 29.9465 24.8552C30.1014 25.1383 30.2637 25.4173 30.4192 25.7C30.5936 26.0171 30.7643 26.3362 30.9364 26.6545C31.0569 26.8772 31.1764 27.1005 31.2979 27.3227C31.4903 27.6745 31.6836 28.0259 31.8785 28.3764C31.8935 28.4035 31.924 28.4221 31.9506 28.448ZM20.2634 9.37568C20.2687 9.37134 20.274 9.36705 20.2793 9.36277C20.2752 9.36843 20.271 9.37409 20.2675 9.38035C20.2604 9.40134 20.2533 9.42233 20.2462 9.44327C20.1941 9.52096 20.153 9.60135 20.1821 9.69942C20.1577 9.73322 20.122 9.76371 20.111 9.80146C20.0814 9.90339 20.0624 10.0084 20.0392 10.1122C20.0493 10.1148 20.0595 10.1173 20.0696 10.1199C20.1211 9.98399 20.1562 9.843 20.1821 9.69915C20.1926 9.66717 20.2058 9.63574 20.213 9.60305C20.2249 9.5492 20.2329 9.49448 20.2426 9.43997C20.2495 9.41854 20.2565 9.39711 20.2634 9.37568ZM20.0622 10.2317C20.0545 10.2427 20.0468 10.2537 20.039 10.2648C20.0452 10.2671 20.0513 10.2695 20.0574 10.2719C20.0582 10.2576 20.0589 10.2433 20.0596 10.229C20.0629 10.2242 20.0662 10.2193 20.0696 10.2145C20.0671 10.2202 20.0646 10.226 20.0622 10.2317ZM19.799 10.5476C19.8329 10.4883 19.8696 10.4304 19.9 10.3693C19.9306 10.308 19.9684 10.2459 19.98 10.18C20.0596 9.73376 20.2101 9.31475 20.4631 8.93875C20.6719 8.62852 20.9386 8.38857 21.3236 8.31879C21.6904 8.25225 22.0442 8.43236 22.2024 8.76924C22.225 8.81754 22.2426 8.86314 22.3001 8.88408C22.3459 8.90078 22.3798 8.93573 22.3838 8.99199C22.3853 9.01254 22.3968 9.03364 22.4079 9.05194C22.4234 9.07754 22.4428 9.10073 22.4672 9.13392C22.555 9.10249 22.646 9.08205 22.7248 9.03913C22.8445 8.97397 22.9698 8.94935 23.1026 8.94748C23.4173 8.94298 23.732 8.93864 24.0467 8.93457C24.1298 8.93353 24.2077 8.94018 24.2859 8.98353C24.3568 9.02293 24.4421 9.03891 24.5227 9.05754C24.7776 9.11644 25.0342 9.16831 25.2885 9.22969C25.4351 9.26502 25.5415 9.35854 25.61 9.49398L25.6136 9.49074C25.5977 9.48118 25.5819 9.47162 25.5657 9.46228C25.5502 9.45623 25.535 9.44997 25.5197 9.44371C25.5192 9.43964 25.5187 9.43552 25.5182 9.43145C25.52 9.43508 25.5218 9.43871 25.524 9.442C25.5396 9.44766 25.5548 9.45354 25.57 9.45948C25.5492 9.50508 25.5841 9.51063 25.6134 9.52014L25.6092 9.51865C25.6195 9.51871 25.6299 9.51876 25.6403 9.51882L25.6378 9.52085C25.716 9.56723 25.7936 9.61442 25.8724 9.65981C26.0402 9.75663 26.1097 9.91646 26.1465 10.0983C26.1007 10.0315 26.0548 9.96482 26.009 9.89811C26.037 10.0397 26.1149 10.1665 26.0757 10.3167C26.0413 10.4488 26.0122 10.5824 25.9785 10.7249C25.9547 10.7153 25.9333 10.7065 25.908 10.6963C25.9011 10.7457 25.9072 10.794 25.8431 10.8228C25.8048 10.8399 25.7686 10.8993 25.8138 10.9575C25.8218 10.9677 25.8273 10.9938 25.8219 10.9983C25.7649 11.0467 25.7925 11.0998 25.8058 11.1553C25.8167 11.2013 25.8206 11.2496 25.8217 11.297C25.8233 11.3725 25.8252 11.4465 25.8977 11.5227C25.9239 11.4244 25.9467 11.3388 25.9696 11.2533C26.0078 11.11 26.0465 10.9668 26.0842 10.8233C26.1129 10.7138 26.1425 10.6046 26.1682 10.4944C26.201 10.3542 26.2275 10.2126 26.2618 10.0729C26.2961 9.93377 26.3385 9.79663 26.3741 9.65778C26.4066 9.53091 26.4335 9.40266 26.4649 9.27551C26.5077 9.10216 26.5543 8.92979 26.5959 8.75616C26.6303 8.61204 26.659 8.46654 26.6916 8.32197C26.7156 8.21565 26.7398 8.10928 26.7676 8.00389C26.8043 7.8646 26.8474 7.72702 26.8825 7.58739C26.9177 7.44778 26.9458 7.30634 26.978 7.16601C27.0015 7.06392 27.0248 6.96178 27.0513 6.86051C27.0879 6.72105 27.1292 6.58292 27.1653 6.44341C27.197 6.32082 27.2235 6.19687 27.2541 6.07406C27.2964 5.90499 27.3408 5.73653 27.3835 5.56768C27.4081 5.47047 27.4324 5.37317 27.4548 5.27541C27.4869 5.13486 27.5143 4.99316 27.5489 4.85326C27.5834 4.71375 27.624 4.57578 27.6623 4.43721C27.6669 4.42034 27.6751 4.40429 27.6787 4.38721C27.71 4.23775 27.7369 4.08714 27.7728 3.93879C27.8046 3.8079 27.8487 3.68015 27.8826 3.54977C27.9167 3.41866 27.944 3.2858 27.9761 3.15421C28.0144 2.99778 28.0548 2.84184 28.0943 2.68573C28.1242 2.56738 28.1586 2.44996 28.183 2.33051C28.2214 2.14292 28.2652 1.95742 28.324 1.77467C28.3622 1.65598 28.3559 1.52741 28.3101 1.41169C28.2655 1.29905 28.3043 1.20256 28.3456 1.10833C28.3731 1.04564 28.4261 1.00146 28.5106 1.00003C28.6014 0.998493 28.6604 1.04613 28.6846 1.11449C28.8029 1.44867 29.0433 1.69362 29.2778 1.94094C29.5585 2.2371 29.8617 2.50859 30.219 2.71233C30.3664 2.7964 30.5165 2.87623 30.6602 2.96618C30.9005 3.11646 31.1422 3.26537 31.3734 3.42905C31.8568 3.77126 32.3068 4.15346 32.7203 4.5793C32.9984 4.86562 33.2592 5.16519 33.5057 5.47976C33.7549 5.79779 33.9772 6.13263 34.1831 6.47841C34.3298 6.72495 34.4508 6.98689 34.5896 7.23837C34.6633 7.37195 34.7571 7.49437 34.8299 7.62827C34.9467 7.84284 35.0571 8.06109 35.1634 8.28104C35.2561 8.47274 35.3451 8.66671 35.4253 8.86385C35.4889 9.02023 35.5361 9.1832 35.5917 9.34282C35.6549 9.52354 35.7227 9.70267 35.7818 9.88465C35.8192 9.99954 35.8433 10.1187 35.8751 10.2354C35.9002 10.3276 35.928 10.4192 35.9547 10.5109C35.9935 10.6444 36.033 10.7778 36.071 10.9115C36.0793 10.9407 36.0804 10.972 36.0876 11.0017C36.1276 11.1664 36.1684 11.331 36.2091 11.4956C36.2123 11.5084 36.2186 11.5205 36.221 11.5333C36.2495 11.6871 36.2766 11.8411 36.306 11.9948C36.3175 12.0545 36.3336 12.1135 36.3479 12.1727C36.35 12.1811 36.3559 12.1888 36.3573 12.1973C36.3885 12.3866 36.4204 12.5758 36.4497 12.7654C36.4591 12.8259 36.4515 12.8905 36.4688 12.948C36.5471 13.2075 36.5182 13.4802 36.5707 13.7425C36.5738 13.758 36.5653 13.776 36.5598 13.8058C36.1472 13.8445 35.7349 13.8833 35.3038 13.9238C35.3038 13.8638 35.3067 13.8166 35.3033 13.7699C35.2881 13.5643 35.271 13.359 35.2549 13.1535C35.2474 13.0571 35.2444 12.9603 35.2327 12.8646C35.2194 12.7564 35.1987 12.6492 35.1809 12.5417C35.1795 12.5331 35.1729 12.5248 35.1733 12.5166C35.1828 12.3342 35.1095 12.1658 35.0836 11.9892C35.0666 11.8738 35.0329 11.759 34.9924 11.6494C34.9337 11.4908 34.8653 11.3355 34.7946 11.1818C34.744 11.0717 34.6773 10.9689 34.6281 10.8583C34.5593 10.7041 34.4986 10.5462 34.4373 10.3888C34.3934 10.276 34.3542 10.1613 34.3129 10.0475C34.3114 10.0434 34.3079 10.0398 34.3072 10.0357C34.2797 9.87223 34.2459 9.70954 34.2275 9.54503C34.2149 9.43222 34.2274 9.31678 34.2218 9.20282C34.219 9.14727 34.2015 9.09221 34.1886 9.03738C34.1827 9.01205 34.1697 8.98836 34.1635 8.96303C34.1083 8.73857 34.0614 8.51176 33.9969 8.29005C33.9449 8.11098 33.8709 7.93839 33.8085 7.76234C33.7532 7.60662 33.7035 7.44882 33.6454 7.2942C33.5951 7.15997 33.5404 7.02711 33.4809 6.89672C33.374 6.66232 33.2695 6.42632 33.15 6.1983C33.0325 5.974 32.9036 5.75521 32.7693 5.54053C32.5506 5.19118 32.2618 4.90574 31.9367 4.65573C31.67 4.45072 31.4094 4.23731 31.1365 4.0411C30.8248 3.81702 30.4962 3.61636 30.1865 3.38965C29.9363 3.20652 29.6591 3.06107 29.433 2.84409C29.2655 2.68343 29.0917 2.52941 28.9242 2.36886C28.7441 2.19632 28.5811 2.00874 28.4377 1.77461C28.4127 1.81741 28.3869 1.84582 28.3783 1.87879C28.3379 2.03511 28.3041 2.19319 28.2642 2.34968C28.2267 2.49721 28.184 2.64342 28.1447 2.79052C28.1165 2.89568 28.0875 3.00074 28.0634 3.10695C28.0317 3.24723 28.0062 3.38888 27.9748 3.52927C27.9481 3.64851 27.9189 3.7673 27.8871 3.88527C27.8395 4.0617 27.7878 4.23649 27.7568 4.41781C27.7336 4.55413 27.6796 4.68496 27.6449 4.81969C27.6091 4.95898 27.5806 5.10008 27.5481 5.24025C27.5177 5.37173 27.4874 5.50333 27.4552 5.63443C27.4124 5.80801 27.3686 5.98137 27.3237 6.15439C27.2887 6.28934 27.2504 6.42341 27.2153 6.5583C27.1823 6.68501 27.1518 6.81237 27.1196 6.93925C27.0767 7.10788 27.0314 7.27596 26.9908 7.44519C26.9571 7.58531 26.9306 7.72712 26.8979 7.86746C26.8672 7.99938 26.8319 8.13021 26.7997 8.26181C26.7603 8.4228 26.7241 8.58462 26.6825 8.74501C26.6443 8.89243 26.6 9.03826 26.56 9.18529C26.5315 9.29041 26.5034 9.39574 26.4793 9.50189C26.4473 9.64222 26.423 9.78443 26.3886 9.9241C26.3542 10.0637 26.3104 10.201 26.2726 10.3398C26.2451 10.4406 26.2183 10.5416 26.1954 10.6436C26.164 10.7838 26.1399 10.9258 26.1065 11.0656C26.0733 11.2047 26.032 11.3419 25.9954 11.4802C25.9842 11.5224 25.9793 11.5663 25.967 11.608C25.9505 11.6641 25.9727 11.7 26.0173 11.7305C26.0788 11.7726 26.1401 11.8153 26.1988 11.8612C26.2995 11.9399 26.3093 12.026 26.2195 12.1168C26.1524 12.1848 26.0739 12.2414 25.9908 12.3111C26.0139 12.3498 26.0298 12.3918 26.0585 12.4216C26.1249 12.4905 26.1242 12.5667 26.08 12.6389C26.0393 12.7051 26.0414 12.7625 26.0607 12.8347C26.0739 12.8841 26.0626 12.9496 26.0398 12.997C26.0098 13.0588 26.0078 13.1125 26.0314 13.1731C26.0442 13.2057 26.0517 13.2403 26.0628 13.2736C26.1326 13.4827 26.0541 13.6551 25.8264 13.7648C25.6703 13.84 25.5011 13.8647 25.3289 13.8741C25.2151 13.8802 25.0994 13.889 25.0154 13.9976C25.0426 14.1606 25.1098 14.2966 25.2785 14.3694C25.4813 14.4569 25.6232 14.6205 25.7649 14.7823C25.7848 14.8049 25.8021 14.8333 25.8103 14.8621C25.8692 15.0704 25.998 15.2589 25.9826 15.4809C26.0589 15.4618 26.1293 15.4388 26.2015 15.427C26.5613 15.3682 26.8885 15.2257 27.2024 15.0461C27.2423 15.0233 27.2894 15.0074 27.3349 15.0013C27.4171 14.9903 27.5007 14.9858 27.5839 14.9845C27.6762 14.983 27.761 15.0098 27.849 15.0427C27.9781 15.0909 28.1172 15.1297 28.2538 15.136C28.5469 15.1498 28.8411 15.1421 29.1348 15.1388C29.1992 15.1381 29.2633 15.1187 29.3275 15.1081C29.3878 15.0981 29.4486 15.0912 29.508 15.0777C29.5665 15.0646 29.6236 15.0448 29.6813 15.0284C29.7144 15.0191 29.7478 15.0114 29.7807 15.0019C29.8179 14.9912 29.8546 14.9788 29.8916 14.9677C29.9367 14.9543 29.9817 14.9407 30.0271 14.9288C30.0648 14.919 30.1032 14.9123 30.1408 14.9027C30.1864 14.8912 30.2315 14.8774 30.2771 14.866C30.3024 14.8597 30.3294 14.8591 30.3541 14.8511C30.4778 14.811 30.5985 14.7576 30.725 14.7309C30.9268 14.6881 31.1312 14.6121 31.3375 14.7213C31.4225 14.7663 31.5121 14.7618 31.6059 14.7447C31.7042 14.7268 31.8055 14.7178 31.9055 14.7183C32.2645 14.7199 32.6216 14.7063 32.9796 14.6695C33.2532 14.6414 33.5313 14.6594 33.8072 14.651C33.8978 14.6483 33.9873 14.6232 34.0779 14.615C34.2563 14.599 34.4351 14.5872 34.6138 14.5747C34.7009 14.5686 34.7888 14.57 34.875 14.5583C34.9726 14.5451 35.0347 14.606 35.0912 14.6621C35.1447 14.7151 35.199 14.7141 35.2588 14.7018C35.2807 14.6972 35.2982 14.6721 35.3392 14.6389C35.1636 14.6493 35.1595 14.5197 35.1214 14.4251C35.1114 14.4004 35.1259 14.3468 35.147 14.3321C35.2099 14.2883 35.2791 14.2329 35.3504 14.2252C35.7208 14.1853 36.0924 14.1587 36.4638 14.1281C36.4761 14.1271 36.489 14.1319 36.51 14.1354C36.518 14.1927 36.5261 14.2509 36.5357 14.3201C36.6279 14.3078 36.7134 14.2963 36.8018 14.2844C36.8835 14.4101 36.9565 14.5441 37.0506 14.661C37.1453 14.7786 37.261 14.8793 37.3651 14.9848C37.3488 15.0946 37.2389 15.1117 37.1933 15.1896C37.2789 15.3036 37.365 15.418 37.4563 15.5395C37.3736 15.6928 37.2316 15.7217 37.0739 15.7361C37.0826 15.7729 37.0899 15.8008 37.0957 15.8291C37.1179 15.937 37.1015 15.9729 37.0005 16.0273C36.9448 16.0572 36.9 16.0913 36.8802 16.1578C36.8685 16.1973 36.8406 16.2381 36.8085 16.264C36.7597 16.3034 36.7333 16.3449 36.7387 16.4089C36.7478 16.5171 36.6644 16.5935 36.6384 16.6899C36.6249 16.7399 36.6035 16.7893 36.6002 16.84C36.5902 16.9978 36.5884 17.1549 36.6303 17.3111C36.6528 17.3947 36.6525 17.4843 36.6648 17.5708C36.6703 17.6095 36.6808 17.6476 36.6903 17.6857C36.7072 17.753 36.7231 17.8207 36.7432 17.8871C36.7731 17.9864 36.798 18.0885 36.8401 18.1827C36.9129 18.3456 37.0037 18.5005 37.0751 18.6639C37.1438 18.8209 37.2036 18.9895 37.158 19.1604C37.1045 19.3611 37.0543 19.5715 36.8813 19.7135C36.7511 19.8204 36.6816 19.9666 36.6167 20.1142C36.5953 20.1629 36.6041 20.2259 36.603 20.2824C36.5963 20.6205 36.5973 20.9589 36.5821 21.2966C36.5735 21.4888 36.5465 21.6811 36.5137 21.8709C36.4842 22.0422 36.4352 22.2101 36.3956 22.3796C36.3668 22.5028 36.3454 22.6279 36.3099 22.7491C36.2515 22.9489 36.187 23.1472 36.12 23.3444C36.0695 23.4928 36.0135 23.6394 35.9555 23.7851C35.9009 23.9225 35.8494 24.0621 35.7812 24.1928C35.6322 24.4786 35.4829 24.765 35.3159 25.0403C35.1552 25.3055 34.9783 25.5616 34.7966 25.8131C34.6608 26.0013 34.5154 26.1843 34.358 26.3545C34.0991 26.6343 33.837 26.9127 33.5574 27.1713C33.3079 27.4023 33.0872 27.6519 32.8984 27.9343C32.7279 28.1895 32.5763 28.4553 32.4532 28.7345C32.3734 28.9155 32.2888 29.0989 32.2828 29.3078C32.2786 29.4567 32.12 29.5211 32.0053 29.427C31.9163 29.354 31.845 29.2656 31.8489 29.1371C31.8535 28.9839 31.8338 28.8292 31.8857 28.6797C31.9118 28.6044 31.8706 28.5409 31.838 28.4807C31.5994 28.0398 31.3594 27.5998 31.1171 27.1611C30.9149 26.795 30.7081 26.4314 30.505 26.0658C30.3102 25.7153 30.1157 25.3648 29.9247 25.0123C29.7441 24.6792 29.5702 24.3425 29.3892 24.0097C29.2872 23.822 29.1745 23.6402 29.0709 23.4532C28.9421 23.2209 28.8193 22.9853 28.6912 22.7526C28.4833 22.3746 28.2721 21.9983 28.0645 21.6202C27.9156 21.3491 27.7713 21.0755 27.623 20.8042C27.4871 20.5557 27.3476 20.3093 27.2114 20.061C27.1045 19.8663 27.0005 19.67 26.8943 19.4749C26.8758 19.4409 26.8529 19.4093 26.8208 19.359C26.8026 19.4058 26.7854 19.4345 26.7806 19.4651C26.7472 19.6807 26.7247 19.8983 26.6811 20.1117C26.6596 20.2167 26.6027 20.3151 26.5579 20.4147C26.3963 20.7741 26.2334 21.1325 26.1261 21.5137C26.0739 21.6988 25.9925 21.8762 25.9475 22.0627C25.9057 22.2355 25.8935 22.4156 25.8703 22.5928C25.8544 22.7146 25.8427 22.8371 25.8275 22.959C25.8126 23.0784 25.7981 23.1971 25.8979 23.2918C26.0702 23.7029 26.3941 24.0106 26.633 24.3762C26.6736 24.4384 26.7155 24.5012 26.7458 24.5685C26.8881 24.8849 27.0345 25.1999 27.1624 25.5221C27.2113 25.6454 27.2203 25.7861 27.237 25.9202C27.2516 26.0375 27.251 26.1567 27.2586 26.2749C27.2617 26.3231 27.2588 26.3749 27.2758 26.4183C27.3236 26.5401 27.331 26.6658 27.3301 26.7937C27.3299 26.8155 27.3288 26.8408 27.3387 26.8584C27.4044 26.9748 27.4032 27.1022 27.4046 27.2295C27.4048 27.247 27.4047 27.266 27.4113 27.2816C27.504 27.5029 27.458 27.7422 27.501 27.9694C27.573 28.3502 27.5479 28.7392 27.6071 29.1212C27.6245 29.2329 27.6077 29.3496 27.6154 29.4634C27.6314 29.6997 27.6548 29.9354 27.6722 30.1716C27.681 30.2897 27.6872 30.4083 27.688 30.5267C27.6903 30.9398 27.6956 31.3532 27.6875 31.7662C27.6839 31.9404 27.6374 32.1137 27.6319 32.2881C27.6213 32.6304 27.6106 32.9739 27.6276 33.3155C27.6499 33.7662 27.7238 34.2147 27.6883 34.6679C27.6723 34.8737 27.6629 35.0776 27.6831 35.2849C27.695 35.4078 27.753 35.5088 27.7906 35.6179C27.8583 35.8138 27.9574 35.9985 28.0279 36.1935C28.0748 36.3229 28.0934 36.4625 28.1275 36.5967C28.1499 36.6844 28.1728 36.7727 28.2038 36.8576C28.2635 37.0204 28.3325 37.1799 28.3913 37.3432C28.4747 37.5751 28.5503 37.8098 28.6334 38.0418C28.6873 38.1927 28.7372 38.3438 28.778 38.4994C28.8305 38.7002 28.9087 38.894 28.9666 39.0935C29.0053 39.2265 29.027 39.3644 29.0578 39.4997C29.0857 39.623 29.1148 39.7459 29.1451 39.8685C29.1963 40.0756 29.2419 40.2829 29.2781 40.4939C29.3076 40.6659 29.3272 40.8398 29.3619 41.0099C29.3845 41.1209 29.4056 41.2313 29.4245 41.3432C29.4481 41.4836 29.4986 41.6196 29.5385 41.7572C29.5685 41.8604 29.5962 41.9647 29.6328 42.0656C29.6548 42.1261 29.688 42.1836 29.7233 42.2378C29.7824 42.3283 29.7814 42.3246 29.7267 42.4144C29.7094 42.4427 29.7 42.4949 29.7145 42.5206C29.8281 42.7229 29.9509 42.9156 30.1479 43.0551C30.3199 43.1769 30.5016 43.2779 30.6909 43.3657C30.7877 43.4107 30.8946 43.4336 30.9966 43.4676C31.0658 43.4907 31.1342 43.5159 31.203 43.5402C31.3054 43.5762 31.4073 43.6139 31.5104 43.6479C31.6174 43.6831 31.7257 43.7149 31.8334 43.748C32.0479 43.8139 32.2525 43.8922 32.3831 44.0952C32.4823 44.2492 32.4403 44.4393 32.2811 44.531C32.1634 44.5987 32.0361 44.6369 31.9062 44.6702C31.7553 44.7088 31.6052 44.7497 31.4546 44.7895C31.4336 44.7951 31.4125 44.8043 31.3911 44.8049C31.098 44.815 30.8043 44.8372 30.5118 44.8274C30.3631 44.8224 30.2041 44.829 30.0627 44.7513C30.034 44.7356 29.9941 44.7416 29.96 44.7344C29.905 44.7227 29.8507 44.7083 29.796 44.6951C29.7495 44.684 29.7032 44.6719 29.6563 44.6623C29.635 44.6579 29.609 44.6649 29.5914 44.6554C29.4588 44.5826 29.3104 44.6055 29.17 44.5811C29.0672 44.5633 28.9795 44.5784 28.8849 44.6372C28.7996 44.69 28.6885 44.7221 28.5878 44.7248C28.2241 44.7345 27.86 44.7322 27.4962 44.725C27.3883 44.7229 27.2801 44.6938 27.174 44.6685C27.1465 44.662 27.1203 44.6269 27.1047 44.5988C27.0514 44.5032 26.9955 44.4147 26.9063 44.3432C26.8172 44.2717 26.7731 44.1646 26.751 44.0481C26.717 43.8693 26.7143 43.6936 26.7441 43.5128C26.7655 43.3836 26.7718 43.253 26.8147 43.1269C26.8427 43.0445 26.834 43.0177 26.8012 42.9149C26.7615 42.9149 26.7189 42.9163 26.6765 42.9145C26.6243 42.9123 26.5703 42.9151 26.5208 42.9019C26.4495 42.8827 26.4079 42.8375 26.3918 42.7551C26.3644 42.6149 26.3172 42.4785 26.2798 42.3401C26.2685 42.298 26.2632 42.2543 26.2538 42.2117C26.2424 42.1611 26.2297 42.1107 26.2172 42.0604C26.2067 42.0183 26.1955 41.9764 26.1851 41.9342C26.1664 41.8586 26.1482 41.7828 26.1294 41.7071C26.1273 41.6987 26.121 41.6913 26.1196 41.6829C26.0921 41.5155 26.0648 41.348 26.0379 41.1805C26.0268 41.1113 26.0165 41.042 26.006 40.9726C25.9936 40.8908 25.9831 40.8087 25.9688 40.7272C25.9553 40.65 25.9353 40.5739 25.9229 40.4966C25.9105 40.4189 25.9066 40.34 25.8945 40.2623C25.8601 40.0423 25.8093 39.8244 25.812 39.5996C25.7387 39.4521 25.7516 39.2919 25.7437 39.1348C25.7428 39.1173 25.746 39.0974 25.7391 39.0826C25.6653 38.926 25.6891 38.7548 25.6629 38.5912C25.6261 38.3628 25.5831 38.1354 25.5429 37.9074C25.5407 37.8945 25.5378 37.8813 25.5379 37.8683C25.5381 37.7669 25.5311 37.6685 25.4883 37.5725C25.4659 37.5223 25.4649 37.4609 25.4616 37.4042C25.4571 37.3295 25.4579 37.256 25.4138 37.189C25.3984 37.1655 25.3977 37.1298 25.3971 37.0996C25.3952 37.0066 25.3913 36.9159 25.3381 36.8333C25.3229 36.8098 25.3255 36.7743 25.3214 36.744C25.3162 36.7049 25.3177 36.6643 25.3074 36.6267C25.2716 36.4973 25.2272 36.3702 25.195 36.2399C25.1595 36.0966 25.1341 35.9509 25.1041 35.8062C25.0988 35.7804 25.0972 35.7526 25.0858 35.7296C25.0372 35.6317 25.0381 35.5264 25.031 35.4211C25.0217 35.2858 25.0011 35.1514 24.991 35.0162C24.9814 34.8849 24.9708 34.7529 24.975 34.6215C24.9854 34.2925 25.0025 33.9636 25.0199 33.6348C25.0336 33.3757 25.046 33.118 24.9877 32.8609C24.9638 32.7551 24.9666 32.6427 24.9615 32.5331C24.9571 32.4372 24.9617 32.3445 24.9091 32.2536C24.8667 32.1803 24.8541 32.0899 24.8265 32.0078C24.7962 31.9181 24.767 31.8278 24.7316 31.7401C24.6703 31.5879 24.6022 31.4385 24.5423 31.2858C24.527 31.2466 24.5378 31.1975 24.525 31.1565C24.5156 31.1263 24.4916 31.0868 24.4663 31.0797C24.4442 31.0736 24.4026 31.1006 24.3844 31.1243C24.2068 31.3567 24.0305 31.5921 23.9031 31.8558C23.8301 32.0066 23.7919 32.1746 23.7398 32.3354C23.7011 32.4547 23.6597 32.5735 23.6298 32.695C23.5906 32.8543 23.5596 33.0159 23.5289 33.1772C23.5124 33.263 23.5005 33.35 23.493 33.4371C23.4874 33.5012 23.4768 33.5711 23.4953 33.6298C23.5467 33.7923 23.5331 33.9551 23.4968 34.112C23.4697 34.2292 23.4613 34.3449 23.4511 34.4627C23.4452 34.5311 23.4241 34.5982 23.4086 34.6657C23.4037 34.687 23.392 34.7067 23.3878 34.7281C23.3612 34.8597 23.3403 34.9928 23.3083 35.1231C23.2869 35.2108 23.2591 35.2992 23.2188 35.3796C23.1275 35.5622 23.0483 35.7527 22.9006 35.9025C22.8758 35.9276 22.8729 35.9834 22.8747 36.0245C22.8887 36.331 22.9121 36.6371 22.9202 36.9437C22.9238 37.0831 22.8955 37.223 22.8884 37.363C22.8808 37.512 22.8862 37.6618 22.8766 37.8106C22.8655 37.9854 22.8443 38.1594 22.8273 38.3338C22.821 38.3992 22.8079 38.4648 22.809 38.53C22.8111 38.6628 22.7416 38.7686 22.696 38.8853C22.646 39.0133 22.5985 39.1519 22.5952 39.2869C22.5843 39.7481 22.5872 40.21 22.5973 40.6714C22.6016 40.868 22.6463 41.0635 22.6555 41.2603C22.6706 41.585 22.6426 41.9142 22.685 42.2347C22.7639 42.8314 22.7182 43.4282 22.7313 44.0246C22.7335 44.1232 22.7048 44.2227 22.6883 44.3213C22.6782 44.3812 22.6642 44.4405 22.6491 44.5137C22.4801 44.5668 22.3039 44.6129 22.1352 44.6785C22.0175 44.7244 21.8989 44.7364 21.7768 44.7434C21.7638 44.7442 21.7507 44.7472 21.7382 44.7509C21.6546 44.7755 21.6425 44.8209 21.7044 44.8923C21.8422 45.0513 21.986 45.2051 22.1194 45.3677C22.2667 45.5468 22.3945 45.7383 22.452 45.9695C22.4641 46.0179 22.4978 46.064 22.5306 46.1035C22.5759 46.158 22.5954 46.2168 22.5882 46.2857C22.5787 46.3756 22.6023 46.4653 22.5577 46.5563C22.5026 46.6686 22.4143 46.7318 22.3066 46.7729C22.2098 46.8099 22.1087 46.8351 22.0096 46.8657C21.8851 46.9041 21.7612 46.9445 21.636 46.9805C21.5947 46.9924 21.5501 46.9979 21.507 46.9982C21.2439 46.9999 20.9808 47.0014 20.7178 46.9977C20.663 46.997 20.6081 46.9757 20.5539 46.9615C20.533 46.9561 20.5147 46.9414 20.4939 46.9358C20.3945 46.9089 20.2913 46.8927 20.196 46.8558C20.0632 46.8045 19.9358 46.7388 19.8067 46.6781C19.6942 46.6252 19.6706 46.5205 19.6728 46.4138C19.6752 46.2959 19.696 46.1784 19.7088 46.0609C19.7092 46.0565 19.7114 46.0523 19.7115 46.048C19.722 45.6976 19.8213 45.3547 19.7989 45.0016C19.797 44.971 19.7962 44.94 19.7977 44.9094C19.801 44.8381 19.7678 44.8094 19.6973 44.8013C19.5612 44.7855 19.5454 44.7579 19.558 44.6246C19.5666 44.533 19.568 44.4405 19.57 44.3484C19.5794 43.9002 19.574 43.4513 19.5994 43.0041C19.6832 41.5327 19.6268 40.0602 19.6481 38.5883C19.6565 38.0086 19.6765 37.429 19.6936 36.8494C19.6974 36.7181 19.6919 36.5819 19.7246 36.4569C19.7628 36.3105 19.7693 36.1558 19.84 36.0163C19.8806 35.9361 19.8962 35.8435 19.9292 35.7588C19.9921 35.5974 20.0599 35.438 20.1247 35.2773C20.1571 35.1969 20.1864 35.1153 20.2186 35.0348C20.2458 34.9669 20.2771 34.9006 20.3034 34.8324C20.3752 34.6463 20.4453 34.4594 20.516 34.2728C20.5804 34.1031 20.6502 33.9351 20.7075 33.7629C20.747 33.6443 20.768 33.5195 20.7997 33.398C20.8336 33.2679 20.8793 33.1401 20.9037 33.0084C20.9323 32.8542 20.9436 32.6968 20.9648 32.5198C20.9105 32.5198 20.8733 32.5169 20.8367 32.5203C20.6889 32.5343 20.5487 32.5099 20.425 32.4264C20.372 32.3907 20.3229 32.3438 20.2845 32.2927C20.1786 32.152 20.1377 31.9905 20.1354 31.8141C20.1341 31.7099 20.11 31.606 20.0955 31.5021C20.0661 31.2901 20.037 31.0782 20.0062 30.8664C19.9962 30.7978 19.9817 30.7298 19.9684 30.6617C19.9642 30.6403 19.9544 30.6198 19.9514 30.5984C19.9183 30.3612 19.8867 30.1237 19.8528 29.8866C19.8462 29.8399 19.8308 29.7944 19.821 29.748C19.8101 29.697 19.7955 29.6461 19.7921 29.5944C19.784 29.4721 19.7823 29.3493 19.7328 29.2337C19.7244 29.214 19.7195 29.1906 19.7209 29.1694C19.7307 29.0132 19.6864 28.865 19.6577 28.7143C19.6495 28.6716 19.6514 28.627 19.647 28.5834C19.6358 28.4701 19.6295 28.356 19.6103 28.2441C19.5922 28.1381 19.617 28.0424 19.6763 27.9623C19.7328 27.886 19.7423 27.8134 19.716 27.7282C19.6787 27.6073 19.6292 27.4883 19.609 27.3645C19.5694 27.1219 19.4369 26.9044 19.4278 26.654C19.4261 26.608 19.3971 26.5633 19.3829 26.5172C19.3126 26.2885 19.2222 26.0634 19.1797 25.8296C19.1401 25.6125 19.0662 25.4077 19.013 25.1961C18.975 25.0444 18.9267 24.8954 18.8831 24.7451C18.8795 24.7326 18.8749 24.7197 18.8743 24.7069C18.8649 24.5289 18.7904 24.3683 18.7401 24.2012C18.7376 24.1928 18.7299 24.1851 18.73 24.1771C18.7321 24.0055 18.6314 23.8607 18.6052 23.6974C18.5719 23.4895 18.5061 23.2921 18.4438 23.0921C18.3738 22.8678 18.3335 22.6344 18.2753 22.4063C18.2517 22.3136 18.2115 22.2254 18.1852 22.1333C18.1649 22.0622 18.1582 21.9871 18.139 21.9156C18.1143 21.8233 18.0816 21.7332 18.0553 21.6413C18.0362 21.5743 18.0228 21.5057 18.005 21.4382C17.9738 21.3201 17.941 21.2024 17.9094 21.0844C17.8914 21.017 17.875 20.949 17.8566 20.8817C17.8244 20.764 17.7904 20.6467 17.7585 20.5289C17.7428 20.4706 17.7247 20.4123 17.7169 20.3527C17.7004 20.2279 17.6721 20.112 17.5498 20.0463C17.5421 20.0422 17.5324 20.0386 17.528 20.0319C17.4351 19.8913 17.3104 19.7715 17.2522 19.6082C17.2464 19.592 17.2459 19.5706 17.2349 19.56C17.0904 19.4199 17.0791 19.2218 17.0155 19.0476C16.969 18.9208 17.0294 18.8706 17.1651 18.9057C17.2024 18.9154 17.2402 18.9235 17.2966 18.9367C17.2863 18.8262 17.2844 18.7283 17.2482 18.6343C17.2356 18.6016 17.2183 18.5704 17.2087 18.5369C17.1956 18.4913 17.2019 18.4472 17.2482 18.4229C17.2923 18.3997 17.3363 18.4106 17.3674 18.447C17.3893 18.4727 17.4073 18.5054 17.4164 18.5379C17.4474 18.6489 17.4737 18.7613 17.5026 18.8766C17.5652 18.8867 17.588 18.8348 17.6202 18.8047C17.7128 18.7181 17.7253 18.7204 17.7964 18.8201C17.8337 18.8723 17.8563 18.9251 17.8587 18.9891C17.8598 19.0193 17.8636 19.0534 17.8785 19.0783C17.9293 19.1633 17.9132 19.2535 17.9185 19.3453C17.9329 19.5926 17.9122 19.8319 17.843 20.0706C17.824 20.1361 17.8488 20.2188 17.8674 20.29C17.93 20.5303 17.9936 20.7706 18.0669 21.0078C18.136 21.2318 18.1733 21.4643 18.2584 21.6844C18.2988 21.7891 18.309 21.9055 18.3352 22.0161C18.3684 22.1565 18.4019 22.2969 18.4393 22.4363C18.455 22.4946 18.485 22.5489 18.5019 22.6069C18.565 22.825 18.6274 23.0434 18.6862 23.2627C18.719 23.3848 18.7371 23.5113 18.7748 23.6318C18.8411 23.8437 18.8716 24.0646 18.9498 24.2742C18.9983 24.4042 18.9982 24.5528 19.0488 24.6816C19.1113 24.8406 19.1315 25.0093 19.188 25.1687C19.2227 25.267 19.2466 25.3694 19.2703 25.4712C19.3087 25.6367 19.339 25.8032 19.4009 25.9636C19.4428 26.072 19.4443 26.1959 19.4846 26.3052C19.5289 26.4254 19.5641 26.5437 19.5739 26.6725C19.5797 26.7492 19.612 26.8247 19.6389 26.8984C19.6447 26.9146 19.6777 26.9208 19.6999 26.9325C19.711 26.9127 19.7221 26.9021 19.7225 26.8911C19.7317 26.632 19.7347 26.3732 19.6805 26.1174C19.6697 26.0659 19.6535 26.013 19.6562 25.9616C19.6706 25.6825 19.5801 25.416 19.5622 25.1404C19.5532 25.003 19.5036 24.8683 19.4723 24.7324C19.4684 24.7154 19.461 24.6987 19.4595 24.6815C19.4361 24.4097 19.356 24.1492 19.3034 23.8832C19.2722 23.7244 19.2532 23.5631 19.2195 23.4048C19.1539 23.0971 19.079 22.7913 19.0137 22.4835C18.9811 22.3296 18.9632 22.1727 18.9347 22.0179C18.8841 21.7428 18.8355 21.467 18.7759 21.1938C18.7488 21.0698 18.7264 20.9466 18.7101 20.8205C18.6927 20.687 18.6447 20.5578 18.6163 20.4254C18.5861 20.2843 18.5601 20.1421 18.5389 19.9994C18.5314 19.949 18.5048 19.9265 18.4687 19.898C18.4226 19.8617 18.384 19.814 18.3485 19.7664C18.3094 19.714 18.2774 19.6562 18.2428 19.6005C18.1972 19.5272 18.1353 19.4619 18.141 19.3646C18.1423 19.3416 18.1266 19.3133 18.1106 19.2943C17.9854 19.1443 18.0066 18.9554 17.9766 18.7814C17.9647 18.7124 18.0329 18.6786 18.1063 18.7082C18.1572 18.7287 18.2061 18.7538 18.2586 18.7781C18.3009 18.7038 18.2852 18.6375 18.2539 18.5913C18.1984 18.5094 18.2156 18.4215 18.2105 18.336C18.209 18.3105 18.2392 18.2682 18.2636 18.2601C18.2892 18.2516 18.3426 18.2656 18.3536 18.2861C18.3861 18.3462 18.4148 18.4128 18.424 18.4798C18.4357 18.5652 18.4269 18.6534 18.4269 18.7408C18.5417 18.7644 18.5568 18.6677 18.6095 18.6243C18.6633 18.58 18.721 18.5405 18.7837 18.4939C18.8483 18.5305 18.9141 18.568 18.9914 18.6119C19.0005 18.5727 19.0112 18.5489 19.0106 18.5253C19.0076 18.4157 19.0006 18.3062 18.9968 18.1966C18.9949 18.1429 18.9948 18.0844 19.0618 18.0702C19.1237 18.0571 19.1446 18.1089 19.1622 18.154C19.2006 18.2527 19.2306 18.353 19.2168 18.462C19.2116 18.503 19.2159 18.5452 19.2159 18.6201C19.2767 18.5751 19.3137 18.5498 19.3484 18.5215C19.4391 18.4471 19.4756 18.4612 19.5125 18.5697C19.5499 18.6795 19.5644 18.7908 19.5649 18.9053C19.565 18.9272 19.573 18.9544 19.5631 18.9702C19.4982 19.0737 19.523 19.191 19.506 19.3016C19.5001 19.3397 19.4812 19.3757 19.4676 19.4124C19.457 19.4409 19.4341 19.47 19.4361 19.4975C19.4443 19.6118 19.3821 19.6957 19.3286 19.7857C19.3101 19.8167 19.301 19.8598 19.3038 19.8962C19.3184 20.0838 19.3228 20.2741 19.3597 20.4577C19.419 20.7529 19.4109 21.0509 19.4323 21.3478C19.4587 21.7148 19.5126 22.0797 19.5502 22.446C19.5635 22.5769 19.5611 22.7093 19.5703 22.8406C19.5821 23.0067 19.5986 23.1724 19.6126 23.3383C19.6211 23.4389 19.6272 23.5396 19.6368 23.64C19.6601 23.8845 19.7007 24.1285 19.7051 24.3732C19.7112 24.7168 19.74 25.0573 19.7971 25.3947C19.8515 25.7175 19.9268 26.0366 19.9886 26.3582C20.0191 26.5169 20.0398 26.6774 20.0652 26.8371C20.0711 26.8734 20.0782 26.9095 20.086 26.9529C20.1741 26.9251 20.2073 26.8666 20.2159 26.8026C20.2325 26.6787 20.2978 26.5761 20.3464 26.4663C20.3933 26.3608 20.445 26.2572 20.4987 26.1548C20.6032 25.955 20.7107 25.7566 20.8168 25.5576C20.9244 25.3556 21.0367 25.1558 21.1377 24.9505C21.2072 24.8094 21.2339 24.6528 21.2621 24.4987C21.2718 24.4455 21.2553 24.3949 21.2064 24.36C21.0206 24.2274 20.9754 24.041 21.0025 23.8259C21.0128 23.7438 21.0201 23.6654 21.0614 23.587C21.107 23.5002 21.1299 23.3989 21.1485 23.3013C21.1586 23.2486 21.1497 23.1859 21.1297 23.1356C21.1075 23.0793 21.11 23.0339 21.1414 22.9873C21.2072 22.8896 21.2742 22.7927 21.3324 22.7078C21.2938 22.5465 21.2542 22.3957 21.2222 22.2433C21.1774 22.0301 21.1344 21.8164 21.0983 21.6016C21.0825 21.507 21.0854 21.4091 21.0802 21.3126C21.0784 21.2776 21.0827 21.2414 21.0759 21.2074C21.0383 21.0202 21.0007 20.8329 20.9581 20.6469C20.9331 20.5373 20.9027 20.4285 20.8678 20.3217C20.8464 20.2564 20.815 20.1936 20.7824 20.1328C20.6285 19.8456 20.4702 19.5607 20.3182 19.2725C20.2144 19.0758 20.1024 18.8811 20.0238 18.6742C19.9538 18.49 19.8781 18.3033 19.8568 18.1032C19.8499 18.0377 19.8409 17.9713 19.8451 17.9061C19.8503 17.8257 19.809 17.7736 19.7588 17.7227C19.5772 17.5385 19.3936 17.3564 19.2148 17.1696C19.1119 17.0621 19.0406 16.9371 18.9846 16.7949C18.9052 16.5936 18.8135 16.3939 18.658 16.2324C18.5406 16.1106 18.5321 15.9493 18.5276 15.7913C18.525 15.6949 18.5344 15.5981 18.532 15.5016C18.5263 15.2729 18.5982 15.092 18.8184 14.9892C18.9831 14.9123 19.1472 14.8329 19.3062 14.7449C19.4847 14.6461 19.6616 14.5432 19.831 14.4299C20.0119 14.309 20.199 14.2007 20.3961 14.1104C20.4422 14.0893 20.4986 14.0906 20.5503 14.0819C20.5932 14.0748 20.636 14.0651 20.6793 14.0622C20.7304 14.0588 20.7822 14.0587 20.8333 14.0624C20.896 14.067 20.9584 14.0769 21.0454 14.0874C21.0203 14.0453 21.0126 14.0253 20.9991 14.0106C20.8725 13.8724 20.7938 13.7064 20.7226 13.536C20.7142 13.5158 20.7008 13.4953 20.6998 13.4746C20.6897 13.253 20.5868 13.0647 20.4905 12.8734C20.4233 12.7402 20.3646 12.6024 20.294 12.471C20.1438 12.192 20.0318 11.8988 19.9581 11.5732C19.9312 11.6753 19.9298 11.6756 19.9565 11.8092C19.9718 11.8853 19.9924 11.9603 20.0172 12.0629C19.9838 12.0316 19.9663 12.0228 19.9616 12.0095C19.8825 11.7857 19.7885 11.5599 19.8796 11.3199C19.9299 11.1874 19.9266 11.0563 19.9214 10.9029C19.8578 11.0085 19.8025 11.1004 19.7446 11.1969C19.74 11.1948 19.7245 11.1879 19.7097 11.1812C19.743 10.9763 19.8042 10.7838 19.8957 10.6004C19.9223 10.5471 19.9357 10.4871 19.9365 10.4177C19.8898 10.4603 19.843 10.5028 19.7963 10.5454L19.799 10.5476Z" fill="white"/>
<path d="M38 13.862C37.8627 13.8866 37.7534 13.9148 37.6424 13.9248C36.9225 13.9902 36.2024 14.0511 35.4824 14.1146C34.999 14.1571 34.5157 14.2008 34.0325 14.2454C33.5718 14.288 33.1113 14.3329 32.6506 14.3759C32.1726 14.4206 31.6945 14.464 31.2164 14.5084C30.8427 14.5431 30.469 14.5774 30.0954 14.6139C29.6004 14.6621 29.1056 14.7136 28.6105 14.761C28.2759 14.793 27.9408 14.8203 27.606 14.8503C27.5234 14.8577 27.4384 14.8574 27.3593 14.8785C27.2907 14.8968 27.2264 14.9365 27.1641 14.9733C26.8212 15.1758 26.4595 15.3242 26.0598 15.3654C26.0521 15.3662 26.0436 15.3601 26.0235 15.353C26.0221 15.1047 25.9173 14.8877 25.7672 14.6845C25.8283 14.6304 25.8944 14.6001 25.9684 14.5958C26.0907 14.5889 26.2134 14.5862 26.336 14.5867C26.4182 14.5869 26.5006 14.5939 26.5826 14.6014C26.6122 14.6042 26.641 14.617 26.67 14.6256C26.7862 14.6598 26.9005 14.7074 27.0191 14.7243C27.1162 14.7381 27.2186 14.7173 27.3183 14.7085C27.4921 14.693 27.6657 14.6744 27.8395 14.6579C28.1782 14.6259 28.517 14.5936 28.856 14.5631C29.0907 14.5419 29.3258 14.5245 29.5607 14.5036C29.9475 14.4691 30.3343 14.4321 30.7212 14.398C31.2473 14.3516 31.7736 14.3074 32.2997 14.2612C32.691 14.2267 33.0822 14.1911 33.4733 14.1549C33.9339 14.1123 34.3943 14.0668 34.855 14.0256C35.3767 13.979 35.8988 13.9372 36.4205 13.8909C36.8682 13.8511 37.3158 13.81 37.7629 13.7644C37.8495 13.7556 37.9149 13.7772 38 13.862Z" fill="white"/>
<path d="M19.7964 10.5454C19.7812 10.5816 19.7662 10.6177 19.751 10.6539L19.7547 10.6569C19.7441 10.6101 19.7532 10.5714 19.7991 10.5477L19.7964 10.5454Z" fill="white"/>
<path d="M19.7519 10.6533C19.746 10.6592 19.74 10.6651 19.7341 10.671C19.7411 10.666 19.7482 10.661 19.7555 10.6562C19.7558 10.6563 19.7519 10.6533 19.7519 10.6533Z" fill="white"/>
<path d="M25.61 9.49369C25.6192 9.50273 25.6285 9.51171 25.6378 9.52075C25.6378 9.52081 25.6403 9.51875 25.6403 9.51875C25.6299 9.5187 25.6196 9.51864 25.6091 9.51864L25.6134 9.52009L25.6135 9.49042L25.61 9.49369Z" fill="white"/>
</g>
<defs>
<clipPath id="clip0_103_1510">
<rect width="21" height="46" fill="white" transform="translate(17 1)"/>
</clipPath>
</defs>
</svg>
