<svg width="50" height="50" viewBox="0 0 50 50" fill="none" xmlns="http://www.w3.org/2000/svg">
<!--<rect width="50" height="50" rx="2" fill="black"/>-->
<path d="M15.7079 29.2649C15.7634 29.384 15.8284 29.5023 15.8877 29.6177C15.9508 29.7404 15.9957 29.8586 16.0136 29.9867C16.025 30.0693 15.9746 30.1534 15.973 30.2258C15.9704 30.3379 15.9262 30.4283 15.8739 30.5198C15.7242 30.7809 15.4585 30.953 15.1623 31.1308C15.1783 31.061 15.2241 31.0317 15.2621 31.0014C15.4802 30.8278 15.6538 30.6337 15.7322 30.3865C15.7695 30.2689 15.7694 30.0208 15.7147 29.8788C15.694 29.825 15.6346 29.7734 15.6827 29.7096C15.6858 29.7055 15.6857 29.6951 15.6823 29.6931C15.5277 29.5999 15.4743 29.4492 15.3728 29.326C14.8758 28.723 14.2824 28.1884 13.6445 27.686C13.0368 27.2075 12.4012 26.7538 11.8027 26.2667C11.1608 25.7443 10.606 25.164 10.0559 24.5782C9.46246 23.9464 8.93735 23.2789 8.44842 22.5907C8.35128 22.454 8.23812 22.3249 8.13196 22.1925C8.10842 22.1631 8.07253 22.1382 8.09236 22.0962C8.0985 22.0832 8.10194 22.0631 8.07319 22.0653C7.9976 22.0712 7.97689 22.0186 7.94285 21.983C7.78755 21.8206 7.63358 21.6573 7.48164 21.4928C7.45293 21.4617 7.40368 21.4332 7.43221 21.3826C7.43884 21.3709 7.43113 21.3626 7.41693 21.3542C7.18436 21.2176 7.10198 21.0082 7.02495 20.7979C6.99899 20.727 7.04161 20.6762 7.12536 20.6503C7.23092 20.6176 7.33543 20.5821 7.44294 20.5545C7.51383 20.5363 7.51147 20.5144 7.46642 20.4768C7.33365 20.3657 7.2021 20.2537 7.06928 20.1427C6.84193 19.9527 6.60818 19.7673 6.43563 19.5386C6.2799 19.3322 6.29372 19.2007 6.49145 19.0206C6.54023 18.9762 6.59097 18.9329 6.64471 18.8925C6.87613 18.7189 6.91625 18.5057 6.83914 18.268C6.76484 18.039 6.62598 17.8436 6.39696 17.6944C6.30769 17.6363 6.31064 17.6208 6.41469 17.5826C6.52296 17.5429 6.64638 17.5339 6.75355 17.4746C6.70432 17.4504 6.66207 17.4295 6.61965 17.4089C6.56548 17.3825 6.52516 17.3483 6.54672 17.2923C6.5693 17.2337 6.62773 17.2191 6.69522 17.2251C6.77469 17.2322 6.85361 17.2438 6.93318 17.2495C6.97062 17.2522 7.01996 17.2589 7.02344 17.209C7.02693 17.159 6.97567 17.1739 6.94462 17.1702C6.75837 17.1477 6.68171 17.0852 6.69341 16.9658C6.70199 16.8783 6.77789 16.839 6.87207 16.8003C6.8121 16.7738 6.75965 16.7867 6.70908 16.7882C6.55969 16.7929 6.46185 16.7193 6.46086 16.6007C6.45996 16.492 6.5495 16.4343 6.70376 16.439C6.80191 16.442 6.90036 16.4378 6.99864 16.439C7.04007 16.4395 7.06149 16.4257 7.06093 16.3927C7.06026 16.3528 7.02026 16.3667 6.99549 16.3651C6.94837 16.3619 6.90007 16.358 6.85363 16.363C6.63914 16.3862 6.50271 16.254 6.63167 16.0478C6.37652 16.0478 6.13473 16.0485 5.89295 16.0475C5.72529 16.0469 5.55721 16.0492 5.39017 16.04C5.29706 16.0349 5.25393 16.0593 5.2267 16.1314C5.17334 16.2728 5.1647 16.2775 5.00846 16.2003C4.68049 16.0381 4.315 16.0106 3.94726 15.9868C3.78948 15.9766 3.63165 15.9668 3.47461 15.9394C3.67524 15.9259 3.87562 15.9085 4.07654 15.8998C4.42501 15.8848 4.75036 15.8119 5.05077 15.6632C5.18033 15.5991 5.1872 15.6032 5.21519 15.7217C5.22965 15.7829 5.25541 15.8071 5.34134 15.8072C5.84432 15.808 6.34731 15.8149 6.85019 15.8233C6.93156 15.8246 6.96911 15.8134 6.96249 15.7374C6.9571 15.6756 6.97385 15.6124 6.98154 15.5499C7.00134 15.389 6.93985 15.2552 6.7865 15.1517C6.69642 15.0909 6.60571 15.0307 6.51595 14.9696C6.48522 14.9487 6.45363 14.9278 6.42748 14.9033C6.3419 14.823 6.34252 14.8212 6.47038 14.8006C6.57099 14.7844 6.65299 14.7429 6.7226 14.6832C7.03044 14.4193 7.04899 14.0274 6.76799 13.7455C6.67348 13.6507 6.57017 13.5619 6.49195 13.4561C6.3881 13.3158 6.38516 13.1747 6.47218 13.0291C6.62454 12.7742 6.86298 12.5755 7.10756 12.3828C7.35995 12.1839 7.62149 11.9928 7.8811 11.8003C7.9412 11.7557 7.95962 11.7223 7.87962 11.6792C7.82187 11.6481 7.77803 11.603 7.73514 11.5577C7.66294 11.4816 7.65083 11.3978 7.69617 11.3132C7.75994 11.1941 7.81749 11.0716 7.94865 10.9846C7.98512 10.9604 7.98135 10.9054 8.01499 10.869C8.14713 10.726 8.27272 10.5789 8.40471 10.4358C9.01575 9.77319 9.61991 9.10639 10.2413 8.45021C11.2757 7.35778 12.4721 6.39692 13.7527 5.50279C14.2635 5.14611 14.7873 4.80179 15.2785 4.42627C15.4309 4.30984 15.5684 4.18239 15.7123 4.05965C15.846 3.94564 15.942 3.81008 16.0584 3.68833C16.1485 3.59404 16.1648 3.46416 16.2918 3.39436C16.252 3.32216 16.2969 3.25234 16.3019 3.18157C16.3155 2.99072 16.2581 2.81492 16.1537 2.64587C16.097 2.55393 16.0311 2.4634 16.0138 2.35229C16.0331 2.35518 16.0471 2.35373 16.0519 2.35849C16.2266 2.53394 16.4378 2.68798 16.5576 2.89615C16.6595 3.0733 16.6971 3.25024 16.6334 3.45738C16.5794 3.63276 16.4635 3.76927 16.3669 3.91954C16.3486 3.94793 16.3358 3.97139 16.3418 4.00198L16.3448 4.00106C16.3245 3.9621 16.307 3.97097 16.2792 3.99901C16.2013 4.07747 16.1215 4.15478 16.0388 4.22989C15.7573 4.48572 15.4513 4.72109 15.1377 4.94961C14.0167 5.76638 12.9012 6.58765 11.8787 7.48968C11.1138 8.16444 10.4129 8.87868 9.88678 9.69822C9.66006 10.0514 9.47758 10.4196 9.41469 10.82C9.3665 11.1267 9.37061 11.4341 9.41432 11.7411C9.43548 11.8897 9.4624 12.0377 9.47983 12.1866C9.49447 12.3116 9.4505 12.343 9.29695 12.324C9.14401 12.305 9.00323 12.2551 8.86667 12.1981C8.81466 12.1764 8.77636 12.1734 8.7316 12.2104C8.43359 12.4565 8.12439 12.6934 7.86852 12.9724C7.66052 13.1991 7.61713 13.436 7.76214 13.6961C7.87501 13.8985 7.94555 14.1117 7.99356 14.3306C8.01741 14.4393 8.04262 14.5483 8.08974 14.6527C8.12795 14.7373 8.18615 14.806 8.29498 14.839C8.44126 14.8833 8.44241 14.8896 8.319 14.9759C8.27753 15.005 8.23139 15.0296 8.18674 15.0554C8.09137 15.1107 7.99966 15.1693 7.91356 15.2345C7.85057 15.2821 7.84894 15.3116 7.92287 15.3571C8.12525 15.4818 8.37658 15.5313 8.5786 15.6582C8.6842 15.7246 8.81028 15.7707 8.91865 15.8367C8.95892 15.8613 9.00144 15.8696 9.05052 15.8715C9.33588 15.8822 9.62124 15.8607 9.90715 15.8748C9.98072 15.8785 10.1209 15.9256 10.1274 15.783C10.1289 15.7509 10.1846 15.7511 10.2199 15.7477C10.5601 15.7152 10.9008 15.6993 11.2419 15.7387C11.292 15.7445 11.358 15.779 11.3876 15.7633C11.5342 15.6855 11.6856 15.6513 11.8569 15.6855C12.2665 15.5725 12.7068 15.5444 13.0974 15.3769C13.2118 15.3279 13.3424 15.3168 13.47 15.3493C13.5203 15.3621 13.5679 15.366 13.6193 15.3594C13.9344 15.3187 14.2572 15.3153 14.5612 15.2211C14.637 15.1977 14.7126 15.2201 14.7479 15.28C14.7828 15.3392 14.7105 15.3608 14.6648 15.3879C14.65 15.3966 14.6343 15.4043 14.6198 15.4133C14.457 15.5134 14.319 15.6308 14.2198 15.7854C14.2943 15.7928 14.3507 15.7822 14.4033 15.7604C14.5569 15.6966 14.6647 15.7319 14.6984 15.8675C14.7102 15.915 14.7337 15.926 14.7828 15.9279C14.8956 15.9322 15.0083 15.9412 15.1212 15.9426C16.222 15.9566 17.3227 15.971 18.4235 15.9817C18.7157 15.9845 19.0075 15.9589 19.2888 15.895C19.7003 15.8015 20.1128 15.719 20.5396 15.688C20.8287 15.667 21.1139 15.598 21.4081 15.6438C21.4153 15.6449 21.4226 15.6453 21.4298 15.6458C21.6415 15.6603 21.8551 15.7632 22.0638 15.637C22.3789 15.6204 22.6821 15.5308 23.0013 15.5358C23.0581 15.5367 23.1301 15.5322 23.1453 15.4643C23.1873 15.4933 23.232 15.4872 23.2783 15.4722C23.3694 15.4427 23.4621 15.4165 23.5518 15.3845C23.7464 15.3151 23.7429 15.314 23.7409 15.1408C23.7402 15.077 23.7134 15.0727 23.649 15.0908C23.4773 15.139 23.3042 15.1851 23.1187 15.1767C23.0665 15.1744 23.0563 15.1919 23.0698 15.2303C23.0908 15.2905 23.1081 15.3515 23.127 15.4121C23.0777 15.3551 23.0538 15.2886 23.0238 15.2246C23.0085 15.1917 22.9869 15.1704 22.945 15.157C22.7792 15.1043 22.6864 14.9998 22.6392 14.8619C22.6114 14.7809 22.6018 14.7019 22.5329 14.6233C22.3991 14.4706 22.3684 14.2743 22.286 14.0987C22.2613 14.0462 22.2335 14.0041 22.174 13.9733C22.0857 13.9276 22.0622 13.8602 22.0942 13.7781C22.1566 13.6182 22.039 13.4979 21.9553 13.3695C21.9534 13.3858 21.9516 13.4021 21.9498 13.4185C21.8361 13.0557 21.7113 12.698 21.702 12.322C21.6531 12.9265 21.8517 13.5017 21.9985 14.0834C21.9788 14.0719 21.9714 14.0587 21.966 14.0449C21.7316 13.4559 21.5602 12.8582 21.5956 12.2319C21.5983 12.1844 21.6029 12.1367 21.5201 12.1072C21.5135 12.2177 21.5072 12.3211 21.4999 12.4435C21.452 12.3037 21.4557 12.179 21.4632 12.0548C21.4663 12.0046 21.4547 11.9623 21.423 11.9192C21.2838 11.7296 21.1477 11.5386 21.0107 11.3479C20.3538 10.4334 19.6745 9.5293 19.0743 8.5881C18.3917 7.51788 17.722 6.44209 17.0046 5.38715C16.8897 5.21811 16.7669 5.05128 16.6894 4.8665C16.6927 4.86445 16.6959 4.8624 16.6991 4.86036C16.9513 5.24076 17.2021 5.62175 17.4558 6.00143C17.9393 6.72501 18.4047 7.4565 18.8637 8.19074C19.448 9.12531 20.1009 10.0277 20.7545 10.9299C20.9743 11.2332 21.1919 11.5376 21.4106 11.8414C21.4268 11.8639 21.4444 11.8857 21.4733 11.9235C21.519 11.7454 21.5692 11.5854 21.6405 11.4306C21.8322 11.0144 22.0934 10.6339 22.4873 10.3226C22.6378 10.2036 22.8023 10.0998 23.0108 10.0572C23.0512 10.0489 23.0692 10.024 23.093 10.002C23.1964 9.90664 23.3135 9.80727 23.4672 9.79795C23.634 9.78781 23.7939 9.76951 23.957 9.73962C24.049 9.72274 24.1531 9.69461 24.2431 9.70459C24.4408 9.72655 24.6228 9.66827 24.813 9.65815C25.0309 9.64656 25.2261 9.72122 25.4309 9.75868C25.8279 9.83128 26.1514 10.0076 26.4315 10.2444C26.5279 10.3259 26.6335 10.4 26.7298 10.4816C27.1886 10.8706 27.4276 11.338 27.5005 11.8755C27.5433 12.1905 27.5345 12.5024 27.5143 12.8161C27.5129 12.8376 27.5184 12.8861 27.483 12.8733C27.4325 12.8551 27.4724 12.9113 27.4351 12.8915C27.4197 12.7728 27.4037 12.6487 27.3877 12.5245C27.3844 12.5245 27.381 12.5244 27.3776 12.5243C27.3676 12.6577 27.3623 12.7914 27.3461 12.9243C27.3336 13.0271 27.3371 13.1336 27.2745 13.2289L27.2754 13.2307C27.2707 13.2025 27.266 13.1742 27.2592 13.1329C27.2013 13.2363 27.2297 13.3466 27.1408 13.4252L27.1415 13.4267C27.15 13.3804 27.1586 13.3341 27.1671 13.2878C27.1598 13.2862 27.1525 13.2846 27.1451 13.283C27.1189 13.343 27.0862 13.4018 27.0677 13.4634C26.9868 13.7321 26.8611 13.9854 26.6891 14.2231C26.6773 14.2394 26.6796 14.2931 26.6217 14.2602C26.6217 14.2603 26.6262 14.2603 26.6262 14.2603L26.6239 14.2625C26.5551 14.3418 26.4692 14.4082 26.3852 14.476L26.3862 14.478C26.3776 14.4677 26.369 14.4624 26.3607 14.4782L26.3615 14.4762C26.3117 14.4946 26.2855 14.541 26.2136 14.5399C26.1833 14.5394 26.1264 14.5816 26.1239 14.6378C26.1163 14.8076 26.1453 14.9718 26.2112 15.1323C26.2308 15.1801 26.2638 15.205 26.3308 15.2033C26.4581 15.2001 26.5772 15.2286 26.679 15.2925C26.7347 15.3274 26.7552 15.3122 26.7796 15.2667C26.8569 15.1229 26.8524 14.9764 26.8121 14.8273C26.7963 14.7689 26.7836 14.71 26.7671 14.6518C26.7469 14.5806 26.7791 14.5266 26.8629 14.515C27.14 14.4765 27.3473 14.343 27.5432 14.1923C27.5929 14.1541 27.6395 14.1438 27.6971 14.1775C27.7177 14.1895 27.7436 14.1955 27.7639 14.2077C27.8484 14.2584 27.8959 14.2376 27.9509 14.1663C28.5945 13.3322 29.247 12.5026 29.8854 11.6658C30.0021 11.5128 30.1129 11.3554 30.2257 11.1997C30.2508 11.165 30.2729 11.1305 30.2473 11.0835C30.2331 11.0575 30.2464 11.0187 30.2553 10.9872C30.2962 10.8435 30.3368 10.7009 30.4119 10.5641C30.4552 10.4853 30.443 10.3889 30.4743 10.3017C30.5274 10.1536 30.6206 10.0236 30.717 9.89393C30.717 9.89393 30.7183 9.89795 30.7183 9.89795L30.7146 9.89565C30.8297 9.72703 30.9643 9.56992 31.1371 9.40703C31.1277 9.54143 31.1169 9.65214 31.0395 9.75027C30.9976 9.80336 30.9727 9.85286 30.9831 9.92349C30.9929 9.9899 30.9546 10.0611 30.9374 10.1301C30.9374 10.13 30.9352 10.1278 30.9352 10.1278C30.976 10.1257 30.9728 10.1423 30.9608 10.1656C30.9403 10.2054 30.9055 10.2413 30.9103 10.2883C30.8917 10.3005 30.8917 10.3154 30.9005 10.3316C30.8891 10.3361 30.8781 10.3406 30.8671 10.3452C30.8624 10.3585 30.8576 10.3719 30.853 10.385C30.852 10.3839 30.8508 10.383 30.8496 10.382C30.8496 10.3836 30.8496 10.3853 30.8496 10.3869C30.8547 10.3723 30.8597 10.3578 30.8648 10.3433C30.8759 10.339 30.887 10.3347 30.898 10.3305C30.9014 10.3158 30.9047 10.3012 30.908 10.2865C30.9679 10.273 30.9814 10.225 31.0091 10.1899C31.1731 9.98255 31.338 9.77559 31.4931 9.56379C31.5479 9.48895 31.5909 9.52216 31.6478 9.55064C31.7076 9.58063 31.7567 9.60526 31.6955 9.67235C31.6539 9.71794 31.5982 9.76172 31.5969 9.82638C31.5843 9.83107 31.5718 9.83584 31.5596 9.84045C31.5603 9.84136 31.561 9.84243 31.5616 9.8435C31.5616 9.84163 31.5615 9.83978 31.5615 9.83791C31.5726 9.83357 31.5837 9.82923 31.5948 9.82489C31.6332 9.80341 31.6717 9.78193 31.7196 9.75522C31.7106 9.90164 31.6531 10.0269 31.5445 10.1468C31.6279 10.1501 31.6836 10.1365 31.736 10.1055C31.7859 10.076 31.8418 10.0782 31.8975 10.097C31.8967 10.096 31.8958 10.0953 31.8949 10.0946C31.8948 10.0962 31.8947 10.0977 31.8946 10.0993C31.9548 10.0322 32.0186 9.96695 32.074 9.8973C32.1094 9.85286 32.1437 9.84901 32.186 9.88378C32.2377 9.92612 32.2686 9.90415 32.3083 9.86825C32.4222 9.76536 32.5183 9.64815 32.6713 9.55378C32.644 9.68046 32.6202 9.79174 32.5271 9.88338C32.4797 9.9301 32.4542 9.9783 32.4521 10.0445C32.45 10.1123 32.4237 10.1837 32.3549 10.2593C32.4988 10.199 32.534 10.0904 32.6193 10.018C32.6143 10.0148 32.6317 10.0314 32.6172 10.0197C32.7626 9.85472 32.918 9.69709 33.1148 9.56224C33.0644 9.65343 33.1011 9.714 33.1947 9.75892C33.2415 9.78134 33.2344 9.80798 33.2027 9.83864C33.1559 9.88402 33.1108 9.93076 33.0683 9.97894C33.0463 10.0039 33.0068 10.0243 33.0218 10.0634C33.0099 10.0657 32.9983 10.0681 32.9869 10.0708C32.9872 10.071 32.9885 10.0742 32.9885 10.0742L32.9864 10.0682L33.0204 10.0625C33.0378 10.0469 33.0466 10.0225 33.08 10.0232L33.0776 10.0214C33.0231 10.1255 32.9157 10.2009 32.8531 10.3004C32.8324 10.3332 32.7891 10.3584 32.8001 10.4023C32.7842 10.3991 32.7751 10.4047 32.7712 10.4171C32.7627 10.4226 32.7542 10.4281 32.7458 10.4336L32.7398 10.4372C32.7398 10.4372 32.7429 10.4318 32.743 10.4319C32.7517 10.4263 32.7602 10.4207 32.7687 10.415C32.7785 10.4102 32.7882 10.4055 32.798 10.4007C33.0141 10.1797 33.2334 9.96071 33.4442 9.73633C33.5033 9.67344 33.5403 9.68947 33.5972 9.73006C33.6503 9.76798 33.7102 9.79329 33.6325 9.85983C33.5707 9.91275 33.5097 9.96949 33.4714 10.0383C33.4501 10.0453 33.4318 10.0538 33.4431 10.0775C33.4588 10.0665 33.4803 10.0586 33.469 10.0367C33.5013 10.0462 33.507 10.0132 33.5503 10.0082C33.4226 10.1534 33.3056 10.2926 33.2163 10.447C33.327 10.4372 33.3526 10.4186 33.558 10.2015L33.5573 10.1997C33.5658 10.2112 33.5744 10.2169 33.5829 10.1997L33.582 10.2017C33.7048 10.0256 33.8913 9.89912 34.0782 9.77005C34.0365 9.85487 34.0513 9.95324 33.967 10.0241C33.8308 10.1383 33.8338 10.3008 33.7594 10.4366C33.7594 10.4365 33.7517 10.4366 33.7517 10.4366L33.7575 10.4345C33.8008 10.4549 33.7674 10.4744 33.7556 10.4931C33.738 10.5208 33.699 10.5417 33.7166 10.5799C33.7074 10.5854 33.6984 10.591 33.6893 10.5965C33.6816 10.6025 33.674 10.6085 33.6663 10.6145C33.6663 10.6145 33.6637 10.6126 33.6638 10.6127C33.6715 10.6066 33.6792 10.6006 33.687 10.5946C33.6961 10.5891 33.7053 10.5837 33.7144 10.5782C33.9439 10.3701 34.1782 10.1653 34.4001 9.95187C34.475 9.87991 34.5071 9.92696 34.5606 9.95975C34.6234 9.9983 34.6466 10.0289 34.5788 10.085C34.5025 10.1479 34.4258 10.2126 34.3687 10.2897C34.3584 10.2938 34.348 10.2978 34.3377 10.3019C34.3333 10.3114 34.329 10.321 34.3247 10.3306L34.3191 10.3309C34.3191 10.3309 34.3233 10.3281 34.3231 10.328C34.317 10.3155 34.3158 10.3047 34.3361 10.3009C34.3517 10.3047 34.3663 10.3074 34.3666 10.2879C34.4212 10.2974 34.4307 10.238 34.4791 10.238L34.4768 10.2362C34.3943 10.363 34.2645 10.4598 34.1608 10.5732C34.1294 10.6076 34.0807 10.6329 34.0693 10.6963C34.1406 10.668 34.2078 10.6515 34.2597 10.6185C34.3487 10.562 34.4607 10.552 34.5537 10.507C34.5969 10.4862 34.6181 10.5259 34.6527 10.524L34.6508 10.5222C34.6182 10.6249 34.5426 10.7009 34.4425 10.7664C34.2606 10.8856 34.116 11.0369 33.9488 11.168C33.6634 11.3917 33.3578 11.5969 32.9522 11.6594C32.911 11.6658 32.8796 11.678 32.8493 11.7032C32.5195 11.9776 32.2152 12.2708 31.9059 12.5604C31.0767 13.3369 30.2483 14.1141 29.4185 14.8902C29.3794 14.9268 29.3395 14.9661 29.396 15.0029C29.5229 15.0855 29.4847 15.1879 29.4639 15.2905C29.4599 15.3099 29.4427 15.3287 29.4756 15.3752C29.4888 15.2752 29.5593 15.2393 29.6466 15.2241C29.714 15.2124 29.7866 15.1814 29.841 15.2514C29.8625 15.2791 29.8996 15.2549 29.918 15.2457C30.2774 15.0658 30.6759 14.9725 31.0777 14.8848C31.1362 14.872 31.1872 14.8377 31.244 14.8179C31.3288 14.7884 31.426 14.7564 31.5077 14.7952C31.6741 14.8741 31.8398 14.8354 32.0051 14.8131C32.2097 14.7854 32.413 14.7496 32.6152 14.7114C32.6885 14.6976 32.7564 14.6655 32.8277 14.6437C32.8684 14.6313 32.9095 14.6173 32.9548 14.6206C33.0146 14.625 33.0798 14.6353 33.1018 14.6834C33.1236 14.7312 33.0605 14.7541 33.023 14.7792C32.8627 14.8863 32.6968 14.9882 32.5564 15.1311C32.6058 15.1421 32.6422 15.1564 32.679 15.1573C32.7823 15.1597 32.8639 15.1987 32.9206 15.263C32.9648 15.3131 33.0192 15.3289 33.086 15.334C33.3086 15.351 33.4702 15.4498 33.5705 15.6057C33.6664 15.7546 33.7763 15.892 33.9056 16.0231C34.0942 16.2145 34.0381 16.4655 33.7785 16.5915C33.5791 16.6883 33.3868 16.7859 33.25 16.9448C33.2118 16.9892 33.1461 17.0117 33.0824 17.0251C32.974 17.0477 32.864 17.0588 32.7577 17.0953C32.6717 17.1248 32.573 17.0849 32.4803 17.0754C32.436 17.0708 32.397 17.0644 32.3541 17.0789C31.6461 17.3174 30.9062 17.4586 30.1552 17.5672C29.67 17.6374 29.2813 17.8394 28.9871 18.1634C28.8521 18.3121 28.7204 18.4629 28.5882 18.6134C28.5607 18.6446 28.534 18.6756 28.5524 18.7202C28.6474 18.9507 28.6171 19.1795 28.5341 19.4071C28.436 19.6764 28.3302 19.9442 28.2792 20.2234C28.2526 20.3688 28.2486 20.5155 28.2492 20.6622C28.2498 20.8271 28.2449 20.9921 28.2183 21.1552C28.1987 21.2754 28.133 21.3909 27.9786 21.4176C27.8476 21.4403 27.8111 21.5176 27.7928 21.591C27.7367 21.8162 27.6738 22.042 27.6813 22.2746C27.6828 22.3216 27.6789 22.3696 27.7599 22.384C27.8113 22.3932 27.8248 22.4396 27.8355 22.4767C27.8979 22.693 27.9945 22.9073 27.911 23.1346C27.8975 23.1713 27.9192 23.1981 27.934 23.2279C27.9589 23.2777 27.9897 23.326 28.008 23.3774C28.0333 23.4483 28.0718 23.497 28.1717 23.5084C28.2608 23.5185 28.3073 23.5782 28.3258 23.6452C28.3564 23.7563 28.3949 23.865 28.4433 23.9715C28.4548 23.9967 28.4712 24.0287 28.4503 24.0495C28.381 24.1184 28.4294 24.1706 28.4691 24.2325C28.509 24.2948 28.5571 24.3304 28.6418 24.3524C28.8731 24.4127 28.9391 24.5063 28.911 24.7048C28.8945 24.822 28.9175 24.9458 28.8144 25.0484C28.7881 25.0745 28.8175 25.1115 28.8276 25.1428C28.9356 25.477 29.1385 25.7814 29.2794 26.1044C29.5627 26.7536 29.9747 27.3558 30.2755 27.9984C30.6489 28.7963 30.8618 29.6257 31.0221 30.4667C31.1746 31.267 31.2175 32.0745 31.265 32.8819C31.2957 33.4051 31.321 33.9288 31.4739 34.4413C31.4881 34.4888 31.5122 34.5046 31.5649 34.5237C31.6926 34.5699 31.8212 34.5485 31.9499 34.5466C32.0131 34.5456 32.0733 34.5496 32.128 34.5788C32.1673 34.5998 32.2058 34.6341 32.1902 34.6661C32.1115 34.8277 32.1843 34.9807 32.2176 35.1361C32.2258 35.174 32.1751 35.2276 32.2591 35.2485C32.2682 35.2036 32.275 35.1599 32.2863 35.117C32.3054 35.0442 32.3535 35.0286 32.4234 35.0768C32.4646 35.1052 32.5077 35.139 32.5293 35.1781C32.6466 35.3901 32.8329 35.5676 32.9626 35.7731C32.971 35.7864 32.9796 35.7995 32.9883 35.8127C33.0469 35.9022 33.0809 35.9938 33.1997 36.063C33.3254 36.1361 33.3909 36.2732 33.4263 36.4033C33.4786 36.596 33.5173 36.7912 33.6378 36.9665C33.6559 36.9929 33.6639 37.0259 33.6376 37.0515C33.6133 37.0752 33.5938 37.0441 33.5578 37.0377C33.6539 37.3056 33.6503 37.585 33.7694 37.8454C33.8215 37.9595 33.8226 38.0808 33.8221 38.2051C33.8215 38.3615 33.8179 38.5262 33.918 38.6722C33.9231 38.6797 33.9269 38.6897 33.9259 38.6981C33.9044 38.8817 33.9966 39.0552 33.9965 39.2367C33.9965 39.3279 34.0205 39.4137 34.0635 39.4981C34.1031 39.5757 34.1633 39.6521 34.1087 39.7446C34.0952 39.7676 34.1201 39.7941 34.1463 39.8141C34.2483 39.8921 34.329 39.9778 34.2823 40.1036C34.2804 40.1089 34.282 40.1156 34.2838 40.1212C34.376 40.4149 34.3897 40.7244 34.5476 41.005C34.5648 41.0354 34.5877 41.0612 34.6122 41.0874C34.782 41.2686 34.829 41.4631 34.6977 41.6734C34.6676 41.7216 34.6781 41.7674 34.697 41.8118C34.7887 42.0277 34.8872 42.2408 35.0132 42.4459C35.1765 42.7118 35.329 42.9823 35.4792 43.2535C35.5571 43.3942 35.6035 43.5459 35.6928 43.6836C35.7195 43.7247 35.7471 43.7586 35.7967 43.7824C36.15 43.9516 36.4008 44.2102 36.6667 44.456C36.7525 44.5353 36.7838 44.6334 36.8202 44.7303C36.8244 44.7414 36.8292 44.7588 36.8224 44.7651C36.7441 44.8382 36.8412 44.9347 36.7734 45.0095C36.7671 45.0165 36.7801 45.0367 36.7866 45.0499C36.84 45.1578 36.8307 45.1945 36.7174 45.2517C36.6827 45.2692 36.6795 45.2811 36.6813 45.3127C36.6876 45.4219 36.5992 45.4885 36.4618 45.4787C36.4233 45.476 36.4155 45.487 36.3978 45.5093C36.2971 45.6368 36.1163 45.6936 35.9402 45.6471C35.7769 45.604 35.6342 45.5333 35.5574 45.3982C35.5202 45.3325 35.4629 45.2936 35.3781 45.2658C35.0944 45.1726 34.8754 45.0128 34.7298 44.7921C34.58 44.565 34.4109 44.3495 34.2136 44.1483C34.1725 44.1065 34.1347 44.0882 34.0667 44.1027C33.8279 44.1538 33.6735 44.0441 33.5329 43.898C33.5 43.9247 33.4999 43.9841 33.4446 43.9743C33.3926 43.965 33.3554 43.9233 33.3487 43.8832C33.3202 43.7139 33.1773 43.6146 33.0412 43.5026C32.8374 43.3349 32.8245 43.1186 32.8709 42.8978C32.8835 42.8377 32.8879 42.7868 32.8448 42.7284C32.7911 42.6557 32.7615 42.5751 32.7886 42.4805C32.8058 42.4208 32.7611 42.3508 32.7655 42.2865C32.7724 42.1849 32.7267 42.1055 32.6535 42.0293C32.6102 41.9841 32.5931 41.9263 32.58 41.8709C32.5241 41.6342 32.3992 41.4169 32.2808 41.2005C32.2186 41.0868 32.0709 41.0126 31.9427 40.9389C31.8733 40.899 31.7993 40.8672 31.7877 40.7885C31.7861 40.7775 31.7777 40.7607 31.7678 40.758C31.565 40.7016 31.6012 40.5485 31.5695 40.4245C31.5628 40.3982 31.5579 40.3722 31.5441 40.348C31.4171 40.1256 31.315 39.8949 31.2093 39.6656C31.179 39.5999 31.1441 39.5399 31.0767 39.496C30.9659 39.4239 30.9121 39.3237 30.8689 39.2178C30.8337 39.1312 30.782 39.0592 30.6801 39.0076C30.595 38.9644 30.4944 38.9109 30.5592 38.7995C30.5748 38.7727 30.5485 38.7481 30.5324 38.7249C30.4647 38.6268 30.4211 38.523 30.4263 38.4089C30.4287 38.3553 30.4049 38.3162 30.3484 38.2905C30.2665 38.2533 30.2002 38.1983 30.1128 38.1654C29.961 38.1082 29.8614 37.9457 29.9017 37.7934C29.9691 37.5387 29.8625 37.3247 29.7127 37.1135C29.6531 37.0293 29.5506 36.9517 29.5566 36.8521C29.5663 36.6913 29.4369 36.5772 29.391 36.4379C29.3478 36.3068 29.3556 36.1661 29.2836 36.0378C29.2697 36.0131 29.3098 35.9663 29.3289 35.9312C29.3493 35.8935 29.3531 35.8748 29.2923 35.8544C29.2166 35.829 29.1295 35.8125 29.0948 35.728C29.0659 35.6572 29.0786 35.606 29.1365 35.5576C29.1814 35.5202 29.1955 35.4805 29.1813 35.4282C29.1496 35.3114 29.1435 35.196 29.2454 35.0962C29.266 35.076 29.2592 35.0579 29.247 35.0387C29.0973 34.8015 29.049 34.5397 28.9747 34.284C28.6933 33.3161 28.242 32.4102 27.5911 31.5653C26.9966 30.7935 26.5037 29.9744 26.1006 29.1214C25.958 28.8196 25.8632 28.5057 25.7708 28.1915C25.7427 28.0958 25.7141 27.999 25.6442 27.916C25.5869 27.848 25.5537 27.8471 25.5058 27.9179C25.4497 28.0011 25.3685 28.0497 25.2542 28.0551C25.0761 28.0633 24.8976 28.0686 24.7259 27.9783C24.7153 28.1277 24.7472 28.2677 24.773 28.4066C24.8669 28.9112 24.84 29.4148 24.7786 29.9199C24.692 30.6332 24.5218 31.3336 24.3214 32.03C24.2461 32.2918 24.2599 32.5595 24.2532 32.8256C24.2442 33.1819 24.2342 33.5382 24.2244 33.8944C24.217 34.1644 24.2396 34.433 24.2769 34.701C24.3095 34.9356 24.2898 35.1672 24.2148 35.3953C24.2054 35.424 24.1936 35.449 24.2204 35.4791C24.3398 35.6132 24.3206 35.7807 24.3723 35.9313C24.3921 35.9891 24.3406 36.0452 24.2827 36.0867C24.2554 36.1061 24.2281 36.1258 24.2037 36.1475C24.1557 36.1901 24.152 36.2235 24.2252 36.2557C24.3446 36.308 24.4331 36.3791 24.4077 36.5066C24.3976 36.5571 24.4277 36.5887 24.493 36.6017C24.6052 36.6239 24.6529 36.687 24.6454 36.781C24.6409 36.8377 24.6373 36.8947 24.6389 36.9515C24.6415 37.0422 24.6154 37.1125 24.4854 37.1215C24.4496 37.124 24.4392 37.1414 24.4394 37.1706C24.4406 37.3543 24.4081 37.5369 24.4906 37.7192C24.5394 37.827 24.5285 37.9536 24.4917 38.0651C24.4396 38.2231 24.4778 38.3807 24.461 38.5377C24.4588 38.5576 24.4729 38.5697 24.4883 38.5836C24.5963 38.681 24.619 38.9008 24.5355 39.0097C24.5185 39.0318 24.4944 39.0486 24.4674 39.0513C24.3562 39.0626 24.3408 39.1318 24.3169 39.2023C24.1541 39.6831 24.0769 40.1752 24.0281 40.671C24.0224 40.7285 24.0394 40.7765 24.0769 40.8338C24.1461 40.9394 24.1251 41.0662 24.0896 41.1842C24.0858 41.1967 24.0679 41.2135 24.0539 41.2155C23.9285 41.2333 23.9196 41.3204 23.894 41.3956C23.8596 41.4967 23.8201 41.5963 23.7677 41.6917C23.6769 41.8572 23.6694 42.026 23.6789 42.207C23.6874 42.371 23.7268 42.5425 23.6324 42.7097C23.601 42.7653 23.6408 42.8671 23.6951 42.9319C23.7322 42.9762 23.7448 43.0168 23.7366 43.065C23.7178 43.1746 23.6854 43.2835 23.6802 43.3934C23.6765 43.4703 23.6976 43.5477 23.6334 43.6139C23.596 43.6526 23.5816 43.6981 23.5608 43.7428C23.4807 43.9155 23.4726 44.0948 23.4996 44.2734C23.5177 44.3927 23.4586 44.4829 23.3764 44.5637C23.2611 44.6771 23.1924 44.821 23.027 44.9037C22.9647 44.9349 22.981 45.0157 22.9854 45.0731C23.0037 45.3114 22.8979 45.4995 22.6655 45.6406C22.6405 45.6558 22.627 45.6728 22.621 45.6985C22.5876 45.843 22.464 45.9209 22.3044 45.9532C22.14 45.9865 21.9938 45.9469 21.8894 45.8265C21.8248 45.8961 21.7451 45.9847 21.6415 45.9353C21.5156 45.8753 21.3792 45.8478 21.2503 45.8007C21.1496 45.7639 21.0666 45.7008 20.9615 45.6702C20.9057 45.6539 20.8753 45.6231 20.8679 45.5708C20.856 45.4857 20.8635 45.4048 20.9003 45.324C21.0097 45.0838 21.1434 44.8592 21.3966 44.6931C21.6368 44.5356 21.7629 44.3242 21.772 44.0709C21.7751 43.982 21.7578 43.8927 21.7518 43.8035C21.7501 43.7778 21.7318 43.7672 21.7073 43.7588C21.6152 43.727 21.6208 43.6756 21.6598 43.6131C21.7144 43.5257 21.7726 43.4373 21.6994 43.3368C21.6977 43.3345 21.6967 43.3304 21.698 43.3281C21.7663 43.2037 21.7163 43.0619 21.7833 42.9374C21.792 42.9213 21.8112 42.9033 21.8075 42.8894C21.7529 42.6827 21.9029 42.4631 21.7442 42.2624C21.6547 42.1491 21.6418 42.0156 21.6183 41.8856C21.5814 41.6815 21.5426 41.4776 21.5041 41.2737C21.5014 41.2596 21.4969 41.2355 21.4885 41.234C21.3649 41.2118 21.3996 41.1303 21.3984 41.0672C21.396 40.9479 21.4053 40.8306 21.4516 40.7138C21.4867 40.6252 21.453 40.5292 21.4287 40.4389C21.3761 40.2433 21.3087 40.0501 21.2634 39.8534C21.2106 39.6246 21.1759 39.393 21.1311 39.1629C21.1222 39.1176 21.1375 39.0583 21.0454 39.0498C21.0166 39.0471 21.014 39.0121 21.0094 38.9886C20.9751 38.8118 20.9308 38.6355 20.987 38.4554C20.9964 38.4252 20.9842 38.39 20.9796 38.3574C20.915 37.9063 20.9288 37.455 20.9728 37.0036C20.976 36.9713 20.9856 36.9392 20.9464 36.9132C20.9316 36.9034 20.9202 36.8811 20.9217 36.8654C20.9348 36.72 20.9168 36.5705 20.9934 36.4329C21.042 36.3454 21.0133 36.2485 21.0485 36.1606C21.0732 36.099 21.0469 36.0065 21.1797 36.0036C21.2068 36.003 21.1949 35.9808 21.1943 35.9681C21.1879 35.8305 21.2876 35.7133 21.3031 35.5776C21.3117 35.5021 21.4194 35.4699 21.5075 35.4666C21.6541 35.461 21.7166 35.3545 21.8251 35.3044C21.8564 35.29 21.8382 35.2479 21.8349 35.2191C21.7847 34.7841 21.7305 34.3495 21.6724 33.9151C21.6091 33.4416 21.4201 32.9939 21.2779 32.5365C20.9718 31.552 20.7309 30.5573 20.641 29.5431C20.5837 28.8967 20.6218 28.2503 20.7701 27.6111C20.8454 27.2868 20.8493 26.9561 20.9024 26.6298C20.9667 26.2348 21.0936 25.85 21.1856 25.4595C21.2126 25.345 21.2376 25.2302 21.2617 25.1152C21.2666 25.0922 21.2756 25.0609 21.2621 25.0455C21.142 24.9076 21.2104 24.7484 21.1861 24.6004C21.1714 24.5104 21.2352 24.435 21.3471 24.41C21.4675 24.383 21.5355 24.3204 21.5806 24.2303C21.6027 24.1864 21.6348 24.1456 21.6651 24.1047C21.6935 24.0663 21.7133 24.0357 21.648 24.004C21.6057 23.9835 21.6126 23.9417 21.629 23.9058C21.6799 23.7938 21.7294 23.6813 21.7829 23.5701C21.8046 23.525 21.838 23.4845 21.9035 23.475C21.9359 23.4703 21.9531 23.4555 21.9645 23.4304C22.0041 23.3436 22.046 23.2575 22.0873 23.1713C22.0986 23.1479 22.1084 23.1188 22.0832 23.1042C22.0196 23.0673 22.0248 23.011 22.0346 22.9658C22.0692 22.8063 22.0724 22.6383 22.1893 22.4976C22.2084 22.4747 22.2073 22.4536 22.2083 22.4305C22.2144 22.2882 22.184 22.1548 22.1112 22.0217C21.9694 21.763 21.8038 21.5042 21.7777 21.2187C21.7562 20.9826 21.6616 20.7635 21.6178 20.5344C21.5973 20.4273 21.4956 20.3848 21.4146 20.3235C21.3854 20.3015 21.3711 20.3211 21.3556 20.3388C21.3346 20.3627 21.3124 20.3859 21.2907 20.4094C21.2875 20.4071 21.2843 20.4049 21.2811 20.4026C21.287 20.3918 21.2898 20.3787 21.2991 20.3705C21.3708 20.3081 21.3458 20.254 21.2947 20.1891C21.2464 20.1277 21.2069 20.0859 21.1036 20.096C21.0196 20.1042 20.9534 20.0589 20.9145 19.9939C20.8716 19.9219 20.8571 19.8452 20.8655 19.7668C20.8872 19.5643 20.9641 19.3766 21.0848 19.1986C21.1549 19.0952 21.1664 18.9796 21.1346 18.8635C21.1176 18.8011 21.1292 18.746 21.1729 18.6931C21.2281 18.6264 21.3073 18.5826 21.3896 18.5453C21.4532 18.5165 21.4549 18.4901 21.425 18.4409C21.3319 18.288 21.2309 18.1395 21.1057 18.0025C20.8824 17.7582 20.5847 17.6175 20.2196 17.5667C19.9346 17.527 19.6472 17.5147 19.3593 17.5154C18.4948 17.5175 17.6323 17.4917 16.7728 17.41C16.3741 17.3722 15.9766 17.3468 15.5803 17.4439C15.3008 17.5125 15.0131 17.5599 14.7192 17.4955C14.6683 17.4844 14.6675 17.504 14.6555 17.5382C14.6145 17.6555 14.5013 17.7062 14.4166 17.6382C14.3214 17.562 14.2067 17.5648 14.1037 17.5661C13.8098 17.5697 13.5159 17.5999 13.222 17.5747C13.0198 17.5573 12.8116 17.5816 12.6159 17.5276C12.5151 17.4998 12.4342 17.5065 12.3513 17.5578C12.2692 17.6085 12.1858 17.6194 12.0886 17.5719C12.0488 17.5525 12.0199 17.5079 11.9576 17.5186C11.8388 17.5389 11.7177 17.5271 11.5977 17.5305C11.4724 17.534 11.3474 17.5237 11.2455 17.457C11.1771 17.4122 11.1127 17.4148 11.0334 17.4311C10.6796 17.5037 10.3226 17.5623 9.95645 17.5716C9.92143 17.5725 9.86397 17.5921 9.8612 17.5408C9.85852 17.491 9.81588 17.4935 9.78104 17.484C9.6878 17.4587 9.59524 17.4301 9.4998 17.4121C9.4071 17.3947 9.38076 17.3529 9.38298 17.2786C9.38653 17.1596 9.32674 17.1235 9.17895 17.1527C9.04466 17.1793 8.91254 17.2134 8.77951 17.2443C8.48035 17.3137 8.18121 17.3833 7.87789 17.4538C7.9088 17.4972 7.95877 17.5114 8.00284 17.5283C8.10474 17.5675 8.21037 17.6001 8.31273 17.6385C8.36132 17.6567 8.38144 17.6838 8.32469 17.7171C8.11762 17.8384 8.03207 18.0158 7.98316 18.2117C7.91654 18.4785 7.8469 18.7442 7.66678 18.9807C7.53847 19.1492 7.55628 19.3203 7.67557 19.4902C7.87227 19.7705 8.14076 20.0029 8.40376 20.2394C8.43756 20.2698 8.47057 20.2654 8.51162 20.2545C8.66394 20.214 8.81655 20.174 8.97007 20.1366C9.16352 20.0895 9.19554 20.1099 9.21756 20.2785C9.23323 20.3984 9.21527 20.5178 9.21635 20.6373C9.21737 20.7505 9.16307 20.8555 9.1719 20.9718C9.18269 21.114 9.14163 21.2584 9.1452 21.4014C9.14867 21.5408 9.13282 21.6787 9.16306 21.8208C9.26364 22.2932 9.43543 22.7455 9.69128 23.1747C10.1322 23.9144 10.6991 24.5894 11.3059 25.2419C11.8921 25.8721 12.5801 26.4257 13.2777 26.9705C13.9813 27.5198 14.6706 28.0789 15.239 28.7294C15.3957 28.9087 15.553 29.0877 15.71 29.2668L15.7076 29.2652L15.7079 29.2649ZM33.611 10.6888C33.6078 10.689 33.6046 10.6892 33.6013 10.6894C33.605 10.6882 33.6087 10.687 33.6122 10.6861C33.6111 10.6851 33.6099 10.6842 33.6088 10.6832C33.6095 10.6851 33.6103 10.6869 33.611 10.6888ZM22.1831 10.7432L22.1776 10.7458C22.1776 10.7458 22.1806 10.7411 22.1807 10.7411C22.1927 10.7364 22.2047 10.7316 22.2167 10.7269C22.2163 10.7115 22.2158 10.6961 22.2158 10.6807C22.2263 10.6746 22.2367 10.6684 22.2472 10.6623C22.2583 10.6582 22.2694 10.6542 22.2802 10.6505C22.2795 10.6495 22.2787 10.6486 22.2779 10.6476C22.2781 10.6494 22.2784 10.6511 22.2786 10.6529C22.2688 10.6569 22.259 10.6609 22.2494 10.6651C22.2386 10.6702 22.2277 10.6754 22.2169 10.6805C22.2173 10.6959 22.2178 10.7113 22.2177 10.7266C22.2062 10.7321 22.1946 10.7376 22.1831 10.7432ZM27.036 11.0848C27.0466 11.0943 27.0592 11.0969 27.0738 11.0923C27.0798 11.1027 27.0858 11.113 27.0918 11.1237C27.0925 11.1391 27.0959 11.1536 27.1125 11.1636C27.1108 11.1794 27.1155 11.1925 27.135 11.1994C27.1321 11.2157 27.137 11.2285 27.1573 11.235C27.1624 11.2513 27.1676 11.2676 27.1725 11.2834C27.1732 11.284 27.1739 11.2847 27.1746 11.2853C27.1738 11.2841 27.1729 11.2828 27.1721 11.2816C27.167 11.2663 27.162 11.2511 27.1569 11.2358C27.1495 11.224 27.142 11.2121 27.1346 11.2003C27.1269 11.1886 27.1193 11.1769 27.1116 11.1653C27.1052 11.1514 27.0987 11.1376 27.0923 11.1237C27.0854 11.1137 27.0786 11.1037 27.071 11.0941C27.0581 11.0919 27.0453 11.0897 27.0324 11.0875C27.0317 11.0702 27.0309 11.0528 27.0301 11.0355C27.0115 11.0229 26.9929 11.0102 26.9744 10.9975L26.9725 10.9914L26.9731 10.9957C26.9868 11.0142 26.995 11.0382 27.0301 11.0356C27.0193 11.053 27.0226 11.0695 27.036 11.0848ZM22.1008 10.851C22.0932 10.8636 22.0855 10.8762 22.0782 10.8885C22.0772 10.8876 22.0762 10.8867 22.0752 10.8858C22.075 10.8874 22.0748 10.889 22.0746 10.8906C22.0842 10.8767 22.0937 10.8627 22.1029 10.849C22.1022 10.8497 22.1015 10.8503 22.1008 10.851ZM33.2337 36.2642C33.235 36.2631 33.2363 36.2619 33.2377 36.2608C33.2353 36.2616 33.2329 36.2624 33.2306 36.2632C33.2273 36.2602 33.2241 36.2571 33.2208 36.2541C33.2238 36.253 33.2268 36.2519 33.2297 36.2509C33.2312 36.2554 33.2326 36.2599 33.2337 36.2642ZM21.7222 11.5086C21.7297 11.502 21.7496 11.4984 21.7307 11.4852C21.7287 11.4937 21.7266 11.5021 21.7247 11.5107C21.7015 11.5273 21.6973 11.5474 21.708 11.5704C21.6636 11.5867 21.6697 11.6241 21.6598 11.6533C21.6201 11.7696 21.5837 11.8866 21.5464 12.0031L21.5496 11.9983L21.5468 12.0013C21.5658 12.0251 21.5589 12.0598 21.6071 12.0847C21.6264 11.9068 21.6706 11.7385 21.7055 11.5688C21.7276 11.5518 21.7214 11.5296 21.7222 11.5086V11.5086ZM30.6104 15.0731C30.6827 15.0583 30.7644 15.0661 30.8211 15.0137C30.828 15.0141 30.835 15.0144 30.8419 15.0148C30.8409 15.0116 30.84 15.0084 30.839 15.0052C30.8337 15.0086 30.8283 15.012 30.8229 15.0155C30.7478 15.0232 30.6749 15.0364 30.6123 15.0747C30.585 15.07 30.5588 15.0725 30.5341 15.0837C30.4671 15.1016 30.398 15.1156 30.3118 15.1638C30.4141 15.1464 30.4882 15.1421 30.5329 15.0828C30.5608 15.0906 30.5869 15.0891 30.6104 15.0731ZM31.7542 11.5041C31.6827 11.4823 31.6127 11.4895 31.5695 11.5403C31.4757 11.6508 31.3496 11.7371 31.2487 11.8419C30.6386 12.4761 30.031 13.1118 29.4142 13.7414C29.3142 13.8435 29.2712 13.9441 29.2879 14.0689C29.3155 14.0666 29.323 14.0473 29.336 14.0338C29.9471 13.4004 30.5581 12.7669 31.1688 12.1332C31.3688 11.9256 31.5736 11.7208 31.7558 11.5023L31.7511 11.5001L31.7543 11.5041L31.7542 11.5041ZM31.2065 11.6123C31.1935 11.6051 31.1805 11.6037 31.1661 11.6102C31.0478 11.6636 30.9283 11.7146 30.7954 11.7398C30.7723 11.7442 30.7564 11.7557 30.7451 11.7715C30.6658 11.8826 30.548 11.9691 30.4578 12.0728C29.9583 12.6474 29.4608 13.2232 28.9627 13.7986C28.8844 13.889 28.8061 13.9794 28.714 14.0857C28.8415 14.0505 28.9256 14.0072 28.9942 13.9354C29.7128 13.1852 30.434 12.4368 31.1546 11.6879C31.1771 11.6645 31.2027 11.6426 31.2072 11.6108L31.2039 11.6076L31.2064 11.6124L31.2065 11.6123ZM30.7482 11.4348C30.7401 11.4153 30.7239 11.3954 30.7252 11.3763C30.7299 11.3072 30.7038 11.2983 30.6332 11.3329C30.5584 11.3695 30.4812 11.4035 30.3972 11.4259C30.3608 11.4357 30.3198 11.4373 30.2947 11.4706C30.2225 11.5665 30.1323 11.6534 30.0585 11.7471C29.4254 12.5504 28.8007 13.3582 28.1736 14.1648C28.1539 14.1902 28.135 14.216 28.1035 14.258C28.2401 14.2279 28.3569 14.2327 28.4364 14.14C28.9439 13.5482 29.4515 12.9564 29.9682 12.37C30.2384 12.0634 30.4704 11.7358 30.749 11.4342C30.747 11.4291 30.7451 11.4241 30.7431 11.419C30.7448 11.4243 30.7465 11.4295 30.7482 11.4348L30.7482 11.4348ZM32.946 11.0997C32.889 11.1145 32.8446 11.1462 32.8011 11.1771C32.5869 11.3296 32.3594 11.4616 32.0735 11.5064C32.0462 11.5107 32.0268 11.5216 32.0112 11.5391C31.9341 11.6253 31.8362 11.6976 31.756 11.7801C30.9373 12.6213 30.1248 13.4664 29.3106 14.3105C29.2857 14.3362 29.2585 14.3608 29.2617 14.3976C29.2717 14.5123 29.275 14.6277 29.3096 14.7569C29.3467 14.7228 29.373 14.6995 29.3982 14.6754C30.4408 13.6813 31.5254 12.7172 32.5394 11.7027C32.6614 11.5806 32.8106 11.4767 32.903 11.3348L32.9059 11.3368C32.8757 11.2986 32.8993 11.2615 32.9108 11.225C32.9242 11.1827 32.9627 11.1451 32.9444 11.0974L32.9461 11.0997L32.946 11.0997ZM27.8918 20.7716C27.9649 20.7643 28.0094 20.7369 28.0592 20.7201C28.1637 20.6848 28.193 20.6268 28.1792 20.5371C28.1647 20.4427 28.1593 20.347 28.168 20.2509C28.1821 20.0949 28.1897 19.9384 28.2001 19.7822C28.0502 20.1001 27.9427 20.4254 27.8918 20.7716L27.8918 20.7716ZM21.8994 11.3975C21.7547 11.6318 21.6525 12.1771 21.7383 12.2776C21.755 11.9795 21.8304 11.6992 21.8994 11.3975ZM33.8814 43.9011C33.8142 43.861 33.7411 43.8334 33.6442 43.8236C33.6981 43.9269 33.7955 43.9015 33.8814 43.9011ZM10.6436 15.8178C10.7256 15.8564 10.7859 15.8274 10.8746 15.8121C10.7833 15.7791 10.7222 15.7929 10.6436 15.8178ZM10.9671 15.7915C11.0267 15.8147 11.0867 15.8029 11.1468 15.7918C11.0872 15.7705 11.0273 15.7714 10.9671 15.7915ZM10.3827 15.784C10.3341 15.7909 10.2744 15.771 10.237 15.8253C10.3007 15.832 10.3409 15.8035 10.3827 15.784ZM10.44 15.8618C10.5014 15.8525 10.5416 15.8655 10.5697 15.8247C10.5257 15.8209 10.4914 15.8193 10.44 15.8618ZM24.7139 9.75922C24.7613 9.77482 24.7962 9.75613 24.8386 9.73893C24.7889 9.7272 24.7496 9.72856 24.7139 9.75922ZM31.3728 14.8631C31.4044 14.8781 31.4327 14.8797 31.4648 14.8657C31.434 14.8485 31.4055 14.8517 31.3728 14.8631ZM23.5372 43.092C23.5454 43.0813 23.5541 43.0749 23.5539 43.0688C23.5537 43.0631 23.5441 43.0576 23.5386 43.052C23.5335 43.0576 23.5249 43.0629 23.5243 43.0688C23.5236 43.0747 23.5308 43.0812 23.5372 43.092ZM23.3951 43.7267C23.3945 43.7365 23.3922 43.7442 23.3942 43.7512C23.3966 43.7596 23.4035 43.7596 23.4076 43.7515C23.4101 43.7467 23.4119 43.7408 23.4106 43.736C23.4098 43.733 23.4028 43.7311 23.3951 43.7267ZM7.8041 15.8249L7.79923 15.8301L7.80561 15.8318L7.8041 15.8249Z" fill="white"/>
<path d="M18.706 24.2875C18.6091 24.4931 18.4728 24.683 18.3535 24.8797C18.2912 24.9825 18.2459 25.0932 18.1585 25.1853L18.1605 25.1868C18.163 25.1725 18.1611 25.1565 18.1685 25.1443C18.3376 24.8659 18.5075 24.5879 18.678 24.3101C18.6836 24.3011 18.6971 24.2953 18.7069 24.288L18.706 24.2875L18.706 24.2875Z" fill="white"/>
<path d="M16.4302 4.28948C16.4945 4.42722 16.5585 4.56502 16.6232 4.70266C16.6478 4.75521 16.6738 4.80736 16.6991 4.8597C16.6959 4.86175 16.6927 4.8638 16.6894 4.86585C16.5686 4.6837 16.4801 4.49181 16.4323 4.28772L16.4302 4.28948L16.4302 4.28948Z" fill="white"/>
<path d="M16.4741 27.8633C16.3982 28.0115 16.3076 28.1538 16.2115 28.2937L16.2139 28.2957C16.2755 28.1413 16.3654 27.9986 16.4763 27.8644L16.4741 27.8633Z" fill="white"/>
<path d="M18.0274 25.4016C17.9718 25.5434 17.8908 25.6748 17.7864 25.7965L17.7886 25.7981C17.8518 25.6593 17.9322 25.5276 18.0293 25.4027L18.0274 25.4016L18.0274 25.4016Z" fill="white"/>
<path d="M18.9683 23.8743C18.9192 23.9832 18.8601 24.0879 18.7711 24.1795C18.7711 24.1795 18.7727 24.1805 18.7727 24.1805C18.8203 24.0708 18.8791 23.966 18.97 23.8753L18.9683 23.8743V23.8743Z" fill="white"/>
<path d="M21.0082 20.7872C20.9532 20.8879 20.8877 20.9836 20.8101 21.0737C20.8071 21.0717 20.8042 21.0697 20.8013 21.0677C20.8552 20.9664 20.9233 20.8716 20.9965 20.7791C21.0004 20.7818 21.0043 20.7845 21.0082 20.7872V20.7872Z" fill="white"/>
<path d="M19.2091 23.4968C19.1683 23.5943 19.1118 23.685 19.034 23.7663C19.034 23.7663 19.0352 23.767 19.0352 23.767C19.0749 23.669 19.126 23.576 19.2108 23.4978L19.2091 23.4968V23.4968Z" fill="white"/>
<path d="M20.5488 21.47C20.5004 21.5641 20.4467 21.6558 20.3724 21.7384C20.3724 21.7384 20.3668 21.7347 20.3668 21.7347C20.4085 21.6376 20.469 21.5486 20.5411 21.4647L20.5488 21.47Z" fill="white"/>
<path d="M20.6997 21.2346C20.6633 21.319 20.6112 21.3967 20.5486 21.4697C20.5486 21.4697 20.541 21.4645 20.541 21.4645C20.5752 21.3791 20.6308 21.3031 20.6919 21.2294L20.6997 21.2346V21.2346Z" fill="white"/>
<path d="M16.8241 27.3063C16.7843 27.389 16.7464 27.4726 16.6705 27.5393L16.6727 27.5409C16.7118 27.4577 16.7508 27.3745 16.8261 27.3073L16.8241 27.3063Z" fill="white"/>
<path d="M21.249 20.4637C21.2073 20.5344 21.1573 20.6007 21.0951 20.6605C21.0951 20.6605 21.0867 20.6548 21.0867 20.6548C21.1249 20.5822 21.1785 20.5176 21.2384 20.4562C21.2419 20.4587 21.2455 20.4612 21.249 20.4637V20.4637Z" fill="white"/>
<path d="M19.868 22.4924C19.8393 22.565 19.7948 22.6305 19.7364 22.6898C19.7364 22.6898 19.7314 22.6866 19.7314 22.6866C19.7591 22.6135 19.8073 22.5494 19.8606 22.4875L19.868 22.4924Z" fill="white"/>
<path d="M17.021 27.0007C16.9936 27.0739 16.9555 27.1421 16.8892 27.1977L16.8916 27.1995C16.9191 27.1263 16.9597 27.059 17.0229 27.0018L17.021 27.0007V27.0007Z" fill="white"/>
<path d="M17.196 26.7312C17.1697 26.8049 17.1293 26.8722 17.0643 26.9284L17.0665 26.9299C17.0943 26.8569 17.1333 26.7889 17.1979 26.7323L17.196 26.7312V26.7312Z" fill="white"/>
<path d="M17.371 26.4617C17.3433 26.5347 17.3055 26.6031 17.2393 26.6588L17.2415 26.6604C17.2706 26.5879 17.3051 26.5178 17.3729 26.4627L17.371 26.4617V26.4617Z" fill="white"/>
<path d="M17.59 26.1204C17.5605 26.1926 17.5255 26.2623 17.4583 26.3174L17.4605 26.319C17.4891 26.2463 17.5244 26.1766 17.5919 26.1214L17.59 26.1204V26.1204Z" fill="white"/>
<path d="M19.4065 23.1914C19.3823 23.2659 19.3345 23.3304 19.2798 23.392C19.2798 23.392 19.2742 23.3884 19.2742 23.3884C19.3049 23.3167 19.3412 23.2475 19.4048 23.1904L19.4065 23.1914V23.1914Z" fill="white"/>
<path d="M19.581 22.9219C19.5554 22.9958 19.5102 23.0614 19.4541 23.1224C19.4541 23.1224 19.4483 23.1186 19.4483 23.1186C19.4793 23.047 19.515 22.9775 19.582 22.9225L19.581 22.9219V22.9219Z" fill="white"/>
<path d="M16.3645 4.07443C16.3994 4.14345 16.4245 4.21449 16.4302 4.28953C16.4302 4.28953 16.4324 4.28777 16.4324 4.28777C16.3834 4.22143 16.3735 4.14708 16.367 4.07202L16.3645 4.07443Z" fill="white"/>
<path d="M20.81 21.0729C20.7859 21.1324 20.7471 21.1851 20.6997 21.234C20.6997 21.234 20.6919 21.2287 20.6919 21.2287C20.7167 21.1695 20.753 21.1155 20.8012 21.0669C20.8042 21.0689 20.8071 21.0709 20.81 21.0729Z" fill="white"/>
<path d="M20.0006 22.2947C19.9739 22.353 19.9432 22.4095 19.8902 22.4556C19.8902 22.4556 19.8867 22.4533 19.8867 22.4533C19.905 22.3912 19.9461 22.339 19.9924 22.2891L20.0006 22.2947Z" fill="white"/>
<path d="M20.108 22.133C20.0866 22.1938 20.0474 22.2467 20.0006 22.2962C20.0006 22.2962 19.9924 22.2905 19.9924 22.2905C20.017 22.2313 20.0527 22.1771 20.1011 22.1287L20.108 22.133Z" fill="white"/>
<path d="M20.2416 21.9372C20.2161 21.9961 20.1847 22.0521 20.1284 22.0962C20.1284 22.0962 20.1277 22.0957 20.1277 22.0957C20.1437 22.0326 20.1873 21.9816 20.2338 21.9318L20.2416 21.9372Z" fill="white"/>
<path d="M20.35 21.7737C20.3258 21.8333 20.2894 21.8873 20.2416 21.9362C20.2416 21.9362 20.2338 21.9307 20.2338 21.9307C20.2582 21.8714 20.293 21.8166 20.3416 21.7681L20.35 21.7737Z" fill="white"/>
<path d="M19.7147 22.726C19.6971 22.7734 19.6753 22.8187 19.6282 22.8525C19.6282 22.8525 19.6245 22.8501 19.6245 22.8501C19.6384 22.8012 19.6683 22.7591 19.7064 22.7206L19.7147 22.726Z" fill="white"/>
<path d="M21.0952 20.6614C21.0758 20.7079 21.0485 20.7508 21.0083 20.7877C21.0044 20.785 21.0005 20.7823 20.9966 20.7796C21.0191 20.7345 21.0414 20.6894 21.0869 20.6556L21.0952 20.6614Z" fill="white"/>
<path d="M15.817 29.0312C15.8183 29.066 15.8072 29.0966 15.7734 29.1196C15.7734 29.1196 15.7761 29.1221 15.7761 29.1221C15.7816 29.0893 15.7892 29.057 15.8199 29.0325L15.817 29.0312Z" fill="white"/>
<path d="M15.9705 28.7258C15.971 28.7605 15.9569 28.7904 15.9271 28.8151L15.9296 28.8173C15.9277 28.7819 15.9417 28.7517 15.9731 28.7272L15.9705 28.7258Z" fill="white"/>
<path d="M15.8612 28.9414C15.8586 28.9753 15.8484 29.0067 15.8171 29.0312C15.8171 29.0312 15.8201 29.0324 15.8201 29.0324C15.8224 28.9984 15.8344 28.9677 15.8638 28.9426L15.8612 28.9414Z" fill="white"/>
<path d="M16.0359 28.5983C16.035 28.6325 16.0237 28.6635 15.9928 28.688L15.9952 28.69C15.9915 28.6541 16.0099 28.6253 16.0387 28.5999L16.0359 28.5983Z" fill="white"/>
<path d="M16.1235 28.4365C16.1266 28.4722 16.1065 28.5002 16.0801 28.5261L16.0826 28.5283C16.0825 28.4935 16.0949 28.4627 16.1261 28.4381L16.1235 28.4365Z" fill="white"/>
<path d="M15.9045 28.8497C15.905 28.8847 15.8894 28.9144 15.8611 28.9401C15.8611 28.9401 15.8638 28.9413 15.8638 28.9413C15.8656 28.9071 15.8784 28.8766 15.9075 28.8513L15.9045 28.8497Z" fill="white"/>
<path d="M17.6774 25.9766C17.6793 26.0072 17.6671 26.032 17.6334 26.0479L17.6356 26.0496C17.6321 26.0182 17.6431 25.9928 17.6793 25.9777L17.6774 25.9766Z" fill="white"/>
<path d="M30.3878 10.5011C30.3857 10.4954 30.383 10.4907 30.3826 10.4859C30.3825 10.4835 30.3866 10.4809 30.3888 10.4784C30.3931 10.4811 30.4014 10.4853 30.4009 10.4863C30.398 10.4914 30.3929 10.4957 30.3878 10.5011Z" fill="white"/>
<path d="M17.6333 26.0466C17.635 26.0774 17.6222 26.1022 17.5898 26.1192C17.5898 26.1192 17.5918 26.1202 17.5918 26.1202C17.5869 26.0883 17.6005 26.0639 17.6355 26.0483L17.6333 26.0466Z" fill="white"/>
<path d="M16.3418 4.00153C16.3691 4.02174 16.3617 4.04922 16.3645 4.07457C16.3645 4.07457 16.3671 4.07216 16.3671 4.07216C16.3347 4.05354 16.3517 4.02456 16.3448 4.00061L16.3418 4.00153Z" fill="white"/>
<path d="M21.2908 20.4081C21.2872 20.4318 21.273 20.4502 21.249 20.4636C21.2454 20.4611 21.2419 20.4586 21.2383 20.4561C21.2429 20.4327 21.2578 20.4148 21.2812 20.4014C21.2844 20.4036 21.2876 20.4059 21.2908 20.4081Z" fill="white"/>
<path d="M27.2749 13.2283V13.2749C27.2538 13.2568 27.2792 13.2445 27.276 13.2304C27.2758 13.2301 27.2749 13.2283 27.2749 13.2283Z" fill="white"/>
<path d="M34.6531 10.5234C34.6549 10.5063 34.6715 10.5024 34.6873 10.4979C34.6875 10.4979 34.6914 10.5032 34.6905 10.5049C34.6831 10.5192 34.671 10.5268 34.6512 10.5217C34.6512 10.5217 34.6531 10.5234 34.6531 10.5234Z" fill="white"/>
<path d="M27.1412 13.4244C27.1427 13.4333 27.1441 13.4422 27.1456 13.4511C27.1447 13.446 27.1438 13.4408 27.1431 13.4357C27.1427 13.4327 27.1427 13.4297 27.1422 13.4263C27.1419 13.426 27.1412 13.4244 27.1412 13.4244Z" fill="white"/>
<path d="M15.7735 29.1193C15.7714 29.1387 15.7755 29.1599 15.7517 29.1735L15.7544 29.176C15.7584 29.157 15.7548 29.136 15.7762 29.1218L15.7735 29.1193Z" fill="white"/>
<path d="M15.7516 29.1732C15.749 29.1925 15.7552 29.2142 15.7299 29.2275C15.7299 29.2275 15.7325 29.2297 15.7325 29.2297C15.7351 29.2105 15.7265 29.1881 15.7543 29.1757L15.7516 29.1732Z" fill="white"/>
<path d="M16.1685 28.3665C16.1689 28.382 16.1713 28.3983 16.1456 28.403L16.1483 28.4052C16.1485 28.3897 16.1462 28.3732 16.1713 28.3679L16.1685 28.3665Z" fill="white"/>
<path d="M16.1467 28.4005C16.1459 28.4159 16.1527 28.4343 16.1235 28.4381C16.1235 28.4381 16.1262 28.4397 16.1262 28.4397C16.126 28.4241 16.126 28.4086 16.1494 28.4026L16.1467 28.4005Z" fill="white"/>
<path d="M16.0812 28.5264C16.0803 28.5415 16.0832 28.5583 16.0583 28.5638L16.0608 28.5657C16.0599 28.5498 16.0562 28.5327 16.0839 28.5286L16.0812 28.5264Z" fill="white"/>
<path d="M16.0594 28.5623C16.0586 28.5776 16.0651 28.596 16.0359 28.5996C16.0359 28.5996 16.0388 28.6013 16.0388 28.6013C16.0383 28.5856 16.0372 28.5696 16.0618 28.5641L16.0594 28.5623Z" fill="white"/>
<path d="M15.994 28.6881C15.9922 28.7031 15.996 28.7205 15.9706 28.7258C15.9706 28.7258 15.9733 28.7273 15.9733 28.7273C15.9743 28.7121 15.9693 28.6945 15.9965 28.6902L15.994 28.6881Z" fill="white"/>
<path d="M15.9282 28.8138C15.926 28.8288 15.931 28.8467 15.9045 28.8515C15.9045 28.8515 15.9076 28.8531 15.9076 28.8531C15.9096 28.8384 15.9055 28.8212 15.9308 28.8161L15.9282 28.8138Z" fill="white"/>
<path d="M15.7311 29.2272C15.7289 29.2422 15.734 29.2602 15.7076 29.2655C15.7076 29.2655 15.7101 29.2671 15.7101 29.2671C15.7137 29.2528 15.7105 29.2357 15.7338 29.2295L15.7311 29.2272Z" fill="white"/>
<path d="M17.4591 26.3162C17.4634 26.3334 17.4639 26.3491 17.4363 26.3534L17.4386 26.355C17.436 26.3385 17.4364 26.3231 17.4615 26.3178L17.4591 26.3162Z" fill="white"/>
<path d="M20.3738 21.7379C20.3729 21.7532 20.3708 21.7679 20.3503 21.775C20.3503 21.775 20.3416 21.7692 20.3416 21.7692C20.3449 21.7548 20.3467 21.7397 20.3678 21.7341L20.3738 21.7379Z" fill="white"/>
<path d="M20.1297 22.0953C20.1336 22.1121 20.1316 22.1268 20.1082 22.1336C20.1082 22.1336 20.1011 22.1291 20.1011 22.1291C20.1042 22.1144 20.1047 22.0982 20.129 22.0948L20.1297 22.0953Z" fill="white"/>
<path d="M19.8916 22.4566C19.8917 22.4722 19.8892 22.4867 19.8683 22.4936C19.8683 22.4936 19.8605 22.4886 19.8605 22.4886C19.864 22.4742 19.8653 22.4585 19.888 22.4542L19.8916 22.4566Z" fill="white"/>
<path d="M19.7378 22.6902C19.7388 22.7061 19.7363 22.7206 19.7151 22.7277C19.7151 22.7277 19.7064 22.722 19.7064 22.722C19.7105 22.708 19.7114 22.6925 19.7326 22.6869L19.7378 22.6902Z" fill="white"/>
<path d="M19.6296 22.8519C19.628 22.8672 19.6293 22.8841 19.6025 22.8863C19.6025 22.8863 19.6044 22.8876 19.6044 22.8876C19.5993 22.8704 19.6014 22.8558 19.6257 22.8494L19.6296 22.8519Z" fill="white"/>
<path d="M19.6036 22.886C19.6061 22.9025 19.6068 22.9183 19.5811 22.9238C19.5811 22.9238 19.5821 22.9244 19.5821 22.9244C19.5794 22.9076 19.5787 22.8917 19.6056 22.8873L19.6036 22.886Z" fill="white"/>
<path d="M19.4556 23.1215C19.4538 23.1366 19.4533 23.1524 19.4295 23.1568C19.4295 23.1568 19.4262 23.1548 19.4263 23.1548C19.4255 23.1389 19.4264 23.1237 19.4495 23.1176L19.4556 23.1215Z" fill="white"/>
<path d="M19.4305 23.1555C19.4319 23.1718 19.4313 23.1872 19.4065 23.1922C19.4065 23.1922 19.4047 23.1912 19.4048 23.1912C19.4021 23.1747 19.4043 23.16 19.4272 23.1536L19.4305 23.1555Z" fill="white"/>
<path d="M19.2812 23.3927C19.279 23.4074 19.2776 23.4225 19.2571 23.4294C19.2571 23.4294 19.2516 23.4259 19.2516 23.4259C19.2513 23.4101 19.2525 23.395 19.2754 23.389L19.2812 23.3927Z" fill="white"/>
<path d="M19.235 23.4628C19.2349 23.4787 19.2336 23.4941 19.2091 23.4983C19.2091 23.4983 19.2108 23.4992 19.2108 23.4992C19.2034 23.4819 19.2067 23.4677 19.2288 23.459L19.235 23.4628Z" fill="white"/>
<path d="M19.0351 23.7664C19.0386 23.7833 19.0386 23.7989 19.0122 23.8037C19.0122 23.8037 19.0138 23.8047 19.0138 23.8047C19.0087 23.7872 19.0093 23.7719 19.0363 23.7672L19.0351 23.7664Z" fill="white"/>
<path d="M19.0134 23.8024C19.0163 23.8187 19.015 23.8336 18.9933 23.8417C18.9933 23.8417 18.9855 23.8367 18.9855 23.8367C18.9902 23.8226 18.9875 23.8042 19.015 23.8034L19.0134 23.8024Z" fill="white"/>
<path d="M18.9944 23.8402C18.9945 23.8562 18.9922 23.871 18.9685 23.8755C18.9685 23.8755 18.9703 23.8766 18.9703 23.8766C18.9624 23.8593 18.9657 23.845 18.9866 23.8352L18.9944 23.8402Z" fill="white"/>
<path d="M18.7723 24.1797C18.776 24.1967 18.777 24.2127 18.7491 24.2168C18.7491 24.2168 18.7513 24.2182 18.7513 24.2182C18.7484 24.2016 18.7471 24.1856 18.7739 24.1807L18.7723 24.1797Z" fill="white"/>
<path d="M18.7502 24.2156C18.7541 24.2326 18.7536 24.2479 18.7278 24.2533C18.7278 24.2533 18.7292 24.2542 18.7292 24.2542C18.7262 24.2374 18.7246 24.2212 18.7524 24.217L18.7502 24.2156Z" fill="white"/>
<path d="M18.7288 24.2516C18.7326 24.2686 18.7311 24.2836 18.7061 24.2891C18.7061 24.2891 18.707 24.2897 18.707 24.2896C18.7038 24.2727 18.7017 24.2563 18.7302 24.2525L18.7288 24.2516Z" fill="white"/>
<path d="M18.1597 25.1859C18.1624 25.2024 18.1628 25.2181 18.1376 25.224C18.1376 25.224 18.1372 25.2237 18.1372 25.2237C18.1353 25.2071 18.1314 25.1896 18.1618 25.1874L18.1597 25.1859Z" fill="white"/>
<path d="M18.1386 25.2218C18.1408 25.2384 18.1417 25.2543 18.1148 25.2583C18.1148 25.2583 18.1169 25.2598 18.1169 25.2598C18.1127 25.2429 18.1106 25.2268 18.1382 25.2216L18.1386 25.2218Z" fill="white"/>
<path d="M18.1159 25.2578C18.1179 25.2741 18.1206 25.2907 18.0935 25.2957C18.0935 25.2957 18.0942 25.2962 18.0942 25.2962C18.0914 25.2793 18.0902 25.2631 18.118 25.2593L18.1159 25.2578Z" fill="white"/>
<path d="M18.0946 25.2937C18.0971 25.3103 18.0986 25.3265 18.071 25.3304C18.071 25.3304 18.0732 25.3318 18.0732 25.3318C18.0699 25.3151 18.0683 25.2991 18.0954 25.2942L18.0946 25.2937Z" fill="white"/>
<path d="M18.0721 25.3297C18.075 25.3465 18.0762 25.3625 18.049 25.3669L18.0512 25.3685C18.0496 25.3522 18.0467 25.3355 18.0743 25.3312L18.0721 25.3297Z" fill="white"/>
<path d="M18.05 25.3639C18.0528 25.3805 18.0563 25.3975 18.0274 25.4016C18.0274 25.4016 18.0293 25.4027 18.0293 25.4027C18.0266 25.3861 18.0257 25.3702 18.0523 25.3655L18.05 25.3639Z" fill="white"/>
<path d="M17.7875 25.795C17.7901 25.8116 17.7943 25.8288 17.765 25.8328C17.765 25.8328 17.7667 25.8339 17.7667 25.8339C17.7627 25.8167 17.7648 25.802 17.7898 25.7967L17.7875 25.795Z" fill="white"/>
<path d="M17.766 25.8328C17.7688 25.8494 17.7703 25.8656 17.743 25.87C17.743 25.87 17.745 25.8713 17.745 25.8713C17.7412 25.8542 17.7417 25.8389 17.7677 25.8338L17.766 25.8328Z" fill="white"/>
<path d="M17.7442 25.8688C17.7471 25.8855 17.7474 25.9012 17.7209 25.9059L17.7232 25.9074C17.7208 25.8909 17.718 25.8742 17.7462 25.8701L17.7442 25.8688Z" fill="white"/>
<path d="M17.7221 25.9047C17.7258 25.9217 17.7249 25.9368 17.6993 25.9421L17.7014 25.9435C17.6976 25.9265 17.6965 25.9105 17.7243 25.9062L17.7221 25.9047Z" fill="white"/>
<path d="M17.7005 25.9407C17.7026 25.9571 17.7045 25.9735 17.6775 25.9782C17.6775 25.9781 17.6795 25.9793 17.6795 25.9793C17.6772 25.9628 17.6734 25.9457 17.7025 25.9421L17.7005 25.9407Z" fill="white"/>
<path d="M17.4375 26.3522C17.4392 26.3684 17.4434 26.3856 17.4147 26.3896L17.4169 26.3911C17.4128 26.374 17.4153 26.3595 17.4398 26.3538L17.4375 26.3522Z" fill="white"/>
<path d="M17.4158 26.3899C17.4183 26.4065 17.4187 26.4222 17.3929 26.4273L17.3951 26.4288C17.3915 26.4118 17.392 26.3964 17.418 26.3914L17.4158 26.3899Z" fill="white"/>
<path d="M17.394 26.4258C17.3969 26.4426 17.3953 26.4575 17.371 26.4634C17.371 26.4634 17.373 26.4645 17.373 26.4645C17.3699 26.4476 17.3672 26.431 17.3961 26.4273L17.394 26.4258Z" fill="white"/>
<path d="M17.2404 26.6576C17.2445 26.6748 17.2444 26.6902 17.2177 26.695L17.2199 26.6966C17.2173 26.68 17.2172 26.6644 17.2428 26.6592L17.2404 26.6576Z" fill="white"/>
<path d="M17.2188 26.6935C17.2214 26.7101 17.222 26.7259 17.196 26.7312C17.196 26.7312 17.1981 26.7324 17.1981 26.7324C17.1945 26.7154 17.1946 26.6999 17.221 26.6951L17.2188 26.6935Z" fill="white"/>
<path d="M17.0654 26.9271C17.07 26.9445 17.0686 26.9594 17.0426 26.9644L17.0448 26.9661C17.0428 26.9497 17.0428 26.9342 17.0678 26.9288L17.0654 26.9271Z" fill="white"/>
<path d="M17.0438 26.963C17.046 26.9795 17.0461 26.9952 17.0211 27.0009C17.0211 27.0009 17.0231 27.002 17.0231 27.002C17.0208 26.9855 17.0198 26.9696 17.046 26.9646L17.0438 26.963Z" fill="white"/>
<path d="M16.8904 27.1967C16.8925 27.213 16.8943 27.2293 16.8675 27.234L16.87 27.2359C16.8696 27.2202 16.8694 27.2046 16.8929 27.1985L16.8904 27.1967Z" fill="white"/>
<path d="M16.8685 27.2325C16.8705 27.2489 16.872 27.2651 16.8457 27.2701L16.848 27.2717C16.8464 27.2555 16.8466 27.24 16.871 27.2344L16.8685 27.2325Z" fill="white"/>
<path d="M16.8469 27.2686C16.8502 27.2855 16.8488 27.3005 16.8242 27.3064C16.8242 27.3064 16.8262 27.3075 16.8262 27.3075C16.8233 27.2908 16.8218 27.2747 16.8491 27.2702L16.8469 27.2686Z" fill="white"/>
<path d="M16.6717 27.5381C16.6738 27.5545 16.6775 27.5716 16.6485 27.5752L16.6511 27.5771C16.6509 27.5615 16.6509 27.546 16.674 27.5397L16.6717 27.5381Z" fill="white"/>
<path d="M16.6495 27.574C16.6523 27.5906 16.6565 27.6078 16.6269 27.6115L16.6292 27.6132C16.6269 27.5967 16.6284 27.5818 16.6522 27.5759L16.6495 27.574Z" fill="white"/>
<path d="M16.6281 27.61C16.631 27.6267 16.6329 27.6429 16.6052 27.6471L16.6075 27.6489C16.6057 27.6327 16.6059 27.6172 16.6304 27.6116L16.6281 27.61Z" fill="white"/>
<path d="M16.6063 27.6459C16.607 27.6617 16.6105 27.6787 16.5834 27.6833L16.5857 27.685C16.584 27.6688 16.5844 27.6534 16.6086 27.6477L16.6063 27.6459Z" fill="white"/>
<path d="M16.5844 27.6818C16.5855 27.6977 16.5878 27.7142 16.5615 27.719L16.5638 27.7208C16.5612 27.7042 16.5611 27.6887 16.5866 27.6835L16.5844 27.6818Z" fill="white"/>
<path d="M16.5628 27.7178C16.5625 27.7333 16.5644 27.7497 16.5397 27.7552L16.5419 27.7569C16.5405 27.7407 16.5404 27.7251 16.565 27.7195L16.5628 27.7178Z" fill="white"/>
<path d="M16.5406 27.7537C16.5431 27.7701 16.5408 27.7847 16.5179 27.791L16.5201 27.7927C16.5176 27.7762 16.515 27.7597 16.5428 27.7553L16.5406 27.7537Z" fill="white"/>
<path d="M16.519 27.7897C16.5188 27.8052 16.5177 27.8203 16.4957 27.8268L16.4983 27.8288C16.4989 27.8135 16.493 27.7956 16.5212 27.7914L16.519 27.7897Z" fill="white"/>
<path d="M16.4969 27.8256C16.4973 27.8414 16.496 27.8567 16.4741 27.8637C16.4741 27.8637 16.4763 27.8649 16.4763 27.8649C16.4752 27.8489 16.4723 27.8321 16.4994 27.8276L16.4969 27.8256Z" fill="white"/>
<path d="M19.2583 23.4269C19.2576 23.4423 19.2549 23.4569 19.2341 23.4634C19.2341 23.4634 19.2278 23.4596 19.2278 23.4596C19.2295 23.4445 19.2298 23.4288 19.2528 23.4235L19.2583 23.4269Z" fill="white"/>
<path d="M16.2125 28.2927C16.2118 28.308 16.2145 28.3246 16.1897 28.3302L16.1919 28.332C16.1902 28.3157 16.1881 28.2993 16.215 28.2948L16.2125 28.2927Z" fill="white"/>
<path d="M16.1909 28.3287C16.191 28.3445 16.1908 28.3602 16.1674 28.3664C16.1674 28.3664 16.1702 28.3678 16.1702 28.3678C16.1715 28.3528 16.1657 28.3349 16.1931 28.3305L16.1909 28.3287Z" fill="white"/>
<path d="M33.0807 10.0239C33.0809 10.0211 33.0811 10.0184 33.0814 10.0156C33.0802 10.0177 33.079 10.0197 33.0779 10.0218C33.0779 10.0218 33.0807 10.0239 33.0807 10.0239Z" fill="white"/>
<path d="M33.5572 10.2008C33.5651 10.2009 33.573 10.2009 33.581 10.201C33.581 10.201 33.5819 10.199 33.5819 10.199C33.5734 10.199 33.5649 10.199 33.5565 10.199L33.5572 10.2008Z" fill="white"/>
<path d="M26.3843 14.4753C26.3764 14.4754 26.3686 14.4755 26.3607 14.4755C26.3607 14.4756 26.3599 14.4775 26.3599 14.4775C26.3683 14.4774 26.3768 14.4774 26.3852 14.4773L26.3843 14.4753Z" fill="white"/>
<path d="M34.4788 10.2391C34.4793 10.2366 34.4798 10.2341 34.4803 10.2316C34.4788 10.2333 34.4773 10.235 34.4758 10.2367C34.4758 10.2367 34.4788 10.2391 34.4788 10.2391Z" fill="white"/>
<path d="M23.1241 15.4093C23.132 15.4284 23.1398 15.4475 23.1476 15.4666L23.1241 15.4093Z" fill="white"/>
</svg>
