<svg width="50" height="50" viewBox="0 0 50 50" fill="none" xmlns="http://www.w3.org/2000/svg">
<!--<rect width="50" height="50" rx="2" fill="black"/>-->
<path d="M25.1422 1.37648C25.2261 1.39537 25.3154 1.42136 25.373 1.48894C25.3951 1.50783 25.38 1.53642 25.3755 1.55929C25.3114 1.76566 25.223 1.96337 25.1445 2.16454C25.0997 2.26418 25.117 2.37594 25.1151 2.48181C25.1163 2.56862 25.1084 2.65561 25.1137 2.74242C25.1323 2.76165 25.1589 2.78019 25.1534 2.81104C25.1564 2.83599 25.1224 2.84275 25.1093 2.85869C25.1088 2.88069 25.109 2.9027 25.1095 2.92488C25.158 2.92557 25.1998 2.96179 25.1808 3.01273C25.1554 3.03006 25.1267 3.04201 25.1004 3.0564C25.1384 3.06159 25.2063 3.05189 25.203 3.11011C25.2135 3.15932 25.1489 3.15915 25.1182 3.17284C25.245 3.52771 25.3756 3.88119 25.5066 4.23433C25.5478 4.37191 25.6229 4.49563 25.6894 4.62212C25.7847 4.79886 25.8853 4.973 25.9769 5.15182C26.0139 5.21992 26.0456 5.29114 26.0911 5.35456C26.1184 5.27 26.1354 5.18215 26.1692 5.09984C26.2051 5.02984 26.2361 4.95758 26.2663 4.88498C26.3112 4.76074 26.4133 4.67098 26.4868 4.56407C26.5166 4.58088 26.5469 4.59821 26.5778 4.61398C26.5609 4.58781 26.5416 4.56286 26.5227 4.53843C26.543 4.52197 26.56 4.49147 26.5913 4.49788C26.6885 4.52422 26.7382 4.61796 26.786 4.69749C26.826 4.75935 26.8237 4.83716 26.8598 4.90092C26.9256 5.01251 26.9613 5.13762 27.0063 5.25822C27.0327 5.32268 27.0256 5.39337 27.038 5.46026C27.0907 5.5592 27.0837 5.67425 27.1129 5.78012C27.1809 6.01821 27.2583 6.25351 27.3161 6.49437C27.3315 6.56662 27.2963 6.63732 27.2985 6.70958C27.3171 6.75654 27.3486 6.79847 27.3618 6.84785C27.3882 6.95026 27.3947 7.05786 27.4376 7.15576C27.4651 7.21208 27.4577 7.27567 27.4633 7.33614C27.4663 7.39246 27.4957 7.44219 27.5115 7.49556C27.5342 7.57093 27.5111 7.65359 27.543 7.72706C27.5643 7.77869 27.5768 7.83345 27.5843 7.88872C27.5957 7.97605 27.6339 8.05957 27.6275 8.14898C27.6188 8.24013 27.6631 8.32365 27.6724 8.41288C27.6941 8.60141 27.6766 8.79201 27.651 8.97932C27.6531 9.10703 27.647 9.23612 27.6076 9.3588C27.5768 9.43954 27.5255 9.51041 27.4847 9.58614C27.5451 9.51579 27.6069 9.44405 27.6461 9.35949C27.6655 9.29087 27.6655 9.21844 27.6843 9.14948C27.7051 9.37127 27.6321 9.58354 27.5834 9.79649C27.5635 9.93425 27.512 10.0713 27.5384 10.2118C27.5521 10.3078 27.5475 10.4071 27.5727 10.5012C27.6489 10.6421 27.7214 10.7852 27.8051 10.9223C27.851 10.8474 27.9201 10.7852 27.9457 10.6993C27.9918 10.5631 28.0438 10.4286 28.086 10.2912C28.1148 10.1756 28.1138 10.0552 28.1273 9.93737C28.1381 9.84951 28.1122 9.76149 28.125 9.67433C28.2143 9.5747 28.3237 9.48702 28.4495 9.43643C28.4393 9.54975 28.4428 9.66463 28.4213 9.77691C28.4055 9.87533 28.3908 9.9741 28.3836 10.0736C28.3826 10.18 28.3918 10.2863 28.4013 10.3924C28.4596 10.3815 28.5225 10.3844 28.5776 10.3603C28.6897 10.2735 28.7949 10.1779 28.9017 10.0847C28.9959 10.112 29.0588 10.1912 29.1216 10.2609C28.8931 10.4962 28.6421 10.7091 28.3827 10.9105C28.2646 11.0207 28.1462 11.1321 28.0544 11.2657C28.067 11.2697 28.0923 11.2778 28.1049 11.282C28.1087 11.3021 28.1287 11.3274 28.1108 11.3463C28.091 11.3615 28.0681 11.3721 28.0467 11.3839C28.0996 11.3754 28.1453 11.4015 28.1791 11.4397C28.1765 11.4509 28.1714 11.4735 28.1688 11.4847C28.1884 11.5097 28.2097 11.5346 28.221 11.5653C28.2407 11.5958 28.1954 11.6098 28.1786 11.6247C28.2833 11.7864 28.3472 11.9678 28.4199 12.1447C28.5048 12.3095 28.536 12.4935 28.5846 12.6706C28.6832 12.9927 28.7196 13.3286 28.7958 13.6559C28.8844 13.6079 28.9835 13.573 29.0562 13.5008C29.1195 13.4419 29.2018 13.3873 29.2174 13.296C29.2503 13.1447 29.2735 12.9914 29.3169 12.8425C29.3293 12.7793 29.3554 12.72 29.3894 12.6653C29.4526 12.7046 29.5149 12.7458 29.5797 12.7829C29.5858 12.9664 29.5512 13.148 29.523 13.3286C29.513 13.4121 29.4804 13.492 29.438 13.5644C29.3276 13.6988 29.1593 13.7626 29.0218 13.864C28.9308 13.9317 28.8341 13.9917 28.7436 14.06C28.7137 14.0806 28.6984 14.114 28.6818 14.1445C28.7014 14.1559 28.7219 14.1677 28.7424 14.1795C28.7951 14.1585 28.8474 14.1357 28.8947 14.1036C29.0716 13.9806 29.2591 13.8652 29.4689 13.8061C29.5216 13.7919 29.5904 13.7754 29.6322 13.8227C29.6799 13.8816 29.686 13.9619 29.6862 14.0348C29.6457 14.0775 29.6037 14.1208 29.5484 14.1443C29.4197 14.2064 29.315 14.3062 29.2225 14.4124C29.1476 14.4989 29.0563 14.569 28.9763 14.6505C28.9543 14.6709 28.9339 14.6954 28.9044 14.7045C28.7954 14.7418 28.6857 14.7764 28.5757 14.8102C28.4747 14.8367 28.4066 14.9199 28.326 14.9797C28.2668 15.0303 28.1987 15.0721 28.1514 15.135C28.0758 15.2315 27.9791 15.3119 27.9133 15.4157C27.8853 15.504 27.8403 15.5966 27.8643 15.691C27.8781 15.7555 27.9382 15.7965 27.9599 15.858C27.9942 15.9506 28.0333 16.0466 28.0354 16.1458C27.9084 16.3706 27.727 16.5595 27.5787 16.7698C27.5458 16.8476 27.5211 16.9287 27.4878 17.0065C27.506 17.015 27.5243 17.0249 27.5421 17.036C27.532 17.084 27.5264 17.1325 27.5199 17.1812C27.4954 17.1881 27.4712 17.185 27.447 17.1845C27.4701 17.1919 27.4954 17.1983 27.5166 17.2129C27.5141 17.2347 27.5109 17.2567 27.5074 17.2787C27.481 17.2772 27.456 17.2763 27.4304 17.2751C27.4542 17.2825 27.478 17.2902 27.5025 17.2981C27.4975 17.3222 27.4933 17.347 27.4887 17.3714C27.4649 17.3702 27.4414 17.3692 27.4185 17.3683C27.3768 17.6246 27.359 17.8842 27.3274 18.142C27.5987 18.1626 27.875 18.1422 28.1408 18.2103C28.3288 18.2635 28.5269 18.2543 28.7195 18.2794C28.835 18.3075 28.9296 18.4109 28.942 18.5287C28.9515 18.5864 28.9343 18.6436 28.9168 18.6982C28.9747 18.7299 29.0378 18.7533 29.0921 18.7913C29.1602 18.8827 29.1885 18.9947 29.2122 19.1042C29.2269 19.1565 29.2388 19.2267 29.3006 19.2444C29.2743 19.12 29.2542 18.9945 29.222 18.8715C29.2787 18.986 29.2873 19.1153 29.3241 19.2362C33.9214 19.4707 38.5192 19.7008 43.1169 19.9342C43.455 19.9498 43.7931 19.9704 44.1314 19.9837C44.1563 19.9633 44.1811 19.9428 44.2069 19.9229C44.6851 19.9458 45.1634 19.9704 45.6418 19.9947C45.7645 19.8406 45.8824 19.6826 46.007 19.5299C46.7766 19.7561 47.5482 19.9761 48.3183 20.2005C48.4106 20.2327 48.5025 20.2665 48.5932 20.3036C48.6424 20.3202 48.628 20.3928 48.5795 20.3994C48.4649 20.4304 48.351 20.4656 48.2337 20.4847C47.4801 20.6219 46.7263 20.7592 45.9729 20.8978C45.8705 20.7465 45.7659 20.5968 45.6647 20.4447C45.6488 20.4247 45.6362 20.3944 45.6062 20.3979C45.145 20.3724 44.6837 20.348 44.2225 20.3235C44.1706 20.323 44.1328 20.2835 44.0981 20.2511C39.3187 19.9971 34.5395 19.7451 29.76 19.4918C29.6177 19.4816 29.4745 19.4837 29.3326 19.4676C29.2927 19.5819 29.2929 19.7075 29.237 19.8172C29.2621 19.6989 29.2876 19.5804 29.3013 19.4601C29.2295 19.5549 29.2423 19.6809 29.1889 19.7834C29.1677 19.8195 29.1407 19.8517 29.1159 19.8853C29.0413 19.9056 28.9655 19.9215 28.8919 19.9442C28.8163 19.9706 28.7447 20.0066 28.6708 20.0364C28.6834 20.0123 28.6965 19.9888 28.71 19.9652C28.6475 20.0212 28.5706 20.0723 28.4818 20.06C28.3546 20.0427 28.2259 20.0487 28.0991 20.0648C28.0786 20.0686 28.0602 20.0766 28.0436 20.0887C28.1476 20.0856 28.2451 20.1234 28.3412 20.1575C28.4293 20.1934 28.4698 20.2955 28.4566 20.3849C28.4432 20.5301 28.2819 20.6438 28.1392 20.5961C27.7799 20.4991 27.4057 20.4859 27.0406 20.4206C27.0329 20.488 27.0208 20.5549 27.0123 20.6223C27.0611 20.6418 27.089 20.6923 27.0534 20.7389C27.0588 20.7704 27.0644 20.8037 27.041 20.8302C27.0485 20.8609 27.0445 20.8924 27.0359 20.9229C27.0336 20.9484 27.0319 20.974 27.0301 21C27.0054 21.0017 26.9811 21.0036 26.9571 21.0059C26.9275 21.178 26.9344 21.3535 26.9214 21.5275C26.9081 21.6827 26.9212 21.8381 26.9203 21.9937C26.9172 22.1107 26.9788 22.2143 27.0082 22.3245C27.0214 22.3755 27.0511 22.4197 27.0779 22.4647C27.1653 22.6125 27.2518 22.7624 27.3644 22.8934C27.4476 23.0138 27.6069 23.0419 27.7113 23.1379C27.7969 23.2621 27.8776 23.39 27.9562 23.5189C28.0117 23.6161 28.0972 23.6905 28.1754 23.7691C28.236 23.8248 28.3125 23.8641 28.3579 23.9351C28.3145 24.0148 28.2628 24.0897 28.2182 24.1687C28.0564 24.1535 27.9257 24.0453 27.7963 23.9577C27.6797 23.8651 27.567 23.7672 27.467 23.6572C27.4346 23.6208 27.3914 23.5971 27.346 23.5818C27.3791 23.7024 27.4878 23.7788 27.5593 23.8766C27.6654 24.0193 27.8121 24.1297 27.9005 24.2857C27.9462 24.3489 27.9406 24.4312 27.9443 24.5054C27.9268 24.7026 27.9077 24.9022 27.8438 25.0911C27.7778 25.1183 27.7114 25.1507 27.6388 25.1527C27.6013 25.0696 27.6136 24.9767 27.6146 24.8888C27.6158 24.7615 27.6312 24.635 27.6379 24.508C27.6428 24.4246 27.5862 24.3574 27.5446 24.2909C27.492 24.2018 27.411 24.1341 27.3325 24.0684C27.1415 24.3219 26.9688 24.5896 26.7591 24.8285C26.5824 25.0632 26.3751 25.2723 26.1834 25.4944C25.9953 25.7117 25.7941 25.9179 25.6157 26.1434C25.4014 26.3998 25.1787 26.6495 24.9756 26.915C24.9603 26.9326 24.9442 26.9493 24.929 26.9671C24.9531 26.9865 24.9777 27.0066 25.0023 27.0267C24.9892 27.0534 24.9728 27.0785 24.9519 27.1004C24.9204 27.0834 24.8894 27.0669 24.8584 27.0503C24.8546 27.0583 24.8467 27.0742 24.8427 27.0822C24.8679 27.1042 24.8917 27.1283 24.9132 27.1546C24.8948 27.1704 24.8768 27.1863 24.8588 27.2026C24.8293 27.187 24.8048 27.1511 24.7693 27.1546C24.7588 27.1931 24.8173 27.2085 24.8176 27.2452C24.8153 27.2691 24.7891 27.2804 24.7754 27.2976C24.7528 27.279 24.7315 27.2615 24.7098 27.2435C24.5215 27.4644 24.3503 27.6992 24.193 27.9425C23.9826 28.5025 23.8267 29.082 23.5981 29.6354C23.552 29.7589 23.5091 29.8837 23.4599 30.0062C23.4174 30.1282 23.3405 30.2339 23.2761 30.3451C23.2148 30.433 23.1738 30.5366 23.092 30.6092C22.9045 30.7879 22.7119 30.9615 22.5331 31.1488C22.3241 31.3635 22.1148 31.578 21.907 31.7939C21.8401 31.8618 21.7913 31.944 21.7345 32.0199C21.544 32.2742 21.3617 32.5343 21.1719 32.789C21.1961 32.8096 21.2203 32.8311 21.2436 32.8538C21.229 32.8757 21.215 32.8985 21.2008 32.9211C21.1859 32.9185 21.1562 32.9136 21.1415 32.911C21.1579 32.9275 21.1742 32.9439 21.1912 32.9611C21.1796 32.9822 21.1702 33.0054 21.1564 33.0259C21.1341 33.0278 21.1122 33.029 21.0905 33.0297C21.0868 33.0437 21.0835 33.0583 21.0805 33.0734C21.0893 33.0933 21.1217 33.1099 21.1094 33.1352C21.1051 33.1683 21.0725 33.1813 21.0466 33.1955C21.0168 33.344 20.9608 33.4868 20.9389 33.6369C20.9538 33.8699 21.0075 34.1004 21.0077 34.3348C20.9223 34.3738 20.8193 34.4192 20.7309 34.3632C20.7023 34.2867 20.6582 34.2166 20.6302 34.1402C20.5917 33.9671 20.5537 33.7937 20.5237 33.619C20.5598 33.4097 20.6148 33.2038 20.6577 32.9957C20.6265 32.9703 20.5957 32.9448 20.5654 32.9192C20.5985 32.8654 20.6213 32.8067 20.6477 32.7497C20.6733 32.7525 20.699 32.7558 20.7251 32.7592C20.7286 32.7523 20.7356 32.7383 20.7389 32.7312C20.7195 32.7114 20.6897 32.6981 20.6811 32.671C20.6882 32.6501 20.6964 32.63 20.7055 32.6104C20.717 32.609 20.74 32.6066 20.7515 32.6054C21.3216 28.3046 21.8944 24.0043 22.464 19.7036C22.3132 19.6859 22.1558 19.6867 22.015 19.6238C21.941 19.5923 21.8765 19.5436 21.814 19.4944C21.6015 19.5819 21.3428 19.5185 21.194 19.3456C21.1406 19.2728 21.052 19.244 20.9802 19.1943C20.869 19.121 20.7514 19.0586 20.6316 19.0007C20.4751 18.9238 20.2972 18.9155 20.1312 18.8685C19.9633 18.8218 19.7925 18.7859 19.626 18.7344C19.421 18.6656 19.213 18.6057 19.0102 18.5305C18.8624 18.4776 18.7209 18.4097 18.5751 18.3525C18.4203 18.4158 18.2506 18.4239 18.0857 18.4097C18.061 18.4385 18.0361 18.4671 18.0109 18.4955C18.0052 18.5741 17.9915 18.6547 17.9483 18.7226C17.9087 18.7824 17.8838 18.8495 17.8632 18.9176C17.8521 18.9562 17.8323 18.9962 17.8441 19.0375C17.8698 19.1432 17.866 19.2529 17.8661 19.361C17.8667 19.4575 17.815 19.5436 17.8005 19.6377C17.7422 19.9955 17.6765 20.3523 17.6128 20.7092C17.5399 21.1021 17.4869 21.4985 17.4175 21.8917C17.4954 22.0435 17.5944 22.1857 17.6823 22.333C17.7535 22.3569 17.8187 22.4287 17.7926 22.5073C17.808 22.5474 17.8358 22.603 17.7847 22.63C17.9043 23.2391 18.0353 23.8462 18.1591 24.4546C18.2069 24.6757 18.2431 24.8996 18.3037 25.1179C18.3249 25.2794 18.3617 25.4385 18.3967 25.5975C18.5175 25.9859 18.6429 26.3726 18.7652 26.7606C18.8074 26.9032 18.8645 27.0425 18.8885 27.1901C18.9179 27.3442 18.9473 27.4982 18.9785 27.6521C18.9983 27.7432 18.9818 27.8385 18.9614 27.9281C18.9074 28.0057 18.8386 28.0756 18.7539 28.1203C18.6199 28.1946 18.479 28.2712 18.3214 28.2748C18.3585 28.3467 18.3954 28.419 18.4305 28.4921C18.4576 28.5569 18.532 28.5793 18.5875 28.6148C18.6225 28.6384 18.6924 28.6285 18.6973 28.6826C18.6788 28.7534 18.6422 28.8236 18.581 28.8676C18.3655 29.0213 18.1109 29.105 17.8773 29.2259C17.7635 29.2504 17.6618 29.3067 17.5578 29.3561C17.6037 29.5306 17.6543 29.704 17.6987 29.879C17.7176 29.9497 17.7385 30.0234 17.7873 30.0807C17.8294 30.1324 17.8875 30.1772 17.9025 30.2457C17.9187 30.3306 17.904 30.4186 17.9244 30.5033C17.9575 30.6494 18.0011 30.8007 18.1043 30.9149C18.1815 30.9956 18.1934 31.1103 18.2121 31.2148C18.2398 31.4032 18.2683 31.592 18.3193 31.7759C18.356 31.9083 18.4189 32.0318 18.4557 32.1642C18.504 32.3336 18.5184 32.5099 18.5467 32.6831C18.5933 32.9795 18.6495 33.274 18.7019 33.5693C18.7686 33.5587 18.8342 33.5346 18.9027 33.5395C18.9493 33.5549 18.9505 33.6119 18.958 33.6523C18.9831 33.9131 19.0151 34.1735 19.0557 34.4325C19.0836 34.6036 19.1722 34.755 19.2501 34.9072C19.2727 34.9586 19.3063 35.0146 19.2905 35.0728C19.2714 35.0932 19.2417 35.0979 19.2172 35.1097C19.1407 35.1809 19.0324 35.1957 18.9407 35.2395C18.9353 35.3202 18.9577 35.402 18.9621 35.4836C18.9878 35.7995 19.0237 36.1144 19.0619 36.4292C19.0843 36.6044 19.0816 36.7825 19.1168 36.9563C19.1358 37.0624 19.1414 37.1724 19.1844 37.2729C19.256 37.4522 19.2977 37.6414 19.3648 37.8223C19.4915 38.1906 19.5717 38.5737 19.6143 38.9603C19.6451 39.1595 19.7463 39.3377 19.8184 39.5239C19.924 39.7837 20.0139 40.0507 20.0701 40.3255C20.1159 40.5364 20.1198 40.7552 20.0911 40.9689C20.069 41.1962 20.0459 41.4234 20.0273 41.6511C20.0216 41.7292 20.0069 41.8075 20.0116 41.8865C20.0286 42.1286 20.0186 42.3715 20.0258 42.6141C20.0256 42.7988 20.0336 42.9839 20.0214 43.1686C20.0009 43.4921 19.9892 43.8163 19.9556 44.1391C19.931 44.2778 20.0545 44.3854 20.0566 44.5209C20.061 44.7125 20.1434 44.8889 20.1855 45.0733C20.2117 45.1596 20.2735 45.229 20.3108 45.3108C20.3719 45.4406 20.467 45.5498 20.5574 45.6603C20.6503 45.774 20.7617 45.8707 20.8648 45.975C20.9587 46.0672 21.0467 46.1677 21.1585 46.2399C21.3155 46.3422 21.4894 46.4165 21.6431 46.5245C21.761 46.6029 21.863 46.7028 21.9849 46.7757C22.1119 46.8537 22.2299 46.9504 22.3139 47.0741C22.4339 47.2281 22.5365 47.4059 22.5578 47.6026C22.5697 47.6769 22.5447 47.757 22.5792 47.8275C22.6296 47.9424 22.6307 48.0754 22.5988 48.1955C22.5841 48.2524 22.5457 48.3005 22.4964 48.3326C22.3866 48.4069 22.2659 48.4634 22.1509 48.5293C22.0331 48.6001 21.8919 48.6122 21.7578 48.6226C21.5391 48.6258 21.3166 48.6225 21.1051 48.5618C20.9538 48.5208 20.8144 48.448 20.6734 48.3818C20.4456 48.2745 20.2649 48.0945 20.0979 47.9119C19.9923 47.7953 19.8985 47.6686 19.789 47.5554C19.6742 47.4333 19.5488 47.3213 19.4182 47.2162C19.3117 47.1313 19.2273 47.0243 19.1422 46.9197C19.065 46.9115 18.9987 46.8705 18.9403 46.8228C18.816 46.7222 18.6749 46.6307 18.6 46.4851C18.5592 46.4193 18.5747 46.3371 18.5394 46.2699C18.4989 46.1836 18.4723 46.0874 18.4856 45.9921C18.4909 45.9516 18.4904 45.9109 18.4858 45.8712C18.4609 45.6284 18.4847 45.3838 18.5303 45.145C18.5515 45.0729 18.5157 45.0043 18.4923 44.9381C18.4497 44.8371 18.462 44.7227 18.4168 44.6224C18.3433 44.4482 18.2589 44.2786 18.1909 44.102C18.1284 43.9617 18.0974 43.8111 18.057 43.664C18.0095 43.4649 17.9663 43.2649 17.9181 43.0662C17.8756 42.935 17.8362 42.803 17.7917 42.6729C17.662 42.3305 17.4205 42.0446 17.2783 41.7081C17.205 41.5592 17.1349 41.4076 17.0922 41.247C17.0243 40.9949 16.9999 40.7339 16.9435 40.4794C16.9021 40.3425 16.8679 40.2037 16.8238 40.0678C16.8019 39.9994 16.7907 39.9283 16.7819 39.8575C16.7699 39.7379 16.6984 39.6369 16.644 39.5331C16.5221 39.3267 16.4412 39.1006 16.3621 38.8757C16.3029 38.6631 16.2363 38.4522 16.1554 38.2465C16.0604 38.0027 15.9817 37.7532 15.9082 37.5025C15.7378 36.9771 15.551 36.4561 15.319 35.9539C15.1835 35.9546 15.0459 35.9565 14.9135 35.9238C14.8531 35.8832 14.8534 35.799 14.8391 35.7352C14.81 35.5174 14.7801 35.2979 14.7049 35.0899C14.6029 34.807 14.4957 34.5258 14.3936 34.243C14.3824 34.2023 14.3602 34.1563 14.3786 34.1154C14.4328 34.0681 14.5088 34.0596 14.5768 34.0444C14.4933 33.7448 14.3922 33.4508 14.2919 33.1565C14.2285 32.9621 14.1788 32.7625 14.0942 32.5755C14.0328 32.43 14.0203 32.2692 13.9571 32.1245C13.9041 32.0292 13.8524 31.9327 13.8167 31.8296C13.7705 31.7024 13.7221 31.5733 13.7134 31.4373C13.7076 31.3682 13.7018 31.2954 13.6633 31.2354C13.6169 31.1618 13.5484 31.1053 13.4824 31.0497C13.4436 31.0904 13.3938 31.127 13.3814 31.185C13.3574 31.2753 13.3192 31.3616 13.2655 31.4387C13.2002 31.5298 13.1785 31.6414 13.1389 31.7443C13.0536 31.9692 12.9838 32.1994 12.9022 32.4257C12.9767 32.5567 13.0517 32.7084 13.0044 32.8623C12.9515 33.0247 12.8629 33.173 12.7929 33.3288C12.7288 33.474 12.6397 33.6148 12.629 33.7769C12.6189 33.9023 12.6008 34.0323 12.5324 34.1414C12.4241 34.3187 12.2615 34.4596 12.0806 34.5616C11.9995 34.6082 11.9083 34.6372 11.8145 34.6436C11.687 34.8967 11.5602 35.1508 11.4538 35.4138C11.3804 35.5923 11.2888 35.7628 11.2163 35.9418C11.157 36.0778 11.0999 36.2152 11.0271 36.345C11.0095 36.3753 11.0088 36.4108 11.006 36.4453C10.9933 36.6706 10.9488 36.8924 10.9096 37.1142C10.8914 37.2368 10.8628 37.3578 10.8239 37.4758C10.7437 37.7121 10.7094 37.9601 10.6499 38.2018C10.58 38.53 10.4519 38.8464 10.2684 39.1287C10.0455 39.4591 9.81416 39.7908 9.67461 40.1664C9.59915 40.3842 9.49076 40.5885 9.40426 40.802C9.26909 41.0851 9.09785 41.3504 8.96915 41.6367C8.92678 41.7261 8.88248 41.8146 8.83485 41.9016C8.78442 42.0174 8.81682 42.1456 8.83678 42.2646C8.8746 42.4592 8.89141 42.6592 8.86917 42.8569C8.85779 42.9257 8.88633 42.9941 8.8746 43.0634C8.86987 43.1258 8.83888 43.1813 8.81874 43.2396C8.80736 43.3024 8.81962 43.3717 8.78373 43.4289C8.6995 43.5805 8.54052 43.6654 8.40237 43.7617C8.32235 43.8135 8.23567 43.8797 8.13359 43.8601C8.04359 43.9497 7.95867 44.0456 7.85379 44.119C7.67484 44.246 7.49835 44.3776 7.34111 44.5306C7.0972 44.7704 6.85574 45.028 6.5411 45.177C6.29316 45.2788 6.0433 45.3916 5.7726 45.4151C5.56284 45.4312 5.34957 45.4453 5.14138 45.4066C5.02109 45.3871 4.92216 45.3113 4.81553 45.2587C4.74601 45.2157 4.65794 45.1828 4.62239 45.1043C4.5886 44.9833 4.61434 44.8523 4.66792 44.7409C4.67597 44.6617 4.66529 44.5805 4.68823 44.5033C4.71852 44.3763 4.79049 44.2651 4.85912 44.1559C4.90973 44.0745 4.98502 44.0132 5.0477 43.9418C5.19811 43.7815 5.41103 43.7047 5.57842 43.5656C5.75544 43.4256 5.97081 43.3466 6.15624 43.2195C6.31084 43.1144 6.42133 42.9617 6.5502 42.8297C6.69342 42.6886 6.83508 42.545 6.95712 42.3852C7.06883 42.2478 7.11488 42.074 7.18615 41.9153C7.29593 41.6303 7.42656 41.3456 7.45002 41.0375C7.47541 40.6968 7.51253 40.357 7.52374 40.0157C7.52689 39.6346 7.53442 39.2529 7.57696 38.8741C7.6048 38.6362 7.65961 38.4013 7.66434 38.1611C7.66906 37.8991 7.69778 37.6345 7.78971 37.3872C7.86937 37.1566 7.94589 36.9249 8.01558 36.6914C8.04219 36.5595 8.07634 36.423 8.0457 36.289C8.00525 36.058 8.03799 35.8222 8.09682 35.5975C8.1434 35.4216 8.23533 35.2622 8.28961 35.0891C8.33058 34.9678 8.34371 34.8397 8.34301 34.7126C8.35334 34.4906 8.34774 34.2686 8.35597 34.0468C8.24198 33.9642 8.13832 33.8642 8.06793 33.742C7.962 33.5639 7.94081 33.3416 8.0021 33.1451C8.04447 33.0091 8.12221 32.8871 8.20959 32.7753C8.23725 32.7381 8.27122 32.7019 8.27822 32.6546C8.30869 32.4868 8.3248 32.317 8.34669 32.1484C8.37137 31.9663 8.46207 31.7953 8.59567 31.6683C8.64575 31.6135 8.71491 31.5664 8.7305 31.4894C8.85061 31.0746 8.93799 30.6491 9.1017 30.2477C9.18032 30.0606 9.21849 29.8579 9.31672 29.6791C9.34999 29.6149 9.40549 29.5609 9.41827 29.4878C9.43613 29.3933 9.46415 29.3008 9.50792 29.2148C9.41477 29.0556 9.28748 28.9189 9.19397 28.7598C9.1404 28.6708 9.09242 28.564 9.12359 28.459C9.14582 28.3682 9.21849 28.3046 9.27907 28.2381C9.32197 28.1932 9.33931 28.1329 9.36207 28.0773C9.38115 28.0196 9.44454 27.9974 9.47886 27.9508C9.51668 27.8985 9.57849 27.8524 9.57341 27.7815C9.57814 27.667 9.57078 27.5389 9.64765 27.444C9.69493 27.3771 9.78685 27.3669 9.835 27.3008C9.98874 27.1236 10.1544 26.9534 10.3508 26.8222C10.4195 26.781 10.4436 26.7001 10.4836 26.6358C10.4408 26.6831 10.4126 26.7415 10.3683 26.7876C10.3486 26.8129 10.3144 26.8131 10.2904 26.7944C10.2882 26.7578 10.3155 26.7295 10.3314 26.6994C10.3827 26.6207 10.4021 26.5277 10.4461 26.4457C10.4575 26.4213 10.4834 26.4105 10.5042 26.3958C10.4965 26.3334 10.4986 26.2633 10.4529 26.2139C10.3419 26.0775 10.258 25.9195 10.2088 25.7514C10.1489 25.5573 10.1826 25.3529 10.1801 25.1538C10.1281 25.0755 10.1574 24.9821 10.2062 24.9107C10.1859 24.8639 10.223 24.8346 10.2649 24.8261C10.2803 24.7798 10.289 24.7305 10.2699 24.684C10.2465 24.6246 10.2762 24.5648 10.2962 24.5094C10.2871 24.4891 10.2794 24.4692 10.2734 24.4485C10.2845 24.444 10.3064 24.435 10.3174 24.4305C10.317 24.4068 10.3169 24.3832 10.317 24.3602C10.2894 24.3141 10.2414 24.2699 10.2528 24.2115C10.2545 24.1581 10.305 24.1032 10.2638 24.054C10.2957 23.9947 10.3435 23.9407 10.3295 23.8684C10.3064 23.87 10.2839 23.8741 10.261 23.8743C10.2419 23.8554 10.2281 23.832 10.2125 23.8111C10.2039 23.7128 10.288 23.6326 10.2668 23.5349C10.2628 23.4983 10.2845 23.4655 10.2932 23.4314C10.3002 23.4266 10.3142 23.4167 10.3212 23.4118C10.3149 23.3559 10.3081 23.3004 10.3009 23.245C10.2783 23.2321 10.2561 23.2198 10.2335 23.2079C10.1873 23.1535 10.1348 23.0937 10.1525 23.0164C10.1682 22.9492 10.1453 22.887 10.1201 22.8258C10.1267 22.8168 10.1404 22.7986 10.1472 22.7896C10.1729 22.7206 10.1635 22.6468 10.1323 22.5813C10.1089 22.5484 10.0688 22.5307 10.0481 22.4957C10.0262 22.4592 10.0029 22.4238 9.98103 22.3878C9.95319 22.3443 9.95844 22.2907 9.94812 22.2427C9.93061 22.1885 9.88491 22.1412 9.89226 22.0812C9.89821 22.0351 9.89384 21.9806 9.93726 21.9509C9.925 21.9114 9.91327 21.8711 9.88893 21.8371C9.86179 21.7858 9.78405 21.7934 9.76269 21.7375C9.71191 21.6364 9.75218 21.5184 9.71454 21.4146C9.68285 21.3462 9.64905 21.2788 9.61211 21.213C9.5524 21.1771 9.52123 21.113 9.48394 21.0575C9.45224 21.0092 9.41162 20.9664 9.38641 20.9142C9.35594 20.852 9.3787 20.7761 9.33966 20.7172C9.29921 20.6519 9.26769 20.5808 9.22252 20.5186C9.17909 20.4878 9.12166 20.4705 9.0961 20.4204C9.06703 20.3781 9.06108 20.3265 9.06563 20.2769C9.06966 20.2556 9.06703 20.2353 9.0581 20.2163C8.98964 20.0688 8.94604 19.9061 8.95445 19.7429C8.9646 19.6857 8.91645 19.6446 8.88896 19.6004C8.66116 19.572 8.43511 19.5325 8.20713 19.5048C7.83278 19.4604 7.46455 19.3502 7.08442 19.3655C6.96675 19.367 6.85294 19.4069 6.73493 19.4005C6.62619 19.397 6.52078 19.3686 6.4173 19.3379C6.29806 19.3738 6.17339 19.3884 6.04978 19.3994C5.93667 19.4092 5.82513 19.3596 5.74826 19.279C5.69556 19.2173 5.60783 19.2123 5.54322 19.1676C5.48824 19.1905 5.43081 19.2151 5.3697 19.2107C5.2727 19.2042 5.18148 19.1678 5.08675 19.1492C5.02897 19.143 4.97031 19.1524 4.9127 19.1428C4.81833 19.1272 4.72938 19.0912 4.64008 19.0588C4.58825 19.0356 4.53099 19.0508 4.47636 19.0482C4.31808 19.0416 4.14508 19.0487 4.00991 18.9527C3.96088 18.9165 3.89855 18.9359 3.84427 18.946C3.77475 18.9621 3.70227 18.9404 3.63345 18.9605C3.53137 18.99 3.42509 18.9669 3.32283 18.9514C3.21602 18.933 3.10396 18.924 3.00713 18.8713C2.91486 18.8233 2.84342 18.7469 2.7697 18.6757C2.68916 18.6273 2.59041 18.624 2.49901 18.6126C2.31078 18.5871 2.14128 18.4941 1.98702 18.3891C1.88529 18.3185 1.78444 18.2461 1.69339 18.1624C1.49903 17.9729 1.37279 17.7097 1.37769 17.4367C1.36561 17.2479 1.46664 17.0744 1.59183 16.9398C1.69304 16.8315 1.79214 16.7215 1.88862 16.6092C2.0364 16.4382 2.23916 16.3075 2.46574 16.2706C2.66272 16.245 2.86233 16.2709 3.05599 16.3077C3.19921 16.3356 3.33281 16.3961 3.45783 16.4692C3.57234 16.4974 3.69316 16.4881 3.8103 16.4849C4.43224 16.4461 5.04438 16.3118 5.66754 16.2857C5.84859 16.2751 6.02964 16.2626 6.21087 16.254C6.41345 16.247 6.61796 16.2143 6.80619 16.1384C6.84927 16.1003 6.86783 16.04 6.91335 16.0029C6.96728 15.9492 7.05395 15.967 7.11436 15.9251C7.17459 15.8849 7.2224 15.8229 7.29506 15.8034C7.36142 15.7905 7.42411 15.8261 7.48924 15.8324C7.56051 15.8268 7.62407 15.7856 7.6962 15.7835C7.86902 15.7787 8.04219 15.7773 8.21501 15.7842C8.32638 15.8083 8.44106 15.806 8.5533 15.826C8.61388 15.7982 8.68305 15.8071 8.74818 15.8019C8.82435 15.8088 8.89876 15.8358 8.97651 15.8263C9.02693 15.831 9.06528 15.782 9.11623 15.7944C9.1868 15.8073 9.25719 15.7892 9.32775 15.7847C9.40934 15.7896 9.48744 15.8196 9.56956 15.823C9.72942 15.8298 9.89471 15.8461 10.0502 15.7993C10.0649 15.8086 10.0796 15.8182 10.0945 15.8279C10.132 15.7542 10.1969 15.6752 10.2887 15.6797C10.4296 15.6813 10.5704 15.675 10.7108 15.6638C10.7511 15.6608 10.7798 15.629 10.8159 15.6147C10.887 15.5846 10.9658 15.5858 11.0418 15.5803C11.1006 15.5784 11.1624 15.5655 11.2183 15.5919C11.2797 15.5792 11.3743 15.6238 11.403 15.548C11.396 15.4375 11.3729 15.3275 11.3445 15.2204C11.3217 15.2322 11.3006 15.2469 11.2815 15.264C11.2788 15.2874 11.2703 15.3091 11.2501 15.3233C11.2365 15.3476 11.2219 15.3734 11.1955 15.386C11.0953 15.4396 10.9772 15.4598 10.8649 15.4413C10.9962 15.4418 11.1501 15.4387 11.2415 15.3295C11.226 15.3295 11.1948 15.3295 11.179 15.3294C11.1974 15.3226 11.2158 15.3158 11.2345 15.3094C11.2584 15.263 11.289 15.22 11.3305 15.1874C11.3359 15.1421 11.334 15.0965 11.3272 15.0516C11.2999 15.0606 11.2729 15.0703 11.2458 15.0795C11.2445 15.0972 11.2417 15.1325 11.2405 15.1502C11.2626 15.1329 11.2851 15.1159 11.3072 15.0984C11.3028 15.1064 11.2944 15.1225 11.2902 15.1304C11.2687 15.1403 11.2475 15.1505 11.2265 15.1613C11.2267 15.188 11.227 15.2148 11.2274 15.2417C11.1964 15.2708 11.1664 15.3011 11.1375 15.3323C11.0778 15.3226 11.0204 15.3372 10.9694 15.3677C10.9439 15.3524 10.9155 15.3424 10.8868 15.3361C10.9302 15.3333 10.9724 15.3223 11.0094 15.299C10.9523 15.2968 10.8956 15.299 10.8387 15.2971C10.8845 15.2824 10.9327 15.2779 10.981 15.2784C10.9826 15.2654 10.9859 15.2393 10.9877 15.2261C10.942 15.2263 10.8957 15.2266 10.8521 15.2121C10.8215 15.2119 10.7914 15.2127 10.7613 15.2141C10.7959 15.2051 10.8362 15.2058 10.863 15.1784C10.8287 15.1739 10.7945 15.1699 10.7606 15.1663C10.8273 15.1611 10.8957 15.1642 10.96 15.1422C11.0644 15.0864 11.0764 14.9566 11.0722 14.8518C10.9808 14.9099 10.9127 14.9979 10.8145 15.0461C10.9006 14.9814 10.9682 14.8984 11.0435 14.8227C11.0335 14.825 11.0134 14.8295 11.0032 14.8317C10.9968 14.8402 10.9838 14.8574 10.9773 14.866C10.9619 14.8655 10.9467 14.8652 10.9316 14.865C10.9031 14.891 10.8728 14.9161 10.835 14.9275C10.8381 14.9119 10.8446 14.8808 10.8478 14.8652C10.8383 14.8641 10.8194 14.8622 10.8098 14.8613C10.843 14.8393 10.8845 14.8213 10.9012 14.7828C10.9225 14.7302 10.9451 14.6782 10.9717 14.6279C10.9406 14.6529 10.9069 14.6756 10.8658 14.6775C10.8411 14.6851 10.8157 14.6903 10.7905 14.6952L10.7891 14.6612C10.7614 14.6891 10.7273 14.7083 10.6893 14.718C10.6987 14.703 10.7084 14.6882 10.7182 14.6737C10.7178 14.6609 10.7168 14.6352 10.7164 14.6222C10.7824 14.5844 10.8206 14.5195 10.8443 14.4498C10.787 14.4937 10.7353 14.5449 10.673 14.582C10.6865 14.5687 10.7133 14.5416 10.7268 14.5281C10.6774 14.5309 10.6294 14.5423 10.5834 14.5595C10.6387 14.5342 10.6851 14.4947 10.7184 14.4443C10.7198 14.4269 10.7212 14.4098 10.7229 14.393C10.6905 14.3956 10.6583 14.3985 10.6263 14.4018C10.6886 14.3469 10.7457 14.2798 10.7607 14.196C10.6991 14.2252 10.6578 14.2836 10.5947 14.3101C10.5935 14.2807 10.5925 14.2514 10.5918 14.2225C10.6005 14.2204 10.618 14.2162 10.6268 14.2143C10.6165 14.2119 10.5958 14.2069 10.5855 14.2044C10.5956 14.1817 10.6056 14.1589 10.6156 14.1364C10.597 14.1558 10.5746 14.1743 10.5743 14.2044L10.5347 14.2093C10.5412 14.1509 10.5799 14.1024 10.5851 14.0436C10.5732 14.0459 10.5494 14.0502 10.5375 14.0525C10.5431 13.9989 10.5655 13.9497 10.5933 13.9043C10.5947 13.8851 10.5961 13.8659 10.5979 13.847C10.5823 13.8562 10.5671 13.8655 10.552 13.875C10.5219 13.8766 10.4916 13.8783 10.4639 13.8906C10.4452 13.8927 10.4267 13.8948 10.4081 13.8969C10.4359 13.8761 10.4632 13.8548 10.4907 13.8336C10.4893 13.8206 10.4883 13.8076 10.4874 13.7948C10.4958 13.7931 10.5123 13.7896 10.5207 13.7877C10.5912 13.7123 10.6721 13.6397 10.7114 13.5424C10.6975 13.5476 10.6697 13.5576 10.6559 13.5628C10.6921 13.5204 10.7245 13.4748 10.7474 13.4238C10.7282 13.4247 10.7091 13.4257 10.6902 13.4273C10.6266 13.4477 10.558 13.4438 10.4941 13.4647C10.5166 13.4502 10.5396 13.4361 10.5629 13.4223C10.5627 13.4129 10.5625 13.3939 10.5625 13.3845C10.6474 13.3474 10.7224 13.2708 10.7408 13.1785C10.721 13.183 10.7012 13.1877 10.6816 13.1925C10.6823 13.1837 10.6835 13.1657 10.6842 13.1568C10.6643 13.1646 10.6445 13.1726 10.625 13.1807C10.5708 13.178 10.5167 13.1787 10.4625 13.1771C10.5107 13.1677 10.5597 13.1646 10.6089 13.1648C10.6467 13.1313 10.6832 13.0963 10.7166 13.0587C10.7189 13.0241 10.7261 12.9901 10.7371 12.9576C10.7254 12.9565 10.7021 12.9543 10.6905 12.9532C10.777 12.8413 10.7742 12.6883 10.7896 12.5536C10.8119 12.502 10.8366 12.4505 10.8434 12.3942C10.8539 12.3012 10.8978 12.2168 10.9146 12.1253C10.9033 12.1362 10.8803 12.1579 10.8689 12.1688C10.8726 12.1423 10.8765 12.1158 10.8805 12.0896C10.8733 12.0905 10.8588 12.092 10.8514 12.0929C10.8829 12.0711 10.8738 12.038 10.8656 12.0073C10.8637 12.0293 10.8623 12.0517 10.8614 12.074L10.8387 12.0721C10.8392 12.0615 10.8402 12.0407 10.8408 12.0302C10.8143 12.0061 10.7991 11.9739 10.7819 11.9437C10.7536 11.8921 10.7131 11.847 10.6944 11.7905C10.7143 11.7742 10.7334 11.7569 10.7502 11.7377C10.701 11.7491 10.6497 11.7767 10.6003 11.7502C10.6154 11.7486 10.6457 11.7453 10.6608 11.7436C10.7117 11.6978 10.7728 11.6609 10.8071 11.5996C10.7395 11.6346 10.6625 11.6568 10.5881 11.6303C10.5475 11.6271 10.5198 11.6015 10.4983 11.57C10.535 11.6178 10.5947 11.6129 10.6494 11.6119C10.6455 11.6015 10.638 11.5807 10.6341 11.5703L10.6772 11.5897C10.6644 11.6011 10.6523 11.6131 10.641 11.6256C10.7494 11.6393 10.8239 11.5542 10.8961 11.4899C10.964 11.428 10.994 11.3392 11.0407 11.2627C11.0328 11.2582 11.0169 11.2492 11.0088 11.2445C10.9596 11.2757 10.9159 11.314 10.8672 11.3459C10.8511 11.3469 10.835 11.3482 10.8192 11.3495C10.8204 11.3314 10.8218 11.3132 10.8234 11.2951C10.8316 11.2957 10.8479 11.2965 10.856 11.2969C10.8444 11.2518 10.8905 11.2376 10.9192 11.2168C10.9061 11.2005 10.8933 11.1844 10.8805 11.1685C10.8938 11.1789 10.9076 11.1887 10.922 11.1985C10.9637 11.181 10.9882 11.1397 11.0204 11.1106C10.9458 11.0659 10.8369 11.072 10.7784 11.1406C10.7525 11.1359 10.7266 11.1302 10.7012 11.1248C10.7138 11.1238 10.7388 11.122 10.7515 11.1212C10.8591 11.0084 11.0123 10.9588 11.1393 10.8732C11.0566 10.8918 10.9775 10.9219 10.8994 10.9536C10.9589 10.9025 11.0423 10.8947 11.1039 10.8465C11.1433 10.8434 11.1908 10.8538 11.2195 10.8197C11.3165 10.7247 11.3888 10.6069 11.4933 10.5192C11.6593 10.3835 11.8525 10.2841 12.0519 10.2066C12.1361 10.1084 12.2617 10.0645 12.3765 10.0117C12.4369 9.985 12.5036 9.97599 12.5693 9.97582C12.4965 9.99436 12.4161 9.99557 12.3524 10.0398C12.3366 10.0455 12.321 10.0514 12.3056 10.0573C12.2419 10.0784 12.1864 10.1165 12.1258 10.1442C12.1249 10.1564 12.123 10.1805 12.1221 10.1926C12.1741 10.1701 12.2308 10.1605 12.2835 10.1399C12.3664 10.0938 12.4425 10.032 12.5373 10.0108C12.649 9.98275 12.7691 9.96577 12.8825 9.99176C12.8999 9.98257 12.9172 9.97339 12.9347 9.96421C12.9253 9.97408 12.9064 9.99384 12.8967 10.0037C12.9494 10.0134 13.0016 10.0243 13.0543 10.0347C13.0417 10.0216 13.0163 9.99505 13.0037 9.98171C13.0471 10.0209 13.1053 10.0441 13.1415 10.0907C13.2075 10.1146 13.2755 10.1364 13.345 10.1127C13.3453 10.1195 13.346 10.1332 13.3464 10.1399C13.4358 10.1396 13.5313 10.1181 13.6155 10.1583C13.6731 10.1785 13.7237 10.2129 13.775 10.2449C13.7929 10.2733 13.8106 10.3014 13.8302 10.3291C13.8408 10.3104 13.833 10.2907 13.8258 10.2726C13.8333 10.2718 13.848 10.2699 13.8556 10.269C13.858 10.294 13.8605 10.3192 13.864 10.3444C13.9261 10.3815 14.0072 10.4059 14.0382 10.4771C14.0543 10.4797 14.0707 10.4823 14.0874 10.4851C14.1231 10.5062 14.1625 10.5256 14.2054 10.5119L14.1956 10.5313C14.2875 10.5578 14.371 10.6185 14.423 10.6986C14.4358 10.7183 14.446 10.745 14.4733 10.7488C14.558 10.7715 14.6482 10.7947 14.7121 10.8585C14.8168 10.9631 14.8827 11.0974 14.9636 11.2198C15.0068 11.2248 15.0534 11.2364 15.0772 11.2766C15.0919 11.3045 15.1187 11.3154 15.1497 11.3158C15.2602 11.4156 15.3398 11.5438 15.4216 11.6666C15.4645 11.7528 15.5361 11.8252 15.5564 11.9215C15.568 11.9084 15.5797 11.8952 15.5915 11.8822C15.6042 11.8957 15.6177 11.9091 15.6312 11.9226C15.6352 11.9312 15.6433 11.9489 15.6473 11.9577C15.6284 11.9477 15.6013 11.9151 15.585 11.9456C15.5762 12.0025 15.5916 12.0595 15.6137 12.1116C15.6268 12.1693 15.6613 12.2184 15.686 12.2714C15.6939 12.2929 15.717 12.2986 15.7352 12.3097C15.748 12.3883 15.7608 12.4684 15.7967 12.5408C15.8256 12.5997 15.8359 12.6652 15.8634 12.7248C15.8672 12.7695 15.8686 12.8144 15.8681 12.8595C15.8566 12.8253 15.8462 12.791 15.8324 12.7581C15.8329 12.7519 15.8338 12.7396 15.8341 12.7333L15.8119 12.7339C15.8121 12.7217 15.8126 12.6973 15.8128 12.6852C15.7806 12.6467 15.7546 12.6029 15.751 12.5519C15.7275 12.5956 15.7546 12.6366 15.7727 12.676C15.7762 12.7514 15.8301 12.8091 15.8567 12.8772C15.8653 12.8744 15.8825 12.8692 15.891 12.8664C15.9033 12.9361 15.9205 13.0222 15.9954 13.0509L15.9688 13.0662C16.0059 13.1497 16.0269 13.2485 15.9814 13.3334C15.9737 13.3571 15.953 13.4192 15.9954 13.419C15.9991 13.4065 16.0064 13.3816 16.0101 13.3691C16.0138 13.3689 16.0213 13.3686 16.025 13.3684C16.0225 13.3992 16.0201 13.4301 16.0175 13.4613C16.0274 13.4604 16.0471 13.4585 16.0569 13.4576C16.0542 13.5037 16.0595 13.5586 16.1136 13.5722C16.1129 13.5755 16.1118 13.582 16.1113 13.5852C16.1041 13.5834 16.0896 13.5798 16.0824 13.5779C16.0745 13.5692 16.0588 13.5519 16.0511 13.5431C16.025 13.5725 15.9831 13.5709 15.9819 13.5262C16.0029 13.5294 16.0241 13.5327 16.0457 13.5359C16.0334 13.51 16.0313 13.4746 16.0007 13.4633C15.977 13.4571 15.9529 13.462 15.9296 13.4646C15.9369 13.4036 15.9369 13.3419 15.9355 13.2807C15.9348 13.2642 15.9287 13.25 15.9168 13.2383C15.9149 13.2703 15.9147 13.3025 15.915 13.3349C15.9073 13.3556 15.9 13.3764 15.8932 13.3973C15.887 13.3959 15.8746 13.393 15.8685 13.3914C15.8714 13.3322 15.8692 13.2729 15.8641 13.214C15.8263 13.2081 15.7998 13.2417 15.7947 13.2752C15.7939 13.3181 15.8088 13.3597 15.8179 13.4017C15.8254 13.4075 15.8401 13.4197 15.8475 13.4257C15.8471 13.4585 15.8474 13.4914 15.8485 13.5245C15.8868 13.5292 15.9243 13.5389 15.9618 13.5488C15.9614 13.5531 15.9607 13.5616 15.9604 13.5659C15.9439 13.5652 15.9112 13.564 15.8949 13.5633C15.903 13.6382 15.9951 13.6482 16.0408 13.6962C16.0401 13.6775 16.0388 13.6403 16.0383 13.6215C16.0556 13.6666 16.0774 13.7236 16.1392 13.7118C16.1113 13.7132 16.083 13.7146 16.0555 13.7165C16.0581 13.7298 16.0632 13.7564 16.0658 13.7697C16.0602 13.686 15.959 13.6957 15.9056 13.6597C15.924 13.7051 15.9492 13.7475 15.9749 13.7893C16.0094 13.7905 16.0446 13.7934 16.0777 13.8047C16.0061 13.8109 15.9345 13.8049 15.8629 13.803C15.863 13.8198 15.8632 13.8532 15.8634 13.8698C15.8482 13.8556 15.8329 13.8406 15.8189 13.826C15.7942 13.8257 15.7695 13.8257 15.7454 13.8271C15.7575 13.8355 15.782 13.8525 15.7942 13.8608C15.8072 13.8976 15.8341 13.926 15.8604 13.9542C15.8271 13.9393 15.7986 13.9166 15.7737 13.8912C15.737 13.8919 15.7002 13.8934 15.6636 13.895C15.6429 13.9052 15.6223 13.9152 15.6018 13.9251C15.6534 13.9206 15.6916 13.9551 15.7328 13.9794C15.7681 13.9873 15.8049 13.9821 15.8411 13.9832C15.8021 13.9936 15.761 14.0066 15.7205 13.9986C15.6827 13.9866 15.6461 13.9714 15.6084 13.9601C15.5906 13.9433 15.5848 13.8981 15.5535 13.9095C15.5326 13.9232 15.5328 13.9477 15.5307 13.9697C15.5144 13.9684 15.4819 13.966 15.4656 13.9646L15.4593 14.0201C15.4346 13.9714 15.387 13.9485 15.3365 13.936C15.3372 13.9263 15.3386 13.9068 15.3393 13.8971C15.2705 13.8336 15.1994 13.773 15.132 13.7084C15.1177 13.8804 15.1292 14.057 15.077 14.2239C15.0105 14.45 14.9095 14.6645 14.8396 14.8898C14.7816 15.0635 14.7507 15.2476 14.6608 15.4096C14.7226 15.4264 14.7844 15.4434 14.847 15.4579C14.8622 15.4435 14.8781 15.43 14.8948 15.4174C14.9436 15.4399 14.983 15.4805 15.0361 15.495C15.0914 15.5103 15.1486 15.5177 15.2052 15.5288C15.2346 15.4922 15.2612 15.4383 15.3148 15.4363C15.4771 15.46 15.6421 15.4387 15.8044 15.4241C15.8634 15.4304 15.8812 15.494 15.9028 15.5387C16.0015 15.531 16.1059 15.5427 16.1997 15.5054C16.2899 15.4526 16.3787 15.3874 16.4864 15.3763C16.5888 15.3614 16.6821 15.4221 16.784 15.4191C16.869 15.4162 16.9511 15.4406 17.0283 15.4739C17.0927 15.461 17.1577 15.4446 17.2241 15.4491C17.286 15.455 17.3396 15.491 17.3997 15.5052C17.4632 15.4969 17.5261 15.4761 17.5911 15.4836C17.6578 15.4869 17.7177 15.5194 17.7824 15.5324C17.8992 15.5551 18.0162 15.5775 18.1326 15.6017C18.2112 15.6165 18.2652 15.6879 18.3462 15.6946C18.4795 15.7126 18.6007 15.784 18.694 15.8781C18.7414 15.9233 18.7751 15.9831 18.8328 16.0174C18.9493 16.0897 19.0524 16.1826 19.1361 16.2905C19.1559 16.32 19.193 16.3271 19.2247 16.339C19.5168 16.4328 19.8086 16.5314 20.0825 16.6707C20.2406 16.7539 20.4078 16.8181 20.5677 16.8984C20.6808 16.9569 20.7999 17.0037 20.9188 17.0498C21.0347 17.0602 21.1508 17.0347 21.2672 17.0439C21.3484 17.0576 21.4138 16.9966 21.4915 16.986C21.6536 16.9582 21.8301 16.9663 21.9756 17.0496C22.0709 17.1131 22.1887 17.1238 22.2994 17.142C22.4668 17.1143 22.6371 17.1335 22.7984 17.1839C23.2367 13.8981 23.6709 10.6119 24.1087 7.3259C24.2865 5.96984 24.4713 4.61465 24.6465 3.25824C24.6031 3.25097 24.5802 3.20453 24.6026 3.16693C24.6254 3.15549 24.65 3.1496 24.6749 3.14198C24.6677 3.12344 24.6609 3.10489 24.6544 3.08653C24.6296 3.0815 24.6035 3.08081 24.5816 3.06833C24.5678 3.04546 24.5692 3.01808 24.5657 2.99278C24.5909 2.98551 24.6168 2.9784 24.643 2.97182C24.6432 2.96957 24.6434 2.96506 24.6434 2.96281C24.617 2.9635 24.5895 2.96905 24.5641 2.96177C24.5525 2.94167 24.5476 2.92036 24.5494 2.89748C24.5762 2.86681 24.6212 2.86525 24.6579 2.85226C24.6767 2.62561 24.6777 2.39793 24.6959 2.17111C24.7001 2.12519 24.7278 2.0862 24.7462 2.04479C24.8162 1.9053 24.8817 1.76356 24.9521 1.62425C25.0071 1.53571 25.0782 1.45845 25.1422 1.37648ZM24.7138 3.27661C24.098 7.91816 23.4793 12.5592 22.8642 17.2007C22.978 17.2361 23.0885 17.2869 23.1801 17.3636C23.2277 17.4035 23.286 17.4393 23.3513 17.4345C23.4561 17.4291 23.5611 17.4452 23.6604 17.4783C23.7793 17.5166 23.8661 17.6107 23.9645 17.6824C24.0256 17.7254 24.0731 17.7913 24.148 17.8119C24.2074 17.832 24.2715 17.842 24.3263 17.8741C24.3769 17.9126 24.4271 17.9548 24.4574 18.012C24.4429 18.0124 24.4137 18.0131 24.3989 18.0134C24.4047 18.0198 24.4163 18.0326 24.4221 18.039C24.4833 18.0496 24.543 18.0678 24.6001 18.0926C24.6479 18.1158 24.7024 18.1002 24.7533 18.099C24.771 18.0853 24.7878 18.051 24.8146 18.0697C24.8596 18.0943 24.9087 18.1094 24.9605 18.1139C24.9787 18.0825 24.9862 18.0283 25.0337 18.0318C25.1028 18.0354 25.1755 18.0467 25.2363 18.082C25.2678 18.1139 25.2625 18.1657 25.2727 18.2075C25.3324 18.2286 25.3952 18.2421 25.4525 18.2702C25.5071 18.2922 25.4954 18.3792 25.5576 18.3908C25.7214 18.4263 25.8641 18.3161 26.0139 18.2699C26.231 18.1929 26.4604 18.152 26.6903 18.1368C26.7482 17.8514 26.7775 17.5603 26.8534 17.2785C26.8729 17.2456 26.8261 17.2402 26.8098 17.2262C26.8081 17.19 26.8249 17.1635 26.8597 17.1519C26.7943 17.1345 26.8382 17.0583 26.89 17.0616C26.8718 17.0567 26.8541 17.0517 26.8368 17.047C26.8426 17.0193 26.8449 16.9843 26.879 16.9765C26.8452 16.9566 26.8571 16.9216 26.8647 16.8906C26.8899 16.8921 26.9156 16.8937 26.9415 16.8958C26.9575 16.828 26.9734 16.7603 26.9902 16.6929C27.0308 16.5265 27.0413 16.3555 27.0695 16.1872C27.0867 16.0611 27.0881 15.9336 27.1003 15.8071C27.1245 15.568 27.1 15.3274 27.0686 15.0902C27.0587 14.8731 27.0404 14.6565 27.0359 14.4392C27.0315 14.2027 27.0117 13.9665 27.017 13.7298C27.0112 13.5044 27.0137 13.279 27.0112 13.0535C27.0119 12.9518 27.0334 12.8519 27.0417 12.7508C27.0802 12.5171 27.1093 12.2819 27.1506 12.0485C27.1558 12.013 27.1744 11.9817 27.191 11.9506C27.2427 11.8559 27.2873 11.7576 27.3413 11.6642C27.3076 11.6339 27.2714 11.6062 27.2411 11.5729C27.2297 11.5299 27.2807 11.5086 27.316 11.5084C27.3092 11.4729 27.2954 11.4395 27.2838 11.4057C27.3001 11.374 27.326 11.3487 27.349 11.3215C27.1912 11.0692 27.0429 10.8112 26.882 10.5606C26.8165 10.5838 26.7349 10.598 26.6755 10.5528C26.7391 10.5469 26.8267 10.5677 26.869 10.5043C26.8373 10.509 26.7743 10.5183 26.7426 10.523C26.7661 10.5123 26.8126 10.491 26.8361 10.4802C26.8028 10.4206 26.7699 10.3608 26.7314 10.3045C26.6531 10.2905 26.5799 10.2569 26.5113 10.2189C26.4614 10.1571 26.4238 10.0865 26.3788 10.0214C26.2979 9.88588 26.1813 9.77724 26.0828 9.6549C26.1932 9.67743 26.3003 9.72283 26.4154 9.71278C26.3931 9.67119 26.3749 9.62233 26.3271 9.60431C26.1912 9.53656 26.0795 9.43311 25.9764 9.32429C25.9913 9.31476 26.0069 9.30523 26.0223 9.29518C25.9512 9.25429 25.9186 9.17753 25.8808 9.10961C25.782 8.93078 25.6824 8.75231 25.5872 8.57158C25.5085 8.41823 25.4124 8.27476 25.3256 8.12609C25.3804 8.13631 25.435 8.14723 25.4901 8.15745C25.4303 8.10235 25.3544 8.0651 25.2998 8.00532C25.2525 7.90066 25.2179 7.79097 25.1748 7.68458C25.2328 7.7305 25.29 7.77763 25.3478 7.8239C25.4618 7.83672 25.5745 7.81367 25.6849 7.78751C25.5992 7.76706 25.4952 7.79288 25.429 7.72305C25.3418 7.64161 25.2272 7.58651 25.1634 7.48323C25.1328 7.4439 25.0846 7.41722 25.0704 7.36714C25.0358 7.27444 25.0001 7.18208 24.9659 7.08938C25.0493 7.16753 25.1412 7.25052 25.2576 7.27097C25.4698 7.26231 25.6815 7.24186 25.8937 7.23268C25.6898 7.20305 25.4821 7.24931 25.2793 7.20807C25.1555 7.16995 25.0582 7.08401 24.9584 7.00672C24.9445 6.88023 24.8976 6.75443 24.922 6.62656C24.9333 6.54616 24.9361 6.46368 24.9642 6.3864C24.9911 6.30669 25.0032 6.22248 25.0356 6.1445C25.0769 6.06792 25.127 5.99635 25.169 5.91994C25.2058 5.92669 25.242 5.93432 25.2795 5.9416C25.2538 5.92306 25.2293 5.90521 25.204 5.88719C25.2454 5.81181 25.3396 5.84595 25.398 5.8813C25.4588 5.92947 25.5262 5.97643 25.5597 6.04885C25.5919 6.11799 25.6593 6.16045 25.7017 6.22248C25.7719 6.32506 25.8659 6.41949 25.8834 6.54772C25.9571 6.60698 25.9729 6.70505 26.0188 6.7832C26.0083 6.65238 26.0151 6.5193 25.982 6.39125C25.9496 6.25488 25.9263 6.11626 25.8927 5.98024C25.7903 5.76641 25.6672 5.56264 25.5653 5.34847C25.4012 5.01041 25.2347 4.67339 25.0701 4.3355C24.947 3.98427 24.8437 3.62576 24.7138 3.27661ZM26.5365 6.17639C26.6608 6.19319 26.7832 6.22074 26.9072 6.23894C26.7762 6.18903 26.6386 6.16374 26.5022 6.13393C26.5127 6.14797 26.511 6.17899 26.5365 6.17639ZM26.623 6.69275C26.7328 6.72359 26.844 6.75166 26.9578 6.76552C26.9729 6.7683 26.9883 6.76431 27.0035 6.76102C26.8801 6.72584 26.7515 6.69396 26.623 6.69275ZM26.0382 9.36363C26.1144 9.39846 26.1939 9.42982 26.2783 9.43918C26.2128 9.3943 26.1284 9.3891 26.0652 9.34041C26.0557 9.34803 26.0466 9.35566 26.0382 9.36363ZM27.298 9.99903C27.3178 10.0372 27.3388 10.0751 27.3602 10.1127C27.3822 10.1124 27.4039 10.1117 27.4269 10.1115C27.4152 10.0491 27.3435 10.0314 27.298 9.99903ZM27.3843 10.147C27.3877 10.1704 27.4001 10.1744 27.4216 10.159C27.4176 10.1354 27.4052 10.1316 27.3843 10.147ZM27.418 10.2151C27.4761 10.22 27.3889 10.265 27.418 10.2151ZM11.0311 11.0127C10.9934 11.0288 10.9561 11.0461 10.918 11.0609C10.9463 11.0905 10.9931 11.0929 11.0319 11.0882C11.0561 11.0555 11.081 11.0231 11.1113 10.9955C11.0903 10.9995 11.0692 11.0035 11.0486 11.0075C11.0481 10.9978 11.047 10.9782 11.0467 10.9685C11.0412 10.9831 11.036 10.9978 11.0311 11.0127ZM10.8157 11.6637C10.8667 11.6072 10.9155 11.5478 10.9503 11.48C10.892 11.5289 10.8353 11.589 10.8157 11.6637ZM27.5466 12.3944C27.5346 12.5966 27.5216 12.7988 27.5011 13.0005C27.4761 13.271 27.4992 13.5422 27.5125 13.8127C27.5274 14.0438 27.5353 14.2753 27.5479 14.5065C27.5522 14.5791 27.5724 14.6492 27.589 14.7198C27.6281 14.7236 27.6671 14.7274 27.7067 14.7309C27.7669 14.6751 27.8475 14.6362 27.8851 14.56C27.9357 14.4673 28.0042 14.3841 28.0416 14.2847C28.0707 14.2086 28.0989 14.1322 28.1283 14.0561C28.1618 13.9736 28.1567 13.8832 28.1728 13.7969C28.1863 13.7214 28.1738 13.6451 28.16 13.5706C28.142 13.4791 28.1369 13.3857 28.1136 13.2953C28.0583 13.0639 28.0145 12.8293 27.9406 12.6027C27.9049 12.4958 27.873 12.3878 27.8401 12.2802C27.8067 12.1607 27.7447 12.0522 27.6932 11.9401C27.6368 12.0884 27.5421 12.2305 27.5466 12.3944ZM15.6877 12.4429C15.6955 12.4751 15.7056 12.507 15.7152 12.5391C15.7247 12.5413 15.7434 12.546 15.7527 12.5483C15.7398 12.5082 15.7236 12.4675 15.6877 12.4429ZM15.6858 12.7356C15.6834 12.7747 15.7053 12.8066 15.7329 12.8324C15.7226 12.7976 15.7075 12.7645 15.6858 12.7356ZM15.8238 12.8846C15.8271 12.9206 15.8432 12.953 15.8639 12.9827C15.8739 13.0165 15.8916 13.0471 15.9112 13.0768C15.9145 13.0991 15.9226 13.1201 15.9467 13.1284C15.9388 13.0982 15.924 13.071 15.9063 13.0457C15.887 12.9882 15.8607 12.9329 15.8238 12.8846ZM15.9527 13.1478C15.9499 13.1949 15.953 13.2424 15.9627 13.2889C15.9952 13.2441 15.9779 13.191 15.9527 13.1478ZM15.6352 13.7621C15.6107 13.7983 15.6417 13.8298 15.6594 13.8608C15.6907 13.8617 15.7221 13.8629 15.7538 13.8643C15.7455 13.8416 15.7373 13.8191 15.7287 13.7969C15.7221 13.7418 15.7228 13.686 15.7264 13.6309C15.7079 13.6231 15.6892 13.6155 15.6708 13.6084C15.6727 13.6306 15.6751 13.6531 15.6776 13.6756C15.6734 13.6747 15.6652 13.673 15.661 13.6721C15.6522 13.643 15.638 13.6165 15.6198 13.5928C15.62 13.5651 15.6203 13.5375 15.6205 13.5101C15.6009 13.5926 15.5974 13.6837 15.6352 13.7621ZM15.7921 13.5231C15.8007 13.5921 15.7834 13.6614 15.7946 13.7307C15.8133 13.743 15.8322 13.7558 15.8509 13.7688C15.8884 13.7816 15.9264 13.7901 15.966 13.7952C15.9348 13.7385 15.9038 13.682 15.8797 13.6222C15.8485 13.6094 15.8457 13.5801 15.8483 13.5508C15.8224 13.5553 15.8047 13.5432 15.7921 13.5231ZM15.8744 13.5988C15.894 13.5845 15.8933 13.5706 15.8725 13.5573C15.8527 13.5711 15.8534 13.585 15.8744 13.5988ZM15.7518 13.6332C15.7391 13.655 15.7454 13.6661 15.7709 13.6666C15.7832 13.6442 15.7769 13.6332 15.7518 13.6332ZM15.7686 13.7687C15.7956 13.7667 15.7774 13.7236 15.7595 13.7193C15.7317 13.7208 15.7506 13.7633 15.7686 13.7687ZM11.2275 15.0603C11.2569 15.0519 11.286 15.0421 11.3153 15.0324C11.3103 14.9764 11.3226 14.9147 11.2907 14.8648C11.2836 14.9121 11.2822 14.9601 11.2759 15.0078C11.2764 14.9374 11.2604 14.8605 11.2991 14.7967L11.2794 14.7936C11.2813 14.7539 11.2853 14.7125 11.2627 14.6778C11.2606 14.6654 11.2564 14.6406 11.2543 14.6283C11.2366 14.7716 11.2246 14.9157 11.2275 15.0603ZM11.0838 14.9383C11.0782 15.0069 11.0463 15.0708 11.0474 15.1405C11.0715 15.1183 11.0964 15.097 11.1211 15.0753C11.1475 14.9916 11.1267 14.9045 11.1153 14.8203C11.0929 14.856 11.0871 14.8972 11.0838 14.9383ZM10.9349 15.1632C10.9153 15.1713 10.8947 15.1758 10.8733 15.1765C10.8717 15.1855 10.8686 15.2037 10.8668 15.2127C10.8969 15.2126 10.9272 15.2126 10.9577 15.2126C10.982 15.1866 11.0062 15.1606 11.0309 15.1351C10.9976 15.141 10.9661 15.1509 10.9349 15.1632ZM28.7124 18.8522C28.7525 18.9335 28.7797 19.0234 28.8483 19.0875C28.834 18.9941 28.8231 18.9002 28.8257 18.8058C28.7883 18.8223 28.7503 18.8375 28.7124 18.8522ZM28.846 19.4973C28.8045 19.5921 28.7403 19.6878 28.7721 19.7959C28.793 19.6954 28.8114 19.5944 28.846 19.4973ZM22.1563 19.5398C22.2302 19.5869 22.3162 19.6467 22.4086 19.6216C22.3207 19.6039 22.2468 19.5445 22.1563 19.5398ZM22.5315 19.708C22.3792 20.8232 22.2353 21.9397 22.0852 23.055C21.6625 26.2378 21.2397 29.4203 20.8165 32.6029C20.841 32.5747 20.8652 32.5461 20.886 32.5152C21.008 32.3151 21.1527 32.13 21.278 31.932C21.4083 31.7215 21.586 31.5466 21.7527 31.3647C21.9609 31.1316 22.1687 30.8984 22.3845 30.6723C22.4857 30.5695 22.5949 30.4687 22.6569 30.3365C22.7247 30.1952 22.8145 30.0632 22.859 29.9119C22.9661 29.5889 23.0805 29.2684 23.1791 28.9426C23.2724 28.6588 23.3456 28.3689 23.4477 28.088C23.5009 27.947 23.5233 27.7907 23.6198 27.6696C23.7183 27.5346 23.801 27.3883 23.9075 27.2592C23.8791 27.2797 23.8514 27.3008 23.8243 27.3225C23.7436 27.3185 23.6506 27.265 23.6459 27.1782C23.6933 27.0125 23.8337 26.9 23.939 26.7703C23.9241 26.755 23.9094 26.7399 23.8952 26.7252C23.9111 26.7082 23.9274 26.6916 23.9442 26.6755C23.9581 26.6815 23.9855 26.6938 23.9994 26.6999C24.0104 26.6869 24.0218 26.6744 24.0337 26.6621C24.0171 26.6419 23.9694 26.6261 23.9901 26.5947C24.0129 26.5521 24.0605 26.5795 24.0917 26.5966C24.1058 26.5816 24.1204 26.5667 24.1353 26.5521C24.1149 26.533 24.095 26.5143 24.0755 26.4956C24.0897 26.4795 24.1043 26.4639 24.1195 26.4487C24.1438 26.4599 24.169 26.4719 24.1941 26.484C24.2774 26.4112 24.3436 26.3229 24.4119 26.2367C24.4056 26.2007 24.3988 26.1648 24.3923 26.1297C24.4443 26.0759 24.4945 26.0186 24.5588 25.9787C24.6381 25.9455 24.7292 25.9489 24.808 25.9155C24.8805 25.8545 24.9696 25.8096 25.0232 25.7292C25.0934 25.6311 25.1718 25.539 25.2378 25.4379C25.3133 25.3224 25.4115 25.2194 25.4621 25.0895C25.546 24.8956 25.633 24.7031 25.7178 24.5095C25.7442 24.4459 25.7819 24.3861 25.7952 24.3179C25.8696 23.9696 25.9386 23.6201 26.0019 23.2696C26.0286 23.0516 26.0643 22.8346 26.0914 22.6167C26.1166 22.4115 26.1939 22.215 26.1993 22.0071C26.1096 21.9223 25.9963 21.873 25.8831 21.8279C25.8682 21.7898 25.8526 21.752 25.8351 21.7153C25.8463 21.6184 25.8591 21.5195 25.8979 21.4292C25.9373 21.3881 25.9827 21.3417 26.0445 21.3426C26.1552 21.3341 26.2641 21.3098 26.3661 21.266C26.4005 21.1701 26.3996 21.0681 26.3908 20.9683C26.3588 20.9572 26.3229 20.9541 26.2963 20.9335C26.2884 20.9066 26.3001 20.8811 26.3073 20.8562C26.3029 20.8265 26.3098 20.7985 26.3204 20.7716C26.3201 20.7224 26.3334 20.6744 26.3296 20.6254C26.3278 20.5883 26.3751 20.594 26.3991 20.5822C26.405 20.4992 26.4097 20.416 26.4112 20.333C26.2907 20.2994 26.172 20.2603 26.0545 20.218C25.8986 20.162 25.7521 20.0834 25.5929 20.0367C25.4513 19.992 25.3026 19.9768 25.1557 19.9586C25.0176 20.034 24.8547 20.0482 24.6999 20.0411C24.5546 20.034 24.4152 19.9712 24.3128 19.8692C24.1738 19.8997 24.0318 19.874 23.8926 19.8612C23.7311 19.8572 23.5562 19.8456 23.4193 19.7524C23.3079 19.7534 23.195 19.7678 23.0852 19.7446C23.0192 19.7311 22.9605 19.6973 22.9061 19.66C22.7814 19.6779 22.6576 19.7047 22.5315 19.708ZM9.41704 20.9083C9.41003 20.9315 9.43507 20.9724 9.46116 20.9672C9.46921 20.9432 9.4447 20.8997 9.41704 20.9083ZM9.78053 21.5756C9.79437 21.6326 9.79594 21.7068 9.85127 21.7414C9.83989 21.682 9.81941 21.6229 9.78053 21.5756ZM9.91571 22.102C9.92446 22.1372 9.9397 22.1706 9.95948 22.2017C9.96386 22.1774 9.96859 22.1535 9.97332 22.1299C9.95406 22.1204 9.93479 22.1109 9.91571 22.102ZM10.001 22.1972C9.98347 22.2587 10.0061 22.3193 10.0257 22.3774C10.0325 22.38 10.0462 22.3852 10.053 22.3878C10.0528 22.3205 10.0309 22.2564 10.001 22.1972ZM26.4887 22.9634C26.4178 23.446 26.3346 23.927 26.232 24.404C26.2122 24.4908 26.2044 24.5809 26.1714 24.6644C26.0974 24.8247 26.0244 24.9857 25.9585 25.1494C26.038 25.0586 26.0998 24.9543 26.1732 24.8587C26.3005 24.6925 26.4073 24.512 26.5132 24.3319C26.6066 24.1961 26.6757 24.0465 26.7479 23.8991C26.7764 23.828 26.781 23.7504 26.7978 23.6762C26.8237 23.5721 26.8023 23.4654 26.7948 23.3604C26.786 23.2256 26.7456 23.0958 26.7202 22.9637C26.6943 22.8903 26.6687 22.8026 26.5924 22.766C26.5519 22.8281 26.4962 22.8864 26.4887 22.9634ZM10.1894 22.9435C10.1812 22.9923 10.1769 23.0417 10.1766 23.0916C10.2298 23.0576 10.2207 22.9885 10.1894 22.9435ZM10.3056 23.5877C10.2831 23.6324 10.2641 23.6792 10.2536 23.7284C10.2922 23.695 10.3272 23.6388 10.3056 23.5877ZM10.3188 24.0994C10.2925 24.1515 10.2705 24.208 10.2764 24.2678C10.2939 24.2536 10.3114 24.2392 10.3291 24.225C10.3288 24.1827 10.3323 24.1398 10.3188 24.0994ZM10.2895 24.6222C10.3127 24.6204 10.3193 24.5811 10.306 24.566C10.2827 24.5674 10.2754 24.6064 10.2895 24.6222ZM10.2125 24.9458C10.1948 24.9644 10.182 24.9898 10.182 25.0164C10.1904 25.0456 10.216 25.0056 10.217 24.993C10.2202 24.9822 10.2393 24.9321 10.2125 24.9458Z" fill="white"/>
</svg>
