<svg width="50" height="50" viewBox="0 0 50 50" fill="none" xmlns="http://www.w3.org/2000/svg">
<!--<rect width="50" height="50" rx="2" fill="black"/>-->
<path d="M27.7725 10.0706C27.7894 10.0707 27.79 10.0803 27.7702 10.1C27.703 10.1635 27.1428 10.5146 27.1129 10.5146C27.0307 10.5146 27.0979 10.4474 27.3108 10.3092C27.4378 10.227 27.5835 10.1411 27.6358 10.115C27.7021 10.0859 27.75 10.0707 27.7719 10.0706H27.7725ZM28.34 18.5504C28.3429 18.5504 28.3459 18.551 28.3492 18.5524C28.379 18.5598 28.4015 18.6793 28.4089 18.9184C28.4175 19.1364 28.4173 19.22 28.3999 19.22C28.3946 19.22 28.3877 19.2124 28.379 19.1985C28.3566 19.1574 28.3268 18.9931 28.3193 18.8287C28.3057 18.6242 28.3107 18.5504 28.34 18.5504ZM28.8609 22.6385L28.943 22.7169C29.0588 22.8252 29.1111 23.1427 29.1148 23.7253C29.1148 24.049 29.0998 24.2276 29.0763 24.2276C29.0668 24.2276 29.0558 24.1979 29.0439 24.1362C29.0103 23.9831 28.9692 23.5311 28.9692 23.3257C28.9654 23.2136 28.9505 23.1091 28.9356 23.0979C28.9206 23.0867 28.8945 22.9783 28.8833 22.8588L28.8609 22.6385ZM19.5126 35.6578C19.5149 35.6578 19.5172 35.6593 19.5196 35.6624C19.5308 35.6736 19.5345 35.7072 19.5233 35.7334C19.519 35.7449 19.5147 35.7503 19.5111 35.7503C19.5052 35.7503 19.5009 35.7363 19.5009 35.711C19.498 35.6786 19.5043 35.6578 19.5126 35.6578ZM25.189 3C25.1229 3 25.0716 3.00921 25.0512 3.02964C25.0399 3.04084 24.8719 3.0894 24.6739 3.13795C23.9531 3.31724 23.4675 3.68326 22.9707 4.40786C22.6607 4.86353 22.4815 5.31547 22.2984 6.06994C22.2387 6.33139 22.149 6.64886 22.1154 6.72356C22.0743 6.81694 22.0445 6.95513 21.8428 7.97479C21.7419 8.49022 21.7345 8.91228 21.8241 9.08409C21.8615 9.15132 21.9922 9.32687 22.1154 9.47627C22.2424 9.62567 22.3844 9.80868 22.4329 9.88712C22.4815 9.96182 22.5375 10.0328 22.5599 10.0477C22.6624 10.1099 22.5349 10.2366 22.4139 10.2366C22.3894 10.2366 22.3652 10.2315 22.3433 10.2195C22.3097 10.2009 22.1789 10.0477 22.0557 9.87965C21.9324 9.71157 21.6336 9.33807 21.3908 9.04674C21.1518 8.75541 20.9613 8.49769 20.9688 8.47155C20.98 8.44914 20.965 8.41926 20.9389 8.41179C20.8754 8.38565 20.7895 8.0719 20.8194 7.98973C20.8495 7.91331 20.7618 7.8613 20.6767 7.8613C20.6244 7.8613 20.5732 7.88083 20.5505 7.92624C20.4795 8.06817 20.289 9.3194 20.2815 9.68543C20.2815 9.70741 20.255 9.71728 20.2097 9.71728C20.016 9.71728 19.4791 9.53759 19.1947 9.35301C18.9818 9.21482 18.7763 8.97951 18.7278 8.81891C18.6883 8.68721 18.6049 8.61227 18.5368 8.61227C18.489 8.61227 18.4488 8.64917 18.4364 8.72926C18.4252 8.79649 18.3991 8.9571 18.3767 9.08409C18.3468 9.24843 18.3468 9.39036 18.3767 9.56964C18.4215 9.83483 18.541 10.2606 18.6045 10.3764C18.6446 10.4479 18.6057 10.4778 18.4225 10.4778C18.3666 10.4778 18.2971 10.475 18.2123 10.4698C17.865 10.4474 17.7753 10.41 17.6035 10.2307C17.5031 10.1279 17.4188 10.0796 17.3316 10.0796C17.2858 10.0796 17.2391 10.093 17.189 10.1187C16.9947 10.2195 16.9574 10.3092 16.9574 10.6789C16.9574 10.9665 16.9686 11.0338 17.0508 11.172C17.1404 11.3213 17.3757 11.5268 17.7231 11.7546C17.8052 11.8069 17.9994 11.9302 18.1526 12.031C18.739 12.4045 19.0639 12.7145 19.0303 12.8676C19.0191 12.9199 18.9967 13.0955 18.9743 13.2598C18.9519 13.4242 18.9183 13.6259 18.8959 13.708C18.8734 13.7902 18.8473 13.8948 18.8361 13.9433C18.8249 13.9919 18.7166 14.3168 18.5933 14.6717C18.4701 15.0265 18.3543 15.3888 18.3356 15.4784C18.3169 15.5718 18.2796 15.6801 18.2497 15.7212C18.2236 15.766 18.1937 15.8482 18.1825 15.9117C18.1713 15.9715 18.119 16.1507 18.0667 16.3039C18.0144 16.457 17.9509 16.6811 17.9248 16.8044C17.8872 16.9735 17.8496 17.0443 17.7828 17.0443C17.7567 17.0443 17.7262 17.0335 17.6894 17.0135C17.6496 16.9936 17.5832 16.9836 17.4836 16.9836C17.4338 16.9836 17.3757 16.9861 17.3085 16.9911C17.1479 17.0061 16.8117 17.0285 16.5652 17.0434C16.0797 17.0733 15.9303 17.1181 15.6837 17.3161C15.6012 17.3812 15.5629 17.4097 15.5321 17.4097C15.5098 17.4097 15.4915 17.3949 15.4634 17.3684C15.4223 17.331 15.3887 17.2787 15.3887 17.2488C15.3887 17.2227 15.3625 17.1592 15.3327 17.1144C15.2617 17.0061 15.2094 16.528 15.243 16.3001C15.258 16.203 15.299 16.0648 15.3327 15.9939C15.4186 15.8146 15.426 15.5232 15.3476 15.471C15.3189 15.4528 15.2895 15.4439 15.2602 15.4439C15.1751 15.4439 15.0912 15.5188 15.0301 15.6577C14.877 16.0013 14.7911 16.2441 14.7687 16.386C14.75 16.4831 14.7238 16.528 14.6828 16.528C14.4848 16.528 14.3989 16.2777 14.4624 15.8743C14.4848 15.7324 14.511 15.4971 14.5184 15.3552C14.5371 15.0638 14.496 14.9966 14.2981 14.9966C14.1673 14.9966 14.1076 15.1087 14.0441 15.4635C13.9843 15.8071 13.9208 16.0424 13.8909 16.0424C13.876 16.0424 13.8386 15.9528 13.8013 15.8445C13.7677 15.7399 13.6892 15.5531 13.6295 15.4336C13.5697 15.3141 13.5212 15.1946 13.5212 15.1647C13.5212 15.0713 13.3792 14.9593 13.2597 14.9593C13.0804 14.9593 13.0543 15.0526 13.0543 15.7063V16.2852L12.9236 16.2964C12.9063 16.2982 12.8909 16.2992 12.8767 16.2992C12.8017 16.2992 12.7613 16.2705 12.6733 16.1731C12.6061 16.0947 12.5202 15.9752 12.4866 15.9042C12.4177 15.7561 12.3074 15.6746 12.1852 15.6746C12.1749 15.6746 12.1646 15.6752 12.1542 15.6764C12.0048 15.6951 11.9674 15.781 12.0272 15.9752C12.1504 16.3561 12.3558 16.7147 12.4903 16.7819C12.5426 16.8081 12.5874 16.8454 12.5874 16.8641C12.5874 16.8741 12.6024 16.8807 12.6245 16.8807C12.6356 16.8807 12.6484 16.8791 12.6621 16.8753C12.6813 16.8703 12.7006 16.8678 12.7201 16.8678C12.8445 16.8678 12.9741 16.9711 13.1066 17.1779C13.185 17.3011 13.2971 17.4543 13.3531 17.5178C13.4054 17.5775 13.5286 17.7194 13.6258 17.8315C13.7229 17.9435 13.8424 18.0743 13.8872 18.1228C13.988 18.2237 13.9768 18.3432 13.8536 18.5001C13.8162 18.5523 13.7826 18.6383 13.7826 18.6943C13.7826 18.7877 13.7976 18.7989 13.9246 18.8175C14.13 18.8437 14.6604 18.9931 14.6716 19.0304C14.6766 19.0431 14.6903 19.0506 14.708 19.0506C14.7163 19.0506 14.7255 19.049 14.7351 19.0454C14.7445 19.0417 14.7553 19.04 14.7669 19.04C14.8383 19.04 14.9405 19.1033 14.9405 19.1612C14.9405 19.1867 14.9562 19.1982 14.9959 19.1982C15.0143 19.1982 15.0379 19.1958 15.0675 19.191C15.0879 19.1878 15.1083 19.1863 15.1283 19.1863C15.2473 19.1863 15.3513 19.2402 15.3513 19.3106C15.3513 19.3554 15.4186 19.3666 15.7062 19.3666C15.9825 19.3666 16.0647 19.3778 16.0871 19.4226C16.1095 19.4637 16.2104 19.4861 16.4307 19.5048C16.752 19.5272 16.8453 19.5832 16.7146 19.6803C16.6773 19.7065 16.6436 19.7961 16.6324 19.9007C16.6138 20.0576 16.6212 20.0762 16.6847 20.0762C16.7706 20.0762 16.92 19.9268 16.92 19.8409C16.92 19.7998 16.9499 19.7774 17.0022 19.7774C17.047 19.7774 17.1292 19.7326 17.1852 19.6803C17.239 19.629 17.2704 19.6064 17.3035 19.6064C17.3209 19.6064 17.3388 19.6127 17.3608 19.6243C17.41 19.651 17.6455 19.6653 17.8569 19.6653C18.0301 19.6653 18.1871 19.6557 18.2123 19.6355C18.231 19.6168 18.3169 19.5795 18.4066 19.5533C18.5149 19.5197 18.5634 19.4824 18.5634 19.4338C18.5634 19.374 18.5298 19.3666 18.3132 19.3628L18.0592 19.3554L18.302 19.3218C18.4364 19.3031 18.6083 19.262 18.6867 19.2321C18.7614 19.2022 18.8697 19.1798 18.9183 19.1798C18.9706 19.1798 19.0116 19.1649 19.0116 19.1462C19.0116 19.1275 19.0453 19.0977 19.0863 19.0865C19.1274 19.0752 19.161 19.0379 19.161 19.0118C19.161 18.9819 19.1947 18.9408 19.2357 18.9184C19.2768 18.896 19.303 18.8624 19.2918 18.8474C19.2806 18.8287 19.2992 18.8026 19.3328 18.7914C19.3627 18.7802 19.3777 18.754 19.3665 18.7316C19.3553 18.7092 19.3702 18.6681 19.4001 18.6345C19.4337 18.6009 19.4524 18.5598 19.4374 18.5411C19.4262 18.5225 19.4412 18.4963 19.4748 18.4851C19.5047 18.4739 19.5196 18.4403 19.5084 18.4104C19.4972 18.3805 19.5084 18.3581 19.5308 18.3581C19.5532 18.3581 19.5719 18.3357 19.5719 18.3058C19.5719 18.276 19.598 18.2461 19.6279 18.2311C19.6578 18.2199 19.6727 18.1863 19.6615 18.1602C19.6503 18.1303 19.7101 18.0369 19.8035 17.9435C19.8931 17.8539 19.9641 17.768 19.9641 17.7531C19.9641 17.7344 19.9865 17.7082 20.0126 17.6896C20.0425 17.6709 20.0574 17.6485 20.05 17.6373C20.0462 17.6261 20.0761 17.5738 20.1247 17.5215C20.1695 17.4655 20.2068 17.4057 20.2068 17.387C20.2068 17.3646 20.233 17.3497 20.2666 17.3497C20.3077 17.3497 20.3189 17.3273 20.3002 17.275C20.2853 17.2339 20.2927 17.2003 20.3152 17.2003C20.3376 17.2003 20.345 17.1779 20.3338 17.148C20.3226 17.1181 20.3488 17.0584 20.3899 17.0173C20.4347 16.9724 20.4571 16.9388 20.4421 16.9388C20.4235 16.9388 20.4347 16.9239 20.4646 16.9052C20.4944 16.8865 20.5243 16.8417 20.5281 16.8081C20.5318 16.7745 20.5579 16.7222 20.5841 16.6923C20.5992 16.6731 20.6108 16.6624 20.6212 16.6624C20.6392 16.6624 20.6538 16.6938 20.6775 16.767C20.7223 16.8865 20.7111 16.9388 20.5766 17.3571C20.4982 17.6111 20.4309 17.8464 20.4309 17.88C20.4309 17.9137 20.416 17.951 20.3973 17.9622C20.3787 17.9734 20.3562 18.0295 20.345 18.0855C20.3077 18.2872 20.2031 18.6756 20.1658 18.7391C20.1471 18.7764 20.1321 18.8511 20.1321 18.9072C20.1321 18.9595 20.1172 19.0566 20.0985 19.1201C20.0201 19.3778 19.9118 19.8484 19.7586 20.5805C19.7176 20.7859 19.6653 21.0287 19.6466 21.122C19.6279 21.2154 19.598 21.3611 19.5868 21.4507C19.5719 21.5366 19.5457 21.6188 19.5308 21.63C19.5121 21.6412 19.4972 21.6935 19.4972 21.7495C19.4972 21.8018 19.4636 21.9923 19.4225 22.1678C19.3851 22.3434 19.3142 22.6534 19.2731 22.8588C19.2283 23.0642 19.1797 23.2921 19.161 23.363C19.1424 23.434 19.1088 23.5946 19.0863 23.7179C19.0378 23.9644 19.0154 24.069 18.8996 24.5956C18.8212 24.9318 18.795 25.0401 18.6531 25.604C18.4663 26.3286 18.2385 27.3819 18.1862 27.7517C18.1713 27.8749 18.1376 28.0505 18.1152 28.1439C18.0928 28.2372 18.0592 28.4202 18.0405 28.5547C18.0219 28.6892 17.9696 28.9917 17.9285 29.227C17.8837 29.4623 17.8351 29.7499 17.8202 29.862C17.7417 30.3774 17.6222 31.046 17.5923 31.1132C17.5737 31.1543 17.5513 31.2962 17.5363 31.4232C17.5251 31.5539 17.4952 31.7071 17.4765 31.7593C17.4429 31.849 17.2412 32.9844 17.1964 33.3355C17.1703 33.5409 17.103 33.8696 17.0694 33.9518C17.0508 33.9929 17.0283 34.1012 17.0171 34.1946C17.0059 34.2879 16.9798 34.4448 16.9574 34.5494C16.9387 34.6502 16.9051 34.837 16.8827 34.9602C16.864 35.0835 16.8416 35.2179 16.8304 35.259C16.8229 35.3001 16.7968 35.4607 16.7744 35.6139C16.752 35.767 16.6997 36.1031 16.6623 36.3609C16.4569 37.6905 16.4606 37.8698 16.6959 38.4711C16.7818 38.6952 16.8715 38.9418 16.8902 39.0127C16.9873 39.39 17.0321 39.6514 17.0321 39.8643C17.0321 39.995 17.047 40.1706 17.0657 40.2565C17.0844 40.3424 17.118 40.5291 17.1441 40.6748C17.1964 40.996 17.245 41.1043 17.3421 41.1043C17.4056 41.1043 17.4131 41.0856 17.3906 40.9437C17.3159 40.4731 17.2898 40.2714 17.2562 39.9651C17.2188 39.5916 17.2076 38.2695 17.2412 38.1761C17.2552 38.1382 17.3064 38.1184 17.3607 38.1184C17.4082 38.1184 17.4581 38.1335 17.4878 38.1649C17.5051 38.188 17.5449 38.2022 17.5828 38.2022C17.5938 38.2022 17.6047 38.201 17.6147 38.1985C17.6289 38.1958 17.6429 38.1945 17.6567 38.1945C17.8324 38.1945 17.974 38.407 17.936 38.6355C17.9247 38.7251 17.936 38.7774 17.977 38.8073C18.0405 38.8521 18.1899 39.1696 18.1899 39.2555C18.1899 39.2816 18.2161 39.3526 18.246 39.4124C18.4738 39.8456 18.4999 39.9539 18.5298 40.4881C18.5746 41.2911 18.5709 42.0007 18.5224 42.0007C18.5037 42.0007 18.4178 42.053 18.3356 42.1203C18.1243 42.2893 18.1487 42.4583 18.3682 42.4583C18.3815 42.4583 18.3956 42.4577 18.4103 42.4564C18.425 42.4551 18.4392 42.4545 18.4528 42.4545C18.5181 42.4545 18.5679 42.469 18.5896 42.4938C18.612 42.5199 18.6493 42.744 18.668 42.9905C18.6942 43.2744 18.739 43.5358 18.7987 43.7039L18.8846 43.9728L18.7763 44.2268C18.6045 44.6302 18.5485 44.7385 18.4775 44.8169C18.4439 44.858 18.3767 44.9738 18.3319 45.0709C18.287 45.168 18.2385 45.2502 18.2198 45.2502C18.2049 45.2502 18.1899 45.2763 18.1899 45.3062C18.1899 45.3361 18.1713 45.3622 18.1526 45.3622C18.1302 45.3622 18.0928 45.4071 18.0667 45.4631C17.9957 45.6312 17.8725 45.7694 17.6745 45.9188C17.611 45.9673 17.5363 46.0681 17.5139 46.1429C17.4541 46.3221 17.3346 46.5052 17.1404 46.7106C16.7146 47.1588 16.6773 47.2634 16.7856 47.7713L16.8341 47.9954L17.9696 47.9992C18.1042 47.9997 18.2235 48 18.3295 48C18.991 48 19.1308 47.9882 19.1984 47.9431C19.2507 47.9133 19.303 47.8722 19.3142 47.8535C19.3229 47.8418 19.3453 47.8325 19.369 47.8325C19.3756 47.8325 19.3823 47.8332 19.3889 47.8348C19.3934 47.8359 19.3976 47.8365 19.4016 47.8365C19.4238 47.8365 19.4363 47.8197 19.43 47.7975C19.4262 47.7676 19.4561 47.7377 19.4972 47.7265C19.5383 47.7153 19.5719 47.6817 19.5719 47.6518C19.5719 47.6251 19.5833 47.6118 19.6035 47.6118C19.6115 47.6118 19.621 47.6139 19.6317 47.6182C19.6409 47.6215 19.6494 47.6232 19.6571 47.6232C19.6837 47.6232 19.7014 47.6035 19.7101 47.5659C19.7213 47.5248 19.7549 47.4912 19.7848 47.4912C19.8147 47.4912 19.8259 47.4725 19.8147 47.4501C19.7997 47.4277 19.8221 47.4015 19.867 47.3904C19.9118 47.3791 19.9454 47.3455 19.9454 47.3194C19.9454 47.2895 19.9715 47.2671 20.0014 47.2671C20.0313 47.2671 20.0724 47.2335 20.0948 47.1887C20.1249 47.1345 20.1526 47.1191 20.2875 47.1191C20.3199 47.1191 20.3585 47.12 20.4048 47.1214C20.4486 47.1231 20.4863 47.1241 20.5184 47.1241C20.6255 47.1241 20.6691 47.1137 20.6662 47.0878C20.6588 47.0654 20.6924 47.0355 20.7409 47.0243C20.7858 47.0094 20.8269 46.972 20.8306 46.9384C20.8418 46.6919 20.9165 46.2437 20.9464 46.225C20.9688 46.2138 20.98 46.1429 20.9725 46.0719C20.965 46.0009 20.9576 45.8627 20.9576 45.7656C20.9538 45.6349 20.9314 45.5714 20.8754 45.5154C20.8082 45.4556 20.797 45.4108 20.8156 45.2875C20.8269 45.1867 20.8194 45.1381 20.7932 45.1381C20.7634 45.1381 20.7634 45.1269 20.7858 45.1083C20.8082 45.0933 20.8231 44.8729 20.8231 44.5854C20.8231 44.2978 20.8381 44.0774 20.8605 44.0625C20.8829 44.0475 20.9016 43.9952 20.909 43.9429C20.9128 43.8944 20.9352 43.8421 20.9613 43.8272C20.9837 43.8122 20.9912 43.7861 20.9763 43.7637C20.9538 43.7263 21.0622 43.2295 21.0995 43.1959C21.1107 43.1847 21.1257 43.1212 21.1294 43.0503C21.1331 42.983 21.1555 42.9121 21.1779 42.8971C21.2041 42.8822 21.2153 42.8523 21.2041 42.8336C21.1742 42.7851 21.2937 42.2099 21.3386 42.1837C21.3572 42.1688 21.3647 42.1427 21.3498 42.1203C21.3385 42.0978 21.3498 42.0157 21.3796 41.9372C21.4095 41.8588 21.4543 41.7057 21.4767 41.5974C21.5029 41.4853 21.5477 41.3882 21.5776 41.377C21.6075 41.3658 21.6224 41.3359 21.6112 41.3098C21.5851 41.2388 21.6672 40.94 21.727 40.8914C21.7569 40.869 21.7718 40.8317 21.7569 40.8093C21.7307 40.7607 21.8129 40.5067 21.8577 40.5067C21.8727 40.5067 21.8951 40.5516 21.91 40.6076C21.9212 40.6673 21.9623 40.7794 21.9996 40.8616C22.0333 40.9437 22.0781 41.052 22.093 41.0969C22.108 41.1454 22.22 41.362 22.3395 41.5749C22.4591 41.7878 22.5599 41.9858 22.5599 42.0082C22.5599 42.0377 22.627 42.0527 22.6912 42.0527C22.7491 42.0527 22.8046 42.0405 22.8064 42.0157C22.8099 41.945 22.897 41.7975 22.9317 41.7975C22.9337 41.7975 22.9355 41.798 22.9371 41.799C22.9388 41.7999 22.9408 41.8003 22.943 41.8003C22.9596 41.8003 22.9883 41.7757 23.0081 41.7393C23.0305 41.6982 23.0342 41.6646 23.0193 41.6646C23.0044 41.6609 23.0305 41.6272 23.0791 41.5899C23.1276 41.5488 23.1538 41.5152 23.1388 41.5152C23.1276 41.5152 23.165 41.4704 23.2285 41.4181C23.292 41.3658 23.3368 41.306 23.3218 41.2873C23.3106 41.2687 23.3293 41.2425 23.3592 41.2313C23.3928 41.2201 23.4115 41.1977 23.4003 41.179C23.3928 41.1641 23.419 41.1193 23.4563 41.0744C23.4974 41.0296 23.531 40.9811 23.531 40.9624C23.531 40.9475 23.5609 40.8989 23.5982 40.8578C23.6318 40.8205 23.7028 40.7122 23.7514 40.6188C23.7999 40.5254 23.8672 40.4283 23.9008 40.4021C23.9344 40.376 23.9531 40.3461 23.9456 40.3349C23.9269 40.3088 24.0203 40.0959 24.0502 40.0959C24.0651 40.0959 24.0763 40.066 24.0801 40.0286C24.0875 39.9315 24.2519 39.4796 24.2817 39.4684C24.3004 39.4609 24.3042 39.4348 24.2929 39.4086C24.2855 39.3862 24.3004 39.2406 24.334 39.0912C24.3789 38.8708 24.3901 38.5048 24.3901 37.1415C24.3901 36.0471 24.4013 35.4645 24.4274 35.4645C24.4498 35.4645 24.4648 35.4234 24.4648 35.3711C24.4648 35.3188 24.4872 35.2665 24.517 35.2553C24.5469 35.2441 24.5619 35.2105 24.5507 35.1806C24.5395 35.1507 24.5507 35.1283 24.5731 35.1283C24.5955 35.1283 24.6142 35.1022 24.6142 35.0723C24.6142 35.0424 24.6478 35.0163 24.6926 35.0163C24.7524 35.0163 24.7636 35.0013 24.7449 34.9416C24.7262 34.8893 24.7374 34.8669 24.7785 34.8669C24.8121 34.8669 24.8383 34.8407 24.8383 34.8108C24.8383 34.781 24.8644 34.7548 24.8943 34.7548C24.9279 34.7548 24.9391 34.7324 24.9279 34.6988C24.913 34.6614 24.9279 34.6428 24.9839 34.6428C25.0362 34.6428 25.0549 34.6241 25.04 34.5867C25.025 34.5457 25.04 34.5307 25.0997 34.5307C25.1595 34.5307 25.1744 34.5158 25.1595 34.4747C25.1483 34.4411 25.1595 34.4187 25.1931 34.4187C25.223 34.4187 25.2491 34.3925 25.2491 34.3626C25.2491 34.3328 25.2753 34.3066 25.3051 34.3066C25.335 34.3066 25.3761 34.273 25.3985 34.2319C25.4209 34.1908 25.462 34.1572 25.4919 34.1572C25.5218 34.1572 25.5442 34.1348 25.5404 34.1087C25.533 34.0825 25.5666 34.0638 25.6226 34.0638C25.6898 34.0601 25.7123 34.0414 25.7048 33.9966C25.6973 33.9518 25.7197 33.9331 25.7944 33.9331C25.8654 33.9331 25.8878 33.9182 25.8691 33.8771C25.8542 33.8397 25.8729 33.8211 25.9251 33.8211C25.9812 33.8211 25.9961 33.8024 25.9812 33.765C25.9662 33.7239 25.9886 33.709 26.0559 33.709C26.1268 33.709 26.1493 33.6941 26.1306 33.653C26.1194 33.6156 26.1343 33.597 26.1791 33.597C26.2202 33.597 26.2464 33.5708 26.2426 33.5372C26.2426 33.5036 26.2576 33.4662 26.28 33.4588C26.2825 33.458 26.2849 33.4576 26.2873 33.4576C26.3419 33.4576 26.3676 33.6698 26.407 34.4C26.4406 35.0499 26.4667 35.2404 26.5713 35.6288C26.6311 35.8342 26.6311 35.8791 26.575 36.2077C26.5414 36.4057 26.5003 36.6821 26.4817 36.8277C26.463 36.9697 26.4144 37.261 26.3733 37.4739C26.265 38.0043 26.2688 38.1537 26.392 38.2844C26.5078 38.4076 26.6535 38.5122 26.9037 38.6392C27.1091 38.7438 27.139 38.7849 27.2137 39.08C27.2436 39.1957 27.2847 39.3302 27.3034 39.375C27.3631 39.5132 27.4042 39.6141 27.5125 39.868C27.5984 40.0884 27.6059 40.1258 27.5611 40.2527C27.5237 40.376 27.5275 40.4246 27.5984 40.6412C27.7366 41.0595 27.8375 41.2126 27.9831 41.2164C28.1176 41.2164 28.2633 41.6795 28.2857 42.1688C28.2969 42.3742 28.323 42.6656 28.3454 42.815C28.4015 43.2109 28.4276 44.238 28.3828 44.3239C28.3652 44.3572 28.3537 44.3731 28.336 44.3731C28.32 44.3731 28.2988 44.36 28.2633 44.3351C28.2098 44.2982 28.1298 44.2796 28.0627 44.2796C27.9938 44.2796 27.9383 44.2992 27.9383 44.3388C27.9383 44.4397 28.0093 44.5293 28.1027 44.5555C28.2222 44.5854 28.267 44.7385 28.267 45.1008C28.267 45.3436 28.2969 45.5826 28.3716 45.9636C28.3865 46.0457 28.4164 46.0681 28.5471 46.0868C28.633 46.1018 28.7115 46.1317 28.7264 46.1541C28.7454 46.1844 28.9577 46.2003 29.1647 46.2003C29.3656 46.2003 29.5613 46.1853 29.5705 46.1541C29.5805 46.1261 29.6152 46.1109 29.6452 46.1109C29.6712 46.1109 29.6938 46.1223 29.6938 46.1466C29.6938 46.1653 29.7349 46.1839 29.7834 46.1839C29.8357 46.1839 29.8992 46.2063 29.9253 46.2325C29.9515 46.2624 30.0374 46.296 30.1158 46.3109C30.1905 46.3259 30.254 46.3595 30.254 46.3856C30.254 46.4155 30.2951 46.4342 30.3586 46.4342C30.4632 46.4342 31.1952 46.7031 31.2177 46.7517C31.2251 46.7666 31.3297 46.789 31.453 46.804C31.5725 46.8189 31.6733 46.845 31.6733 46.86C31.6733 46.8787 31.9422 46.8936 32.2709 46.8936C32.5996 46.8936 32.8685 46.8787 32.8685 46.86C32.8685 46.845 33.0478 46.8189 33.2682 46.804C33.4885 46.789 33.6865 46.7629 33.7126 46.7405C33.7799 46.6844 33.821 46.1055 33.7649 45.9449C33.7126 45.788 33.5707 45.7021 33.2346 45.6237C33.115 45.5975 33.0179 45.5602 33.0179 45.5415C33.0179 45.5266 32.9955 45.5116 32.9694 45.5116C32.9395 45.5116 32.8835 45.4818 32.8387 45.4444C32.7976 45.4108 32.7266 45.3548 32.6818 45.3249C32.5548 45.239 32.4614 45.1344 32.3606 44.9701C32.2747 44.8207 32.0879 44.6526 32.0095 44.6526C31.9908 44.6526 31.9721 44.6376 31.9721 44.6152C31.9721 44.5966 31.9348 44.5704 31.8862 44.5592C31.8339 44.5443 31.7518 44.4584 31.6808 44.3388C31.6173 44.2268 31.509 44.0998 31.4455 44.0513C31.2961 43.9355 31.1131 43.7562 31.1131 43.7263C31.1131 43.7114 31.0309 43.6105 30.9263 43.4985C30.8255 43.3864 30.7508 43.2818 30.762 43.2669C30.7732 43.2482 30.7583 43.2333 30.7284 43.2333C30.6985 43.2333 30.6649 43.2109 30.6537 43.181C30.6238 43.1026 30.6649 42.8486 30.7172 42.8038C30.7433 42.7776 30.7582 42.5834 30.7582 42.2435C30.7582 41.7505 30.762 41.7206 30.833 41.7057C30.874 41.6982 30.9562 41.6459 31.016 41.5861C31.0772 41.5272 31.1064 41.5014 31.1328 41.5014C31.1516 41.5014 31.1689 41.5143 31.1952 41.5376C31.2254 41.5678 31.248 41.5817 31.2852 41.5817C31.3171 41.5817 31.3596 41.5715 31.4268 41.5525C31.4896 41.5342 31.5541 41.5251 31.5936 41.5251C31.6106 41.5251 31.6229 41.5268 31.6285 41.5301C31.6329 41.5327 31.6373 41.534 31.6418 41.534C31.6757 41.534 31.7107 41.4632 31.7107 41.3807C31.7107 41.2986 31.4828 41.2164 31.2625 41.2164C31.1205 41.2164 31.0757 41.2014 31.0757 41.1604C31.0757 41.1305 31.0533 41.1043 31.0272 41.1043C31.001 41.1043 30.9599 41.0707 30.9338 41.0296C30.9077 40.9885 30.8628 40.9549 30.833 40.9549C30.8031 40.9549 30.762 40.9213 30.7433 40.884C30.691 40.7869 30.6723 40.1743 30.7209 40.1407C30.7807 40.0996 30.7246 39.2854 30.6537 39.0912C30.6163 38.994 30.5902 38.8185 30.5902 38.6504C30.5902 38.4233 30.5929 38.3825 30.6453 38.3825C30.6541 38.3825 30.6643 38.3837 30.6761 38.3852C30.6869 38.3866 30.6963 38.3873 30.7045 38.3873C30.7417 38.3873 30.7532 38.3721 30.747 38.3292C30.7396 38.2956 30.7508 38.2657 30.7657 38.2657C30.7807 38.2657 30.8442 38.2246 30.9039 38.1723C30.9754 38.1117 31.0281 38.0824 31.0684 38.0824C31.0976 38.0824 31.1204 38.0977 31.1392 38.1275C31.1668 38.1716 31.241 38.2116 31.2781 38.2116C31.2913 38.2116 31.2998 38.2065 31.2998 38.1948C31.2998 38.1513 31.5869 38.06 31.6955 38.06C31.7083 38.06 31.7185 38.0613 31.7256 38.064C31.7353 38.0681 31.7436 38.0702 31.7507 38.0702C31.7762 38.0702 31.7854 38.0425 31.7854 37.9781C31.7854 37.8848 31.763 37.8661 31.6098 37.8101C31.4311 37.7482 31.3057 37.7172 31.2235 37.7172C31.1717 37.7172 31.137 37.7295 31.1168 37.754C31.0995 37.7751 31.0809 37.7867 31.0557 37.7867C31.0048 37.7867 30.9268 37.7394 30.7769 37.627C30.706 37.5747 30.6201 37.5187 30.5864 37.5075C30.5416 37.4926 30.5155 37.4253 30.5005 37.2871C30.4856 37.1788 30.4557 36.9473 30.4333 36.7755C30.4034 36.5252 30.4034 36.458 30.4445 36.4356C30.4781 36.4132 30.4893 36.3347 30.4819 36.1853C30.4744 36.0135 30.4557 35.95 30.3847 35.8865C30.3101 35.8156 30.2951 35.7521 30.2727 35.4458C30.2578 35.2516 30.254 34.9901 30.2615 34.8669C30.269 34.7436 30.2652 34.6428 30.254 34.6428C30.2167 34.6428 30.1233 33.4027 30.1233 32.8873C30.1233 32.6296 30.1121 32.413 30.0972 32.4018C30.071 32.3793 30.0075 31.7332 29.959 30.9264C29.9403 30.6799 29.9067 30.3512 29.8843 30.1981C29.8432 29.9404 29.7722 29.2718 29.7573 28.973C29.7535 28.9095 29.7311 28.8535 29.7087 28.8535C29.6826 28.8535 29.6527 28.663 29.6228 28.3381C29.6004 28.0579 29.563 27.7554 29.5444 27.6658C29.4921 27.4379 29.4921 27.4342 29.6564 27.4342C29.7647 27.4342 29.8058 27.4491 29.8058 27.4902C29.8058 27.5201 29.832 27.5463 29.8618 27.5463C29.9365 27.5463 30.2914 27.8973 30.2914 27.972C30.2914 28.0057 30.3213 28.0318 30.3661 28.0318C30.4072 28.0318 30.4408 28.0579 30.4408 28.0878C30.4408 28.1177 30.4669 28.1439 30.4968 28.1439C30.5267 28.1439 30.5528 28.17 30.5528 28.1999C30.5528 28.2298 30.5715 28.2559 30.5902 28.2559C30.6425 28.2559 31.0384 28.6481 31.0384 28.7004C31.0384 28.7228 31.0645 28.7415 31.0944 28.7415C31.1243 28.7415 31.1504 28.7676 31.1504 28.7975C31.1504 28.8274 31.1691 28.8535 31.1878 28.8535C31.2102 28.8535 31.2251 28.8797 31.2251 28.9095C31.2251 28.9394 31.2587 28.9656 31.2998 28.9656C31.3409 28.9656 31.3745 28.9917 31.3745 29.0216C31.3745 29.0515 31.3932 29.0776 31.4156 29.0776C31.4791 29.0776 31.7107 29.3241 31.7107 29.3951C31.7107 29.425 31.7443 29.4511 31.7854 29.4511C31.8265 29.4511 31.8601 29.4773 31.8601 29.5071C31.8601 29.537 31.8862 29.5632 31.9161 29.5632C31.946 29.5632 31.9721 29.5893 31.9721 29.6192C31.9721 29.6491 31.9908 29.6752 32.0132 29.6752C32.0692 29.6752 32.3456 29.9516 32.3456 30.0076C32.3456 30.03 32.3718 30.0487 32.4017 30.0487C32.4315 30.0487 32.4577 30.0749 32.4577 30.1047C32.4577 30.1346 32.4764 30.1608 32.495 30.1608C32.5174 30.1608 32.5324 30.1869 32.5324 30.2168C32.5324 30.2467 32.566 30.2728 32.6071 30.2728C32.6482 30.2728 32.6818 30.299 32.6818 30.3288C32.6818 30.3587 32.7005 30.3849 32.7229 30.3849C32.7826 30.3849 33.0179 30.6389 33.0179 30.7023C33.0179 30.7322 33.0515 30.7584 33.0926 30.7584C33.1337 30.7584 33.1673 30.7845 33.1673 30.8144C33.1673 30.8443 33.1935 30.8704 33.2234 30.8704C33.2532 30.8704 33.2794 30.8966 33.2794 30.9264C33.2794 30.9563 33.3055 30.9825 33.3354 30.9825C33.3653 30.9825 33.3914 31.0086 33.3914 31.0385C33.3914 31.0684 33.4176 31.0945 33.4475 31.0945C33.4773 31.0945 33.5035 31.1207 33.5035 31.1505C33.5035 31.1804 33.5222 31.2066 33.5446 31.2066C33.5969 31.2066 33.7649 31.3821 33.7649 31.4344C33.7649 31.4531 33.7836 31.468 33.8023 31.468C33.8247 31.468 33.8396 31.4942 33.8396 31.524C33.8396 31.5539 33.8732 31.5801 33.9143 31.5801C33.9554 31.5801 33.989 31.6062 33.989 31.6361C33.989 31.666 34.0152 31.6921 34.0451 31.6921C34.0749 31.6921 34.1011 31.7183 34.1011 31.7481C34.1011 31.778 34.1198 31.8042 34.1384 31.8042C34.1608 31.8042 34.1758 31.8303 34.1758 31.8602C34.1758 31.8901 34.2094 31.9162 34.2505 31.9162C34.2916 31.9162 34.3252 31.9424 34.3252 31.9722C34.3252 32.0021 34.3513 32.0283 34.3812 32.0283C34.4148 32.0283 34.4522 32.0581 34.4634 32.0918C34.5007 32.1889 34.5978 32.2897 34.6501 32.2897C34.6763 32.2897 34.6987 32.3158 34.6987 32.3457C34.6987 32.3756 34.7248 32.4018 34.7547 32.4018C34.7846 32.4018 34.8107 32.4279 34.8107 32.4578C34.8107 32.4877 34.8369 32.5138 34.8668 32.5138C34.8966 32.5138 34.9228 32.5399 34.9228 32.5698C34.9228 32.5997 34.9377 32.6259 34.9564 32.6259C35.0012 32.6259 35.1842 32.8014 35.1842 32.85C35.1842 32.8686 35.2029 32.8873 35.2216 32.8873C35.244 32.8873 35.2589 32.9135 35.2589 32.9433C35.2589 32.9732 35.2776 32.9994 35.2963 32.9994C35.3187 32.9994 35.3336 33.0479 35.3336 33.1114C35.3336 33.1712 35.3523 33.2235 35.371 33.2235C35.3934 33.2235 35.4083 33.2533 35.4083 33.287C35.4083 33.3392 35.442 33.3542 35.5465 33.3579C35.6212 33.3579 35.6922 33.3803 35.6997 33.4027C35.7071 33.4289 35.7482 33.4476 35.7893 33.4476C35.8304 33.4476 35.8715 33.4774 35.8827 33.5223C35.8939 33.5633 35.9163 33.597 35.935 33.597C35.9536 33.597 35.9686 33.6231 35.9686 33.653C35.9686 33.6829 36.0022 33.709 36.0433 33.709C36.0844 33.709 36.118 33.7351 36.118 33.765C36.118 33.7949 36.1367 33.8211 36.1553 33.8211C36.1777 33.8211 36.1927 33.8696 36.1927 33.9331C36.1927 33.9929 36.2114 34.0452 36.23 34.0452C36.2525 34.0452 36.2674 34.0676 36.2674 34.09C36.2711 34.1535 36.3981 34.3066 36.4504 34.3066C36.4728 34.3066 36.4915 34.3328 36.4915 34.3626C36.4915 34.4075 36.5438 34.4187 36.7529 34.4187C36.9696 34.4187 37.0069 34.4075 36.992 34.3626C36.9733 34.3216 36.9995 34.3066 37.0891 34.3066C37.1787 34.3066 37.2049 34.2917 37.1899 34.2543C37.1787 34.2244 37.1862 34.1946 37.2086 34.1871C37.2348 34.1759 37.2534 34.0601 37.2534 33.8846C37.2572 33.6268 37.2497 33.597 37.1862 33.597C37.1414 33.597 37.1264 33.5783 37.1414 33.5409C37.1563 33.4998 37.1376 33.4849 37.0742 33.4849C37.0181 33.4849 36.977 33.4588 36.9658 33.4102C36.9509 33.3542 36.9135 33.3355 36.8127 33.3355C36.7193 33.3355 36.6782 33.3206 36.6782 33.2795C36.6782 33.2459 36.6446 33.2235 36.5998 33.2235C36.5438 33.2235 36.5288 33.2048 36.5438 33.1674C36.5587 33.1301 36.54 33.1114 36.4878 33.1114C36.4317 33.1114 36.4168 33.0927 36.4317 33.0554C36.4467 33.018 36.428 32.9994 36.3757 32.9994C36.3085 32.9994 36.2973 32.9807 36.3122 32.8873C36.3234 32.8163 36.3122 32.7753 36.2823 32.7753C36.2599 32.7753 36.2263 32.7155 36.2151 32.6445C36.1927 32.5213 36.1815 32.5138 36.047 32.5138C35.9536 32.5138 35.8939 32.4951 35.879 32.4578C35.8677 32.4279 35.8379 32.4018 35.8117 32.4018C35.7445 32.4018 35.625 32.2598 35.6511 32.215C35.6661 32.1926 35.6362 32.1777 35.5951 32.1777C35.5353 32.1777 35.5204 32.159 35.5353 32.1216C35.5503 32.0843 35.5316 32.0656 35.483 32.0656C35.442 32.0656 35.4083 32.0395 35.4083 32.0096C35.4083 31.976 35.3822 31.9424 35.3523 31.9312C35.3224 31.9162 35.2963 31.8863 35.2963 31.8565C35.2963 31.8266 35.2627 31.8042 35.2179 31.8042C35.1618 31.8042 35.1469 31.7855 35.1618 31.7481C35.1768 31.7108 35.1581 31.6921 35.1058 31.6921C35.0498 31.6921 35.0348 31.6734 35.0498 31.6361C35.0647 31.5987 35.046 31.5801 34.9938 31.5801C34.9377 31.5801 34.9228 31.5614 34.9377 31.524C34.9527 31.4867 34.934 31.468 34.8817 31.468C34.8257 31.468 34.8107 31.4493 34.8257 31.412C34.8406 31.3746 34.8219 31.356 34.7734 31.356C34.7323 31.356 34.6987 31.3336 34.6987 31.3074C34.6987 31.2551 34.6576 31.214 34.4634 31.0422C34.4036 30.9899 34.3663 30.9302 34.3812 30.9115C34.3924 30.8854 34.37 30.8704 34.3252 30.8704C34.2654 30.8704 34.2505 30.8517 34.2654 30.8144C34.2804 30.777 34.2617 30.7584 34.2094 30.7584C34.1534 30.7584 34.1384 30.7397 34.1534 30.7023C34.1683 30.665 34.1496 30.6463 34.1011 30.6463C34.06 30.6463 34.0264 30.6239 34.0264 30.5978C34.0264 30.5716 33.9778 30.5081 33.9143 30.4596C33.8546 30.4073 33.806 30.3438 33.8023 30.3176C33.8023 30.2952 33.7687 30.2728 33.7238 30.2728C33.6678 30.2728 33.6529 30.2541 33.6678 30.2168C33.6828 30.1794 33.6641 30.1608 33.6155 30.1608C33.5744 30.1608 33.5408 30.1421 33.5408 30.1234C33.5408 30.0749 33.4026 29.9367 33.3541 29.9367C33.3354 29.9367 33.3167 29.9105 33.3167 29.8806C33.3167 29.847 33.2906 29.8134 33.257 29.7985C33.2271 29.7873 33.2084 29.7536 33.2196 29.7275C33.2308 29.6976 33.2159 29.6752 33.186 29.6752C33.1561 29.6752 33.13 29.6603 33.13 29.6416C33.13 29.6229 33.0964 29.593 33.0515 29.5818C33.0067 29.5669 32.9843 29.537 32.9955 29.5034C33.0105 29.4698 32.988 29.4511 32.9395 29.4511C32.8835 29.4511 32.8685 29.4324 32.8835 29.3951C32.8984 29.3577 32.8797 29.3391 32.8312 29.3391C32.7826 29.3391 32.7565 29.3129 32.7565 29.2644C32.7565 29.2233 32.7415 29.1897 32.7191 29.1897C32.6743 29.1897 32.4203 28.9357 32.4203 28.8909C32.4203 28.8685 32.3867 28.8535 32.3419 28.8535C32.2859 28.8535 32.2709 28.8348 32.2859 28.7975C32.3008 28.7601 32.2821 28.7415 32.2298 28.7415C32.1738 28.7415 32.1589 28.7228 32.1738 28.6854C32.1888 28.6481 32.1701 28.6294 32.1215 28.6294C32.0804 28.6294 32.0468 28.6107 32.0468 28.5846C32.0468 28.5622 31.9721 28.4688 31.8788 28.3792C31.7854 28.2933 31.7107 28.2036 31.7107 28.1812C31.7107 28.1625 31.6957 28.1439 31.6733 28.1439C31.6136 28.1439 31.4828 27.9945 31.5053 27.9571C31.5202 27.9347 31.494 27.9198 31.453 27.9198C31.4081 27.9198 31.3745 27.9011 31.3745 27.8749C31.3745 27.8525 31.2998 27.7591 31.2065 27.6695C31.1131 27.5836 31.0384 27.494 31.0384 27.4716C31.0384 27.4529 31.0048 27.4342 30.9599 27.4342C30.9039 27.4342 30.889 27.4155 30.9039 27.3782C30.9189 27.3408 30.9002 27.3222 30.8479 27.3222C30.7919 27.3222 30.7769 27.3035 30.7919 27.2661C30.8068 27.2288 30.7881 27.2101 30.7396 27.2101C30.6985 27.2101 30.6649 27.1877 30.6649 27.1616C30.6649 27.1391 30.6051 27.0495 30.5341 26.9673C30.4408 26.8665 30.4034 26.7918 30.4109 26.7246C30.4221 26.6237 30.3437 26.5005 30.2652 26.5005C30.2316 26.5005 30.2167 26.4332 30.2167 26.2764C30.2167 26.1531 30.2316 26.0523 30.2466 26.0523C30.2615 26.0523 30.2764 25.9888 30.2764 25.9103C30.2802 25.8356 30.2988 25.6638 30.325 25.5294C30.3511 25.3949 30.381 25.2305 30.3885 25.1633C30.3997 25.0886 30.4296 25.0438 30.4669 25.0438C30.5043 25.0438 30.5155 25.0214 30.5005 24.984C30.4669 24.8944 30.5155 24.745 30.579 24.745C30.6126 24.745 30.6275 24.7226 30.6126 24.689C30.6014 24.6591 30.6051 24.6329 30.6201 24.6329C30.635 24.6329 30.6425 24.4014 30.635 24.1213C30.6238 23.5535 30.6387 23.4377 30.7246 23.4377C30.762 23.4377 30.7769 23.4153 30.762 23.3817C30.7508 23.3518 30.7545 23.3257 30.7732 23.3257C30.7919 23.3257 30.8068 23.3033 30.8031 23.2771C30.7919 22.9933 30.8217 22.7281 30.8628 22.7281C30.8927 22.7281 30.9114 22.6571 30.9151 22.5115C30.9301 22.0184 30.9861 21.5404 31.0346 21.4843C31.0608 21.4507 31.1131 21.4134 31.1542 21.4022C31.2401 21.3723 31.2475 21.2415 31.1616 21.2079C30.9973 21.1444 30.9637 21.0623 30.9637 20.6962C30.9637 20.4311 30.9786 20.334 31.0197 20.3003C31.1205 20.2182 31.0869 20.1248 30.9487 20.0986C30.8554 20.08 30.8105 20.0464 30.7769 19.9604C30.7508 19.9007 30.7396 19.8409 30.7508 19.826C30.762 19.8148 30.7508 19.7812 30.7209 19.7513C30.6499 19.6841 30.6462 19.4189 30.7134 19.3778C30.747 19.3591 30.7583 19.2994 30.747 19.206C30.7358 19.1126 30.705 19.0659 30.6686 19.0659C30.6322 19.0659 30.5902 19.1126 30.5566 19.206C30.5099 19.3351 30.4753 19.4005 30.4466 19.4005C30.4155 19.4005 30.3913 19.3239 30.3661 19.1686C30.3437 19.023 30.3063 18.8437 30.2839 18.7765C30.2652 18.7055 30.2578 18.5785 30.2727 18.4851C30.2876 18.3805 30.2802 18.3208 30.2578 18.3208C30.2353 18.3208 30.2167 18.2461 30.2167 18.1527C30.2167 18.0593 30.2353 17.9846 30.254 17.9846C30.2802 17.9846 30.2914 17.6335 30.2839 16.9388C30.2764 16.3636 30.2615 15.893 30.2503 15.893C30.2241 15.893 30.1308 15.329 30.127 15.1348C30.1233 15.0601 30.1121 14.9966 30.0972 14.9966C30.0785 14.9966 30.0673 14.9368 30.0673 14.8659C30.0673 14.7949 30.0859 14.7352 30.1084 14.7352C30.1308 14.7352 30.1382 14.7015 30.1233 14.6605C30.0972 14.5746 30.2129 13.906 30.2578 13.8761C30.2727 13.8649 30.2839 13.8014 30.2802 13.7304C30.2727 13.5885 30.2615 13.5922 30.945 13.3495C31.6024 13.1179 31.692 13.0805 31.7966 13.0283C31.8383 13.006 31.8842 12.9941 31.9126 12.9941C31.9223 12.9941 31.93 12.9955 31.9348 12.9984C31.9428 13.0024 31.9499 13.0045 31.9557 13.0045C31.966 13.0045 31.9721 12.9978 31.9721 12.9834C31.9721 12.9647 32.0057 12.9386 32.0431 12.9237C32.0804 12.9125 32.2149 12.8378 32.3382 12.7556C32.4508 12.6839 32.5542 12.6309 32.5796 12.6309C32.582 12.6309 32.5837 12.6314 32.5847 12.6323C32.5877 12.6364 32.5907 12.6382 32.5935 12.6382C32.6011 12.6382 32.6071 12.6244 32.6071 12.6025C32.6071 12.5577 32.8461 12.3672 32.9096 12.3634C32.9208 12.3634 32.9768 12.3074 33.0329 12.2402C33.0889 12.1767 33.1599 12.1206 33.1897 12.1206C33.2234 12.1206 33.2383 12.1057 33.2234 12.087C33.2122 12.0684 33.242 12.0198 33.2869 11.9825C33.3354 11.9451 33.3728 11.8966 33.3765 11.8779C33.3765 11.8555 33.4138 11.7621 33.4587 11.665C33.5035 11.5716 33.552 11.4409 33.5632 11.3774C33.5857 11.2728 33.5782 11.2616 33.496 11.2616C33.4437 11.2616 33.3728 11.2952 33.3317 11.34C33.2495 11.4334 33.13 11.4969 32.9021 11.5753C32.7954 11.6131 32.4145 11.6364 32.1049 11.6364C31.8945 11.6364 31.7171 11.6257 31.6808 11.6015C31.6397 11.5791 31.6472 11.538 31.7144 11.3998C31.763 11.3027 31.8115 11.2242 31.8302 11.2242C31.8451 11.2242 31.8489 11.1981 31.8377 11.1682C31.8227 11.1383 31.8414 11.1047 31.875 11.0898C31.9086 11.0786 31.9273 11.0524 31.9161 11.0375C31.89 10.9927 32.0057 10.7387 32.0506 10.7387C32.073 10.7387 32.0842 10.7126 32.0692 10.6827C32.0506 10.6304 32.1402 10.3689 32.1925 10.3278C32.2037 10.3166 32.2186 10.2569 32.2224 10.1971C32.2298 10.1336 32.2411 9.99543 32.256 9.88712C32.2784 9.70037 32.2747 9.6929 32.1888 9.6929C32.1365 9.6929 32.0244 9.7676 31.8974 9.89085C31.7816 9.99543 31.6136 10.115 31.5239 10.156C31.4305 10.1934 31.326 10.2382 31.2924 10.2569C31.1811 10.3142 30.802 10.3593 30.4573 10.3593C30.4201 10.3593 30.3834 10.3588 30.3474 10.3577L29.9739 10.3465L29.9515 9.917C29.9291 9.53229 29.888 9.14759 29.8133 8.59107C29.7909 8.42673 29.7759 8.40432 29.6938 8.39311C29.684 8.39184 29.675 8.39109 29.6665 8.39109C29.6009 8.39109 29.5698 8.43605 29.4771 8.62468C29.4099 8.75541 29.3576 8.8824 29.3576 8.90108C29.3576 8.96831 28.9767 9.33434 28.7189 9.51735C28.5807 9.61446 28.4612 9.6929 28.4537 9.6929C28.4425 9.6929 28.4425 9.65181 28.45 9.60326C28.4612 9.55097 28.4388 9.37169 28.4015 9.19988C28.3678 9.02807 28.3342 8.83758 28.3342 8.77782C28.3305 8.71433 28.3193 8.6583 28.3081 8.64709C28.2969 8.63589 28.2521 8.52757 28.2072 8.40432C28.1624 8.28106 28.0915 8.07937 28.0466 7.95612C27.9084 7.56394 27.7702 6.96634 27.8001 6.85802C27.8076 6.81694 27.8039 6.77959 27.7852 6.77212C27.7665 6.76465 27.7254 6.6526 27.6918 6.51814C27.6619 6.38367 27.6208 6.24175 27.6022 6.20066C27.5835 6.15958 27.5611 6.09982 27.5573 6.06994C27.5499 6.04006 27.5387 6.00644 27.5275 5.99524C27.5163 5.98403 27.4266 5.81969 27.3332 5.63294C27.1166 5.20715 26.6834 4.46388 26.5115 4.21737C26.4406 4.11652 26.3099 3.90737 26.2202 3.75423C25.9812 3.34712 25.8617 3.21266 25.6525 3.10434C25.5334 3.041 25.3284 3 25.189 3Z" fill="white"/>
</svg>
