<svg width="50" height="50" viewBox="0 0 50 50" fill="none" xmlns="http://www.w3.org/2000/svg">
<!--<rect width="50" height="50" rx="2" fill="black"/>-->
<path d="M28.5264 1C28.6013 1 28.6387 1.01873 28.6387 1.05618C28.6387 1.08614 28.6574 1.11236 28.6799 1.11236C28.6986 1.11236 28.7061 1.13109 28.6949 1.15355C28.6799 1.17228 28.7099 1.25468 28.7623 1.32958C28.8484 1.46066 28.8559 1.49812 28.8597 1.96252C28.8634 2.28836 28.8484 2.46064 28.8222 2.46064C28.8035 2.46064 28.7923 2.47562 28.8072 2.49809C28.8185 2.51681 28.7923 2.56925 28.7473 2.61419C28.6911 2.67037 28.6724 2.72281 28.6911 2.79771C28.7024 2.85763 28.6949 2.91006 28.6762 2.91756C28.6462 2.92505 28.5713 3.37073 28.5526 3.64038C28.5526 3.68158 28.5264 3.73776 28.5001 3.76398C28.4739 3.79394 28.4627 3.83139 28.4739 3.85386C28.4889 3.87634 28.4777 3.90629 28.4515 3.92128C28.4215 3.94 28.399 4.01116 28.399 4.08607C28.3953 4.16097 28.384 4.22089 28.3728 4.22089C28.3166 4.22089 28.3129 4.33325 28.3616 4.52051C28.3915 4.63287 28.4252 4.73025 28.4402 4.74148C28.4777 4.7677 28.4814 5.1572 28.4477 5.1572C28.4365 5.1572 28.414 5.26581 28.399 5.40064C28.3765 5.62161 28.384 5.66281 28.4739 5.81636C28.5264 5.90625 28.5938 6.05605 28.62 6.14219C28.6425 6.22833 28.6986 6.31448 28.7361 6.33695C28.7885 6.36316 28.8035 6.40811 28.796 6.49425C28.7885 6.56915 28.7998 6.61784 28.826 6.61784C28.8522 6.61784 28.8634 6.64031 28.8522 6.67027C28.826 6.73019 28.972 7.17962 29.0132 7.17962C29.032 7.17962 29.0357 7.21333 29.0245 7.25453C29.0132 7.29573 29.0207 7.32943 29.0357 7.32943C29.0544 7.32943 29.0732 7.38561 29.0769 7.45302C29.0844 7.51669 29.1069 7.58785 29.1331 7.61032C29.1593 7.62905 29.178 7.68523 29.1705 7.73392C29.1593 7.80133 29.1855 7.83129 29.2904 7.87249C29.4402 7.93616 29.4552 7.98485 29.3615 8.14589C29.3054 8.24327 29.3054 8.26574 29.3578 8.39682C29.414 8.53539 29.4215 8.53914 29.5975 8.54288C29.7585 8.54663 29.781 8.55787 29.7922 8.62902C29.8035 8.71142 29.7773 8.7264 29.56 8.76011C29.5001 8.77134 29.4926 8.8088 29.4889 9.03351C29.4889 9.1983 29.4701 9.31441 29.4364 9.34436C29.4065 9.37433 29.3878 9.47919 29.3878 9.60278C29.3878 9.76402 29.3854 9.7991 29.3389 9.7991C29.327 9.7991 29.3123 9.79682 29.2941 9.79379C29.2708 9.78892 29.2533 9.78558 29.2405 9.78558C29.2041 9.78558 29.2063 9.81283 29.223 9.90989C29.2379 9.9848 29.2604 10.0597 29.2754 10.0822C29.3353 10.1646 29.4215 10.6589 29.3803 10.6702C29.3578 10.6777 29.3428 10.7601 29.3391 10.8499C29.3353 10.9436 29.3129 11.0335 29.2904 11.0559C29.2305 11.1121 29.1556 11.4042 29.1818 11.4866C29.1968 11.5278 29.1893 11.5615 29.1668 11.5615C29.1218 11.5615 29.0432 11.82 29.0732 11.8686C29.0844 11.8836 29.0769 11.8986 29.0582 11.8986C29.0432 11.8986 29.0395 11.9885 29.0507 12.0934C29.0657 12.2095 29.0619 12.3031 29.0432 12.3143C29.0207 12.3293 29.017 12.3743 29.032 12.4192C29.0469 12.4641 29.0395 12.4978 29.017 12.4978C28.9683 12.4978 28.9645 12.7001 29.0095 12.8611C29.032 12.936 29.032 12.9847 29.0095 12.9922C28.987 12.9997 28.9571 13.1645 28.9383 13.363C28.9196 13.5577 28.8859 13.7637 28.8672 13.8162C28.8484 13.8686 28.841 13.9248 28.8522 13.936C28.8672 13.9472 28.8522 13.9585 28.826 13.9585C28.7998 13.9585 28.7848 13.9697 28.7998 13.981C28.811 13.9922 28.7885 14.0371 28.7511 14.0821C28.7099 14.1233 28.6874 14.172 28.6986 14.1869C28.7099 14.2057 28.6762 14.2656 28.6237 14.3218C28.5713 14.3779 28.5376 14.4341 28.5488 14.4529C28.5601 14.4678 28.5413 14.4828 28.5076 14.4828C28.4739 14.4828 28.4552 14.4978 28.4664 14.5165C28.4777 14.5352 28.4627 14.5615 28.429 14.5727C28.384 14.5914 28.3728 14.6289 28.384 14.715C28.3953 14.7899 28.384 14.8573 28.3503 14.891C28.3204 14.921 28.3054 14.9734 28.3129 15.0109C28.3241 15.0483 28.3054 15.0858 28.2754 15.097C28.2455 15.112 28.2267 15.1457 28.2417 15.1757C28.253 15.2056 28.2455 15.2319 28.223 15.2319C28.2005 15.2319 28.1968 15.2468 28.208 15.2693C28.2193 15.288 28.2118 15.3068 28.1893 15.3068C28.1631 15.3068 28.1518 15.333 28.1668 15.3629C28.178 15.3929 28.1706 15.4191 28.1556 15.4191C28.1144 15.4191 27.9983 15.7562 28.0245 15.7974C28.032 15.8124 28.0058 15.8648 27.9608 15.9097C27.8897 15.9809 27.8822 16.0184 27.8972 16.303C27.9046 16.479 27.8972 16.6176 27.8784 16.6176C27.8597 16.6176 27.8522 16.7112 27.8597 16.8236C27.8635 16.9359 27.8597 17.0296 27.8485 17.0296C27.8185 17.0296 27.7361 17.4415 27.7586 17.479C27.7698 17.4977 27.7586 17.5164 27.7361 17.5239C27.6874 17.5389 27.5788 18.0333 27.6088 18.1119C27.62 18.1419 27.6088 18.1793 27.5826 18.1943C27.5601 18.2093 27.5376 18.2842 27.5376 18.3554C27.5376 18.4453 27.5189 18.4902 27.4852 18.4902C27.4552 18.4902 27.4402 18.5127 27.4552 18.5464C27.4665 18.5801 27.4552 18.6026 27.4178 18.6026C27.3803 18.6026 27.3691 18.625 27.3841 18.6737C27.3953 18.7187 27.3841 18.7524 27.3429 18.7673C27.3092 18.7786 27.2904 18.816 27.3017 18.8423C27.3166 18.876 27.2717 18.9359 27.1931 18.9958C27.1219 19.0482 27.0657 19.1157 27.0657 19.1419C27.0657 19.1718 27.032 19.2018 26.9946 19.213C26.9234 19.2318 26.9234 19.243 27.0358 19.5613C27.0957 19.7449 27.1706 19.9134 27.2005 19.9359C27.2305 19.9583 27.2417 19.9845 27.2305 19.9995C27.1931 20.0332 27.3017 20.3254 27.3504 20.3254C27.3803 20.3254 27.3916 20.3478 27.3803 20.3815C27.3653 20.4115 27.3916 20.5126 27.4365 20.6063C27.4814 20.6999 27.5151 20.7973 27.5151 20.8235C27.5151 20.8497 27.5489 20.9358 27.59 21.0182C27.6312 21.1006 27.665 21.2017 27.665 21.2429C27.665 21.2879 27.6762 21.3328 27.6874 21.3478C27.7062 21.3665 27.8185 21.6961 28.0957 22.5425C28.1518 22.7261 28.2155 22.8721 28.2342 22.8721C28.253 22.8721 28.2567 22.8871 28.2455 22.9096C28.2118 22.962 28.3129 23.3665 28.3616 23.3852C28.384 23.3927 28.3953 23.4414 28.384 23.4901C28.3653 23.5949 28.4777 23.9582 28.5301 23.9582C28.5526 23.9582 28.5563 23.977 28.5451 23.9994C28.5151 24.0444 28.6387 24.52 28.6799 24.52C28.6949 24.52 28.6986 24.5537 28.6874 24.5912C28.6762 24.6324 28.6949 24.756 28.7286 24.8683C28.7623 24.9807 28.7885 25.1118 28.7885 25.153C28.7885 25.1979 28.8035 25.2316 28.826 25.2316C28.8447 25.2316 28.8522 25.2578 28.8372 25.2915C28.826 25.3215 28.841 25.4451 28.8747 25.5612C28.9084 25.6773 28.9458 25.8383 28.9571 25.9132C28.9683 25.9919 28.9908 26.0556 29.0095 26.0556C29.0245 26.0556 29.032 26.108 29.0207 26.1679C29.0132 26.2316 29.0207 26.2803 29.0432 26.2803C29.0619 26.2803 29.0806 26.3027 29.0769 26.3252C29.0694 26.5424 29.0919 26.6548 29.1481 26.6548C29.178 26.6548 29.193 26.6735 29.178 26.696C29.1518 26.7409 29.2717 27.3664 29.3091 27.3664C29.3203 27.3664 29.3316 27.4338 29.3353 27.5199C29.3353 27.6023 29.3503 27.681 29.3728 27.696C29.3915 27.7109 29.4065 27.7971 29.4102 27.8832C29.4102 27.9731 29.429 28.0593 29.4477 28.0705C29.4664 28.0855 29.4851 28.1454 29.4851 28.2091C29.4926 28.4076 29.5825 28.7896 29.62 28.7896C29.6387 28.7896 29.6424 28.8046 29.6312 28.827C29.62 28.8458 29.6499 29.0255 29.7024 29.224C29.7585 29.4225 29.7997 29.6135 29.7997 29.6547C29.7997 29.6922 29.8147 29.7259 29.8297 29.7259C29.8484 29.7259 29.8634 29.7558 29.8634 29.7895C29.8597 30.003 29.8784 30.1004 29.9233 30.1004C29.957 30.1004 29.9645 30.1453 29.957 30.2502C29.9458 30.3476 29.957 30.4 29.987 30.4C30.0132 30.4 30.0207 30.43 30.0057 30.4749C29.9945 30.5161 29.9945 30.5498 30.0132 30.5498C30.0282 30.5498 30.0469 30.6023 30.0469 30.6659C30.0507 30.7296 30.0656 30.7933 30.0844 30.8083C30.1031 30.8195 30.1181 30.9056 30.1218 30.9993C30.1256 31.209 30.2005 31.606 30.2379 31.6322C30.2566 31.6434 30.2716 31.7221 30.2716 31.8045C30.2754 31.8831 30.2941 31.958 30.3166 31.9655C30.3353 31.9693 30.3428 32.0105 30.3353 32.0517C30.3128 32.1378 30.4327 32.5723 30.4776 32.5723C30.4963 32.5723 30.5001 32.5985 30.4889 32.6284C30.4739 32.6621 30.4888 32.6846 30.5263 32.6846C30.5638 32.6846 30.575 32.7071 30.5638 32.7408C30.5488 32.7708 30.5563 32.797 30.5787 32.797C30.6012 32.797 30.6087 32.8307 30.5975 32.8719C30.5862 32.9168 30.5975 32.9468 30.6237 32.9468C30.6536 32.9468 30.6649 32.9805 30.6499 33.0554C30.6274 33.164 30.6536 33.2127 30.8896 33.5123C30.9458 33.5835 31.0694 33.7894 31.163 33.973C31.3278 34.2913 31.4177 34.4336 31.5974 34.6321C31.6424 34.6846 31.8409 34.9392 32.0356 35.2014C32.2341 35.4673 32.4102 35.6808 32.4289 35.6808C32.4514 35.6808 32.4551 35.5946 32.4401 35.4748C32.4176 35.2988 32.4214 35.2688 32.4738 35.2688C32.5337 35.2688 32.6611 35.3774 32.6723 35.4411C32.6761 35.4598 32.7697 35.6733 32.8858 35.913C33.0319 36.2201 33.148 36.4036 33.2753 36.5347C33.3764 36.6396 33.4813 36.7744 33.5075 36.8381C33.5337 36.9017 33.5637 36.9542 33.5787 36.9542C33.5936 36.9542 33.6011 37.0441 33.5974 37.1489C33.5899 37.3137 33.6049 37.3774 33.7023 37.5347C33.7659 37.6358 33.8296 37.7294 33.8408 37.7407C33.8558 37.7519 33.9307 37.9092 34.0094 38.0965C34.088 38.28 34.1816 38.4523 34.2116 38.4747C34.2416 38.4972 34.2566 38.5347 34.2416 38.5571C34.2266 38.5796 34.2491 38.6695 34.294 38.7594C34.3352 38.8455 34.3689 38.9391 34.3689 38.9654C34.3689 38.9953 34.3914 39.0253 34.4213 39.0365C34.4513 39.0478 34.4663 39.0852 34.455 39.1227C34.4476 39.1601 34.4625 39.2163 34.4962 39.2462C34.5262 39.28 34.5449 39.3137 34.5374 39.3211C34.5112 39.3436 34.7022 39.853 34.7397 39.868C34.7584 39.8754 34.7659 39.9091 34.7547 39.9466C34.7472 39.9841 34.7584 40.0365 34.7884 40.0664C34.8146 40.0964 34.8445 40.1601 34.852 40.2125C34.8558 40.2649 34.8745 40.3136 34.8895 40.3249C34.9007 40.3361 34.9157 40.3923 34.9195 40.456C34.9232 40.5159 34.9569 40.587 34.9906 40.6133C35.0281 40.6395 35.043 40.6844 35.0243 40.7331C35.0093 40.7818 35.0168 40.8117 35.043 40.8117C35.0655 40.8117 35.0768 40.8267 35.0618 40.8455C35.0505 40.8642 35.0655 40.9541 35.0955 41.044C35.1217 41.1338 35.1591 41.2499 35.1704 41.3099C35.1854 41.366 35.2116 41.411 35.2303 41.411C35.249 41.411 35.2565 41.4334 35.2453 41.4597C35.2041 41.5758 35.3015 42.0252 35.4063 42.175C35.4663 42.2611 35.5449 42.3922 35.5861 42.4671C35.6273 42.5458 35.6722 42.6095 35.691 42.6095C35.7059 42.6095 35.7134 42.6244 35.6985 42.6469C35.6872 42.6656 35.7097 42.7143 35.7546 42.7593C35.7958 42.8005 35.8295 42.8791 35.8295 42.9353C35.8295 43.0814 35.9456 43.4222 36.0243 43.5083C36.0617 43.5458 36.0917 43.5982 36.0917 43.6207C36.0917 43.6431 36.1142 43.6693 36.1404 43.6806C36.1704 43.6918 36.1816 43.748 36.1741 43.8454C36.1629 43.939 36.1741 43.9952 36.2003 43.9952C36.2228 43.9952 36.2415 44.0214 36.2415 44.0551C36.2415 44.0888 36.2715 44.16 36.3127 44.2124C36.3501 44.2686 36.4288 44.4109 36.485 44.527C36.5449 44.6469 36.6048 44.7442 36.6198 44.7442C36.6385 44.7442 36.6423 44.7704 36.631 44.8004C36.616 44.8304 36.6348 44.8641 36.6685 44.8791C36.7022 44.8903 36.7172 44.9165 36.7059 44.939C36.676 44.9839 36.7621 45.1937 36.8108 45.1937C36.8295 45.1937 36.8333 45.2086 36.822 45.2311C36.8108 45.2498 36.8183 45.2686 36.8408 45.2686C36.867 45.2686 36.8782 45.291 36.867 45.321C36.8557 45.3472 36.8745 45.4109 36.9082 45.4596C36.9868 45.5719 37.0355 46.3584 36.9681 46.4221C36.95 46.4376 36.9301 46.446 36.9158 46.446C36.9094 46.446 36.9042 46.4443 36.9007 46.4408C36.8967 46.4355 36.8927 46.433 36.8892 46.433C36.8829 46.433 36.8782 46.4413 36.8782 46.4558C36.8782 46.482 36.7022 46.5082 36.4325 46.5232C36.0805 46.5457 35.9906 46.5607 36.0056 46.6019C36.0173 46.634 35.9606 46.6456 35.7234 46.6456C35.6566 46.6456 35.5755 46.6447 35.4775 46.6431C35.0805 46.6393 34.9307 46.6243 34.9307 46.5906C34.9307 46.5644 34.9082 46.5307 34.8783 46.5157C34.7397 46.4333 34.5936 45.8753 34.5187 45.1375C34.4663 44.6132 34.4101 44.2611 34.3689 44.1637C34.3502 44.1225 34.3277 44.0289 34.3165 43.954C34.3015 43.8641 34.2565 43.7892 34.1816 43.733C34.088 43.6619 34.0693 43.6207 34.0693 43.4858C34.0693 43.3997 34.088 43.321 34.1067 43.3136C34.1966 43.2836 33.8895 42.8379 33.7809 42.8342C33.7547 42.8342 33.7322 42.8154 33.7322 42.7967C33.7322 42.7742 33.706 42.748 33.676 42.7368C33.6461 42.7218 33.5113 42.602 33.3764 42.4634C33.234 42.3186 33.1745 42.2612 33.1499 42.2612C33.1351 42.2612 33.133 42.2821 33.133 42.3173C33.133 42.3922 33.103 42.4372 33.0206 42.4784C32.9607 42.5121 32.9083 42.5533 32.9083 42.572C32.9083 42.5945 32.8596 42.6095 32.7959 42.6095C32.6985 42.6095 32.6836 42.5945 32.6836 42.5046C32.6836 42.3623 32.7922 42.0739 32.8558 42.0364C32.8858 42.0215 32.9083 41.9878 32.9083 41.9653C32.9083 41.9091 32.5675 41.411 32.5263 41.411C32.5113 41.411 32.4963 41.3885 32.4963 41.3623C32.4963 41.3398 32.4289 41.2424 32.3465 41.1488C32.2641 41.0552 32.1967 40.969 32.1967 40.9503C32.1967 40.9353 32.1817 40.9241 32.163 40.9241C32.1405 40.9241 32.1405 40.969 32.163 41.044C32.1817 41.1114 32.1967 41.22 32.1967 41.2874C32.1967 41.3511 32.2191 41.4297 32.2454 41.4559C32.2678 41.4821 32.2903 41.5982 32.2941 41.7106C32.2978 41.984 32.3764 42.5046 32.4176 42.5308C32.4626 42.5608 32.4626 43.9577 32.4176 43.9577C32.3989 43.9577 32.3839 44.0139 32.3839 44.0776C32.3839 44.2686 32.3427 44.3697 32.2716 44.3697C32.2004 44.3697 32.1405 44.1862 32.1068 43.8641C32.0881 43.6881 31.9682 42.9091 31.9045 42.5345C31.8371 42.1525 31.6499 41.6582 31.5076 41.4672C31.4863 41.4403 31.4731 41.4246 31.4657 41.424H31.4649C31.4537 41.4249 31.4573 41.4652 31.4664 41.5608C31.4776 41.6544 31.5113 41.9653 31.545 42.2537C31.6124 42.8716 31.6049 43.7705 31.5338 43.7705C31.5076 43.7705 31.4851 43.7929 31.4851 43.8192C31.4851 43.8454 31.4364 43.9053 31.3727 43.9577C31.3128 44.0102 31.2604 44.0701 31.2604 44.0926C31.2604 44.115 31.2079 44.145 31.1443 44.16C31.0806 44.1712 31.0394 44.1974 31.0544 44.2199C31.0656 44.2386 31.0431 44.2574 31.0019 44.2574C30.9008 44.2574 30.8072 44.2986 30.8297 44.3323C30.8409 44.3472 30.7885 44.3735 30.7173 44.3847C30.6462 44.3997 30.59 44.4296 30.5975 44.4559C30.6045 44.4888 30.5539 44.5099 30.4977 44.5099C30.4644 44.5099 30.4292 44.5025 30.4027 44.4858C30.3128 44.4296 30.2829 43.8828 30.3278 43.13C30.369 42.4259 30.3278 41.235 30.2492 40.9241C30.2342 40.8529 30.1743 40.5159 30.1181 40.1751C30.0619 39.8342 30.0057 39.4972 29.987 39.426C29.9683 39.3549 29.9346 39.1938 29.9083 39.0702C29.8821 38.9466 29.8409 38.7893 29.8147 38.7182C29.7914 38.6483 29.7801 38.6167 29.7672 38.6167C29.7573 38.6167 29.7465 38.6353 29.7286 38.6695C29.7061 38.7144 29.6986 38.7519 29.7136 38.7519C29.7286 38.7519 29.7211 38.7668 29.6949 38.7856C29.6686 38.8006 29.6424 38.853 29.6387 38.8942C29.6349 38.9391 29.62 38.9766 29.605 38.9766C29.575 38.9766 29.4851 39.2575 29.4814 39.3623C29.4814 39.3998 29.4589 39.441 29.429 39.4597C29.4027 39.4784 29.3915 39.5122 29.4027 39.5346C29.4177 39.5571 29.4027 39.6058 29.369 39.6395C29.3316 39.6769 29.3166 39.7331 29.3278 39.7818C29.3428 39.8417 29.3316 39.8754 29.2904 39.8904C29.2492 39.9054 29.2342 39.9429 29.2492 40.0103C29.2604 40.0739 29.2454 40.1151 29.2117 40.1264C29.178 40.1414 29.1668 40.1788 29.178 40.2312C29.193 40.2874 29.1818 40.3249 29.1443 40.3398C29.1144 40.3511 29.0881 40.4035 29.0881 40.456C29.0881 40.5084 29.0694 40.5496 29.0469 40.5496C29.0245 40.5496 29.017 40.5833 29.032 40.6245C29.0469 40.6657 29.0395 40.6994 29.017 40.6994C28.9945 40.6994 28.9758 40.7256 28.9758 40.7593C28.9758 40.7893 28.9496 40.8417 28.9196 40.8717C28.8896 40.9054 28.8634 40.9616 28.8634 41.0028C28.8634 41.0402 28.8447 41.0739 28.8222 41.0739C28.7998 41.0739 28.7885 41.0964 28.796 41.1189C28.8072 41.1451 28.781 41.1975 28.7436 41.2387C28.7061 41.2799 28.6799 41.3323 28.6874 41.3511C28.6949 41.3698 28.6687 41.4185 28.6312 41.4559C28.5938 41.4934 28.5638 41.557 28.5638 41.5982C28.5638 41.6394 28.5488 41.6731 28.5264 41.6731C28.5076 41.6731 28.4889 41.6956 28.4889 41.7181C28.4889 41.7443 28.444 41.808 28.3953 41.8567C28.3428 41.9053 28.2904 41.984 28.2792 42.0327C28.2679 42.0814 28.2417 42.1226 28.2192 42.1226C28.2005 42.1226 28.193 42.1376 28.208 42.1563C28.2193 42.1787 28.193 42.2125 28.1518 42.2349C28.1106 42.2574 28.0769 42.2986 28.0769 42.3286C28.0769 42.3585 28.0619 42.3847 28.0395 42.3847C28.0208 42.3847 28.002 42.411 28.002 42.4409C28.002 42.4709 27.987 42.4971 27.9646 42.4971C27.9458 42.4971 27.9271 42.5233 27.9271 42.5533C27.9271 42.5832 27.9121 42.6095 27.8897 42.6095C27.8709 42.6095 27.8634 42.6319 27.8747 42.6619C27.8859 42.6919 27.8634 42.7218 27.8148 42.733C27.7698 42.7443 27.7436 42.7705 27.7548 42.7892C27.7661 42.8117 27.7511 42.8379 27.7174 42.8492C27.6874 42.8604 27.6687 42.8866 27.6799 42.9016C27.6912 42.9203 27.6612 42.9765 27.6163 43.0252C27.5713 43.0739 27.5376 43.1263 27.5451 43.1413C27.5489 43.16 27.5376 43.1712 27.5151 43.1712C27.4964 43.1712 27.4777 43.1937 27.4777 43.2237C27.4777 43.2499 27.4515 43.2948 27.4178 43.3248C27.3841 43.3548 27.3691 43.4034 27.3803 43.4559C27.399 43.527 27.3841 43.5458 27.2867 43.5645C27.2593 43.5703 27.2335 43.5732 27.2107 43.5732C27.1744 43.5732 27.1455 43.5656 27.1294 43.5495C27.0994 43.5195 27.0769 43.1787 27.062 42.5608C27.047 42.0439 27.032 41.5758 27.032 41.5233C27.0283 41.4709 27.0133 41.4035 26.9908 41.3735C26.9812 41.357 26.9715 41.348 26.9588 41.348C26.9372 41.348 26.9067 41.3743 26.8522 41.4335C26.7961 41.4971 26.6987 41.572 26.635 41.602C26.5751 41.632 26.489 41.6844 26.4515 41.7181C26.4103 41.7555 26.3466 41.7855 26.3092 41.7855C26.2717 41.7855 26.2418 41.8005 26.2418 41.8155C26.2418 41.8529 26.0171 41.9353 25.9197 41.9353C25.8186 41.9316 25.68 41.808 25.68 41.7181C25.68 41.6769 25.6088 41.5121 25.5227 41.3511C25.1332 40.6245 25.0021 40.3698 24.9459 40.2387C24.9122 40.1638 24.8635 40.1002 24.8336 40.1002C24.7774 40.1002 24.7774 40.1039 24.7624 40.25C24.7587 40.2987 24.7324 40.3473 24.71 40.3548C24.6875 40.3623 24.6688 40.3998 24.6688 40.4372C24.6688 40.4747 24.6426 40.5346 24.6088 40.5646C24.5789 40.5983 24.5639 40.6395 24.5751 40.6619C24.5864 40.6807 24.5714 40.6994 24.5377 40.6994C24.504 40.6994 24.489 40.7181 24.5002 40.7406C24.5152 40.7631 24.4927 40.8118 24.4478 40.8529C24.4029 40.8941 24.3692 40.9616 24.3692 40.999C24.3692 41.0402 24.3542 41.0739 24.3317 41.0739C24.313 41.0739 24.2943 41.0964 24.2943 41.1226C24.2943 41.1526 24.2605 41.2125 24.2193 41.2612C24.1781 41.3099 24.1407 41.366 24.1407 41.3885C24.137 41.411 24.1332 41.4559 24.1295 41.4859C24.1295 41.5137 24.1102 41.535 24.0865 41.535C24.0846 41.535 24.0827 41.5349 24.0808 41.5346C24.0773 41.5336 24.0741 41.5331 24.0712 41.5331C24.052 41.5331 24.0448 41.5535 24.0546 41.5795C24.0695 41.6132 24.0508 41.6469 24.0134 41.6582C23.9797 41.6731 23.9609 41.7069 23.9722 41.7331C23.9834 41.763 23.9759 41.7855 23.9534 41.7855C23.9085 41.7855 23.7961 42.0402 23.8261 42.0814C23.8373 42.1001 23.8186 42.1226 23.7886 42.1376C23.7587 42.1488 23.7325 42.1937 23.7325 42.2349C23.7325 42.2761 23.7175 42.3098 23.6988 42.3098C23.68 42.3098 23.6688 42.3398 23.6725 42.3735C23.6763 42.4222 23.6426 42.4447 23.5602 42.4522C23.5387 42.4542 23.5211 42.4559 23.5067 42.4559C23.4433 42.4559 23.4399 42.4231 23.4216 42.2462C23.4066 42.1263 23.3804 41.9091 23.3579 41.7668C23.2868 41.3061 23.2531 41.0327 23.1894 40.3623C23.0284 38.6433 22.916 37.1452 22.8711 36.1602C22.8523 35.7557 22.8149 35.2501 22.7924 35.0366C22.7662 34.8269 22.74 34.0217 22.7325 33.2539C22.7175 32.0816 22.7063 31.8607 22.6613 31.8607C22.6314 31.8607 22.6089 31.8869 22.6089 31.9168C22.6089 31.9468 22.5827 31.973 22.549 31.973C22.5115 31.973 22.4965 31.9955 22.5115 32.0292C22.5228 32.0667 22.5078 32.0854 22.4591 32.0854C22.4216 32.0854 22.3655 32.1078 22.3392 32.1341C22.313 32.1603 22.2606 32.194 22.2194 32.209C22.1782 32.2239 22.1595 32.2576 22.1745 32.2914C22.1894 32.3325 22.167 32.3475 22.1033 32.3475C22.0359 32.3475 22.0172 32.3625 22.0321 32.4037C22.0509 32.4449 22.0284 32.4599 21.9572 32.4599C21.8898 32.4599 21.8673 32.4749 21.8823 32.5161C21.8973 32.5498 21.8823 32.5723 21.8486 32.5723C21.8187 32.5723 21.7962 32.6022 21.7999 32.6359C21.7999 32.671 21.7868 32.6962 21.7667 32.6962C21.7653 32.6962 21.7639 32.6961 21.7625 32.6958C21.7606 32.6956 21.7587 32.6954 21.757 32.6954C21.7342 32.6954 21.7216 32.7173 21.725 32.752C21.7288 32.7895 21.7026 32.8157 21.6539 32.8157C21.6127 32.8157 21.5827 32.8382 21.5902 32.8644C21.5939 32.8906 21.5752 32.9205 21.5453 32.9318C21.5153 32.943 21.5003 32.9767 21.5115 33.0067C21.5265 33.0441 21.5041 33.0591 21.4329 33.0591C21.3655 33.0591 21.343 33.0741 21.358 33.1153C21.373 33.1528 21.358 33.1715 21.3018 33.1715C21.2494 33.1715 21.2307 33.1902 21.2456 33.2277C21.2606 33.2614 21.2344 33.2988 21.1707 33.3288C21.1146 33.3513 21.0771 33.3924 21.0883 33.4187C21.0958 33.4411 21.0696 33.5011 21.0247 33.5498C20.9797 33.5984 20.9423 33.6621 20.9348 33.6921C20.931 33.722 20.8786 33.7932 20.8187 33.8456C20.7588 33.8981 20.7101 33.9542 20.7063 33.9692C20.7029 34.003 20.5471 34.1313 20.5167 34.1313C20.5134 34.1313 20.5116 34.1298 20.5116 34.1265C20.5116 34.1246 20.5108 34.1236 20.5094 34.1236C20.4997 34.1236 20.4593 34.1657 20.4105 34.2276C20.2606 34.4112 20.0472 34.6321 20.0172 34.6321C20.0022 34.6321 19.9573 34.6546 19.9236 34.6846C19.594 34.9542 19.5228 35.0179 19.5378 35.0216C19.5715 35.0291 19.373 35.2314 19.3281 35.2314C19.3056 35.2314 19.2757 35.2576 19.2607 35.2875C19.2494 35.3175 19.2157 35.3437 19.182 35.3437C19.1521 35.3437 19.1258 35.3587 19.1258 35.3812C19.1258 35.3999 19.0996 35.4186 19.0697 35.4186C19.0397 35.4186 19.0135 35.4336 19.0135 35.4561C19.0135 35.4748 18.9873 35.4935 18.9573 35.4935C18.9273 35.4935 18.9011 35.5123 18.9011 35.531C18.9011 35.5535 18.8599 35.5872 18.8112 35.6059C18.7626 35.6246 18.7101 35.6733 18.6951 35.7145C18.6839 35.7594 18.6539 35.7931 18.6352 35.7931C18.6165 35.7931 18.6015 35.8343 18.6015 35.8868C18.6015 35.9392 18.6202 35.9804 18.6427 35.9804C18.6652 35.9804 18.6727 36.0066 18.6614 36.0403C18.6465 36.074 18.6539 36.1227 18.6764 36.1489C18.77 36.265 18.8974 36.5497 18.9199 36.707C18.9348 36.8044 18.9948 36.9504 19.0547 37.0403C19.1146 37.1264 19.1633 37.2201 19.1633 37.2425C19.1633 37.2688 19.1745 37.2912 19.1933 37.2912C19.2082 37.2912 19.2232 37.3362 19.227 37.3886C19.227 37.4448 19.2457 37.4972 19.2644 37.5122C19.3131 37.5459 19.3019 37.7519 19.2457 37.8118C19.2195 37.838 19.2045 37.8867 19.2157 37.9129C19.227 37.9429 19.2195 37.9654 19.2007 37.9654C19.1783 37.9654 19.1633 37.9916 19.1633 38.0216C19.1633 38.0515 19.1745 38.0777 19.1933 38.0777C19.2307 38.0777 19.227 38.7257 19.1895 38.7556C19.1708 38.7669 19.1521 38.9204 19.1446 39.0927C19.1371 39.2725 19.1146 39.411 19.0921 39.4185C19.036 39.4372 19.0397 39.5871 19.0959 39.6432C19.1221 39.6694 19.167 39.6882 19.2007 39.6882C19.3468 39.6882 19.3655 39.838 19.3094 40.6133C19.3056 40.6582 19.2719 40.6994 19.2307 40.7106C19.1895 40.7219 19.167 40.7481 19.1783 40.7705C19.1933 40.7893 19.1745 40.823 19.1408 40.8417C19.0547 40.8904 19.006 41.3548 19.0734 41.4934C19.1034 41.5495 19.1258 41.6582 19.1258 41.7331C19.1258 41.9728 19.2045 42.351 19.2607 42.3735C19.2906 42.3847 19.3019 42.4072 19.2944 42.4259C19.2569 42.4859 19.3243 42.8454 19.3843 42.9053C19.418 42.939 19.4479 43.0252 19.4554 43.0963C19.4629 43.2237 19.5191 43.5083 19.5715 43.6956C19.5903 43.7667 19.6314 43.7967 19.755 43.8229C19.8786 43.8491 19.9123 43.8716 19.9123 43.9315C19.9123 44.0289 19.8299 44.2574 19.7962 44.2574C19.7813 44.2574 19.7588 44.4933 19.7438 44.7817C19.7213 45.1899 19.7063 45.306 19.6652 45.306C19.6352 45.306 19.579 45.3397 19.5378 45.3809C19.5006 45.4181 19.4608 45.44 19.4354 45.44C19.4302 45.44 19.4256 45.439 19.4217 45.4371C19.4154 45.4331 19.402 45.4313 19.3834 45.4313C19.2806 45.4313 19.0199 45.4869 18.9311 45.5345C18.8936 45.5532 18.7888 45.5682 18.6951 45.5682C18.5528 45.5682 18.5079 45.5495 18.433 45.4633C18.3948 45.4193 18.3589 45.3937 18.3452 45.3937C18.3414 45.3937 18.3393 45.3956 18.3393 45.3997C18.3393 45.4221 18.2757 45.4408 18.2008 45.4446C18.006 45.4446 17.7401 45.497 17.7401 45.5307C17.7401 45.5457 17.6278 45.5682 17.4929 45.5794C17.3543 45.5907 17.2345 45.6131 17.2195 45.6319C17.2083 45.6543 17.0697 45.6805 16.9162 45.6955C16.7626 45.7068 16.6278 45.7405 16.609 45.7667C16.5903 45.7985 16.154 45.8144 15.7177 45.8144C15.2814 45.8144 14.8451 45.7985 14.8263 45.7667C14.8113 45.7405 14.6952 45.7105 14.5754 45.6955C14.4518 45.6805 14.3282 45.6468 14.302 45.6169C14.2758 45.5907 14.2009 45.5682 14.1409 45.5682C14.0061 45.5682 13.9874 45.5045 14.0061 45.0925C14.0174 44.8116 14.0286 44.7742 14.1222 44.6881C14.1896 44.6244 14.2645 44.5944 14.3582 44.5944C14.6466 44.5944 15.4106 44.4184 15.493 44.3323C15.5042 44.321 15.5716 44.2723 15.6503 44.2199C15.7252 44.1712 15.8151 44.0813 15.8488 44.0214C15.8862 43.9615 15.9948 43.8753 16.1147 43.8192C16.3207 43.7218 16.5042 43.5682 16.5042 43.4933C16.5042 43.4559 16.5379 43.4222 16.6727 43.3285C16.8038 43.2424 16.9311 42.9465 16.8413 42.9465C16.8225 42.9465 16.8038 42.9016 16.8038 42.8417C16.8038 42.6432 16.7289 42.4596 16.654 42.4596C16.5641 42.4596 16.5529 42.3286 16.624 42.1376C16.6802 41.984 16.6203 41.823 16.5042 41.823C16.463 41.823 16.3619 41.7967 16.2795 41.763C16.2083 41.7349 16.169 41.7209 16.1395 41.7209C16.11 41.7209 16.0903 41.7349 16.0585 41.763C16.0136 41.8042 15.9237 41.823 15.7814 41.823C15.5829 41.823 15.5679 41.8155 15.5679 41.7368C15.5716 41.632 15.7926 41.4859 15.9536 41.4859C16.0885 41.4821 16.1634 41.4372 16.257 41.2949C16.3169 41.1975 16.3169 41.1938 16.1858 41.0215C16.1147 40.9279 16.0548 40.8342 16.0548 40.8155C16.0548 40.8005 16.0211 40.6882 15.9761 40.5646C15.8525 40.205 15.7926 39.6994 15.83 39.2762C15.8488 39.0777 15.845 39.0702 15.7551 39.059C15.7027 39.0515 15.6241 39.0103 15.5791 38.9654C15.5356 38.9278 15.513 38.909 15.4914 38.909C15.4721 38.909 15.4536 38.924 15.4218 38.9541C15.3797 38.9912 15.3442 39.0071 15.2709 39.0071C15.2333 39.0071 15.1857 39.0029 15.1222 38.9953C14.92 38.9728 14.8937 38.9579 14.8937 38.8867C14.8937 38.782 15.1377 38.6447 15.3043 38.6447C15.3165 38.6447 15.3282 38.6455 15.3394 38.647C15.3591 38.65 15.3763 38.6517 15.3919 38.6517C15.4536 38.6517 15.4901 38.6259 15.5529 38.5571C15.6615 38.4223 15.6615 38.426 15.5679 38.1826C15.4668 37.9167 15.4668 37.7407 15.5679 37.7407C15.6091 37.7407 15.6428 37.7594 15.6428 37.7819C15.6428 37.7954 15.6506 37.8051 15.6621 37.8051C15.6665 37.8051 15.6713 37.8037 15.6765 37.8006C15.7364 37.7631 15.6765 37.6283 15.5641 37.5497C15.4742 37.486 15.4555 37.4448 15.4555 37.3175C15.4555 37.2126 15.4817 37.1377 15.5342 37.0815C15.5978 37.0141 15.6091 36.9691 15.5866 36.8456C15.5716 36.7594 15.5454 36.6845 15.5267 36.6695C15.508 36.6583 15.493 36.6171 15.493 36.5759C15.493 36.5384 15.478 36.471 15.4555 36.4298C15.4368 36.3886 15.4031 36.3212 15.3806 36.28C15.3115 36.1443 15.3379 36.06 15.4096 36.06C15.4506 36.06 15.5065 36.0876 15.5679 36.1489C15.6203 36.2014 15.6952 36.2763 15.7364 36.3212C15.7658 36.3506 15.7876 36.3668 15.802 36.3668C15.839 36.3668 15.8278 36.2605 15.7739 35.9991C15.6802 35.5572 15.7102 34.8681 15.8413 34.501C15.89 34.355 15.9761 34.1153 16.0323 33.9617C16.0847 33.8082 16.1297 33.6434 16.1297 33.5947C16.1297 33.546 16.1821 33.3662 16.2458 33.1977C16.4106 32.7595 16.4443 32.6846 16.4742 32.6846C16.4855 32.6846 16.5079 32.6359 16.5229 32.5723C16.5379 32.5123 16.5641 32.4599 16.5828 32.4599C16.6016 32.4599 16.6165 32.4374 16.6165 32.4075C16.6165 32.3775 16.6353 32.3475 16.6615 32.34C16.6877 32.3288 16.7064 32.2239 16.7064 32.0479C16.7102 31.8644 16.7251 31.767 16.7589 31.7558C16.7813 31.7483 16.8038 31.7258 16.8038 31.7071C16.8038 31.6622 16.9424 31.5236 16.9911 31.5236C17.0135 31.5236 17.0285 31.5011 17.0285 31.4749C17.0285 31.4187 17.1933 31.2614 17.2495 31.2614C17.272 31.2614 17.2907 31.2352 17.2907 31.2052C17.2907 31.1753 17.3169 31.1491 17.3469 31.1491C17.3768 31.1491 17.403 31.1229 17.403 31.0929C17.403 31.0629 17.4292 31.0367 17.4592 31.0367C17.4892 31.0367 17.5154 31.0105 17.5154 30.9805C17.5154 30.9506 17.5491 30.9244 17.5903 30.9244C17.6315 30.9244 17.6652 30.8981 17.6652 30.8682C17.6652 30.8382 17.6914 30.812 17.7214 30.812C17.7513 30.812 17.7776 30.7895 17.7776 30.7633C17.7776 30.7071 17.9423 30.5498 17.9985 30.5498C18.021 30.5498 18.0397 30.5236 18.0397 30.4937C18.0397 30.4637 18.0659 30.4375 18.0959 30.4375C18.1259 30.4375 18.1521 30.4188 18.1521 30.4C18.1521 30.3776 18.2195 30.2952 18.3019 30.2128C18.3843 30.1304 18.4517 30.048 18.4517 30.033C18.4517 30.018 18.5004 29.9618 18.5641 29.9131C18.624 29.8607 18.6727 29.797 18.6764 29.7708C18.6764 29.7483 18.6951 29.7259 18.7139 29.7259C18.7626 29.7259 18.9011 29.5873 18.9011 29.5386C18.9011 29.5161 18.9273 29.5012 18.9573 29.5012C18.9873 29.5012 19.0135 29.4749 19.0135 29.445C19.0135 29.415 19.0397 29.3888 19.0697 29.3888C19.0996 29.3888 19.1258 29.3663 19.1258 29.3401C19.1258 29.2839 19.2906 29.1266 19.3468 29.1266C19.3693 29.1266 19.388 29.1004 19.388 29.0705C19.388 29.0405 19.4142 29.0143 19.4442 29.0143C19.4741 29.0143 19.5004 28.9881 19.5004 28.9581C19.5004 28.9281 19.5266 28.9019 19.5565 28.9019C19.5865 28.9019 19.6127 28.8757 19.6127 28.8458C19.6127 28.8158 19.6464 28.7896 19.6876 28.7896C19.7288 28.7896 19.7625 28.7634 19.7625 28.7334C19.7625 28.7034 19.7887 28.6772 19.8187 28.6772C19.8487 28.6772 19.8899 28.6435 19.9123 28.6023C19.9348 28.5611 19.976 28.5274 20.0022 28.5274C20.0322 28.5274 20.0621 28.5012 20.0771 28.4712C20.0884 28.4413 20.1296 28.4151 20.1708 28.4151C20.2082 28.4151 20.2494 28.3888 20.2644 28.3589C20.2756 28.3289 20.3093 28.3027 20.343 28.3027C20.4891 28.3027 20.6089 28.0405 20.5078 27.9394C20.4554 27.887 20.4442 27.1454 20.4966 27.1117C20.5153 27.0967 20.5528 27.0406 20.5752 26.9806C20.6015 26.9245 20.6389 26.8795 20.6614 26.8795C20.6801 26.8795 20.6988 26.8533 20.6988 26.8233C20.6988 26.7934 20.6839 26.7672 20.6614 26.7672C20.6427 26.7672 20.6239 26.7409 20.6239 26.711C20.6239 26.6773 20.5977 26.6436 20.5678 26.6323C20.5378 26.6173 20.4928 26.5349 20.4704 26.4413C20.4439 26.3422 20.4175 26.2926 20.3885 26.2926C20.3846 26.2926 20.3807 26.2935 20.3767 26.2953C20.3703 26.2974 20.3645 26.2984 20.3592 26.2984C20.3366 26.2984 20.3243 26.2792 20.3243 26.2428C20.3243 26.1829 20.2981 26.1679 20.1932 26.1679C20.1033 26.1679 20.0621 26.1492 20.0621 26.1155C20.0621 26.0144 20.1071 25.9432 20.1745 25.9432C20.212 25.9432 20.2494 25.9132 20.2606 25.872C20.2831 25.7859 20.2269 25.681 20.1558 25.681C20.0846 25.681 20.0547 25.505 20.0659 25.1455C20.0696 24.9769 20.0584 24.7073 20.0434 24.5462L20.0135 24.2579H20.1333C20.212 24.2579 20.2494 24.2766 20.2494 24.314C20.2494 24.344 20.2644 24.3702 20.2831 24.3702C20.3018 24.3702 20.3468 24.3814 20.3767 24.3927C20.3912 24.3982 20.402 24.4011 20.4094 24.4011C20.4272 24.4011 20.4263 24.3846 20.4105 24.3477C20.3992 24.3065 20.3767 24.2691 20.3655 24.2579C20.3056 24.2092 20.2494 24.0107 20.2494 23.8459C20.2494 23.5912 20.1445 23.2054 20.0472 23.1156C19.9123 22.9845 19.7775 22.7485 19.7251 22.5425C19.6951 22.4377 19.6614 22.3478 19.6427 22.3478C19.6277 22.3478 19.6127 22.3028 19.6127 22.2429C19.6127 22.1867 19.594 22.0781 19.5715 21.9995C19.5416 21.8909 19.5153 21.8609 19.4479 21.8609C19.3992 21.8609 19.3506 21.8347 19.3356 21.8047C19.3243 21.7748 19.2869 21.7486 19.2569 21.7486C19.2232 21.7486 19.1708 21.7223 19.1371 21.6924C19.1079 21.6615 19.0669 21.6471 19.0321 21.6471C18.9911 21.6471 18.9587 21.6671 18.9648 21.7036C18.9755 21.7551 18.8303 21.7797 18.6679 21.7797C18.4879 21.7797 18.2867 21.7495 18.2532 21.6924C18.2382 21.6624 18.197 21.6362 18.1708 21.6362C18.1408 21.6362 18.1146 21.6212 18.1146 21.6062C18.1146 21.5409 17.7965 21.4908 17.562 21.4908C17.4466 21.4908 17.3515 21.5029 17.3244 21.5313C17.3003 21.5584 17.223 21.571 17.0807 21.571C17.046 21.571 17.0075 21.5702 16.9648 21.5688C16.9071 21.5658 16.8583 21.5644 16.818 21.5644C16.7043 21.5644 16.6589 21.5756 16.6727 21.595C16.6877 21.6212 16.654 21.6362 16.5828 21.6362C16.5042 21.6362 16.4667 21.6549 16.4667 21.6924C16.4667 21.7223 16.4517 21.7486 16.4293 21.7486C16.4105 21.7486 16.3918 21.7897 16.3918 21.8347C16.3918 21.8834 16.3806 21.9358 16.3656 21.9508C16.3469 21.9658 16.3356 21.9957 16.3356 22.0182C16.3356 22.0411 16.2353 22.0526 16.0496 22.0526C16.0231 22.0526 15.9948 22.0524 15.9649 22.0519C15.5866 22.0444 15.493 22.0107 15.493 21.8796C15.493 21.7823 15.3769 21.6362 15.302 21.6362C15.2608 21.6362 15.2308 21.6175 15.2308 21.5987C15.2308 21.5763 15.1934 21.5613 15.1484 21.5613C14.9612 21.5613 14.8563 21.3029 14.9949 21.168C15.0473 21.1156 15.0473 21.1006 15.0023 21.0707C14.9724 21.0519 14.9274 21.037 14.9012 21.037C14.875 21.037 14.8338 21.0182 14.8076 20.9995C14.7814 20.977 14.7177 20.9283 14.6615 20.8834C14.5529 20.8048 14.5304 20.7074 14.5941 20.5838C14.6278 20.5201 14.6765 20.5126 14.9874 20.5126C15.2008 20.5126 15.3432 20.4976 15.3432 20.4752C15.3432 20.4527 15.2982 20.4377 15.2458 20.4377C15.1934 20.4377 15.1222 20.4115 15.0922 20.3778C15.0609 20.3465 15.0241 20.3333 14.9666 20.3333C14.9416 20.3333 14.9128 20.3358 14.8788 20.3403C14.8448 20.3448 14.8102 20.3469 14.7794 20.3469C14.7322 20.3469 14.6939 20.3419 14.6803 20.3329C14.6016 20.2842 14.5829 20.0894 14.6466 20.007C14.6889 19.9484 14.7284 19.9351 14.955 19.9351C14.9889 19.9351 15.0269 19.9354 15.0698 19.9359C15.272 19.9396 15.5042 19.9621 15.5829 19.9808C15.631 19.9948 15.6781 20.0024 15.7206 20.0024C15.7575 20.0024 15.791 19.9967 15.8188 19.9845C15.8675 19.9658 16.0922 19.9508 16.3169 19.9508C16.639 19.9508 16.7589 19.9658 16.8974 20.0257C17.0072 20.073 17.1044 20.0964 17.2082 20.0964C17.3097 20.0964 17.4175 20.074 17.5491 20.0295C17.6652 19.992 17.8075 19.9471 17.8637 19.9359C17.9236 19.9209 18.0098 19.8684 18.0547 19.8198C18.1034 19.7673 18.1671 19.7261 18.2008 19.7261C18.2345 19.7261 18.2719 19.7074 18.2832 19.6887C18.2981 19.6662 18.3955 19.6512 18.5004 19.6512C18.5115 19.6514 18.5226 19.6515 18.5337 19.6515C18.7614 19.6515 18.976 19.6154 18.976 19.5726C18.976 19.5538 19.0434 19.5276 19.1258 19.5164C19.2082 19.5014 19.2756 19.4789 19.2756 19.4602C19.2756 19.4415 19.3168 19.4265 19.3693 19.4265C19.4442 19.4265 19.4629 19.4452 19.4629 19.5126C19.4629 19.6 19.4735 19.6301 19.5282 19.6301C19.5462 19.6301 19.569 19.6268 19.5977 19.6213C19.6839 19.6063 19.6914 19.5913 19.6689 19.4752C19.6502 19.3703 19.6614 19.3254 19.7251 19.258C19.77 19.2093 19.8187 19.1119 19.8374 19.037C19.8637 18.9172 19.8524 18.8872 19.7288 18.7449C19.6539 18.6587 19.5678 18.5614 19.5378 18.5277C19.4816 18.4715 19.3056 18.1232 19.197 17.8535C19.1296 17.6887 19.1296 17.1194 19.197 16.861C19.2831 16.5165 19.403 16.1494 19.4704 16.0258C19.5079 15.9584 19.5378 15.8835 19.5378 15.8611C19.5378 15.8386 19.5902 15.7225 19.6502 15.5989C19.7138 15.479 19.7625 15.3554 19.7625 15.3255C19.7625 15.2955 19.7775 15.2693 19.7962 15.2693C19.815 15.2693 19.8449 15.2319 19.8562 15.1832C19.8711 15.1382 19.9311 15.0221 19.9872 14.9285C20.0846 14.7712 20.0959 14.7113 20.1333 14.1233C20.1558 13.775 20.1895 13.4304 20.2082 13.3592C20.2269 13.2881 20.2606 13.1008 20.2869 12.9473C20.3093 12.7937 20.3468 12.6289 20.3655 12.5802C20.3842 12.5315 20.3992 12.4604 20.3992 12.4154C20.3992 12.348 20.5078 11.9773 20.5865 11.7675C20.6052 11.7263 20.6389 11.6327 20.6651 11.5615C20.7063 11.4417 20.9947 10.8387 21.137 10.5691C21.3056 10.2582 21.6688 9.89491 21.9909 9.71889C22.2044 9.60278 22.2344 9.59904 22.6089 9.59904C22.8786 9.59904 23.0546 9.61776 23.1707 9.65896C23.2643 9.69267 23.4104 9.73761 23.4928 9.76008C23.6126 9.79004 23.7325 9.88368 23.9984 10.1496C24.1931 10.3368 24.3504 10.5091 24.3504 10.5316C24.3542 10.5878 24.5976 11.0559 24.6351 11.0672C24.65 11.0747 24.6538 11.1046 24.6426 11.1346C24.6238 11.1908 24.8111 11.6739 24.8673 11.7151C24.886 11.7301 24.8935 11.76 24.8785 11.7825C24.8635 11.805 24.8748 11.8686 24.9047 11.9248C24.9497 12.0147 25.0208 12.3855 25.0508 12.6851C25.062 12.7638 25.0807 12.7787 25.1931 12.7787C25.2643 12.7787 25.3579 12.7937 25.4028 12.8087C25.418 12.8137 25.4307 12.8167 25.4419 12.8167C25.4806 12.8167 25.5016 12.7813 25.5452 12.6739C25.5789 12.5877 25.6051 12.4866 25.6051 12.4529C25.6051 12.4192 25.6238 12.378 25.6425 12.3668C25.665 12.3555 25.68 12.2769 25.68 12.1945C25.68 12.0522 25.6837 12.0484 25.8111 12.0484C25.901 12.0484 25.9571 12.0746 25.9983 12.1308C26.032 12.1795 26.0994 12.2731 26.1481 12.3405L26.2343 12.4679L26.3317 12.3218C26.3878 12.2394 26.4627 12.0784 26.5039 11.9623C26.6163 11.6439 26.7624 11.3518 26.8672 11.2394C26.9243 11.1766 26.9597 11.1552 27.0214 11.1552C27.0406 11.1552 27.0624 11.1572 27.0882 11.1608C27.1144 11.165 27.1359 11.1677 27.1547 11.1677C27.2191 11.1677 27.2522 11.1361 27.3391 11.026C27.4964 10.8237 27.5526 10.6552 27.5526 10.3706C27.5526 10.1309 27.4702 9.75259 27.399 9.66645C27.3766 9.64023 27.3204 9.60653 27.2792 9.59155C27.1519 9.5541 27.0657 9.46046 27.0657 9.36309C27.0657 9.31815 27.047 9.27695 27.0245 9.27695C26.9983 9.27695 26.9908 9.20579 27.0095 9.05973C27.0208 8.94362 27.0395 8.65899 27.0507 8.42678C27.0695 8.02604 27.0657 8.00731 26.9871 7.96612C26.9122 7.92492 26.9084 7.90245 26.9309 7.67399C26.9459 7.53917 26.9871 7.36314 27.0245 7.277C27.0882 7.13842 27.0919 7.07476 27.062 6.67402C27.0432 6.42683 27.002 6.12347 26.9683 5.99988C26.8672 5.61786 26.8635 5.53172 26.9346 5.47929C27.0283 5.41187 26.9946 5.20589 26.8298 4.85758C26.7586 4.70403 26.68 4.48306 26.65 4.3707C26.6238 4.25834 26.5901 4.14973 26.5713 4.12726C26.5564 4.10854 26.5414 4.02614 26.5414 3.94C26.5414 3.85761 26.5114 3.62915 26.4777 3.4344C26.3916 2.93628 26.3729 2.42318 26.4365 2.38199C26.4689 2.36137 26.5071 2.35118 26.5474 2.35118C26.6097 2.35118 26.677 2.37546 26.7361 2.42319C26.8335 2.49809 26.9159 2.78647 26.9159 3.06362C26.9159 3.14227 26.9384 3.22841 26.9646 3.25463C26.9871 3.28085 27.0095 3.33702 27.0095 3.37822C27.0095 3.42691 27.0395 3.45687 27.0882 3.46436C27.091 3.4647 27.0939 3.46487 27.0969 3.46487C27.1915 3.46487 27.3468 3.29196 27.4739 3.04864C27.5863 2.83141 27.6312 2.77898 27.7698 2.69659C27.8897 2.62168 27.8897 2.62168 27.8148 2.55427C27.7736 2.51681 27.7399 2.43817 27.7399 2.37824C27.7399 2.28461 27.7511 2.27338 27.8635 2.27338C27.9271 2.27338 28.017 2.29959 28.0545 2.32956C28.1013 2.36513 28.1303 2.38292 28.156 2.38292C28.1818 2.38292 28.2043 2.36513 28.238 2.32956C28.3016 2.26588 28.2679 2.06739 28.1631 1.91009C28.1331 1.8614 28.1031 1.73407 28.0994 1.6292C28.0957 1.45317 28.1031 1.4307 28.1743 1.41947C28.1791 1.41878 28.184 1.41844 28.1889 1.41844C28.2371 1.41844 28.2877 1.45154 28.3353 1.50935C28.3684 1.5507 28.3903 1.57277 28.4019 1.57277C28.4216 1.57277 28.4107 1.50767 28.3728 1.36329C28.3166 1.13483 28.3728 1 28.5264 1Z" fill="white"/>
</svg>
