<svg width="50" height="50" viewBox="0 0 50 50" fill="none" xmlns="http://www.w3.org/2000/svg">
<rect width="50" height="50" rx="2" fill="black"/>
<path d="M14.0164 19.7402C14.0374 19.7402 14.0562 19.7542 14.0886 19.7828C14.1821 19.8688 14.1708 19.9062 14.0549 19.9062C13.8828 19.9062 13.8342 19.8501 13.9352 19.779C13.9738 19.7533 13.9962 19.7402 14.0164 19.7402ZM17.8026 33.502L17.8139 33.5955C17.8213 33.6479 17.8064 33.7339 17.7877 33.7825L17.7503 33.876V33.7825C17.7465 33.7302 17.7615 33.6479 17.7765 33.5955L17.8026 33.502ZM26.2286 37.8753C26.2313 37.8753 26.234 37.8762 26.2369 37.8781C26.2594 37.8893 26.2743 37.9342 26.2743 37.9716C26.2743 38.0128 26.3042 38.095 26.3454 38.1586C26.4164 38.2746 26.4164 38.2783 26.3267 38.3643C26.2781 38.413 26.2294 38.499 26.2145 38.5588C26.1845 38.686 26.0948 38.7945 26.0237 38.7945C25.9901 38.7945 25.9788 38.7683 25.9901 38.7272C25.9975 38.6935 26.0162 38.6075 26.0312 38.5401C26.0462 38.4766 26.0686 38.4205 26.0836 38.4205C26.0985 38.4205 26.1097 38.3569 26.1097 38.2821C26.1097 38.2073 26.1284 38.1399 26.1546 38.1287C26.1808 38.1212 26.1995 38.0577 26.1995 37.9866C26.1995 37.9181 26.2109 37.8753 26.2286 37.8753ZM24.2472 3C24.1727 3 24.1107 3.0057 24.0975 3.01897C24.09 3.03018 23.9516 3.07133 23.7983 3.10873C23.4729 3.19476 23.1998 3.32193 22.938 3.51642C22.7061 3.68847 22.463 4.06624 21.9917 4.9639C21.6813 5.55486 21.685 5.54364 21.5504 5.93636C21.4344 6.26177 21.1838 6.75174 20.8771 7.23423C20.75 7.4362 20.6003 7.67184 20.5442 7.76161C20.4694 7.87756 20.4433 7.97106 20.4433 8.11693C20.4395 8.34508 20.5031 8.50218 20.6826 8.71163C20.8061 8.8575 20.8061 8.86124 20.7425 8.95849L20.6789 9.05948L20.447 8.8201C20.1135 8.47743 19.8976 8.34499 19.6336 8.34499C19.5748 8.34499 19.5137 8.35153 19.4483 8.36379C19.1865 8.41241 18.8948 8.76774 18.6218 9.36618C18.5432 9.54571 18.4572 9.69532 18.431 9.69532C18.4086 9.69532 18.3076 9.65792 18.2066 9.61677C18.0728 9.55777 17.8822 9.52773 17.7141 9.52773C17.5625 9.52773 17.4293 9.55216 17.3725 9.60181C17.2528 9.70654 17.1107 10.0432 17.1107 10.2152C17.1107 10.3162 17.0845 10.3798 17.0172 10.4434C16.8526 10.5967 16.8077 10.7388 16.7853 11.1353C16.7554 11.8048 16.8564 12.4631 17.0396 12.7848C17.1182 12.9232 17.5109 13.3346 17.84 13.6226C18.0532 13.8133 18.6367 14.2584 18.6704 14.2584C18.6891 14.2584 18.7414 14.2921 18.7901 14.3295C18.8761 14.3931 18.8798 14.4267 18.8911 14.797C18.8948 15.0177 18.9135 15.2159 18.9359 15.2421C18.9546 15.2683 18.992 15.4179 19.0182 15.575C19.0668 15.863 19.0556 16.1136 18.9808 16.4839C18.9584 16.5849 18.9284 16.7868 18.9098 16.9327C18.8162 17.6247 18.8387 17.5648 18.6479 17.692C18.5452 17.7647 18.4962 17.792 18.4401 17.792C18.4125 17.792 18.3832 17.7854 18.345 17.7743C18.2723 17.753 18.2231 17.7396 18.1899 17.7396C18.1239 17.7396 18.1206 17.7921 18.1206 17.9388V18.1408L17.956 18.1221C17.9142 18.1167 17.8825 18.1135 17.8581 18.1135C17.7973 18.1135 17.7812 18.1334 17.7652 18.1894C17.7503 18.2381 17.6717 18.3578 17.5932 18.4513C17.466 18.6046 17.4473 18.6495 17.4473 18.8178C17.4473 18.9637 17.4324 19.0086 17.3912 19.0086C17.3613 19.0086 17.3351 19.0235 17.3351 19.046C17.3351 19.0647 17.2977 19.0834 17.2491 19.0834C17.2005 19.0834 17.1518 19.117 17.1294 19.1656C17.107 19.2105 17.0583 19.2629 17.0172 19.2853C16.905 19.3452 16.8825 19.3901 16.905 19.506C16.9162 19.5771 16.905 19.6182 16.8676 19.6294C16.8377 19.6406 16.804 19.6818 16.7928 19.7229C16.7741 19.7753 16.7329 19.794 16.6207 19.794C16.4935 19.794 16.4748 19.8052 16.4748 19.8763C16.4748 19.9249 16.4487 19.996 16.415 20.0371C16.377 20.0868 16.3413 20.1045 16.2274 20.1045C16.1956 20.1045 16.1578 20.1031 16.112 20.1007C15.9138 20.0932 15.854 20.0783 15.8128 20.0184C15.7717 19.9586 15.7156 19.9436 15.5473 19.9436C15.4014 19.9436 15.2967 19.9212 15.2106 19.8688C15.1433 19.8277 15.0461 19.794 14.9937 19.794C14.9301 19.794 14.8329 19.7342 14.7094 19.6145C14.6085 19.5172 14.4962 19.4237 14.4663 19.405C14.4364 19.3901 14.3766 19.3414 14.3392 19.304C14.298 19.2629 14.2157 19.233 14.1372 19.233C13.9988 19.233 13.8193 19.3003 13.8193 19.3527C13.8193 19.3676 13.7968 19.3826 13.7706 19.3826C13.6921 19.3826 13.5238 19.5659 13.5013 19.6743C13.4752 19.8015 13.3256 20.0932 13.2881 20.0932C13.2358 20.0932 13.0338 20.3289 13.0114 20.4074C13.0001 20.4523 12.9964 20.6056 13.0039 20.7478C13.0151 20.9871 13.0226 21.0096 13.1011 21.0208C13.1498 21.0283 13.1984 21.062 13.2096 21.0956C13.2208 21.1293 13.2507 21.2078 13.2769 21.2714C13.3068 21.3312 13.3368 21.4135 13.348 21.4472C13.363 21.4958 13.4078 21.5145 13.4901 21.5145H13.6136L13.6023 21.3013C13.5911 21.0993 13.5986 21.0732 13.7145 20.9535C13.7984 20.8638 13.8353 20.8345 13.9014 20.8345C13.9208 20.8345 13.9426 20.837 13.9689 20.8413L14.0998 20.8637L13.9876 20.9161C13.838 20.9871 13.8305 21.0058 13.8006 21.2602C13.7632 21.5818 13.8903 21.8511 14.0773 21.8511C14.1634 21.8511 14.1671 21.8437 14.1484 21.6342C14.1334 21.4809 14.1409 21.4061 14.1783 21.3724C14.2083 21.3462 14.2232 21.3088 14.212 21.2938C14.2045 21.2751 14.2569 21.2527 14.3317 21.2415C14.3628 21.2361 14.3887 21.2332 14.4111 21.2332C14.4668 21.2332 14.5011 21.2512 14.5411 21.2938C14.5862 21.3422 14.6369 21.3627 14.7241 21.3627C14.7382 21.3627 14.7532 21.3622 14.7693 21.3612C14.7798 21.3604 14.7904 21.3601 14.8012 21.3601C14.8982 21.3601 15.0083 21.3903 15.1396 21.4509C15.2593 21.507 15.3715 21.5519 15.3902 21.5519C15.4126 21.5519 15.4276 21.5669 15.4276 21.5856C15.4276 21.6005 15.4986 21.6267 15.5809 21.638C15.6669 21.6492 15.7492 21.6754 15.7605 21.6941C15.7841 21.7295 16.0757 21.7812 16.1975 21.7812C16.23 21.7812 16.2504 21.7775 16.2504 21.7689C16.2504 21.7541 16.2805 21.7441 16.3243 21.7441C16.3361 21.7441 16.349 21.7448 16.3626 21.7464C16.3726 21.747 16.3823 21.7474 16.3915 21.7474C16.4373 21.7474 16.4711 21.7396 16.4711 21.724C16.4674 21.6754 16.5571 21.6267 16.6544 21.6267C16.703 21.6267 16.7292 21.6118 16.718 21.5893C16.703 21.5669 16.7741 21.5519 16.905 21.5519C17.0209 21.5519 17.1593 21.5295 17.2154 21.4996C17.3276 21.4397 17.4511 21.3088 17.4211 21.2789C17.4136 21.2677 17.4398 21.249 17.481 21.234C17.5221 21.2228 17.6081 21.1629 17.6755 21.0994C17.7391 21.0395 17.8251 20.9909 17.8625 20.9909C17.8999 20.9909 17.9335 20.9722 17.9335 20.9535C17.9335 20.9311 17.9709 20.9161 18.0158 20.9161C18.0607 20.9161 18.0832 20.9049 18.0719 20.8899C18.057 20.8787 18.0794 20.845 18.1168 20.8188C18.1455 20.7978 18.1684 20.7875 18.1944 20.7875C18.2191 20.7875 18.2468 20.7968 18.2851 20.8151C18.3375 20.8413 18.3824 20.8712 18.3824 20.8862C18.3824 20.9049 18.4534 20.9161 18.5432 20.9161C18.6629 20.9161 18.7227 20.9385 18.7938 21.0171C18.8911 21.1218 18.9808 21.3537 18.9808 21.522C18.9808 21.5781 18.9958 21.6305 19.0145 21.6417C19.0294 21.6529 19.0556 21.709 19.0668 21.7651C19.0781 21.825 19.1566 21.9933 19.2389 22.1466C19.3249 22.3 19.3922 22.4346 19.3922 22.4496C19.3922 22.4832 19.1229 22.7488 19.0893 22.7488C19.0369 22.7488 18.9546 22.947 18.9247 23.1415C18.9098 23.2425 18.8649 23.4108 18.8275 23.5156C18.7489 23.7213 18.734 23.9083 18.7938 23.9681C18.8162 23.9906 18.8499 24.1215 18.8723 24.2561C18.906 24.4768 18.9023 24.5292 18.8349 24.7124C18.7901 24.8284 18.7564 24.9556 18.7564 24.993C18.7564 25.0341 18.7414 25.0678 18.7265 25.0678C18.7115 25.0678 18.6779 25.1463 18.6479 25.2436C18.6218 25.3445 18.5881 25.4567 18.5694 25.4979C18.5021 25.6699 18.3824 26.0327 18.3824 26.0776C18.3824 26.1001 18.3599 26.1749 18.3338 26.2385C18.2776 26.3656 18.1767 26.7359 18.1168 27.0127C18.0981 27.1062 18.042 27.3119 17.9896 27.469C17.9373 27.6261 17.8961 27.7869 17.8961 27.8206C17.8961 27.9066 17.5969 28.8492 17.5371 28.9389C17.5109 28.9801 17.4548 29.1409 17.4099 29.2943C17.365 29.4476 17.3127 29.5897 17.2977 29.6122C17.2827 29.6309 17.2005 29.859 17.1144 30.1171C16.9536 30.6146 16.9162 30.9026 17.0172 30.9026C17.0471 30.9026 17.0733 30.9287 17.0733 30.9587C17.0733 30.9886 17.1069 31.0148 17.1481 31.0148C17.1892 31.0148 17.2229 31.0409 17.2229 31.0709C17.2229 31.1045 17.2566 31.127 17.3014 31.127C17.3762 31.127 17.38 31.1419 17.3688 31.4898C17.3575 31.8189 17.3688 31.8975 17.481 32.2565C17.552 32.4809 17.6268 32.6605 17.653 32.6605C17.6979 32.6605 17.8213 33.0457 17.8213 33.1841C17.8213 33.2402 17.7952 33.2589 17.7204 33.2589C17.6231 33.2589 17.6081 33.2776 17.5259 33.5581C17.4772 33.7227 17.4249 33.8573 17.4099 33.8573C17.38 33.8573 17.2753 34.2538 17.2416 34.4932C17.2042 34.7438 17.1892 34.7849 17.1069 34.8111C17.0695 34.8261 17.0359 34.8597 17.0359 34.8897C17.0359 34.9196 17.0097 34.942 16.976 34.942C16.9199 34.942 16.9162 34.9794 16.9349 35.2487C16.9499 35.4245 16.9424 35.6938 16.9162 35.8696C16.8788 36.1427 16.8638 36.1875 16.7853 36.2174C16.7404 36.2362 16.6993 36.2661 16.6993 36.2885C16.6993 36.3072 16.6768 36.3259 16.6469 36.3259C16.6207 36.3259 16.5534 36.3596 16.501 36.4007C16.4424 36.4481 16.3633 36.475 16.3098 36.475C16.2746 36.475 16.2504 36.4634 16.2504 36.4381C16.2504 36.4133 16.1998 36.4012 16.1354 36.4012C16.0734 36.4012 15.9987 36.4124 15.9437 36.4344C15.8951 36.4531 15.8128 36.4792 15.7567 36.4905C15.6856 36.5054 15.652 36.5391 15.652 36.584C15.652 36.7112 15.8315 36.7934 16.127 36.7934C16.3252 36.7934 16.4113 36.8121 16.4636 36.8608C16.5048 36.8944 16.5496 36.9244 16.5646 36.9244C16.5796 36.9244 16.6394 36.9655 16.6955 37.0179C16.7928 37.1151 16.7965 37.1188 16.7554 37.347C16.7329 37.4742 16.703 37.6051 16.6918 37.635C16.6058 37.8519 16.5871 38.0165 16.5871 38.5738V39.2022L16.4748 39.262C16.415 39.2919 16.3215 39.363 16.2729 39.4191C16.2078 39.4873 16.1658 39.5118 16.0809 39.5118C16.0634 39.5118 16.044 39.5108 16.0223 39.5089C16.011 39.5083 15.9998 39.508 15.9886 39.508C15.7891 39.508 15.6146 39.601 15.6146 39.7108C15.6146 39.823 15.6296 39.8305 15.8914 39.8717C15.9653 39.883 16.0144 39.8896 16.0487 39.8896C16.1045 39.8896 16.1211 39.8723 16.142 39.8305C16.158 39.8012 16.1778 39.7852 16.1932 39.7852C16.1995 39.7852 16.205 39.7878 16.2093 39.7931C16.2205 39.8156 16.2991 39.8754 16.3851 39.9278L16.5384 40.0213L16.5197 40.429C16.5085 40.6833 16.5197 40.8666 16.5422 40.9152C16.602 41.0199 16.5571 41.1396 16.4524 41.1658C16.4038 41.1808 16.3626 41.2069 16.3626 41.2256C16.3626 41.2481 16.3402 41.263 16.314 41.263C16.2841 41.263 16.2205 41.3005 16.1719 41.3416C16.1233 41.3865 15.9961 41.4875 15.8876 41.566C15.7792 41.6446 15.667 41.768 15.6333 41.839C15.5847 41.94 15.5136 41.9961 15.3004 42.1009C15.0984 42.1981 14.9937 42.2767 14.9002 42.4001C14.8291 42.4936 14.7431 42.5796 14.7094 42.5908C14.672 42.6058 14.6421 42.632 14.6421 42.6507C14.6421 42.6694 14.6272 42.6843 14.6047 42.6843C14.586 42.6843 14.4813 42.7367 14.3728 42.8003C14.2644 42.8639 14.025 42.9836 13.8417 43.0658C13.6547 43.1481 13.4639 43.2566 13.4153 43.309C13.333 43.3987 13.3293 43.4286 13.348 43.6157C13.4041 44.1206 13.4078 44.143 13.5051 44.143C13.5537 44.143 13.5949 44.1655 13.5949 44.1917C13.5949 44.2253 13.8862 44.2414 14.1975 44.2414C14.5434 44.2414 14.914 44.2216 14.9376 44.1842C14.955 44.1552 15.0106 44.1442 15.141 44.1442C15.1788 44.1442 15.2229 44.1451 15.2742 44.1468C15.3183 44.1488 15.3605 44.1497 15.3987 44.1497C15.503 44.1497 15.5772 44.1428 15.5772 44.1318C15.5772 44.1162 15.6369 44.1084 15.7174 44.1084C15.7336 44.1084 15.7505 44.1088 15.7679 44.1094C15.7924 44.1108 15.8148 44.1116 15.8352 44.1116C15.9207 44.1116 15.9705 44.0984 15.9886 44.0682C16.0073 44.0383 16.127 44.0084 16.2953 43.9934C16.4449 43.9785 16.5534 43.9635 16.5309 43.956C16.4935 43.9486 16.7928 43.8812 17.1668 43.8102C17.2284 43.799 17.2722 43.7925 17.3084 43.7925C17.3688 43.7925 17.408 43.8106 17.4735 43.855C17.5408 43.8999 17.5969 43.9486 17.5969 43.9635C17.5969 43.9822 17.7241 43.9934 17.8774 43.9934C18.0383 43.9934 18.158 43.9785 18.158 43.956C18.158 43.9336 18.2066 43.9186 18.2664 43.9186C18.4422 43.9186 18.6405 43.8176 18.6666 43.7129C18.6779 43.6605 18.704 43.6194 18.7227 43.6194C18.7414 43.6194 18.7452 43.5932 18.734 43.5633C18.719 43.5334 18.7302 43.5072 18.7564 43.5072C18.7826 43.5072 18.7901 43.4773 18.7751 43.4361C18.7639 43.395 18.7676 43.3539 18.7901 43.3426C18.8088 43.3314 18.8349 43.1781 18.8499 43.0023C18.8649 42.8265 18.8948 42.6843 18.9135 42.6843C18.9359 42.6843 18.9434 42.6582 18.9285 42.6282C18.9172 42.5983 18.9247 42.5721 18.9434 42.5721C18.9621 42.5721 18.9696 42.5497 18.9584 42.5198C18.9434 42.4861 18.9846 42.4525 19.0818 42.4225C19.2726 42.3589 19.3137 42.3215 19.2913 42.2318C19.277 42.1805 19.2584 42.1639 19.1924 42.1639C19.1718 42.1639 19.1466 42.1655 19.1155 42.1682C19.0294 42.1794 18.9359 42.1981 18.9023 42.2131C18.8864 42.2202 18.8712 42.2235 18.8567 42.2235C18.7721 42.2235 18.7153 42.1089 18.7377 41.9587C18.7527 41.8764 18.7788 41.7904 18.7975 41.7717C18.8462 41.7156 18.8387 41.5324 18.7863 41.5136C18.7489 41.5024 18.7489 41.4875 18.7788 41.4463C18.8013 41.4164 18.8237 41.278 18.8275 41.1321C18.8349 40.8591 18.8611 40.702 18.9023 40.702C18.9135 40.702 18.9285 40.5636 18.9359 40.3953C18.9434 40.2083 18.9696 40.0737 18.9995 40.0437C19.0257 40.0138 19.0781 39.9166 19.1117 39.8231C19.1491 39.7295 19.1977 39.6547 19.2202 39.6547C19.2688 39.6547 19.4858 39.4266 19.4745 39.3854C19.4708 39.3667 19.4858 39.3555 19.5082 39.3555C19.5269 39.3555 19.5381 39.3406 19.5269 39.3219C19.5157 39.3032 19.5306 39.2807 19.5606 39.2658C19.5905 39.2545 19.6054 39.2209 19.5942 39.1872C19.5793 39.1535 19.5905 39.1311 19.6204 39.1311C19.6503 39.1311 19.7289 39.2732 19.7999 39.4415C20.0206 39.9652 20.4807 40.904 20.5629 40.9938C20.6202 41.0542 20.6639 41.074 20.77 41.074C20.7886 41.074 20.8093 41.0734 20.8322 41.0723C20.9819 41.0648 21.0492 41.0386 21.1763 40.9376C21.2624 40.8703 21.3484 40.8142 21.3708 40.8142C21.3933 40.8142 21.412 40.7955 21.412 40.7768C21.412 40.7544 21.4344 40.7394 21.4643 40.7394C21.4905 40.7394 21.5354 40.717 21.5579 40.687C21.584 40.6571 21.6551 40.6197 21.7187 40.6085C21.7823 40.5935 21.8384 40.5524 21.8496 40.5187C21.8571 40.4813 21.9169 40.4252 21.9768 40.3878C22.0366 40.3542 22.0852 40.3018 22.0852 40.2719C22.0852 40.2457 22.1039 40.2158 22.1301 40.2083C22.1526 40.2008 22.1825 40.1597 22.1937 40.1185C22.2386 39.9502 22.1974 38.3082 22.1451 38.3082C22.1264 38.3082 22.1226 38.226 22.1339 38.125C22.1488 38.0015 22.1413 37.9342 22.1151 37.9267C22.0852 37.9155 22.0703 37.6874 22.0703 37.1937C22.0703 36.7972 22.0553 36.4755 22.0403 36.4755C22.0216 36.4755 22.0104 36.2773 22.0104 36.0342V35.5966L22.0852 35.6901C22.1264 35.7424 22.16 35.7985 22.16 35.8135C22.16 35.8696 22.3882 36.1838 22.6575 36.5092C22.7996 36.6812 22.9791 36.8982 23.0502 36.9954L23.1849 37.1675L23.1736 38.009C23.1699 38.4728 23.1587 38.8843 23.1475 38.9254C23.1101 39.1087 23.0427 40.6459 23.0427 41.4127C23.0427 42.157 23.0502 42.2879 23.1213 42.5422C23.2148 42.8826 23.2297 42.9088 23.3195 42.9088C23.4093 42.9088 23.6225 42.6956 23.5963 42.632C23.5851 42.6021 23.615 42.5534 23.6636 42.5198C23.7085 42.4861 23.7347 42.4599 23.716 42.4599C23.701 42.4599 23.7235 42.4263 23.7721 42.3851C23.8207 42.3477 23.8469 42.3141 23.8282 42.3103C23.8095 42.3103 23.8394 42.2767 23.8955 42.2318C23.9479 42.1906 23.9853 42.1383 23.9741 42.1196C23.9591 42.1009 23.9778 42.0859 24.0077 42.0859C24.0414 42.0859 24.0676 42.0597 24.0676 42.0298C24.0676 41.9999 24.0863 41.9737 24.1087 41.9737C24.1274 41.9737 24.1386 41.9587 24.1274 41.94C24.1162 41.9213 24.1648 41.8615 24.2359 41.8091C24.3069 41.753 24.363 41.6969 24.3556 41.6782C24.3518 41.6633 24.4191 41.581 24.5052 41.4987C24.5912 41.4164 24.651 41.3341 24.6361 41.3229C24.6249 41.3079 24.651 41.2892 24.6959 41.2743C24.7408 41.2631 24.7782 41.2331 24.7782 41.2069C24.7782 41.1808 24.8044 41.1396 24.8343 41.1134C24.8642 41.0873 24.8792 41.0536 24.8717 41.0349C24.8605 41.0199 24.8904 40.9788 24.939 40.9451C24.9877 40.9152 25.0512 40.8441 25.0812 40.788C25.1111 40.7319 25.156 40.6571 25.1859 40.6197C25.2158 40.5861 25.2457 40.5262 25.2495 40.4888C25.257 40.4514 25.2794 40.4177 25.2981 40.4103C25.3205 40.4028 25.3392 40.3766 25.3392 40.3504C25.3392 40.328 25.3729 40.2794 25.4141 40.242C25.4589 40.2046 25.4814 40.1597 25.4702 40.141C25.4589 40.1185 25.4627 40.1036 25.4851 40.1036C25.5225 40.1036 25.5861 39.9577 25.5711 39.9053C25.5674 39.8904 25.5898 39.8679 25.6198 39.8567C25.6572 39.8418 25.6684 39.8081 25.6572 39.7669C25.6459 39.7295 25.6646 39.6734 25.6946 39.6398C25.7282 39.6061 25.7432 39.565 25.732 39.5425C25.7208 39.5238 25.7282 39.5051 25.7507 39.5051C25.7731 39.5051 25.7806 39.4902 25.7694 39.4677C25.7582 39.4453 25.7656 39.4303 25.7881 39.4303C25.8105 39.4303 25.818 39.4116 25.8068 39.3929C25.7694 39.3331 25.8629 39.2433 25.9601 39.2433C26.0462 39.2433 26.2032 39.1274 26.1958 39.0638C26.1941 39.0373 26.218 39.0248 26.2465 39.0248C26.2825 39.0248 26.3258 39.0449 26.3342 39.0825C26.3461 39.1272 26.3699 39.141 26.466 39.141C26.4906 39.141 26.5198 39.1401 26.5548 39.1386L26.7605 39.1236L26.8391 39.3032C26.8802 39.4041 26.9326 39.565 26.9513 39.6622C26.9737 39.7595 27.0074 39.8492 27.0261 39.8642C27.0448 39.8754 27.0598 39.9203 27.0598 39.9614C27.0598 40.0774 27.1982 40.4551 27.3814 40.8367C27.4712 41.0274 27.546 41.192 27.546 41.2069C27.546 41.2219 27.5759 41.278 27.6171 41.3304C27.6769 41.4201 27.8826 41.8951 27.8826 41.9513C27.8826 41.9625 27.8602 41.9737 27.8303 41.9737C27.8003 41.9737 27.7405 42.0448 27.6993 42.1308C27.575 42.3829 27.5304 42.4309 27.3948 42.4309C27.3835 42.4309 27.3716 42.4306 27.359 42.43C27.3418 42.429 27.3262 42.4284 27.3119 42.4284C27.2194 42.4284 27.1755 42.4531 27.0785 42.5534C27.0037 42.6245 26.9326 42.6843 26.9139 42.6843C26.8578 42.6843 26.7605 42.819 26.7605 42.8975C26.7605 42.9542 26.8307 43.0051 26.8782 43.0051C26.8965 43.0051 26.9114 42.9975 26.9176 42.9798C26.9251 42.9611 27.0485 42.9349 27.1907 42.92C27.4375 42.8975 27.6545 42.804 27.5946 42.7442C27.5834 42.733 27.6245 42.7217 27.6881 42.7217C27.7555 42.7217 27.8078 42.7367 27.8078 42.7592C27.8078 42.7779 27.9088 42.804 28.0322 42.819C28.2566 42.8452 28.2604 42.8452 28.3389 43.0172C28.3801 43.1107 28.4811 43.3277 28.5596 43.496C28.6382 43.6643 28.713 43.8476 28.7279 43.8999C28.7391 43.9523 28.7616 43.9934 28.7765 43.9934C28.7878 43.9934 28.8326 44.0607 28.87 44.143C28.9299 44.2665 28.9598 44.2927 29.0496 44.2927C29.1468 44.2927 29.1543 44.3039 29.1543 44.4385C29.1543 44.5732 28.9972 45.0818 28.87 45.3698C28.8364 45.4372 28.7691 45.5382 28.713 45.598C28.6569 45.6579 28.5446 45.785 28.4624 45.8823C28.1856 46.2077 28.0509 46.3348 27.8789 46.4396C27.7816 46.4919 27.6582 46.5817 27.6058 46.6303C27.5497 46.6827 27.4899 46.7238 27.4675 46.7238C27.4487 46.7238 27.4338 46.7463 27.4338 46.7762C27.4338 46.8061 27.4001 46.8398 27.3627 46.8547C27.2169 46.8996 27.172 47.0941 27.1795 47.6103C27.1832 47.8721 27.2019 48.1115 27.2206 48.1339C27.2393 48.1601 27.3029 48.1825 27.3627 48.1825C27.4226 48.1825 27.4712 48.1975 27.4712 48.2162C27.4712 48.2311 27.6245 48.2573 27.8116 48.2648C27.9986 48.276 28.1631 48.3022 28.1781 48.3246C28.1964 48.3543 28.8669 48.3742 29.39 48.3742C29.7247 48.3742 29.999 48.3661 30.0033 48.3471C30.0108 48.3022 30.1268 48.2648 30.2502 48.2611C30.3063 48.2573 30.3512 48.2424 30.3512 48.2237C30.3512 48.205 30.4035 48.1713 30.4634 48.1451C30.527 48.1189 30.5756 48.0815 30.5756 48.0628C30.5756 48.0481 30.5941 48.0381 30.6202 48.0381C30.6273 48.0381 30.6349 48.0388 30.6429 48.0404C30.6488 48.0417 30.6544 48.0423 30.6597 48.0423C30.6848 48.0423 30.7021 48.0284 30.699 48.0067C30.6953 47.9843 30.7402 47.9431 30.8 47.917C30.8561 47.8908 30.8973 47.8534 30.8898 47.8384C30.8786 47.8235 30.9122 47.7935 30.9646 47.7711C31.017 47.7524 31.0618 47.7187 31.0618 47.6963C31.0618 47.6776 31.088 47.6589 31.1217 47.6589C31.1516 47.6589 31.1666 47.6402 31.1553 47.6177C31.1404 47.5953 31.1628 47.5691 31.2077 47.5579C31.2488 47.5467 31.2937 47.5055 31.305 47.4681C31.3184 47.4346 31.3437 47.4071 31.365 47.4071C31.3675 47.4071 31.3699 47.4075 31.3723 47.4083C31.3745 47.4086 31.3767 47.4088 31.3788 47.4088C31.4009 47.4088 31.4128 47.3911 31.4059 47.3671C31.4022 47.3447 31.4246 47.3223 31.4546 47.3223C31.4845 47.3223 31.5107 47.3036 31.5107 47.2849C31.5107 47.2624 31.593 47.2475 31.6939 47.2475C31.7987 47.2475 31.8922 47.2288 31.9034 47.2101C31.9146 47.1876 31.9595 47.1726 32.0006 47.1726C32.0418 47.1726 32.068 47.1577 32.053 47.139C32.0418 47.1203 32.0642 47.0941 32.1054 47.0791C32.169 47.0604 32.1764 47.0231 32.1727 46.7874C32.169 46.6378 32.154 46.5069 32.1353 46.4957C32.0979 46.4657 32.0343 45.8561 32.0605 45.7551C32.0867 45.6504 32.0418 45.4147 31.9932 45.4147C31.8922 45.4147 31.7313 45.123 31.765 44.9921C31.7687 44.9771 31.7538 44.9659 31.7313 44.9659C31.7052 44.9659 31.6939 44.9135 31.7052 44.835C31.7126 44.7639 31.7052 44.7003 31.6865 44.6929C31.6678 44.6891 31.6528 44.6255 31.6491 44.5545C31.6453 44.4759 31.6117 44.4011 31.5743 44.3712C31.5368 44.345 31.5144 44.3001 31.5256 44.2702C31.5368 44.2403 31.5256 44.2178 31.5032 44.2178C31.477 44.2178 31.4695 44.1692 31.4845 44.0869C31.4957 44.0159 31.492 43.956 31.477 43.956C31.4284 43.956 31.3498 43.7391 31.3723 43.6793C31.3835 43.6493 31.3798 43.6194 31.3611 43.6119C31.3461 43.6044 31.3237 43.5147 31.3199 43.4137C31.3124 43.309 31.2937 43.2192 31.2788 43.208C31.2638 43.1968 31.2488 43.1107 31.2414 43.021C31.2339 42.9275 31.2152 42.8414 31.2002 42.8302C31.1591 42.8003 31.1553 42.3851 31.1965 42.3515C31.2152 42.3402 31.2339 42.2206 31.2414 42.0859C31.2451 41.955 31.2638 41.839 31.2788 41.8241C31.2937 41.8129 31.3087 41.6894 31.3162 41.5436C31.3237 41.4014 31.3386 41.2743 31.3536 41.263C31.3872 41.2406 31.3872 40.0549 31.3573 40.0288C31.3424 40.0175 31.3274 39.7669 31.3199 39.4677C31.3124 39.1685 31.2937 38.9142 31.275 38.9029C31.2601 38.8917 31.2451 38.7085 31.2376 38.4915C31.2339 38.2783 31.2189 38.0951 31.204 38.0838C31.1703 38.0577 31.088 37.0665 31.0843 36.6625C31.0805 36.5092 31.0656 36.3708 31.0469 36.3558C31.0282 36.3446 31.0132 36.1838 31.0095 36.0005C31.0057 35.821 30.9945 35.6639 30.9833 35.6527C30.9384 35.619 30.8262 34.4483 30.8524 34.2837C30.8673 34.1753 30.8599 34.1192 30.8262 34.1079C30.8 34.1005 30.7813 33.9957 30.7813 33.8087C30.7813 33.6516 30.7664 33.5207 30.7514 33.5207C30.7364 33.5207 30.7327 33.4609 30.7477 33.3898C30.7626 33.3001 30.7589 33.2589 30.7252 33.2589C30.6953 33.2589 30.6841 33.2065 30.6953 33.0906C30.7028 32.9971 30.6916 32.9185 30.6766 32.9111C30.6392 32.8999 30.5606 32.3238 30.5606 32.0433C30.5569 31.9386 30.5419 31.8451 30.5232 31.8339C30.5045 31.8189 30.4784 31.6768 30.4634 31.516C30.4447 31.3514 30.4148 31.127 30.3923 31.0148C30.3699 30.9026 30.3475 30.6445 30.3437 30.4462C30.3362 30.2443 30.3175 30.0797 30.2988 30.0797C30.2801 30.0797 30.2764 30.0236 30.2876 29.9525C30.2988 29.8777 30.2913 29.8179 30.2689 29.8104C30.2465 29.8029 30.2278 29.672 30.224 29.5074C30.224 29.3504 30.2091 29.2194 30.1978 29.2194C30.1679 29.2194 30.0819 28.3629 30.1081 28.318C30.123 28.2993 30.1118 28.2844 30.0856 28.2844C30.0557 28.2844 30.0482 28.2395 30.0669 28.1273C30.0819 28.0338 30.0782 27.9627 30.0557 27.9478C30.0333 27.9365 30.0108 27.8019 30.0071 27.6485C29.9996 27.4952 29.9809 27.3568 29.9622 27.3456C29.9472 27.3306 29.9285 27.2072 29.9285 27.0651C29.9248 26.893 29.9061 26.792 29.8687 26.7658C29.8313 26.7359 29.8238 26.6761 29.835 26.5526C29.8463 26.4479 29.8388 26.3731 29.8163 26.3656C29.7939 26.3582 29.7752 26.2721 29.7752 26.1674C29.7714 26.0664 29.7565 25.9729 29.7378 25.9579C29.7153 25.943 29.7004 25.8083 29.7004 25.6587C29.6966 25.4941 29.6779 25.367 29.6518 25.3371C29.6106 25.2922 29.5919 25.1501 29.5882 24.8508C29.5882 24.8059 29.5732 24.7685 29.5583 24.7685C29.5171 24.7685 29.5209 24.4544 29.5657 24.3422C29.5919 24.2636 29.5882 24.2449 29.547 24.2449C29.5171 24.2449 29.4834 24.2075 29.476 24.1589C29.4386 23.9644 29.375 23.4632 29.3675 23.3024C29.3638 23.2014 29.3451 23.1228 29.3264 23.1228C29.3114 23.1228 29.3077 23.063 29.3189 22.9919C29.3376 22.9022 29.3301 22.861 29.3002 22.861C29.274 22.861 29.2665 22.8274 29.2815 22.7712C29.2927 22.7189 29.2852 22.674 29.2665 22.6665C29.2216 22.6516 29.1094 21.7801 29.1431 21.7277C29.1543 21.709 29.1431 21.6791 29.1169 21.6641C29.087 21.6454 29.0645 21.5519 29.0645 21.4248C29.0608 21.3088 29.0496 21.2153 29.0384 21.2153C29.0122 21.2153 28.9149 20.5608 28.9149 20.3737C28.9149 20.2915 28.9 20.2129 28.8813 20.198C28.8588 20.1867 28.8401 20.1007 28.8401 20.0109C28.8364 19.9249 28.8214 19.8389 28.8065 19.8277C28.7878 19.8164 28.7728 19.7229 28.7691 19.622C28.7653 19.5172 28.7391 19.42 28.7092 19.3975C28.6718 19.3714 28.6643 19.319 28.6793 19.2404C28.6943 19.1656 28.6868 19.1208 28.6643 19.1208C28.6419 19.1208 28.6307 19.0946 28.6456 19.0647C28.6569 19.0347 28.6494 19.0086 28.6269 19.0086C28.6008 19.0086 28.5933 18.9637 28.6007 18.8963C28.612 18.8328 28.6007 18.7841 28.582 18.7841C28.5633 18.7841 28.5559 18.758 28.5708 18.728C28.582 18.6981 28.5746 18.6719 28.5559 18.6719C28.5334 18.6719 28.5185 18.6457 28.5185 18.6158C28.5185 18.5822 28.4848 18.4475 28.4399 18.3129C28.3988 18.182 28.3726 18.0473 28.3838 18.0174C28.395 17.9875 28.3876 17.9613 28.3726 17.9613C28.3128 17.9613 28.2529 17.7294 28.2978 17.677C28.3315 17.6359 28.3277 17.6247 28.2828 17.6247C28.2305 17.6247 28.1781 17.4825 28.1594 17.2806C28.1557 17.2245 28.122 17.1497 28.0883 17.116C28.0547 17.0823 28.036 17.0225 28.0435 16.9851C28.0547 16.9439 28.0509 16.914 28.036 16.914C28.0023 16.914 27.9013 16.6185 27.9088 16.5437C27.9125 16.5138 27.8901 16.4652 27.8564 16.4353C27.8265 16.4053 27.8078 16.353 27.819 16.3193C27.8265 16.2857 27.8116 16.2333 27.7816 16.2071C27.7517 16.1809 27.733 16.1248 27.7442 16.0874C27.7555 16.05 27.7367 16.0126 27.7068 16.0014C27.6732 15.9864 27.6582 15.949 27.6657 15.9116C27.6769 15.8742 27.6619 15.8219 27.632 15.7957C27.5984 15.7658 27.5871 15.7096 27.5984 15.661C27.6133 15.6049 27.6021 15.5675 27.5647 15.5526C27.4862 15.5264 27.4936 15.3917 27.5759 15.3468C27.6096 15.3244 27.6283 15.3057 27.6133 15.3057C27.5572 15.3057 27.7667 15.1299 27.8789 15.085C27.9425 15.0551 27.9948 15.0102 27.9948 14.984C27.9948 14.9541 28.0173 14.9317 28.0435 14.9317C28.0696 14.9317 28.122 14.8681 28.1631 14.7895C28.2043 14.7147 28.2753 14.6212 28.324 14.5838C28.3689 14.5464 28.3988 14.4978 28.3876 14.4791C28.3726 14.4604 28.3801 14.4454 28.4025 14.4454C28.425 14.4454 28.4324 14.423 28.4212 14.3968C28.4137 14.3706 28.4362 14.307 28.4773 14.2622C28.5222 14.2135 28.5446 14.1574 28.5334 14.1387C28.5222 14.12 28.5409 14.0789 28.5783 14.0527C28.6194 14.0228 28.6344 13.9966 28.6195 13.9966C28.6008 13.9966 28.6157 13.9704 28.6456 13.9368C28.6793 13.9069 28.698 13.862 28.6868 13.8433C28.6718 13.8246 28.683 13.8096 28.7017 13.8096C28.7242 13.8096 28.7429 13.7872 28.7429 13.7572C28.7429 13.7273 28.7691 13.6937 28.8027 13.6824C28.8364 13.6675 28.8551 13.6488 28.8401 13.6338C28.8065 13.5964 29.0084 13.473 29.1057 13.473C29.1506 13.473 29.1955 13.458 29.2067 13.4393C29.2329 13.3982 29.4984 13.3683 29.9959 13.3495C30.3512 13.3383 30.4335 13.3234 30.5943 13.2411C30.699 13.185 30.8561 13.1064 30.9496 13.0578C31.0431 13.0129 31.1591 12.9456 31.2077 12.9045C31.2509 12.8736 31.3043 12.8529 31.3447 12.8529C31.3533 12.8529 31.3613 12.8539 31.3685 12.8558C31.3842 12.8621 31.3985 12.8651 31.4098 12.8651C31.4257 12.8651 31.4359 12.8592 31.4359 12.8484C31.4359 12.8296 31.4845 12.7885 31.5443 12.7511C31.6227 12.7048 31.8192 12.6822 32.0325 12.6822C32.2669 12.6822 32.5217 12.7095 32.6627 12.7623C32.7881 12.8102 32.9622 12.8359 33.1121 12.8359C33.208 12.8359 33.294 12.8254 33.3509 12.8035C33.6464 12.6875 33.7511 12.6352 33.7324 12.609C33.7212 12.5903 33.7399 12.5641 33.7698 12.5529C33.8034 12.5417 33.8184 12.5155 33.8072 12.4968C33.796 12.4781 33.8147 12.4631 33.8446 12.4631C33.8745 12.4631 33.9119 12.4294 33.9231 12.3846C33.9407 12.3349 33.9605 12.3172 34.0184 12.3172C34.0345 12.3172 34.0536 12.3185 34.0765 12.321C34.0922 12.3225 34.1068 12.3232 34.1203 12.3232C34.1743 12.3232 34.2096 12.3113 34.2186 12.2873C34.2298 12.2611 34.271 12.2387 34.3084 12.2387C34.3458 12.2387 34.4131 12.205 34.458 12.1639C34.5029 12.1227 34.5477 12.0891 34.5627 12.0891C34.6001 12.0891 34.746 11.8871 34.7348 11.8534C34.731 11.8385 34.7535 11.7973 34.7834 11.7674C34.8133 11.7338 34.8283 11.6926 34.817 11.6739C34.794 11.6345 34.8893 11.5489 34.9407 11.5489C34.9479 11.5489 34.9542 11.5506 34.9592 11.5542C34.962 11.5553 34.9648 11.5559 34.9677 11.5559C34.9843 11.5559 35.002 11.5385 35.0115 11.5131C35.0265 11.4719 35.0826 11.4532 35.1761 11.4532C35.2584 11.4532 35.3332 11.4345 35.3444 11.4158C35.3556 11.3934 35.4005 11.3784 35.4417 11.3784C35.5352 11.3784 35.7072 11.27 35.6773 11.2251C35.6661 11.2064 35.6773 11.1914 35.6997 11.1914C35.7222 11.1914 35.7858 11.1391 35.8381 11.0792C35.8868 11.0156 35.9466 10.967 35.969 10.967C36.0177 10.967 36.3356 10.6603 36.3356 10.6117C36.3356 10.5892 36.3954 10.5257 36.4665 10.4696C36.5413 10.4097 36.5899 10.3499 36.5787 10.3312C36.5675 10.3125 36.5899 10.2788 36.6311 10.2601C36.6685 10.2377 36.7283 10.1516 36.762 10.0656C36.8048 9.95867 36.8276 9.92661 36.8732 9.92661C36.8834 9.92661 36.8948 9.92821 36.9078 9.93096C36.9527 9.94218 37.0649 9.9721 37.1584 9.99454C37.2339 10.0151 37.4006 10.0247 37.5634 10.0247C37.7555 10.0247 37.942 10.0114 37.9663 9.98706C37.9776 9.9721 37.9925 9.90852 37.9925 9.84119L38 9.71776L37.7531 9.66914C37.4764 9.62051 37.1809 9.49334 37.1098 9.39984C37.0836 9.36244 37.0313 9.3213 36.9901 9.30633C36.9228 9.28389 36.9265 9.27267 37.035 9.17168C37.1023 9.1081 37.1697 9.05948 37.1846 9.05948C37.2183 9.05948 37.3268 8.90239 37.3193 8.86872C37.3155 8.8575 37.3081 8.77521 37.3043 8.68919C37.2931 8.53958 37.2894 8.53584 37.1659 8.53584C37.0949 8.53584 36.9378 8.58446 36.8143 8.64805C36.6692 8.72181 36.5695 8.75773 36.5055 8.75773C36.4689 8.75773 36.4441 8.74599 36.4291 8.72285C36.4179 8.70041 36.3431 8.68545 36.2645 8.68545C36.186 8.68545 36.1112 8.67423 36.1 8.66301C36.0738 8.63683 36.1336 8.50592 36.2122 8.43111C36.2383 8.40119 36.2533 8.36753 36.2421 8.34883C36.2309 8.33012 36.2383 8.31143 36.2608 8.30395C36.2795 8.30021 36.3019 8.2254 36.3131 8.14311C36.3244 8.06083 36.3468 7.98976 36.3655 7.98228C36.3879 7.9748 36.3954 7.9374 36.3842 7.9C36.373 7.85511 36.3842 7.82519 36.4104 7.82519C36.4366 7.82519 36.4478 7.79527 36.4366 7.75039C36.4254 7.70924 36.4403 7.6494 36.4702 7.62322C36.5376 7.55215 36.5226 7.41751 36.4328 7.31278C36.3856 7.2568 36.3317 7.23013 36.2754 7.23013C36.1399 7.23013 35.9909 7.3847 35.8905 7.65688C35.8456 7.78031 35.7633 7.94114 35.7072 8.01221C35.6511 8.08327 35.5838 8.18426 35.5576 8.23662C35.5006 8.34426 35.3177 8.47065 35.2402 8.47065C35.2261 8.47065 35.2155 8.46649 35.2098 8.4573C35.1574 8.36753 35.1275 8.06083 35.1312 7.55215C35.135 7.20805 35.1237 7.03974 35.0976 7.03974C35.0751 7.03974 35.0639 7.0173 35.0751 6.98738C35.0974 6.92697 34.9602 6.86116 34.8427 6.86116C34.822 6.86116 34.8019 6.8632 34.7834 6.86769C34.6263 6.90883 34.6039 7.00982 34.5702 7.9C34.5403 8.67797 34.529 8.75652 34.4468 8.92857C34.3981 9.02955 34.3159 9.20909 34.2635 9.32503C34.1849 9.51205 34.1588 9.53823 34.0503 9.55319C34.0349 9.55576 34.0155 9.55696 33.9935 9.55696C33.9198 9.55696 33.8168 9.54345 33.7361 9.52327C33.6351 9.49334 33.4893 9.4709 33.4182 9.4709H33.2873V9.20909C33.2873 8.96971 33.2798 8.94727 33.2087 8.94727C33.0891 8.94727 32.9432 9.25023 32.9993 9.3774C33.0288 9.44184 33.016 9.50243 32.9884 9.50243C32.9775 9.50243 32.9644 9.49307 32.9507 9.4709C32.934 9.44396 32.9102 9.43154 32.8842 9.43154C32.8342 9.43154 32.7756 9.47702 32.7412 9.55319C32.6926 9.66539 32.6701 9.68036 32.4083 9.72898C32.0642 9.79257 31.9857 9.82249 31.7725 9.99454C31.5011 10.2116 31.1213 10.4742 31.0798 10.4742C31.0784 10.4742 31.0774 10.4739 31.0768 10.4733C31.0693 10.4621 31.0768 10.4097 31.0955 10.3573C31.1142 10.305 31.1441 10.1591 31.1591 10.0357C31.1703 9.90852 31.2002 9.80753 31.2152 9.80753C31.2339 9.80753 31.2488 9.73272 31.2488 9.63922C31.2488 9.54571 31.2339 9.4709 31.2152 9.4709C31.189 9.4709 31.1404 9.28763 31.1217 9.11932C31.1148 9.05067 30.8969 8.95997 30.757 8.95997C30.7445 8.95997 30.7325 8.9607 30.7215 8.96223C30.5681 8.98467 30.3774 9.07444 30.3138 9.15298C30.2876 9.18291 30.2502 9.20909 30.2315 9.20909C30.2128 9.20909 30.1006 9.28015 29.9846 9.36992C29.8687 9.45968 29.749 9.54571 29.7228 9.56067C29.7188 9.56322 29.7151 9.5646 29.7117 9.5646C29.6804 9.5646 29.6753 9.44625 29.6854 9.04452C29.6929 8.7453 29.6854 8.49844 29.6705 8.49844C29.6368 8.49844 29.5657 8.28524 29.5919 8.25906C29.6069 8.24784 29.5957 8.23662 29.5695 8.23662C29.5433 8.23662 29.5321 8.22166 29.5433 8.20296C29.5695 8.16182 29.3974 8.08701 29.2703 8.08701C29.1468 8.08701 28.9935 8.19548 28.6943 8.50592C28.4736 8.73033 28.2005 8.90987 28.0809 8.90987C28.0472 8.90987 28.0322 8.88743 28.0472 8.85376C28.0584 8.82384 28.0547 8.79766 28.0397 8.79766C28.0061 8.79766 27.9051 8.47226 27.9088 8.38997C27.9125 8.36005 27.8901 8.31142 27.8602 8.2815C27.8265 8.25158 27.8116 8.20296 27.8228 8.17678C27.834 8.14686 27.8265 8.12441 27.8041 8.12441C27.7779 8.12441 27.6844 7.94862 27.6919 7.91122C27.6956 7.88504 27.5161 7.71672 27.4375 7.67932C27.3968 7.65768 27.3542 7.64709 27.3103 7.64709C27.0964 7.64709 26.8519 7.89881 26.6409 8.34883C26.5378 8.56434 26.4034 8.75377 26.3619 8.75377C26.3537 8.75377 26.3491 8.74639 26.3491 8.73033C26.3491 8.70415 26.3678 8.68545 26.3865 8.68545C26.409 8.68545 26.4239 8.66301 26.4239 8.63309C26.4239 8.60317 26.4426 8.57324 26.4613 8.56576C26.4838 8.55828 26.5062 8.52088 26.5137 8.47974C26.5474 8.32264 26.6521 8.07205 26.697 8.04213C26.7306 8.02343 26.7418 7.84389 26.7418 7.39506C26.7418 6.93501 26.7568 6.7667 26.7905 6.74426C26.8166 6.7293 26.8279 6.68816 26.8129 6.65449C26.8017 6.61709 26.8092 6.59091 26.8354 6.59091C26.8578 6.59091 26.8653 6.57221 26.8541 6.55351C26.8428 6.53106 26.8466 6.5161 26.869 6.5161C26.8877 6.5161 26.9176 6.4787 26.9363 6.43008C26.9737 6.32161 26.9737 5.91766 26.9363 5.91766C26.9176 5.91766 26.9176 5.89896 26.9289 5.88026C26.9401 5.85782 26.9363 5.84286 26.9176 5.84286C26.8765 5.84286 26.7568 5.56608 26.7418 5.43517C26.7381 5.38655 26.7119 5.33418 26.6857 5.31922C26.6596 5.30426 26.6521 5.2706 26.6633 5.24816C26.6783 5.22572 26.6745 5.20701 26.6558 5.20701C26.6184 5.20701 26.5212 4.99008 26.5324 4.93398C26.5324 4.91901 26.5174 4.90779 26.495 4.90779C26.4763 4.90779 26.4688 4.8891 26.48 4.87039C26.4912 4.84795 26.4838 4.83299 26.4613 4.83299C26.4351 4.83299 26.4239 4.80681 26.4389 4.77689C26.4501 4.74697 26.4426 4.72078 26.4202 4.72078C26.3641 4.72078 26.2743 4.62354 26.3005 4.59361C26.3155 4.58239 26.2968 4.57117 26.2631 4.57117C26.2257 4.57117 26.1995 4.54873 26.1995 4.51881C26.1995 4.48888 26.1733 4.45522 26.1397 4.444C26.106 4.42904 26.0873 4.41034 26.0985 4.39538C26.1135 4.38416 26.0798 4.34302 26.0312 4.30187C25.9788 4.26073 25.9452 4.21211 25.9564 4.19341C25.9714 4.17471 25.9639 4.15974 25.9414 4.15974C25.904 4.15974 25.8629 4.1186 25.3392 3.58C25.1074 3.33689 24.9652 3.22468 24.8156 3.1611C24.7034 3.11248 24.58 3.05637 24.5463 3.03393C24.5055 3.01353 24.3616 3 24.2472 3Z" fill="white"/>
</svg>
