<svg width="50" height="50" viewBox="0 0 50 50" fill="none" xmlns="http://www.w3.org/2000/svg">
<rect width="50" height="50" rx="2" fill="black"/>
<path d="M11.3658 5.28587C12.0723 5.07663 12.8887 5.23155 13.2047 5.45021C13.5518 5.66646 13.7646 6.05785 13.8686 6.45584C13.8835 6.54055 13.9584 6.58852 14.0088 6.64962C14.1786 6.84096 14.0306 6.62943 14.1598 7.26848C14.253 7.30449 14.1531 7.57213 14.1557 7.73709C14.1509 8.04313 14.1401 8.34884 14.1312 8.6547C14.3001 8.80181 14.293 9.21559 14.3867 9.35764C14.4308 9.43034 14.4257 9.43349 14.5971 9.96828C16.395 9.22656 17.9881 10.468 18.4234 10.4557C18.4946 10.457 18.5476 10.5132 18.5668 10.5818C18.4867 10.7709 18.3147 10.8959 18.2371 11.0868C18.1714 11.2765 18.2373 11.3798 18.2466 11.7982C18.4433 11.9669 19.0201 12.6184 19.1964 12.821C19.2688 12.9218 19.3566 12.8804 19.412 13.023C19.4213 13.1565 19.1155 13.1079 19.0556 13.1037C19.0011 13.5606 18.8597 13.4664 18.5563 13.6998C18.4572 13.7753 18.407 13.9059 18.298 13.9685C18.0532 14.1086 17.5828 13.0759 17.2424 13.0246C16.8906 12.9497 16.7306 13.0561 16.3703 13.2063C15.7801 13.4742 16.053 13.4228 15.7856 13.6703C15.7585 13.7049 15.738 13.7443 15.7138 13.781C15.7274 13.8529 15.7876 13.8939 15.8329 13.9435C16.0277 14.1487 16.1123 14.324 16.1162 14.3285C16.6951 15.0178 16.7175 15.6958 16.4429 16.1802C16.3668 16.3093 16.2678 16.4215 16.1695 16.5319C16.3666 17.6724 16.16 17.4633 16.6759 18.5548C16.7168 18.6298 16.7404 18.7218 16.8156 18.769C16.8309 18.7558 16.8465 18.7428 16.8625 18.7302C16.9317 18.794 16.9717 18.8814 16.9898 18.975C16.9684 19.0017 16.9472 19.0285 16.9263 19.0555C16.9346 19.072 16.9434 19.0886 16.9523 19.1056C17.0256 19.1258 17.0775 19.1095 17.053 19.2583C17.2916 19.717 17.5235 20.1798 17.7904 20.6214C17.8389 20.5983 18.0749 20.458 18.0387 20.6528C18.2015 20.921 18.3673 21.1873 18.5407 21.4482C18.8731 21.2529 18.9329 21.2499 18.9947 21.309C19.0146 21.3592 18.9704 21.4099 18.9839 21.4618C19.0217 21.7352 19.067 22.1029 19.1867 22.2635C19.2301 22.267 19.2719 22.2936 19.2566 22.3457C19.2809 22.3691 19.7396 22.7177 19.8614 22.9079C19.9201 22.9937 19.9795 23.0798 20.0601 23.1453C20.0877 23.1037 20.1254 23.0637 20.1783 23.0695C20.1991 23.054 20.219 23.0353 20.2437 23.0263C20.2665 23.0263 20.2866 23.0407 20.3079 23.0489C20.381 22.9288 20.4528 22.8078 20.5248 22.687C20.111 21.4871 19.9262 21.2129 20.2112 19.9426C20.305 19.4697 20.723 19.0178 20.7436 18.9924C20.7976 18.9182 21.2694 18.6259 21.3185 18.5966C21.091 19.1543 20.762 19.0851 20.6757 19.9443C20.6747 20.4432 20.9347 20.6727 20.9899 20.7961C21.3706 21.6424 21.3597 21.6049 21.3712 21.6483C21.3644 21.7273 21.3464 21.8049 21.3362 21.8836C21.4827 21.9393 21.6257 22.0063 21.774 22.0561C22.7525 22.0093 23.3136 21.5552 23.8769 20.6964C26.0193 20.5428 24.8008 20.9834 32.4373 17.5919C34.1051 16.8325 33.5645 16.9253 37.9163 14.9852C42.2868 13.0588 40.105 13.8073 47.6769 11.6478C47.5751 11.7102 42.1598 15.0284 42.0506 15.0754C31.1635 20.1043 38.8764 16.0705 26.2335 21.9048C25.9816 22.0367 26.3256 21.7364 24.9281 23.0578C24.5108 22.9906 24.3382 22.9259 23.6241 23.0472C23.1002 23.1975 23.1491 23.2197 22.8898 23.3545C22.8091 23.3933 22.5088 23.6727 22.4706 23.7419C22.425 23.8193 22.378 23.8959 22.3322 23.9732C22.5851 24.3225 22.3893 23.9059 22.8654 24.9781C22.9559 25.1879 22.9473 25.8865 24.0582 26.1911C24.1943 26.2297 24.3372 26.2055 24.4758 26.2251C24.5703 26.2455 24.6643 26.2695 24.7588 26.2918C24.7541 26.3005 24.7447 26.3181 24.74 26.3268C24.7156 26.3344 24.1727 26.4903 24.0788 26.4848C24.0545 26.4835 23.4335 26.4967 23.009 26.2699C22.2432 25.8779 21.7639 25.464 21.2007 24.2292C21.0483 24.192 20.8956 24.1578 20.7429 24.1233C20.7209 24.171 20.6794 24.2136 20.6247 24.2052C20.6071 24.2188 20.59 24.2329 20.5733 24.2471C20.7331 24.6919 20.7908 25.1476 20.3494 24.9581C20.2418 25.1214 20.0793 25.1711 19.8454 24.7955C19.7489 24.9127 19.6829 25.0931 19.4756 25.0474C19.424 25.0355 19.3949 24.9865 19.3572 24.9535C19.3463 24.9553 19.3245 24.9589 19.3135 24.9607C19.3408 25.2391 19.24 25.2634 19.1214 25.2616C18.9925 25.2514 18.9881 25.2475 18.8729 25.0137C18.7177 24.9986 18.6995 25.0273 18.6154 24.7797C17.9597 25.0648 17.3036 25.3498 16.6543 25.6509C16.6879 26.3246 18.5495 30.3653 16.8492 28.8616C16.8939 29.2209 16.9983 30.2277 16.9832 30.5675C17.1493 30.3456 17.2804 30.3685 17.3353 30.3658C17.5294 30.4114 17.9229 30.8441 17.8285 31.1162C17.7812 31.174 17.7239 31.2261 17.6547 31.2525C17.2256 31.9112 17.5478 32.0832 17.6663 32.3712C17.9027 32.8027 18.2656 34.1959 17.7594 34.7246C17.9767 35.374 17.9407 35.9376 17.7703 36.1037C17.6831 36.2546 17.3712 36.2284 17.2056 36.1851C17.231 36.4003 17.2432 36.6975 17.0813 36.791C17.1004 36.9224 17.2279 37.439 17.0482 37.628C17.1045 37.8496 17.2752 38.3325 17.0957 38.4617C17.193 38.9753 17.3219 39.0931 17.266 39.3113C17.2433 39.3285 17.2207 39.3458 17.1983 39.3635C17.2912 39.5684 17.4371 39.9425 17.3937 40.1636C17.8278 40.9124 17.8673 40.747 17.8805 40.994C17.859 41.0061 17.8378 41.0185 17.8167 41.0315C17.7077 41.4436 17.8312 41.6683 17.9501 42.2064C17.9983 42.3641 18.0373 42.5283 18.1246 42.669C18.267 42.5544 18.3035 42.4324 18.3815 42.42C18.4992 42.4395 18.4237 42.6065 18.4808 42.765C18.5304 42.9079 18.5939 43.0471 18.6791 43.1711C18.8278 42.8787 18.9546 42.8967 19.1677 43.0262C19.4113 43.1613 19.4537 43.3529 19.4904 43.4005C19.659 43.5963 19.7887 43.5633 19.9835 43.7271C20.7209 44.3039 20.7826 44.1662 20.776 44.6171C20.7907 44.639 20.8113 44.6596 20.8172 44.6874C20.7818 44.9278 19.4526 44.9633 19.3058 44.9719C19.1561 44.9912 18.4994 45.1215 18.2311 45.0745C18.2062 45.0703 17.6357 45.0136 17.5286 44.8C17.4919 44.7288 17.093 44.5672 17.0422 44.4059C17.0179 44.351 17.0293 44.2901 17.0323 44.2326C16.4958 43.9219 15.9028 43.779 15.4614 43.4134C15.3862 43.3549 15.3387 43.2664 15.2616 43.2106C15.1261 43.1081 14.7722 42.8117 14.782 42.6458C14.7872 42.4243 14.7772 42.1972 14.8405 41.983C14.9202 41.7376 15.1402 41.4918 15.0155 40.9999C14.9987 40.9238 14.8987 40.5161 14.8401 40.4244C14.5648 39.8913 14.6903 39.823 15.1507 40.0047C15.0302 39.555 14.9128 39.3991 14.9153 38.7057C14.9153 38.7057 14.6557 38.2318 14.5272 37.8839C14.4747 37.7145 14.3894 37.886 14.3229 37.3605C14.2838 36.9372 14.3379 37.0445 14.2711 36.9153C14.2563 36.8899 14.0523 36.3758 14.0089 36.1469C13.9954 36.0823 14.0099 36.0176 14.0293 35.9563C13.81 35.7044 13.782 34.7459 14.1632 34.4403C14.0675 34.0366 14.0072 32.979 14.0072 32.979C13.9579 32.8743 13.8825 32.7787 13.8696 32.6595C13.877 32.608 13.8975 32.5599 13.9128 32.511C13.8864 32.4584 13.8643 32.4011 13.884 32.3417C13.4257 31.6751 13.1641 31.3301 12.5575 29.0253C12.5089 29.014 12.467 28.9862 12.4304 28.9523C12.4302 28.9305 12.4302 28.9089 12.4304 28.8879C12.4926 28.8274 12.57 28.7895 12.6485 28.7577C12.6062 28.5828 12.5589 28.4089 12.5225 28.2326C12.3958 28.7353 12.2843 30.7174 12.2701 30.9585C12.3281 30.9796 12.3938 30.9924 12.4355 31.0442C12.6068 31.2078 12.8307 31.5675 12.8969 31.749C13.0002 32.027 12.9429 31.7925 13.0088 32.2007C12.8571 32.4555 12.9583 32.3629 12.6818 32.4975C12.6575 32.5196 12.4069 32.7444 12.2782 32.9324C12.2477 32.9696 12.2573 33.0214 12.2531 33.0668C12.2327 33.337 12.4179 33.5269 12.2503 34.5094C11.9717 35.7829 11.71 35.3093 11.7962 35.8759C11.8384 35.9201 11.8933 35.9574 11.9144 36.0187C11.9997 36.3776 11.4527 37.1201 11.1911 37.1675C11.146 37.3312 11.0833 37.4892 11.0078 37.6402C11.0692 37.8429 11.0026 38.0547 10.989 38.2596C11.0503 39.0356 11.2622 38.7271 10.997 39.4463C10.9679 39.5282 10.9014 39.5848 10.8518 39.6526C10.8726 39.9417 11.004 40.0058 10.8359 40.5878C10.8548 40.7089 10.8758 40.831 10.9029 40.9503C11.0951 41.1706 10.9351 41.7409 10.6793 41.8605C10.686 42.0209 10.7004 42.1816 10.7366 42.338C10.7823 42.3328 10.828 42.328 10.874 42.3236C10.8944 42.294 10.9111 42.2607 10.9379 42.237C11.0492 42.2136 11.2609 42.2414 11.2659 42.3117C11.2444 42.3257 11.2212 42.3366 11.1982 42.3477C10.96 42.9532 11.1451 43.2958 11.2132 43.422C11.3859 43.434 11.6031 43.4086 11.7696 43.552C11.7735 43.5684 11.7778 43.5856 11.782 43.6033C12.2349 43.5718 12.3724 44.0005 12.4563 44.1927C12.5447 44.3917 12.5604 44.7089 12.5643 44.7343C12.5946 44.7798 12.6442 44.8102 12.664 44.8643C12.7053 44.9406 12.7171 45.0315 12.7683 45.1024C12.9229 45.3313 12.8765 45.4373 12.8118 45.6877C12.8188 45.6933 12.8327 45.7044 12.8397 45.7099C12.8426 45.7199 12.8485 45.7395 12.8515 45.7495C12.8188 45.8128 12.7416 45.8153 12.681 45.8147C12.6266 45.8144 12.585 45.7672 12.5308 45.7674C11.6078 45.7214 11.4223 45.5271 10.9229 45.5142C10.7838 45.5019 10.1234 45.4345 9.86395 45.3355C9.70325 45.2596 9.29855 45.1813 9.15472 45.1226C9.08969 45.0964 9.03832 45.0409 8.96905 45.0263C8.88479 45.0041 8.80096 44.9802 8.71956 44.9489C8.64813 44.4284 8.60877 44.3326 8.74229 43.0451C8.61281 42.995 8.58925 43.0057 8.65438 42.7025C8.80665 42.0655 8.71927 41.7794 8.68591 41.2523C8.68305 41.1519 8.70639 41.0532 8.70804 40.9534C8.65941 40.76 8.55429 40.0355 8.6033 39.8754C8.55602 39.7742 8.36614 39.045 8.35564 38.7428C8.22931 38.6052 8.19032 37.7316 8.19088 37.575C8.13374 37.545 8.07765 37.5027 8.05976 37.4351C7.98486 37.1845 8.00513 36.476 8.30502 36.3617C8.30942 36.3077 8.26092 36.2773 8.24195 36.233C8.06197 35.8456 8.26432 35.5194 8.471 35.0339C8.38513 34.4226 8.56786 33.4004 8.64728 33.1626C8.7519 32.8501 8.62635 32.8888 8.59803 32.6167C8.52636 32.2919 8.83961 32.3135 9.15764 32.3045C9.03462 31.6399 8.96399 31.3021 8.84995 30.2403C8.3577 31.0824 8.20816 30.2593 8.00961 29.3037C7.80385 28.2431 7.80604 28.7389 7.84954 27.9363C7.85245 27.9109 7.8421 23.6772 8.22574 23.4079C8.29335 23.179 8.65929 22.3049 8.774 22.2131C8.94498 21.8917 9.17067 21.6071 9.38863 21.3199C9.37377 21.2415 9.44289 21.1943 9.50231 21.1687C9.52762 21.0951 9.58993 21.0222 9.55596 20.9407C9.57673 20.8585 9.65827 20.8383 9.72437 20.8121C9.78608 20.7333 9.87625 20.6717 9.90112 20.5677C9.94143 20.4322 10.0104 20.3034 10.1168 20.2127C10.2978 19.9108 10.4189 19.5695 10.4685 19.2166C10.4482 19.1952 10.4297 19.1723 10.4128 19.1484C10.4278 19.1262 10.4456 19.1064 10.4663 19.0899C10.5132 17.5491 10.4405 17.7669 9.3806 15.0576C9.34119 15.1599 9.2986 15.261 9.26026 15.3639C9.28391 15.3948 9.31316 15.4236 9.32408 15.4629C9.30482 15.5409 9.26391 15.6108 9.23782 15.6864C9.27283 15.7504 9.22858 15.812 9.2066 15.8715C9.18083 15.9297 9.16809 16.0083 9.09807 16.0247C8.2518 18.1292 8.50372 17.5066 8.1089 18.9283C8.15664 18.9791 8.20182 19.0377 8.26714 19.0646C8.30791 19.0246 8.34338 18.9742 8.39629 18.9508C8.4357 18.9323 8.48602 18.981 8.46555 19.0231C8.42057 19.1315 8.17211 19.2503 8.17315 19.4227C8.16968 19.5937 8.13542 19.7615 8.09509 19.9265C8.09161 20.0397 8.14602 20.1472 8.153 20.2588C8.11495 20.4101 8.06827 20.5616 7.98991 20.6962C7.92853 20.8073 7.83016 20.8979 7.80543 21.0285C7.76588 21.0219 7.72465 20.9964 7.68463 21.0097C7.67539 21.0352 7.67007 21.0621 7.66401 21.0887C7.62854 21.0803 7.59339 21.0722 7.55821 21.0643C7.50805 21.308 7.41377 21.2781 7.23291 21.3945C7.20123 21.455 7.15713 21.5061 7.11498 21.5589C7.10316 21.551 7.09149 21.5432 7.08011 21.5356C7.04267 21.6015 7.00069 21.6645 6.95841 21.7273C7.04715 21.9517 6.88311 21.9877 6.83413 22.1011C6.75971 22.2542 6.68057 22.4049 6.60175 22.5557C6.83182 22.7055 7.05011 22.9005 6.89945 23.1514C6.66047 23.5611 6.40043 23.432 6.03062 23.6804C6.00621 23.7605 5.96211 23.8312 5.9227 23.9037C5.91275 23.9925 5.79632 24.2559 5.54513 24.2452C5.15437 24.6499 4.16286 25.0554 4.28857 25.8314C4.3422 25.8679 4.66706 26.032 4.46607 26.2134C4.38436 26.2671 4.10388 26.1569 4.01438 26.0377C3.92601 25.8983 3.90172 25.5157 3.89555 25.349C3.85704 25.3835 3.82127 25.4211 3.78687 25.46C3.8043 26.065 4.12089 25.9749 4.00074 26.348C3.95441 26.443 3.70934 26.207 3.61681 26.1161C3.50237 25.984 3.50077 26.0423 3.38308 25.6034C3.35974 25.5212 3.36171 25.4348 3.34943 25.3509C3.28233 25.867 3.48647 25.9564 3.46372 26.23C3.45518 26.3407 3.32169 26.4695 3.16359 26.2128C3.01616 25.9592 2.8593 25.4244 2.93182 25.1351C2.61735 25.3897 2.66143 25.5729 2.50802 25.6278C2.12528 25.7793 2.42327 24.986 2.78388 24.6964C2.8636 24.6191 2.96002 24.5641 3.03853 24.4854C3.06111 24.4613 3.09537 24.461 3.12462 24.4523C3.11941 24.3816 3.08749 24.3556 3.201 24.3027C3.53629 23.8206 4.45032 23.5695 4.71131 23.3776C4.70054 23.3051 4.71965 23.2337 4.7195 23.1618C4.60446 22.652 4.52595 22.6336 4.47259 22.5137C4.25157 22.0461 4.56213 21.8669 5.02826 21.9234C5.06206 21.7692 5.09784 21.6155 5.13604 21.4624C5.15816 21.3877 5.11739 21.3055 5.15529 21.2338C5.21789 21.1195 5.34446 21.0649 5.46434 21.0475C5.48496 20.965 5.50465 20.8825 5.52452 20.8C5.38993 20.4683 5.35941 20.4384 5.48146 20.307C5.69908 20.0546 5.65028 20.0338 5.64819 19.9736C5.59563 19.597 5.70219 18.9632 5.97664 18.4629C6.01151 18.388 6.01576 18.3029 6.02379 18.2213C6.00908 18.196 5.98134 18.1692 5.99575 18.1371C6.02853 18.0183 6.04124 17.9382 6.12597 17.9838C6.13596 18.0297 6.14143 18.0766 6.13932 18.1238C6.25436 18.1129 6.3685 18.0953 6.48294 18.079C6.74274 17.2153 7.23267 16.4858 7.49881 15.206C7.47394 15.1366 7.46123 15.2046 7.51457 14.8941C7.51729 14.8642 7.55004 14.8578 7.56958 14.843C7.59066 14.7671 7.5999 14.688 7.62596 14.6139C7.67128 14.5659 7.74312 14.5882 7.79967 14.595C7.80891 14.5523 7.82014 14.5099 7.82544 14.4665C7.82544 14.4665 7.56249 14.3514 7.32493 14.2125C7.10929 14.0601 6.93765 13.8046 6.70165 13.7086C6.55507 13.8633 6.4129 14.0243 6.24466 14.1541C5.93342 14.3469 5.92352 13.7543 5.47738 13.5614C5.28252 13.5305 4.62651 13.6033 4.44847 13.4167C4.44818 13.3758 4.44847 13.3353 4.44969 13.2948C4.69098 13.0375 4.79285 13.0643 4.90427 12.9606C5.22302 12.6924 5.55408 12.4405 5.87419 12.174C5.80537 12.0832 5.80794 11.9554 5.82917 11.8471C5.59286 11.7862 5.34867 11.7508 5.12087 11.659C5.11328 11.644 5.10587 11.6289 5.09843 11.6142C5.17537 11.4853 5.21527 11.5623 5.30488 11.5135C7.7324 10.1995 7.99764 10.1699 9.38819 10.49C9.45701 10.4226 9.52553 10.3546 9.591 10.2836C9.59525 10.2004 9.62358 10.1221 9.64161 10.0418C9.773 9.5084 9.7227 9.54108 9.87503 9.40523C9.82164 8.97738 9.94512 8.86849 10.0895 8.81075C10.1342 8.8063 10.1789 8.81549 10.2237 8.81961C10.2115 8.78731 10.1852 8.75628 10.1923 8.71938C10.2109 8.62375 10.1838 8.52781 10.178 8.43218C10.0788 7.43412 10.0893 7.25944 10.2793 6.48708C10.2911 6.41029 10.2608 6.29962 10.3469 6.25988C10.5012 5.82827 10.7356 5.44544 11.3658 5.28587ZM15.029 20.273C15.0405 21.1182 15.2338 20.7976 15.1742 21.3382C15.1675 21.3908 15.1843 21.4424 15.1858 21.4949C15.1954 21.8726 15.1391 21.6837 15.2306 21.8407C15.2669 21.8857 15.2663 21.9539 15.2303 21.9992C15.256 22.389 15.2492 22.2377 15.2901 22.3663C15.3299 22.4771 15.3068 22.912 15.4014 22.9751C15.504 23.0618 15.5611 23.1932 15.5756 23.3284C15.6265 23.456 15.7003 23.5727 15.7535 23.6995C15.7797 23.7773 15.8572 23.8135 15.8978 23.8811C15.9496 23.9492 15.9706 24.0355 16.0163 24.1073C16.2164 24.3754 16.3187 24.7029 16.4289 25.0181C17.0966 24.7433 17.7561 24.4469 18.4167 24.154C18.3318 23.9794 18.1861 23.8529 18.0661 23.7066C18.0323 23.6718 18.0371 23.6197 18.0238 23.5763C18.0021 23.5336 17.9677 23.5005 17.9353 23.4671C17.9128 23.4635 17.8893 23.4636 17.869 23.454C17.862 23.4329 17.8579 23.4119 17.8537 23.391C17.6824 23.2449 17.2593 23.1228 17.0452 23.0704C16.9941 23.075 16.9427 23.0922 16.8953 23.0618C16.8639 22.9224 16.9349 22.8852 17.1933 22.6165C16.9459 22.3781 16.714 22.1232 16.4831 21.8675C16.4431 21.8729 16.4107 21.8518 16.4004 21.8109C16.441 21.7356 16.5037 21.6787 16.5645 21.6219C16.3875 21.412 16.2157 21.1971 16.0507 20.9769C15.9996 21.1555 15.9763 21.3433 15.9058 21.5157C15.8755 21.5201 15.8358 21.5283 15.8235 21.4895C15.7106 21.1385 15.9015 21.1129 15.7235 20.8191C15.6104 20.6884 15.4107 20.6953 15.186 20.4793C15.1316 20.4124 15.0775 20.3449 15.029 20.273ZM12.4479 27.459C12.4685 27.4447 12.4894 27.4309 12.5104 27.4173C12.4664 27.3209 12.422 27.2246 12.3796 27.1276C12.4021 27.2379 12.4252 27.3484 12.4479 27.459Z" fill="white"/>
</svg>
