<svg width="50" height="50" viewBox="0 0 50 50" fill="none" xmlns="http://www.w3.org/2000/svg">
<rect width="50" height="50" rx="2" fill="black"/>
<path d="M31.3828 9.09059C31.4679 9.14423 31.5437 9.18524 31.5594 9.18524C31.572 9.18524 31.6856 9.24832 31.8118 9.32718C31.9379 9.40605 32.0515 9.46914 32.0673 9.46914C32.0831 9.46914 32.1808 9.52591 32.2849 9.59531C32.3891 9.66469 32.4868 9.72148 32.5026 9.72148C32.5215 9.72148 32.5941 9.76247 32.6635 9.81611C32.736 9.86656 32.8086 9.91074 32.8243 9.91074C32.8685 9.91074 33.0767 10.0337 33.1839 10.1221C33.2344 10.1631 33.3007 10.1946 33.3322 10.1946C33.3637 10.1946 33.4016 10.2073 33.411 10.2262C33.4552 10.2987 33.5656 10.2514 33.7013 10.1C33.9315 9.84449 34.0829 9.79088 34.1902 9.92651C34.2406 9.99276 34.2785 10.0054 34.4204 10.0054C34.5656 10.0054 34.5971 10.018 34.6539 10.0874C34.6917 10.1347 34.7201 10.1883 34.7201 10.2104C34.7201 10.264 34.7927 10.2893 34.9377 10.2893C35.1176 10.2893 35.187 10.3555 35.1996 10.5448C35.209 10.6962 35.2153 10.7088 35.3352 10.775C35.4046 10.816 35.4803 10.8823 35.5055 10.9264C35.5466 10.9958 35.5434 11.0211 35.4708 11.1662L35.392 11.327L35.4582 11.3901C35.4961 11.428 35.5434 11.4564 35.5623 11.4564C35.5781 11.4564 35.6507 11.4942 35.7169 11.5447C35.8683 11.6488 36.0607 11.7403 36.1333 11.7403C36.1648 11.7403 36.2531 11.6772 36.3288 11.5983C36.4708 11.4532 36.5906 11.4154 36.6695 11.4942C36.7231 11.5478 36.7168 11.8128 36.66 11.9516C36.5969 12.103 36.6001 12.1345 36.6821 12.1756C36.7736 12.2229 36.9818 12.3428 37.0859 12.4058C37.13 12.4342 37.2846 12.5257 37.4266 12.6109C37.5717 12.696 37.7294 12.7907 37.7735 12.8191C37.8208 12.8506 37.8808 12.8853 37.906 12.8979C38.048 12.9642 40.2875 14.4309 40.3349 14.4846C40.3443 14.4972 40.4642 14.5823 40.603 14.677C40.8364 14.8347 41.3127 15.1722 42.0382 15.6895C42.2022 15.8062 42.4073 15.9513 42.4956 16.0144C42.5808 16.0775 42.7732 16.2163 42.9214 16.3267C43.0697 16.434 43.2463 16.5633 43.3158 16.6074C43.3851 16.6548 43.4987 16.7368 43.5681 16.7904C43.6375 16.8408 43.729 16.9103 43.77 16.9386C43.811 16.967 43.8583 17.008 43.8804 17.0238C43.8993 17.0427 44.0791 17.1815 44.2778 17.333C44.6658 17.6295 44.8267 17.7556 45.1768 18.049C45.2967 18.1499 45.5112 18.3266 45.65 18.4433C46.0916 18.8124 46.1799 18.8849 46.2146 18.9164C46.2335 18.9354 46.3849 19.0615 46.549 19.2003C46.713 19.336 46.855 19.4558 46.8644 19.4684C46.8739 19.4779 47.0347 19.6199 47.2271 19.7839C47.4164 19.9479 47.5804 20.0899 47.5899 20.0993C47.5994 20.1088 47.7413 20.235 47.9053 20.3801C48.2996 20.7302 48.7349 21.1781 48.858 21.3579C48.9147 21.4368 48.9652 21.5093 48.9747 21.5188C49.0093 21.5503 49.1292 21.8216 49.186 21.9919C49.2144 22.0866 49.2554 22.1969 49.2712 22.2348C49.2901 22.2758 49.2932 22.3169 49.2838 22.3263C49.2649 22.3452 49.1513 22.2821 49.0567 22.2064C49.0409 22.1907 48.9904 22.1497 48.9463 22.115C48.9021 22.0802 48.7885 21.9825 48.6939 21.9005C48.5993 21.8184 48.4006 21.6512 48.2523 21.5346C48.104 21.4147 47.9621 21.2948 47.9306 21.2664C47.9022 21.2381 47.8107 21.1592 47.7255 21.0898C47.6435 21.0236 47.4764 20.8816 47.3533 20.7775C47.2335 20.6734 47.0978 20.5567 47.0536 20.522C46.8549 20.3517 46.243 19.8375 46.1862 19.787C46.1515 19.7586 45.9875 19.623 45.8235 19.4842C45.6594 19.3454 45.508 19.2161 45.4891 19.2003C45.385 19.1025 44.2652 18.1909 44.057 18.0332C43.9435 17.9481 43.8362 17.8629 43.8141 17.8439C43.792 17.8282 43.7542 17.7966 43.7321 17.7746C43.6659 17.721 42.729 17.0333 42.6376 16.9702C42.5934 16.9418 42.382 16.7904 42.1644 16.6327C41.4641 16.1311 40.7071 15.5949 40.5557 15.494C40.5147 15.4687 40.4043 15.3899 40.3065 15.3205C39.7734 14.9356 38.4139 14.0272 38.0007 13.778C37.9218 13.7307 37.7451 13.6203 37.6064 13.5319C37.4676 13.4468 37.2751 13.3301 37.1805 13.2764C37.0859 13.2228 36.8461 13.084 36.6506 12.9642C36.4519 12.8474 36.2784 12.7497 36.2626 12.7497C36.2468 12.7497 36.1585 12.8285 36.067 12.9232C35.8809 13.1156 35.7831 13.144 35.6759 13.0241C35.6128 12.9547 35.6128 12.9515 35.6664 12.7339C35.72 12.5194 35.72 12.5099 35.6601 12.4437C35.6254 12.4058 35.5308 12.3459 35.4519 12.3112C35.2973 12.2386 35.187 12.1787 35.1617 12.1472C35.1523 12.1345 35.1144 12.1188 35.0797 12.1062C35.0261 12.0904 34.9693 12.1282 34.7958 12.3017C34.676 12.4216 34.5245 12.5446 34.4583 12.5762C34.3447 12.6298 34.329 12.6298 34.1555 12.5762C33.9378 12.51 33.8653 12.5194 33.8148 12.6235C33.7959 12.6645 33.7013 12.7781 33.6066 12.8727C33.512 12.9705 33.4237 13.0809 33.411 13.1219C33.3827 13.2197 33.2249 13.3931 33.0956 13.4752C33.0199 13.5225 32.9852 13.573 32.9568 13.6802C32.9221 13.8253 32.8401 13.9262 32.6919 14.0209C32.5688 14.0997 32.449 14.3048 32.4174 14.494C32.3827 14.7085 32.3575 14.7684 32.2723 14.8599C32.2313 14.9009 32.1903 14.9798 32.1777 15.0366C32.1493 15.2006 31.8812 15.5034 31.7014 15.5823C31.5783 15.6359 31.5342 15.6769 31.4774 15.7873C31.4396 15.8662 31.4175 15.9513 31.427 15.9797C31.4553 16.0555 31.3544 16.1532 31.2219 16.1753C31.1588 16.1879 31.061 16.2321 31.0043 16.2731C30.9191 16.3362 30.8718 16.3488 30.7772 16.3362C30.6573 16.3204 30.6542 16.3204 30.6068 16.4655C30.5753 16.5507 30.5564 16.7178 30.5564 16.8819C30.5564 17.0711 30.5374 17.2225 30.4933 17.3582C30.427 17.5695 30.4175 17.5948 30.3103 17.8282C30.099 18.2982 30.0296 18.4307 29.875 18.6704C29.7804 18.8155 29.7047 18.9417 29.7047 18.9511C29.7047 18.9606 29.6227 19.0742 29.5217 19.2067C29.2536 19.5599 29.2347 19.5946 29.2 19.7839C29.1464 20.0678 29.0044 20.5347 28.8972 20.7775C28.8025 20.9983 28.7615 21.3264 28.7394 22.0235C28.7237 22.5597 28.73 22.7805 28.771 23.0802C28.7994 23.2852 28.8214 23.5628 28.8214 23.6953C28.8214 23.8246 28.8372 24.1148 28.8562 24.3419C28.8877 24.6889 28.8845 24.793 28.8435 25.0201C28.7899 25.3072 28.7331 25.4838 28.6259 25.6952C28.5912 25.7646 28.5502 25.9034 28.5375 25.998C28.5218 26.0926 28.4871 26.2913 28.4587 26.4396C28.4303 26.5879 28.3925 26.7645 28.3798 26.8339C28.3041 27.2124 28.0896 28.0262 27.9067 28.6161C27.7427 29.1555 27.7174 29.2596 27.6922 29.5403C27.6575 29.9062 27.6827 29.9188 27.9824 29.7233C28.1054 29.6444 28.2695 29.553 28.3483 29.5182C28.4272 29.4867 28.5596 29.4267 28.648 29.3889C28.9918 29.2344 29.0517 29.2154 29.2252 29.2154C29.323 29.2154 29.4555 29.2312 29.5154 29.247C29.5754 29.2659 29.8845 29.288 30.1999 29.3006C30.7708 29.3195 30.7771 29.3164 30.8939 29.2438C31.3197 28.9694 31.8654 28.818 32.1493 28.8937C32.2282 28.9158 32.3733 28.9315 32.4742 28.9315C32.6729 28.9347 32.7676 28.9536 33.1903 29.0672C33.5183 29.1523 33.758 29.2911 34.0167 29.534C34.3258 29.8242 34.4078 29.9851 34.4835 30.4488C34.5119 30.6286 34.5498 30.8273 34.5656 30.8904C34.6097 31.067 34.6002 31.3541 34.5435 31.4739C34.4646 31.638 34.3573 31.7263 34.1428 31.802C33.7959 31.925 33.717 31.9661 33.7013 32.0291C33.6697 32.1395 33.7328 32.2121 33.9473 32.3225C34.0293 32.3666 34.0892 32.4865 34.0892 32.6221C34.0924 32.8019 34.2406 33.0448 34.5277 33.3414C34.6413 33.458 35.1396 33.8523 35.1743 33.8523C35.1838 33.8523 35.2437 33.887 35.3068 33.9312C35.4456 34.0259 35.8241 34.2088 36.108 34.316C36.6758 34.5337 37.2657 34.6725 37.641 34.6756C37.7956 34.6756 37.9502 34.6883 37.9849 34.704C38.0416 34.7261 38.0416 34.7292 37.9596 34.7513C37.8934 34.7702 37.8744 34.7892 37.8839 34.8302C37.8965 34.8743 37.8744 34.8902 37.783 34.9059C37.5086 34.9501 37.1963 34.8996 36.7925 34.7387C36.6663 34.6882 36.4519 34.6126 36.313 34.5652C36.1743 34.5179 36.0323 34.4674 35.9976 34.4517C35.9629 34.4359 35.8431 34.3854 35.7295 34.3381C35.3289 34.1772 35.0608 34.0353 34.8147 33.8492C34.5277 33.6378 34.0672 33.193 33.8747 32.9407C33.7643 32.7988 33.7391 32.783 33.7233 32.8303C33.7107 32.865 33.6823 32.9376 33.6602 32.9975C33.6003 33.1458 33.6035 33.2057 33.6918 33.3414C33.8116 33.5337 34.1807 33.988 34.3037 34.0984C34.7769 34.5179 36.0292 35.1298 36.6064 35.2245C36.7799 35.2529 36.8461 35.3506 36.7105 35.3822C36.6569 35.3948 36.5717 35.3822 36.5023 35.3538C36.4361 35.3254 36.3225 35.3034 36.25 35.3034C36.0796 35.3034 35.821 35.2213 35.6254 35.1078C35.5434 35.0605 35.4645 35.0194 35.4551 35.0194C35.4456 35.0194 35.209 34.868 34.9283 34.6819C34.4835 34.3886 34.3605 34.2845 33.941 33.8618C33.4678 33.3886 33.4584 33.3823 33.411 33.4517C33.3858 33.4896 33.3637 33.54 33.3637 33.5685C33.3606 33.5937 33.3416 33.6725 33.3164 33.7419C33.288 33.8113 33.2597 34.0069 33.2533 34.1741C33.2344 34.4958 33.1997 34.6094 33.0483 34.8586C32.9947 34.9406 32.9537 35.0542 32.9537 35.1078C32.9537 35.1645 32.9347 35.2087 32.9032 35.2213C32.8622 35.2371 32.8559 35.2686 32.8716 35.3696C32.8969 35.5368 32.7581 35.8396 32.5467 36.073C32.408 36.2244 32.3922 36.2591 32.3575 36.4894C32.3102 36.7859 32.2502 36.9562 32.1461 37.0919C32.0862 37.1707 32.0736 37.2244 32.0736 37.3789C32.0767 37.483 32.0641 37.5934 32.0452 37.6249C32.0294 37.6597 32.0074 37.8331 31.9947 38.0161C31.979 38.2811 31.9569 38.382 31.8907 38.5176C31.8118 38.6848 31.8086 38.6912 31.8623 38.8331C31.8907 38.9119 31.9127 39.0192 31.9127 39.0728C31.9159 39.1769 31.9506 39.2116 32.2439 39.3725C32.348 39.4293 32.5499 39.5523 32.695 39.6469C32.9568 39.8204 33.4331 40.0444 33.7454 40.1421C33.84 40.1737 33.9441 40.2084 33.9788 40.2242C34.0135 40.2399 34.1334 40.2809 34.2438 40.3188C34.6381 40.4481 35.004 40.7604 35.004 40.9654C35.004 41.0727 34.9914 41.0916 34.8147 41.2462C34.6476 41.3944 34.2974 41.4386 34.0419 41.3408C33.9599 41.3092 33.7864 41.2903 33.553 41.2872C33.3543 41.284 33.1618 41.2651 33.1272 41.243C32.9663 41.1547 32.5215 40.9402 32.4048 40.8992C32.0421 40.7667 31.8686 40.7447 30.6668 40.6626C30.1589 40.6311 29.9381 40.5806 29.8529 40.4797C29.7772 40.3882 29.7268 40.1736 29.7457 40.0128C29.7772 39.7542 29.8246 39.4765 29.8561 39.3662C29.9791 38.953 30.0643 38.4956 30.1021 38.0003C30.121 37.7574 30.1179 37.7385 30.0201 37.5461C29.9065 37.3221 29.875 37.0888 29.9539 37.0382C29.9854 37.0193 29.9949 36.9657 29.9886 36.8427C29.9602 36.4421 29.9759 36.1708 30.0327 36.0856C30.0832 36.0099 30.0832 35.991 30.0422 35.9121C29.9129 35.6661 29.8151 35.3097 29.8403 35.1803C29.8529 35.1141 29.834 35.0289 29.7772 34.9059C29.6637 34.6535 29.6826 34.4801 29.8561 34.253C29.9791 34.0952 30.0201 33.9722 29.9633 33.9344C29.9192 33.9091 28.7489 34.316 28.4839 34.4485C28.342 34.5211 28.219 34.5778 28.2095 34.5778C28.2 34.5778 27.9761 34.682 27.7111 34.8113C26.9351 35.1866 26.8405 35.2245 26.3768 35.338C26.0519 35.4169 25.4652 35.4327 25.2255 35.3696C24.7933 35.256 24.6766 35.234 24.3738 35.2182C24.1908 35.2087 24.0268 35.1898 24.0079 35.174C23.989 35.1582 23.866 35.1803 23.7114 35.2276C23.4622 35.3065 23.4401 35.3065 23.3423 35.2592C23.1909 35.1866 23.1026 35.1961 22.8976 35.3002C22.7998 35.3507 22.5254 35.4547 22.2919 35.5336C22.0585 35.6124 21.7462 35.7292 21.598 35.7923C21.2699 35.9342 21.2289 35.9468 20.0523 36.2276C19.3994 36.3853 19.1786 36.4295 18.5382 36.5304C18.002 36.6155 17.6929 36.6723 17.5288 36.7102C17.4342 36.7354 17.2986 36.7544 17.226 36.7544C17.0525 36.7544 16.9737 36.7859 16.8128 36.9152C16.5541 37.1266 16.2797 37.3032 15.9674 37.4641C15.5416 37.6849 15.2766 37.7764 15.0779 37.7795C14.9233 37.7795 14.9044 37.7701 14.7782 37.6439C14.6331 37.4925 14.6457 37.4925 14.2736 37.6123C14.1284 37.6597 14.0559 37.7007 14.0338 37.748C14.0054 37.8079 13.9676 37.8205 13.8162 37.8331C13.6742 37.8426 13.5954 37.871 13.4597 37.9593C13.16 38.1549 13.0749 38.2306 13.0023 38.3568C12.8478 38.628 12.6995 38.7384 12.4756 38.7448C12.3904 38.7479 12.2674 38.7889 12.1507 38.8489C12.0466 38.9056 11.9015 38.975 11.8289 39.0034C11.7248 39.0444 11.6933 39.076 11.6775 39.1517C11.6586 39.2305 11.627 39.2621 11.5135 39.3125C11.34 39.3851 11.2296 39.3883 11.0971 39.322C11.0088 39.2778 10.9678 39.2747 10.8321 39.3063C10.7407 39.3283 10.5892 39.3567 10.4946 39.3693C10.2612 39.404 10.1571 39.4576 10.1224 39.5617C10.0972 39.6312 10.0562 39.6564 9.90475 39.6974C9.69656 39.7573 9.55775 39.7636 9.44738 39.7226C9.37798 39.6974 8.98052 39.7983 8.84803 39.8772C8.8165 39.8929 8.77549 39.9087 8.75655 39.9087C8.69033 39.9087 8.50737 40.0096 8.50737 40.0506C8.50737 40.161 8.09415 40.3219 7.97429 40.2557C7.93643 40.2368 7.8418 40.2305 7.73455 40.2431C7.58944 40.262 7.52637 40.2904 7.39387 40.3976C7.16991 40.5837 6.89232 40.7257 6.7157 40.7509C6.63369 40.7604 6.52328 40.7983 6.4728 40.8298C6.41919 40.8613 6.30879 40.9244 6.22047 40.9717C6.13531 41.0222 5.9681 41.1515 5.84825 41.2651C5.64321 41.4575 5.62744 41.4669 5.46972 41.4701C5.35932 41.4733 5.26785 41.4985 5.19531 41.5427C5.13537 41.5805 5.06281 41.6215 5.03758 41.6341C4.924 41.6878 4.62436 41.9086 4.55181 41.9906C4.46663 42.0915 4.35623 42.1483 4.08496 42.2303C3.88623 42.2871 3.61811 42.4638 3.3216 42.7256C3.04403 42.9748 2.9841 42.9968 2.65289 43C2.19234 43 1.95891 42.858 1.90845 42.5426C1.89899 42.4953 1.86743 42.4763 1.76021 42.4606C1.6214 42.4416 1.50469 42.3502 1.50469 42.2556C1.50469 42.2303 1.49208 42.2114 1.47316 42.2114C1.41322 42.2114 1 41.7666 1 41.7036C1 41.6688 1.05362 41.5837 1.11671 41.5174C1.2208 41.407 1.27128 41.3818 1.50469 41.325C2.17973 41.1641 2.67182 40.9875 3.03455 40.7762C3.15443 40.7068 3.31844 40.6216 3.39731 40.59C3.74745 40.445 3.87047 40.3756 4.09126 40.1958C4.22059 40.0917 4.34363 40.0034 4.36254 40.0034C4.41616 40.0034 4.49502 39.8992 4.50763 39.8141C4.5171 39.7257 4.79784 39.5207 5.03758 39.4229C5.52651 39.2242 5.88294 38.9939 5.96495 38.8268C5.99964 38.7511 6.08482 38.6627 6.19208 38.5934C6.33717 38.4987 6.37817 38.483 6.47911 38.4987C6.58322 38.5176 6.63369 38.4987 6.89863 38.341C7.34026 38.076 8.07206 37.5807 8.13515 37.5019C8.16668 37.4641 8.19194 37.3947 8.19194 37.3474C8.19194 37.3 8.21716 37.2401 8.24558 37.2117C8.3181 37.1392 8.55786 37.0382 8.65877 37.0382C8.77864 37.0382 9.26443 36.6534 9.26443 36.5557C9.26443 36.5336 9.31487 36.461 9.37483 36.3947C9.55774 36.1897 9.4663 36.1708 9.09724 36.3411C8.87014 36.4484 8.70924 36.4862 8.68402 36.4452C8.66192 36.4074 8.78496 36.3222 8.90482 36.2938C8.9553 36.2844 9.00891 36.2559 9.02786 36.237C9.06252 36.196 9.36218 36.073 9.87952 35.8806C10.0341 35.8238 10.1981 35.7513 10.3117 35.6945C10.3558 35.6692 10.4221 35.6503 10.4568 35.6503C10.4946 35.6503 10.5325 35.6345 10.5419 35.6188C10.5546 35.5998 10.5104 35.5872 10.4347 35.5872C10.3653 35.5872 10.3022 35.5998 10.2927 35.6156C10.2801 35.6314 10.217 35.6535 10.1476 35.6661C10.0782 35.6787 10.0215 35.7008 10.0215 35.7166C10.0215 35.7324 9.95837 35.745 9.87952 35.745C9.80064 35.745 9.73758 35.7576 9.73758 35.7765C9.73758 35.7923 9.69024 35.808 9.63347 35.8049L9.53253 35.8017L9.63347 35.7734C9.69024 35.7576 9.73758 35.7292 9.73758 35.7134C9.73758 35.6976 9.78803 35.6756 9.84798 35.663C9.9079 35.6535 9.96784 35.6314 9.97731 35.6156C9.98676 35.5998 10.0215 35.5872 10.053 35.5872C10.0845 35.5872 10.1508 35.5715 10.2013 35.5494C10.2864 35.5147 10.8353 35.3601 11.0624 35.3065C11.1223 35.2907 11.2138 35.2623 11.2674 35.2402C11.3179 35.2182 11.3905 35.1898 11.4252 35.174C11.4598 35.1614 11.5545 35.1204 11.6365 35.0857C11.7532 35.0321 11.8447 35.0226 12.1097 35.0226C12.4251 35.0258 12.4377 35.0289 12.5986 35.1362C12.7342 35.2276 12.7815 35.2434 12.8667 35.2245C13.037 35.1929 13.2673 35.0762 13.2862 35.0131C13.3052 34.9658 13.2263 34.7797 13.1727 34.7356C13.1254 34.6977 13.0496 34.5116 13.0496 34.4327C13.0496 34.3886 13.0875 34.2782 13.1348 34.1867C13.3556 33.7735 13.6111 33.5274 14.0464 33.3161L14.3713 33.1615L14.4155 32.9944C14.4849 32.7514 14.5322 32.5622 14.5669 32.3887C14.5985 32.2341 14.7562 31.9535 14.8571 31.8683C14.8886 31.8462 14.9107 31.8083 14.9107 31.7862C14.9107 31.761 14.958 31.6538 15.0148 31.5434C15.0716 31.433 15.1441 31.2815 15.1789 31.2027C15.2104 31.1238 15.2766 31.0166 15.324 30.9598C15.3712 30.903 15.4406 30.7768 15.4785 30.6759C15.5163 30.5718 15.5984 30.433 15.6709 30.3573C15.8412 30.1712 15.9422 29.9535 15.8949 29.8747C15.8413 29.7927 15.8476 29.657 15.9012 29.657C15.9296 29.657 15.939 29.635 15.9296 29.5939C15.9201 29.5593 15.9043 29.5309 15.8949 29.5309C15.8697 29.5309 15.7308 29.6886 15.7308 29.7233C15.7308 29.739 15.7088 29.7517 15.6835 29.7517C15.6552 29.7517 15.6362 29.7832 15.6331 29.8211C15.6299 29.881 15.6268 29.8841 15.6141 29.8337C15.6047 29.8021 15.6141 29.7611 15.6331 29.7422C15.652 29.7233 15.6678 29.6728 15.6678 29.6318C15.6678 29.5908 15.6835 29.5308 15.7025 29.4962C15.7372 29.4267 15.8034 29.1808 15.8412 28.9789C15.8539 28.9126 15.8886 28.8054 15.9201 28.7423C16.0147 28.5562 16.1062 28.4805 16.5384 28.2155C16.5699 28.1966 16.674 28.1398 16.7655 28.0925C16.857 28.0452 17.0021 27.9347 17.0872 27.8528C17.2481 27.695 17.2986 27.6761 17.409 27.7361C17.4658 27.7676 17.491 27.755 17.5888 27.6509C17.6519 27.5814 17.7749 27.4805 17.8601 27.4206C18.0367 27.3039 18.3395 26.9064 18.5855 26.4711C18.9199 25.8844 19.0681 25.6983 19.5981 25.2094C19.7274 25.0896 19.8189 24.9665 19.8946 24.8151C20.0492 24.506 20.3078 24.1747 20.7715 23.6921C21.1438 23.3073 21.2699 23.1464 21.4213 22.872C21.5191 22.6954 21.8629 22.1843 22.068 21.9131C22.3708 21.5125 22.9449 20.8848 23.1751 20.7018C23.3833 20.5378 23.5852 20.3454 23.6231 20.2791C23.6451 20.2381 23.6262 20.1466 23.56 19.9479C23.4653 19.6703 23.4117 19.4117 23.3644 19.0111C23.3486 18.888 23.314 18.7272 23.2855 18.6515C23.1909 18.396 23.0679 17.6515 23.0994 17.5285C23.1215 17.4371 23.2035 17.4118 23.2761 17.4749C23.3518 17.538 23.3959 17.497 23.3959 17.3613C23.3959 17.2982 23.418 17.1153 23.4433 16.9607C23.5442 16.333 23.6609 16.0807 24.0111 15.7274C24.2255 15.5129 24.3012 15.4561 24.5094 15.3709C24.6451 15.3142 24.8816 15.2479 25.0299 15.2227C25.2791 15.1785 25.339 15.1785 25.6576 15.2258C26.1308 15.2921 26.3453 15.3773 26.686 15.6296C26.9194 15.7999 27.1055 16.0207 27.2064 16.251C27.3484 16.5664 27.3768 16.7147 27.3831 17.1815C27.3894 17.4339 27.4051 17.6421 27.4209 17.6452C27.4493 17.6515 27.585 17.4812 28.3704 16.4403C28.6259 16.1027 28.853 15.8062 28.8782 15.781C28.9949 15.6611 29.017 15.5981 28.976 15.4687C28.9476 15.3709 28.9476 15.3299 28.9792 15.2731C29.0013 15.2322 29.017 15.1123 29.0139 15.005C29.0076 14.8 29.0297 14.7558 29.2757 14.5003C29.323 14.4467 29.3861 14.3647 29.4113 14.3174C29.4807 14.1817 29.7615 13.9262 29.8655 13.9042C29.9633 13.8853 30.1747 13.6771 30.1778 13.5982C30.1778 13.5225 30.3639 13.2607 30.4806 13.1723C30.5374 13.1282 30.6321 13.0872 30.6888 13.084C30.7582 13.0777 30.8844 13.0083 31.061 12.8853C31.3954 12.6456 31.468 12.5762 31.5216 12.45C31.5626 12.3459 31.7613 12.1882 31.979 12.0746C32.0421 12.0431 32.2219 11.9011 32.3796 11.7592C32.5436 11.6078 32.7108 11.4848 32.7707 11.469C32.8653 11.4406 32.8811 11.4185 32.9474 11.2103C33.0357 10.9359 33.0357 10.9359 32.7202 10.7687C32.2818 10.5321 32.1178 10.4375 32.0074 10.365C31.9474 10.3239 31.8843 10.2893 31.8717 10.2893C31.8559 10.2893 31.7392 10.2262 31.6162 10.1473C31.4901 10.0684 31.3765 10.0054 31.3639 10.0054C31.3008 10.0054 30.8087 9.67417 30.7898 9.62054C30.7519 9.49751 30.8529 9.20099 30.9853 9.0559C31.0642 8.97073 31.2125 8.98335 31.3828 9.09059ZM29.3609 14.6549C29.2568 14.7621 29.2505 14.8473 29.3482 14.8095C29.4176 14.7811 29.5438 14.6391 29.547 14.5855C29.547 14.5161 29.4681 14.5445 29.3609 14.6549ZM21.1627 27.4584C20.7684 28.0041 20.2921 28.4332 19.7369 28.7581C19.4341 28.9315 19.2858 29.105 19.2953 29.269C19.3079 29.4299 19.2953 29.4646 19.2038 29.5687C19.0871 29.7044 18.8537 30.086 18.8537 30.1428C18.8537 30.1681 18.8347 30.209 18.8127 30.2311C18.7906 30.2532 18.7212 30.3541 18.6581 30.4551C18.5603 30.6097 18.3143 30.8557 18.248 30.8557C18.2354 30.8557 18.1408 30.9062 18.0367 30.9693C17.9042 31.0481 17.838 31.1081 17.8159 31.1775C17.778 31.2847 17.7118 31.3478 17.5856 31.3951C17.5383 31.414 17.491 31.455 17.4815 31.4834C17.4721 31.515 17.4216 31.5812 17.368 31.6317C17.3175 31.6821 17.2292 31.7673 17.1724 31.8209C17.0683 31.9219 16.8128 32.0543 16.7245 32.0543C16.6425 32.0543 16.3302 32.3855 16.3302 32.4739C16.3302 32.6 16.387 32.6221 16.6298 32.5874C16.8412 32.5591 16.9926 32.4928 17.8285 32.0638C17.9326 32.0102 18.0872 31.9345 18.1755 31.8966C18.2606 31.8556 18.3837 31.7862 18.4468 31.7358C18.6549 31.5717 19.1691 31.3856 19.4183 31.3856C19.5855 31.3856 20.1501 31.291 20.3835 31.2247C20.6327 31.1554 20.6769 31.1206 20.7147 30.9724C20.8315 30.4992 20.9292 30.2343 21.0113 30.168C21.046 30.1397 21.1311 30.0324 21.2005 29.9315C21.2668 29.8337 21.333 29.7517 21.3456 29.7517C21.3614 29.7517 21.4024 29.6728 21.4402 29.5751C21.5096 29.3889 21.6232 29.2091 21.7872 29.0262C21.926 28.8716 22.008 28.6886 22.008 28.5215C22.008 28.3826 21.9355 28.1398 21.8661 28.0483C21.8472 28.0231 21.8125 27.9568 21.7872 27.9063C21.7147 27.7487 21.4308 27.2755 21.3961 27.2534C21.3425 27.2156 21.3298 27.2282 21.1627 27.4584ZM16.1346 29.1145C16.0905 29.1965 16.0431 29.3448 16.0305 29.4426C16.021 29.5435 15.9958 29.6318 15.9801 29.6413C15.9422 29.6665 15.9422 29.7832 15.9832 29.7832C15.999 29.7832 16.0147 29.7611 16.0147 29.7359C16.0147 29.7107 16.0274 29.6886 16.0463 29.6886C16.0968 29.6886 16.2986 29.2911 16.2986 29.187C16.2986 29.1303 16.3207 29.0451 16.346 28.9978C16.3712 28.9473 16.3838 28.9 16.3712 28.8906C16.3365 28.8527 16.2103 28.9694 16.1346 29.1145ZM17.0557 31.6506C17.0557 31.6664 17.0841 31.6758 17.1188 31.6758C17.1598 31.6758 17.1819 31.6538 17.1819 31.6128C17.1819 31.556 17.1756 31.5528 17.1188 31.5875C17.0841 31.6096 17.0557 31.638 17.0557 31.6506ZM29.9255 34.3634C29.9255 34.4202 29.9318 34.4264 29.9539 34.3886C29.9728 34.3633 29.9759 34.3318 29.9696 34.3192C29.9413 34.275 29.9255 34.2908 29.9255 34.3634ZM32.7202 35.2592C32.6919 35.338 32.6982 35.4926 32.7329 35.4926C32.777 35.4926 32.8275 35.3822 32.8275 35.2907C32.8275 35.1993 32.7518 35.1772 32.7202 35.2592ZM11.5986 35.3475C11.5797 35.3727 11.5356 35.398 11.5009 35.4043C11.3999 35.4201 11.4472 35.4768 11.5513 35.4642C11.6554 35.4547 11.7879 35.3822 11.7879 35.3349C11.7879 35.2876 11.6428 35.2971 11.5986 35.3475ZM30.058 37.1203C30.0548 37.1518 30.0706 37.2086 30.0958 37.2433C30.14 37.3032 30.1431 37.2969 30.1463 37.1707C30.1463 37.0729 30.1337 37.0382 30.1053 37.0446C30.0863 37.054 30.0643 37.0856 30.058 37.1203Z" fill="white"/>
<path d="M48.7663 39.163C48.791 39.1735 48.8227 39.17 48.8333 39.1594C48.8474 39.1488 48.8262 39.1383 48.7875 39.1418C48.7487 39.1418 48.7381 39.1524 48.7663 39.163Z" fill="white"/>
</svg>
