<svg width="50" height="50" viewBox="0 0 50 50" fill="none" xmlns="http://www.w3.org/2000/svg">
<rect width="50" height="50" rx="2" fill="black"/>
<path d="M39.5228 14.3125C39.4579 14.0802 39.3658 13.8565 39.2659 13.6375C39.038 13.1574 38.7166 12.7297 38.3628 12.3382C37.8895 11.822 37.5052 11.2323 37.1123 10.6536C36.8513 10.251 36.5843 9.85106 36.3586 9.4263C36.2792 9.2707 36.1958 9.11633 36.0906 8.97671C36.0515 8.98408 36.0134 8.99195 35.9752 9.00055C35.8049 8.83365 35.7082 8.60431 35.5247 8.44969C35.377 8.31253 35.2074 8.19921 35.0779 8.04263C34.991 7.93841 34.8656 7.88138 34.7599 7.80026C34.6654 7.73635 34.5803 7.66015 34.4897 7.59132C34.515 7.46399 34.5896 7.35387 34.6144 7.22605C34.4676 7.26562 34.342 7.35583 34.2028 7.41434C34.1731 7.46669 34.133 7.51266 34.0776 7.53675C34.0354 7.55445 33.9899 7.59574 33.9433 7.57043C33.892 7.51143 33.9175 7.41483 33.8546 7.36296C33.7394 7.26292 33.6228 7.16238 33.4911 7.08471C33.5157 7.21203 33.5247 7.34256 33.5621 7.46694C33.5813 7.53724 33.6724 7.55887 33.6852 7.63262C33.6792 7.7189 33.5793 7.79067 33.5001 7.74495C33.4066 7.6894 33.2965 7.71644 33.1942 7.71275C33.0601 7.18205 32.796 6.67986 32.4007 6.30155C32.1033 5.99134 31.716 5.7797 31.309 5.65679C31.2048 5.62189 31.094 5.61599 30.99 5.58305C30.5444 5.55626 30.0927 5.68064 29.7178 5.92497C29.5458 6.05132 29.3692 6.1757 29.2302 6.34039C29.0954 6.49402 28.9532 6.64765 28.8675 6.83644C28.813 6.95713 28.7268 7.06209 28.6911 7.19163C28.5946 7.52839 28.4906 7.86687 28.469 8.21912C28.4605 8.44182 28.4313 8.6633 28.3942 8.88281C28.3742 9.09887 28.4005 9.34075 28.5465 9.5106C28.6145 9.63523 28.6772 9.76403 28.719 9.90046C28.7742 10.0747 28.8475 10.2461 28.8614 10.4307C28.8767 10.6121 28.9345 10.7893 28.9219 10.9727C28.918 11.1057 28.8918 11.2374 28.8492 11.363C28.8288 11.426 28.779 11.4751 28.7647 11.5408C28.7472 11.5965 28.7399 11.6597 28.7013 11.7054C28.6478 11.7517 28.5752 11.7703 28.529 11.8259C28.4612 11.907 28.3657 11.9564 28.2982 12.0373C28.2328 12.1157 28.1305 12.1423 28.0482 12.1968C27.9486 12.246 27.8582 12.3281 27.7423 12.3305C27.6971 12.2637 27.6033 12.2396 27.5834 12.1558C27.571 12.1096 27.5362 12.0778 27.5003 12.0498C27.4221 11.9997 27.4225 11.8851 27.3368 11.8426C27.2585 11.802 27.2697 11.6887 27.1903 11.6482C27.1045 11.6059 27.1106 11.4884 27.027 11.4446C26.9648 11.4117 26.9536 11.3377 26.9177 11.2836C26.8759 11.2436 26.8207 11.2185 26.7884 11.1691C26.7544 11.1246 26.74 11.0693 26.714 11.0204C26.6766 10.9705 26.6052 10.9513 26.586 10.8871C26.5675 10.8343 26.5369 10.7878 26.4893 10.7586C26.4159 10.72 26.4276 10.616 26.3564 10.5755C26.2675 10.5285 26.2684 10.4061 26.179 10.3594C26.1044 10.3156 26.1095 10.2092 26.0333 10.1672C25.9477 10.1229 25.9584 10.0012 25.8705 9.96118C25.8231 9.93881 25.7985 9.89432 25.784 9.84614C25.7684 9.78616 25.7072 9.76379 25.6688 9.7225C25.6389 9.66399 25.618 9.59762 25.5585 9.56223C25.4798 9.51478 25.4783 9.40638 25.4011 9.35772C25.3248 9.31248 25.3238 9.20679 25.2485 9.16156C25.1688 9.10158 25.091 9.0389 25.0138 8.97597C24.9683 8.98212 24.929 9.00719 24.8942 9.0357C24.8012 9.11534 24.6979 9.18933 24.6396 9.30118C24.7074 9.40565 24.746 9.5256 24.8031 9.63597C24.833 9.68538 24.8976 9.70431 24.9212 9.75937C24.944 9.80828 24.9666 9.85966 25.0143 9.88964C25.0942 9.93709 25.0978 10.0479 25.1797 10.0934C25.2601 10.134 25.2468 10.248 25.3296 10.2859C25.4071 10.3323 25.4083 10.4425 25.4876 10.4889C25.5583 10.5317 25.56 10.6285 25.6273 10.6738C25.6691 10.7052 25.7077 10.7421 25.7249 10.7935C25.7475 10.8808 25.8552 10.8987 25.8778 10.986C25.8987 11.0789 26.0126 11.0973 26.0369 11.1878C26.06 11.2802 26.1715 11.3038 26.197 11.3945C26.2194 11.4663 26.2957 11.4933 26.3413 11.5469C26.3909 11.5931 26.4038 11.6624 26.4361 11.7197C26.4684 11.7526 26.5109 11.7745 26.5398 11.8109C26.5615 11.848 26.5726 11.8908 26.5965 11.9269C26.6373 11.9667 26.6987 11.9898 26.7153 12.0503C26.732 12.1113 26.7787 12.1516 26.828 12.1867C26.8853 12.2234 26.8802 12.3065 26.9366 12.3441C26.9964 12.3873 27.0527 12.4436 27.0532 12.5235C26.9259 12.6039 26.7607 12.599 26.6429 12.697C26.5578 12.7651 26.4582 12.8086 26.3586 12.8492C26.3292 12.893 26.2995 12.9367 26.2716 12.9814C26.4205 13.0776 26.5804 13.154 26.7349 13.2403C26.829 13.2921 26.932 13.331 27.0134 13.404C26.9303 13.4637 26.8387 13.5119 26.7631 13.582C26.4995 13.8125 26.3511 14.1422 26.2339 14.4669C26.0809 15.0244 25.955 15.5902 25.766 16.1372C25.6885 16.3454 25.6581 16.5673 25.6022 16.7817C25.498 17.1423 25.3624 17.4933 25.2103 17.8359C25.1141 18.0257 25.0177 18.2155 24.9287 18.4089C24.8767 18.5161 24.8466 18.6326 24.7905 18.7378C24.7052 18.9205 24.5878 19.0852 24.4693 19.2469C24.3524 19.4116 24.203 19.549 24.0524 19.6812C23.6303 20.0482 23.2941 20.501 22.978 20.9612C22.8198 21.2203 22.6376 21.4639 22.4454 21.6981C22.2945 21.9053 22.1426 22.1121 21.9879 22.3163C21.7663 22.5833 21.5496 22.8547 21.3214 23.1159C21.1516 23.2811 20.9798 23.4443 20.8017 23.6009C20.6712 23.7142 20.4968 23.7472 20.3481 23.8278C20.2414 23.8866 20.1333 23.9421 20.0227 23.993C19.8604 24.0682 19.7149 24.2159 19.6977 24.4033C19.5917 24.39 19.4899 24.3548 19.4151 24.2747C19.3643 24.2703 19.3065 24.2754 19.2712 24.2307C19.2103 24.1533 19.1077 24.1562 19.0227 24.126C19.0397 23.992 19.1622 23.8622 19.097 23.7265C19.029 23.8224 18.9756 23.9274 18.9233 24.0323C18.8964 24.0515 18.8696 24.0709 18.8436 24.0913C18.7076 24.0409 18.5917 23.9492 18.4559 23.8984C17.7027 23.5279 16.947 23.1619 16.1916 22.7957C15.366 22.3839 14.5332 21.9882 13.7083 21.5747C13.296 21.3909 12.8956 21.1812 12.4854 20.9924C12.1098 20.7768 11.707 20.6156 11.3204 20.4221C11.0935 20.2854 10.8427 20.1965 10.6112 20.0684C10.3721 19.9445 10.1231 19.842 9.88205 19.722C9.59851 19.5923 9.32517 19.4406 9.03774 19.3194C8.36083 19.007 7.68733 18.686 7.01115 18.3718C6.61658 18.1749 6.21179 17.9999 5.81333 17.8111C5.21709 17.552 4.63154 17.2647 4.01732 17.0508C3.9573 17.0513 3.99059 17.1214 4.02509 17.1366C4.20246 17.2553 4.3876 17.3618 4.57298 17.4672C4.81862 17.5941 5.05478 17.7386 5.30067 17.8647C6.2322 18.363 7.17734 18.8349 8.11714 19.3172C8.31588 19.4042 8.49398 19.5311 8.69297 19.6173C9.11038 19.8273 9.52683 20.0389 9.9474 20.2427C10.0171 20.2904 10.0888 20.3346 10.1692 20.3619C10.5687 20.5681 10.9752 20.7596 11.379 20.9563C11.5345 21.0258 11.679 21.1178 11.8367 21.1827C12.0408 21.2886 12.2524 21.3791 12.4517 21.4946C12.5629 21.543 12.665 21.6104 12.777 21.6573C13.0481 21.7797 13.3008 21.9407 13.5766 22.0533C14.6945 22.5988 15.807 23.156 16.9242 23.7032C17.4952 23.976 18.0537 24.2754 18.6296 24.5377C18.6301 24.5738 18.6308 24.6102 18.632 24.6466C18.5749 24.756 18.5074 24.8669 18.4976 24.993C18.6252 24.9288 18.6597 24.7658 18.7515 24.6628C18.7965 24.6882 18.8376 24.7194 18.8772 24.753C18.9292 24.802 19.0127 24.782 19.064 24.8329C19.1058 24.8683 19.149 24.9079 19.2071 24.9094C19.3043 24.9074 19.3473 25.0222 19.4447 25.0234C19.5354 25.0308 19.5837 25.1208 19.6673 25.1471C19.6855 25.2919 19.5869 25.432 19.6418 25.5745C19.6644 25.6603 19.7572 25.68 19.8272 25.711C19.9309 25.7552 19.9914 25.8575 20.0789 25.9241C20.1668 25.9779 20.274 25.961 20.3719 25.9646C20.4635 25.9614 20.5495 25.9976 20.6365 26.0217C20.7222 26.0497 20.7781 26.1701 20.8799 26.1362C21.0148 26.0846 21.1146 25.9735 21.197 25.8577C21.2706 25.9015 21.3246 25.9843 21.4169 25.9887C21.4976 25.9919 21.5328 26.0883 21.6125 26.0939C21.6669 26.1013 21.7199 26.1197 21.758 26.1618C21.819 26.2343 21.9327 26.1984 21.9922 26.2731C22.0452 26.3439 22.1475 26.3134 22.2063 26.3739C22.2449 26.4096 22.2887 26.4395 22.3428 26.4442C22.4305 26.4499 22.474 26.5477 22.5605 26.5563C22.658 26.559 22.7066 26.6669 22.8028 26.6738C22.8703 26.6745 22.9153 26.7242 22.9619 26.7662C23.0146 26.7871 23.08 26.7788 23.1237 26.8218C23.1694 26.865 23.2207 26.9044 23.2865 26.9068C23.3609 26.9137 23.3959 26.9988 23.468 27.012C23.5764 27.0319 23.6838 27.0602 23.7933 27.0752C23.8966 26.9449 23.953 26.7829 24.0093 26.6281C23.9061 26.5585 23.8203 26.4658 23.718 26.3948C23.6524 26.3759 23.5786 26.3705 23.5324 26.313C23.4879 26.2567 23.4114 26.2687 23.3528 26.2417C23.321 26.2173 23.2955 26.1859 23.263 26.163C23.2095 26.137 23.139 26.1556 23.0958 26.1099C23.0596 26.078 23.0251 26.0372 22.9726 26.0391C22.9082 26.0381 22.8596 25.9968 22.8152 25.9551C22.7637 25.9042 22.6767 25.9319 22.6286 25.8757C22.587 25.8243 22.5253 25.8061 22.4631 25.7972C22.3922 25.7918 22.3613 25.7085 22.2925 25.6989C22.2291 25.6901 22.1686 25.6684 22.1259 25.6188C22.0734 25.5549 21.9743 25.5947 21.922 25.532C21.8698 25.4696 21.7911 25.4529 21.7145 25.4462C21.6859 25.4172 21.6601 25.385 21.6268 25.3622C21.5787 25.3484 21.5214 25.355 21.4866 25.3128C21.5841 25.1434 21.656 24.9566 21.6851 24.7624C21.7024 24.6523 21.7376 24.5456 21.7816 24.4438C21.8112 24.3708 21.888 24.3381 21.9441 24.2897C22.0654 24.2 22.1618 24.0827 22.2702 23.9787C22.52 23.7226 22.7671 23.4643 23.0178 23.2094C23.3657 22.8905 23.6636 22.5191 24.0266 22.2165C24.4564 21.8309 24.9613 21.5307 25.3372 21.0848C25.5391 20.8343 25.7264 20.5706 25.8875 20.2911C26.0318 20.0382 26.2293 19.8191 26.3515 19.5532C26.5146 19.1845 26.6215 18.7919 26.7993 18.4298C26.8117 18.4303 26.836 18.4313 26.8484 18.432C27.0435 18.6754 27.2989 18.8612 27.4886 19.11C27.6657 19.3123 27.787 19.5603 27.8497 19.8226C27.8708 20.0025 27.84 20.195 27.9274 20.3616C27.9532 20.4627 28.0499 20.5101 28.1092 20.5868C28.1213 20.6411 28.1167 20.6977 28.1148 20.7532C28.0802 20.7916 28.0562 20.838 28.0421 20.8877C27.9726 21.0983 27.915 21.3129 27.8375 21.5211C27.8018 21.6268 27.9172 21.6934 27.9457 21.7856C27.9121 21.908 27.9471 22.0327 27.9512 22.1563C27.9661 22.378 27.9826 22.6167 28.1269 22.7971C28.167 22.8642 28.2501 22.8736 28.3201 22.8596C28.3101 22.9756 28.289 23.0906 28.2571 23.2027C28.1745 23.3288 28.1629 23.4883 28.0936 23.6218C27.926 23.9345 27.7668 24.2521 27.5829 24.5557C27.469 24.742 27.3667 24.9369 27.2311 25.1085C27.1815 25.2048 27.1225 25.2955 27.0598 25.3835C27.0241 25.4307 26.9922 25.4851 26.9366 25.5109C26.9823 25.3811 27.0527 25.2624 27.1026 25.1341C27.1451 25.0529 27.1524 24.9595 27.1886 24.8762C27.2308 24.7491 27.2991 24.6321 27.3326 24.5021C27.373 24.4332 27.3866 24.3529 27.4233 24.2823C27.4563 24.1887 27.5273 24.0874 27.4801 23.9861C27.4267 23.907 27.3419 23.8558 27.2568 23.818C27.1266 23.7619 26.9847 23.7096 26.8416 23.7388C26.7345 23.8423 26.7121 24.0018 26.6511 24.1334C26.5675 24.3531 26.4733 24.5692 26.4011 24.7929C26.389 24.812 26.3778 24.8317 26.3678 24.8521C26.2879 25.0743 26.1951 25.2916 26.1115 25.5126C26.0833 25.5745 26.0534 25.6431 26.0697 25.7129C26.0855 25.753 26.111 25.7884 26.1339 25.8253C26.1076 25.8464 26.0848 25.8749 26.0515 25.8843C25.854 25.9263 25.6516 25.9533 25.4608 26.0217C25.299 26.1013 25.1175 26.1802 25.0201 26.3417C24.9205 26.5047 24.9705 26.7016 24.9943 26.8781C25.0218 27.1204 24.9217 27.3493 24.8131 27.5585C24.7686 27.6391 24.7098 27.7185 24.7118 27.8153C24.8529 27.7573 24.9348 27.6197 25.0269 27.5051C25.1059 27.4085 25.1511 27.2881 25.2373 27.1979C25.2531 27.1406 25.2679 27.0831 25.2844 27.0263C25.3389 27.1227 25.2784 27.2372 25.3034 27.3397C25.3299 27.41 25.376 27.4715 25.3974 27.5445C25.4142 27.6069 25.3532 27.6526 25.3435 27.7111C25.3469 27.7711 25.3909 27.8239 25.3838 27.8847C25.2609 28.2286 25.1275 28.57 24.9897 28.9082C24.936 28.8669 24.8738 28.8441 24.8085 28.831C24.686 28.7226 24.5599 28.6169 24.4503 28.4948C24.359 28.4825 24.2642 28.5319 24.2402 28.6255C24.2268 28.7148 24.2215 28.8121 24.255 28.8979C24.3412 29.0287 24.4652 29.128 24.5694 29.2435C24.6452 29.3118 24.5291 29.4045 24.5718 29.4834C24.608 29.5463 24.6629 29.595 24.7086 29.6511C24.6773 29.745 24.6379 29.8359 24.5998 29.9273C24.4746 29.828 24.41 29.6734 24.2829 29.5756C24.195 29.5717 24.0832 29.6034 24.0669 29.7054C24.0507 29.8167 24.0618 29.9559 24.1583 30.0289C24.2441 30.1038 24.3121 30.1972 24.3702 30.2956C24.3393 30.3605 24.3058 30.4244 24.2776 30.4907C24.2654 30.5542 24.3415 30.6055 24.3174 30.6687C24.0801 31.3199 23.8276 31.9656 23.5863 32.6155C23.4294 33.0511 23.2608 33.4845 23.1471 33.934C23.1446 34.127 23.0628 34.3028 23.0066 34.4839C22.9806 34.583 22.9179 34.6676 22.8951 34.7678C22.8715 34.9035 22.8052 35.0264 22.7756 35.1609C22.7345 35.4074 22.7185 35.6587 22.6504 35.8998C22.5136 36.3231 22.526 36.7778 22.3837 37.1996C22.3042 37.4722 22.2974 37.7591 22.2389 38.0359C22.2269 38.1758 22.225 38.3193 22.1767 38.453C22.1431 38.5754 22.0904 38.6951 22.0894 38.8247C22.0731 39.0127 21.9359 39.1528 21.8545 39.3143C21.7719 39.436 21.7707 39.5931 21.689 39.715C21.6254 39.8205 21.5126 39.879 21.4334 39.9707C21.283 40.1307 21.1246 40.2828 20.9686 40.4377C20.8692 40.525 20.7891 40.6326 20.712 40.7398C20.617 40.9328 20.4122 41.0316 20.2983 41.2098C20.1974 41.312 20.0781 41.3949 19.9591 41.474C19.816 41.5701 19.65 41.6215 19.5009 41.7061C19.4233 41.7648 19.3531 41.8332 19.2761 41.8931C19.2059 41.9531 19.1221 41.9996 19.0674 42.076C19.0502 42.1289 19.0608 42.1871 19.0519 42.2427C19.028 42.3526 18.9889 42.4585 18.9459 42.5622C18.9233 42.679 18.9741 42.7899 19.0205 42.8936C19.0613 42.9349 19.1145 42.9641 19.1444 43.0167C19.169 43.0352 19.1935 43.0536 19.2185 43.0728C19.3901 43.1151 19.5674 43.1124 19.7426 43.1023C19.8648 43.0944 19.9824 43.0507 20.1056 43.0563C20.1902 43.0647 20.2655 43.0185 20.3476 43.0094C20.5468 43.0037 20.722 42.8958 20.9042 42.8272C20.9907 42.7999 21.0447 42.7196 21.1253 42.6814C21.2556 42.6225 21.3668 42.5305 21.4912 42.4605C21.5972 42.3754 21.7264 42.3294 21.8343 42.2476C21.9157 42.1857 22.0083 42.1434 22.0984 42.0967C22.2396 42.0087 22.4033 41.9693 22.5455 41.8826C22.7277 41.8157 22.9128 41.7557 23.0941 41.6864C23.2105 41.6183 23.3745 41.5849 23.4233 41.4418C23.4539 41.3759 23.4036 41.3083 23.39 41.2444C23.3913 41.2435 23.3667 41.2143 23.3667 41.2142C23.3813 41.1542 23.3993 41.0952 23.4187 41.0372C23.3803 40.8993 23.381 40.7548 23.3767 40.6132C23.3278 40.4534 23.2314 40.3015 23.2452 40.1275C23.2569 39.9596 23.1774 39.7991 23.2029 39.6317C23.2153 39.5429 23.2165 39.4518 23.2474 39.3672C23.3043 39.2035 23.3905 39.0523 23.4527 38.8906C23.5215 38.7401 23.5868 38.5742 23.7222 38.472C23.8016 38.4134 23.8407 38.3171 23.9151 38.2529C24.0261 38.1605 24.0728 38.0182 24.1486 37.899C24.2222 37.7795 24.1964 37.6318 24.2445 37.5042C24.2846 37.3887 24.342 37.2803 24.4059 37.1768C24.5259 36.9767 24.6197 36.7599 24.765 36.5765C24.8578 36.4091 24.9584 36.2442 25.0237 36.063C25.0903 35.8514 25.126 35.6311 25.1987 35.4212C25.239 35.3089 25.2543 35.1892 25.2993 35.0785C25.3333 34.9832 25.378 34.8912 25.4023 34.7929C25.4232 34.6479 25.4429 34.5029 25.462 34.3578C25.5174 34.0877 25.7021 33.8709 25.8578 33.6528C25.9536 33.5054 26.0777 33.3778 26.1569 33.219C26.2189 33.0777 26.3219 32.9609 26.3948 32.8257C26.5457 32.5428 26.6958 32.2593 26.8542 31.9806C26.9245 31.8749 26.9748 31.749 27.0839 31.6768C27.1859 31.604 27.2452 31.4912 27.3142 31.3894C27.4536 31.2024 27.5873 31.0106 27.7185 30.8174C27.8749 30.7422 27.9505 30.579 28.0608 30.4539C28.1359 30.374 28.158 30.2624 28.2185 30.1727C28.2746 30.0473 28.3422 29.9269 28.3864 29.7966C28.4994 29.6833 28.5822 29.5304 28.7314 29.461C28.7992 29.4244 28.8488 29.3637 28.8944 29.303C29.0026 29.1481 29.1406 29.0124 29.2066 28.8315C29.4455 28.5427 29.6676 28.2364 29.9402 27.9781C30.0772 27.8675 30.2123 27.745 30.3799 27.6848C30.5763 27.7072 30.7694 27.7583 30.9669 27.7674C31.0447 27.78 31.1132 27.692 31.1876 27.7286C31.3217 27.836 31.3899 28.0012 31.449 28.1587C31.5919 28.4852 31.6196 28.8487 31.7573 29.1769C31.8295 29.3507 31.8334 29.5444 31.9104 29.7167C31.9624 29.8352 31.9889 29.9654 32.0562 30.077C32.1536 30.2381 32.1912 30.4263 32.2756 30.5937C32.348 30.7257 32.3431 30.8818 32.3856 31.0239C32.415 31.1217 32.4328 31.2225 32.4403 31.3245C32.449 31.4826 32.5166 31.6276 32.5576 31.7783C32.5866 31.8845 32.6381 31.9828 32.6694 32.0885C32.7425 32.4285 32.8587 32.7576 32.925 33.0995C32.9376 33.1841 33.0142 33.2374 33.0373 33.3178C33.1354 33.7283 33.2756 34.1282 33.3509 34.5444C33.4117 34.7902 33.4617 35.0429 33.5805 35.2686C33.6374 35.4448 33.6716 35.6311 33.77 35.7914C33.8568 35.9259 33.9323 36.0692 33.9756 36.2245C34.0142 36.3622 34.073 36.4944 34.0981 36.636C34.1449 36.7144 34.1683 36.8041 34.1809 36.8943C34.1933 37.0037 34.1712 37.1158 34.1991 37.2237C34.2373 37.3661 34.2368 37.5153 34.2749 37.6581C34.2961 37.8633 34.3933 38.0474 34.4581 38.2402C34.5558 38.5015 34.6892 38.76 34.6928 39.0454C34.7072 39.3728 34.8238 39.6816 34.9113 39.9935C34.9548 40.1567 35.0269 40.3106 35.0665 40.4753C35.1712 40.8347 35.1831 41.2135 35.2772 41.5753C35.3041 41.6722 35.2866 41.7722 35.2854 41.871C35.2801 41.9885 35.3418 42.1043 35.4353 42.1726C35.4681 42.2009 35.5131 42.2233 35.5252 42.2695C35.5658 42.4079 35.5901 42.5507 35.6202 42.692C35.6569 42.8921 35.7016 43.0934 35.6956 43.2984C35.7113 43.5895 35.6008 43.869 35.5993 44.1593C35.5758 44.421 35.5685 44.6895 35.4793 44.9392C35.4351 45.0764 35.4254 45.2212 35.4023 45.3627C35.3807 45.4751 35.3753 45.5911 35.3875 45.7052C35.4035 45.759 35.4691 45.7622 35.5124 45.7841C35.4937 46.0286 35.4152 46.2631 35.3433 46.4959C35.3146 46.5739 35.2665 46.6434 35.2466 46.725C35.221 46.8088 35.2429 46.9005 35.2111 46.9831C35.1822 47.0566 35.1703 47.1404 35.1156 47.2009C35.0699 47.2489 35.0561 47.314 35.0422 47.3769C35.0561 47.4974 35.0697 47.6176 35.0996 47.7355C35.1168 47.7636 35.1394 47.7891 35.1659 47.8105C35.1669 47.8339 35.1681 47.858 35.1698 47.8828C35.2243 47.9725 35.3155 48.0326 35.4187 48.0448L35.414 48.0459L35.7896 48.103C35.8397 48.1158 35.8914 48.1259 35.9441 48.1212C36.0719 48.1099 36.2007 48.1227 36.3285 48.107C36.5236 48.0856 36.7243 48.093 36.9143 48.0359C37.0737 48.0013 37.2438 47.9843 37.3869 47.9C37.5623 47.7909 37.615 47.5723 37.6306 47.3786C37.6337 47.1771 37.6986 46.977 37.6631 46.7757C37.6167 46.4949 37.666 46.2078 37.6075 45.9281C37.607 45.831 37.5266 45.7669 37.5001 45.6806C37.5003 45.551 37.522 45.4193 37.493 45.2917C37.4408 45.1132 37.3713 44.9363 37.3611 44.7487C37.3553 44.5671 37.3388 44.3832 37.277 44.2114C37.2309 44.0811 37.2348 43.94 37.1898 43.8097C37.1505 43.7006 37.1784 43.5833 37.1697 43.4707C37.1561 43.2129 37.1777 42.9541 37.15 42.6972C37.1395 42.5367 37.1473 42.3757 37.1456 42.2149C37.1417 42.0232 37.2105 41.8393 37.2129 41.6481C37.2348 41.3705 37.2681 41.0935 37.261 40.8148C37.2724 40.5112 37.2357 40.2081 37.2627 39.9045C37.2916 39.63 37.3167 39.3551 37.349 39.0811C37.3796 38.8783 37.306 38.6816 37.2882 38.4818C37.2719 38.2667 37.2294 38.0548 37.1913 37.8432C37.1262 37.6863 37.1048 37.515 37.036 37.3599C36.9128 37.091 36.8601 36.7872 36.684 36.5443C36.5656 36.3469 36.4626 36.1358 36.4228 35.9067C36.388 35.7063 36.3122 35.5146 36.301 35.3103C36.2938 35.1358 36.1978 34.9851 36.1643 34.8168C36.1315 34.6963 36.1397 34.5709 36.1361 34.4478C36.1349 34.3554 36.0865 34.2701 36.0967 34.1769C36.0637 33.5715 36.0668 32.9641 36.0508 32.3579C36.0343 32.2156 36.0282 32.0718 36.0457 31.9295C36.1426 31.9302 36.2391 31.9425 36.3363 31.9469C36.3708 31.9467 36.4123 31.9533 36.4386 31.9233C36.5185 31.8493 36.5754 31.7274 36.5343 31.6193C36.5017 31.5082 36.4106 31.4295 36.3268 31.3572C36.2406 31.3039 36.132 31.3263 36.0365 31.3061C36.0229 31.1333 36.0229 30.9595 36.0314 30.7867C36.0328 30.6894 36.009 30.5932 36.0168 30.4961C36.0177 30.4674 36.0403 30.4455 36.0695 30.4485C36.165 30.4433 36.2619 30.4713 36.3564 30.4475C36.4412 30.3988 36.4991 30.2975 36.4993 30.199C36.4813 30.066 36.3749 29.9544 36.2551 29.9052C36.174 29.8937 36.0914 29.8986 36.0105 29.8861C36.0029 29.7944 36.009 29.7024 36.001 29.6112C35.9769 29.4633 35.9959 29.3133 35.9905 29.1644C35.9947 29.0473 35.9752 28.9281 36.0051 28.8133C36.1052 28.7669 36.181 28.6644 36.1801 28.5513C36.1635 28.4355 36.0663 28.3635 35.9867 28.2907C35.9813 28.0326 35.9796 27.7745 35.9769 27.5164C35.983 27.1993 35.9454 26.8818 35.9777 26.5652C36.172 26.5266 36.3715 26.4324 36.4753 26.2535C36.5421 26.1564 36.5751 26.019 36.5139 25.9115C36.4152 25.7901 36.2449 25.7943 36.1125 25.7331C36.1106 25.6645 36.0938 25.5977 36.0836 25.5305C36.0885 25.4735 36.1004 25.4158 36.0841 25.3597C36.0625 25.2906 36.0962 25.2191 36.077 25.1498C36.0598 25.0783 36.0778 25.0048 36.0661 24.933C36.0481 24.842 36.0936 24.7469 36.0479 24.6606C36.053 24.6218 36.0683 24.5834 36.0629 24.5444C36.0309 24.3656 36.0654 24.1818 36.0379 24.0026C36.0452 23.9554 36.0527 23.9084 36.0595 23.8615C36.1769 23.965 36.2675 24.0943 36.3703 24.2118C36.562 24.4369 36.7432 24.6712 36.934 24.8976C37.0363 25.0306 37.3878 25.4617 37.4488 25.5551C37.5839 25.7043 37.7132 25.8587 37.8517 26.005C37.962 26.1161 38.0655 26.2414 38.2083 26.3117C38.2545 26.3334 38.3186 26.2945 38.3012 26.2397C38.2929 26.214 38.2847 26.1878 38.274 26.163C38.2661 26.1449 38.1475 25.9309 38.1465 25.9296C38.1267 25.9021 37.6708 25.2604 37.6592 25.2419C37.5804 25.1161 37.4828 25.0072 37.4408 24.9465C37.1718 24.5729 36.8919 24.2078 36.6198 23.8367C36.3506 23.4918 36.1004 23.1322 35.8295 22.7885C35.5576 22.4351 35.285 22.0826 35.0138 21.7284C34.723 21.3245 34.4013 20.9445 34.1141 20.5379C34.1195 20.5057 34.125 20.4735 34.1306 20.4415C34.0937 20.4403 34.0573 20.4396 34.021 20.4391C34.0288 20.3496 34.0342 20.2473 33.9642 20.18C33.9107 20.1053 33.7997 20.1237 33.7416 20.0627C33.7271 19.9371 33.8267 19.8273 33.8128 19.7016C33.7708 19.6144 33.6855 19.5598 33.624 19.4878C33.6372 19.4443 33.6641 19.4025 33.6622 19.3558C33.6469 19.282 33.6114 19.2122 33.6168 19.1353C33.6187 19.0525 33.6129 18.9701 33.5944 18.8895C33.5623 18.7568 33.6287 18.6277 33.6257 18.4952C33.6231 18.3642 33.6418 18.2347 33.6571 18.1051C33.6714 17.9913 33.6578 17.8755 33.6768 17.762C33.747 17.2544 33.6933 16.7411 33.72 16.2313C33.7676 15.897 33.7764 15.5229 34.0106 15.2567C34.1255 15.1259 34.1906 14.9519 34.3316 14.8454C34.4178 14.7763 34.5315 14.7808 34.6358 14.7832C34.8493 14.7736 35.0175 14.9351 35.2189 14.9789C35.377 15.0111 35.5335 15.0517 35.69 15.092C35.8297 15.1328 35.9767 15.1352 36.1186 15.1687C36.4043 15.2112 36.6835 15.2891 36.9563 15.3837C37.1961 15.4887 37.4515 15.5487 37.7049 15.6094C37.9904 15.6672 38.2897 15.6654 38.573 15.5942C38.7902 15.5489 39.0058 15.4794 39.1982 15.3658C39.5284 15.1468 39.6448 14.681 39.5228 14.3125H39.5228ZM25.8226 26.7893C25.775 26.8995 25.7478 27.0233 25.6737 27.1192C25.5796 27.1133 25.5621 26.9978 25.5165 26.9331C25.4883 26.8609 25.4076 26.9164 25.3605 26.9349C25.3488 26.971 25.3376 27.0074 25.3272 27.0442C25.3167 27.0263 25.3068 27.0084 25.2973 26.9907C25.3335 26.8218 25.2954 26.5991 25.4564 26.4877C25.6015 26.4012 25.7696 26.3341 25.9402 26.3395C25.9533 26.499 25.8712 26.6426 25.8226 26.7893ZM28.4568 22.4289C28.4593 22.5009 28.4163 22.5616 28.3968 22.6283C28.373 22.6914 28.3747 22.7701 28.3154 22.8134C28.2979 22.644 28.3247 22.4739 28.321 22.3043C28.3249 22.19 28.3006 22.0617 28.3679 21.9616C28.4066 21.9636 28.4355 21.9894 28.4452 22.0277C28.4841 22.1578 28.4593 22.2954 28.4568 22.4289V22.4289ZM36.3773 25.9174C36.4016 25.9329 36.4264 25.9487 36.4517 25.9646C36.4206 25.9887 36.3902 26.0138 36.3603 26.0391C36.2947 26.0406 36.2294 26.0396 36.1652 26.0263C36.1983 25.9366 36.2988 25.9339 36.3773 25.9174ZM36.0926 26.4789C36.0617 26.4794 36.0311 26.4796 36.001 26.4801C35.999 26.4373 35.9971 26.3943 35.9963 26.3518C36.0588 26.3668 36.0967 26.413 36.0926 26.4789ZM33.4535 7.94677C33.4146 8.01904 33.3504 8.07188 33.2892 8.12326C33.2814 8.12228 33.2659 8.11982 33.2584 8.11883C33.2508 8.06426 33.2525 8.00895 33.2516 7.95414C33.3186 7.95119 33.3859 7.94726 33.4535 7.94677ZM35.8263 30.8105C35.8297 30.9605 35.8314 31.1163 35.7862 31.2604L35.7407 31.28C35.7407 31.1139 35.707 30.9504 35.6999 30.785C35.6892 30.6987 35.7415 30.6245 35.7786 30.5517C35.8289 30.6277 35.8168 30.7235 35.8263 30.8105ZM35.7675 29.8927C35.7019 29.9013 35.6365 29.9082 35.5712 29.9148C35.5231 29.8202 35.4623 29.7088 35.5019 29.6009C35.5583 29.5149 35.6713 29.5245 35.7599 29.508C35.7672 29.6358 35.7774 29.7644 35.7675 29.8927ZM33.6104 20.9042C33.6291 20.9005 33.6665 20.8928 33.6852 20.8892C34.0133 21.2938 34.3323 21.7052 34.6649 22.1059C34.9606 22.4626 35.2349 22.8362 35.5289 23.1941C35.594 23.2688 35.6564 23.346 35.7162 23.4257C35.716 23.436 35.7157 23.4564 35.7157 23.4665C35.6404 23.464 35.5515 23.4925 35.5396 23.5791C35.5223 23.7322 35.3984 23.8671 35.4385 24.0257C35.4567 24.1024 35.4276 24.181 35.4472 24.2582C35.4477 24.5721 35.4604 24.8887 35.4662 25.2029C35.455 25.2633 35.4616 25.3246 35.4791 25.3833C35.4283 25.4924 35.5155 25.6063 35.4594 25.7134C35.3194 25.7636 35.1931 25.8562 35.1078 25.9794C35.0434 26.0839 35.0058 26.2365 35.0966 26.3375C35.2412 26.4853 35.4545 26.514 35.6441 26.5661C35.6594 26.8478 35.6788 27.1303 35.6734 27.4125C35.4864 27.41 35.2925 27.381 35.1226 27.2984C35.101 27.1689 35.0415 27.0506 35.0119 26.9233C34.9798 26.8228 34.9783 26.7156 34.9455 26.6155C34.9256 26.5708 34.9108 26.5241 34.8994 26.4769C34.8357 26.2427 34.7645 26.0106 34.6787 25.7837C34.6486 25.6547 34.592 25.5328 34.5774 25.4003C34.5616 25.2754 34.5043 25.1596 34.4999 25.0333C34.4963 24.8821 34.4348 24.7405 34.4307 24.5896C34.4314 24.505 34.3928 24.4278 34.3818 24.3455C34.3719 24.2506 34.3109 24.1707 34.3024 24.0756C34.2922 23.9881 34.2625 23.9057 34.2246 23.8271C34.1984 23.7288 34.1979 23.6253 34.1782 23.5255C34.1518 23.4829 34.1243 23.4389 34.1187 23.3883C34.1104 23.2647 34.0536 23.1523 34.0458 23.0282C34.0356 22.9719 34.0235 22.9164 34.0111 22.861C34.0006 22.849 33.9795 22.8252 33.969 22.8131C33.9678 22.8001 33.9649 22.7745 33.9634 22.7617C33.9501 22.7401 33.9367 22.719 33.9241 22.6978C33.8988 22.6219 33.8733 22.5459 33.8597 22.467C33.8497 22.4616 33.8296 22.4503 33.8196 22.4449C33.8116 22.4002 33.8033 22.3559 33.7963 22.3117C33.7645 22.2844 33.7309 22.2588 33.6969 22.2352C33.6981 21.9117 33.573 21.6077 33.4858 21.3014C33.4544 21.1802 33.4486 21.0541 33.4559 20.9295C33.4629 20.8206 33.4228 20.7159 33.4287 20.607C33.5346 20.6682 33.6141 20.7773 33.6104 20.9042H33.6104ZM35.413 26.2146C35.4144 26.3353 35.1977 26.352 35.163 26.2454C35.1972 26.2274 35.2677 26.1928 35.2677 26.1928C35.2677 26.1928 35.2681 26.1945 35.2682 26.1934L35.413 26.2146ZM36.5258 13.2568C36.4543 13.196 36.3885 13.1068 36.2872 13.1051C36.2209 13.1002 36.1591 13.1287 36.0945 13.1343C35.878 13.0043 35.6219 12.9586 35.4137 12.8131C35.0194 12.5537 34.5454 12.4264 34.0762 12.4375C34.0077 12.4394 33.9391 12.4377 33.8711 12.4316C33.8709 12.4203 33.8701 12.3976 33.8699 12.3866C33.9739 12.2679 34.0908 12.1614 34.1955 12.0432C34.196 12.0361 34.1974 12.0216 34.1982 12.0144C34.0346 11.9603 33.8694 11.8711 33.6925 11.8989C33.5834 11.922 33.4819 11.9714 33.373 11.995C33.269 12.0243 33.1614 11.9822 33.0569 12.0093C32.8383 12.0506 32.6184 12.0061 32.3995 11.9943C32.2921 11.9839 32.1837 11.9662 32.0894 11.9105C32.0972 11.8227 32.1674 11.7622 32.21 11.6904C32.4753 11.2256 32.7447 10.7583 32.9294 10.2532C33.0679 9.86629 33.1072 9.45382 33.2192 9.05954C33.3082 9.077 33.349 9.16672 33.3764 9.24464C33.4231 9.31691 33.5076 9.36238 33.5905 9.37713C33.7275 9.37074 33.8257 9.26184 33.936 9.19326C34.1087 9.36336 34.2645 9.55362 34.4584 9.70184C34.628 9.83974 34.8454 9.89112 35.0272 10.0091C35.1523 10.0765 35.1882 10.2269 35.2694 10.3351C35.6501 10.8945 35.9691 11.4926 36.3144 12.0742C36.476 12.3563 36.6011 12.6575 36.7333 12.9542C36.7828 13.068 36.8412 13.1798 36.8635 13.3035C36.751 13.2867 36.6402 13.2555 36.5258 13.2568L36.5258 13.2568Z" fill="white"/>
</svg>
