<svg width="50" height="50" viewBox="0 0 50 50" fill="none" xmlns="http://www.w3.org/2000/svg">
<rect width="50" height="50" rx="2" fill="black"/>
<path d="M22.7422 7.48896C22.818 7.22688 22.9848 6.93108 23.3185 6.84143C23.5825 6.77935 23.7758 6.96135 23.965 7.07783C24.4762 7.37823 25.0316 7.62651 25.6083 7.82997C25.8309 7.91503 26.0982 7.93227 26.2808 8.07979C26.5011 8.25336 26.5545 8.52003 26.5536 8.76065C26.5443 9.11852 26.5095 9.47524 26.476 9.83196C26.6735 9.9151 26.8413 10.0634 26.8566 10.2534C26.9133 10.5737 26.6531 10.8795 26.304 11.0033C26.179 11.5619 25.8198 12.0658 25.368 12.4872C25.4075 12.8436 25.4443 13.1999 25.4842 13.5562C25.5814 13.3834 25.6404 13.198 25.7096 13.0167C25.7961 13.0374 25.8807 13.0643 25.9638 13.093C26.8297 13.3888 27.6983 13.6792 28.5636 13.9758C28.6226 13.9961 28.6849 14.0137 28.7504 14.0118C29.013 14.0137 29.2761 14.0118 29.5382 13.9976C28.8629 14.2823 28.3006 14.7145 27.7777 15.1609C27.5844 15.3341 27.385 15.5038 27.2145 15.6927C27.8883 15.2027 28.6064 14.7498 29.3885 14.3823C30.1238 14.0398 30.9148 13.7294 31.7731 13.6949C33.1892 13.6214 34.5997 13.8547 35.9609 14.1574C36.0432 14.1831 36.177 14.18 36.1863 14.275C36.8114 16.0621 37.4156 17.8552 37.937 19.6653C38.1192 20.3205 38.3023 20.9764 38.4162 21.6424C38.5398 22.4236 38.3651 23.2152 38.0857 23.9612C37.7683 24.7877 37.3078 25.5751 36.7371 26.3023C36.2821 26.877 35.7541 27.418 35.1142 27.8602C33.4662 27.5744 31.8777 26.997 30.5685 26.1161C29.8008 25.5958 29.126 24.9716 28.6505 24.2486C28.3312 23.7715 28.1681 23.2393 28.0069 22.7152C27.821 22.0918 27.669 21.4623 27.5133 20.8335C27.4998 21.6711 27.6318 22.5098 27.8781 23.3221C28.084 23.9968 28.4042 24.6486 28.8406 25.2444C28.882 25.8628 28.9057 26.4851 29.0167 27.0993C29.1473 27.8257 29.3304 28.569 29.7933 29.207C30.1019 29.6089 30.2953 30.0633 30.4272 30.5243C30.7135 31.5538 30.734 32.6217 30.6415 33.6711C30.6317 33.9359 30.4858 34.1781 30.4226 34.4348C30.5313 34.3229 30.6289 34.2041 30.7382 34.0926C30.9161 34.3635 31.0746 34.6428 31.2229 34.9256C31.3381 35.1444 31.4046 35.3819 31.406 35.6214C31.4116 35.8528 31.353 36.0812 31.3521 36.3122C31.3474 36.5402 31.4618 36.7521 31.5236 36.9705C31.8656 38.0583 32.1914 39.1514 32.4354 40.2576C32.5376 40.7791 32.5711 41.3078 32.672 41.8297C32.7612 42.309 32.8267 42.7933 32.9475 43.2673C33.542 43.8631 34.154 44.4474 34.7633 45.0332C35.1555 45.4026 35.5413 45.7773 35.9549 46.1314C35.8317 46.3417 35.5134 46.367 35.2629 46.3766C34.6936 46.3812 34.121 46.2881 33.5935 46.1122C33.3751 46.0505 33.2589 45.867 33.0475 45.7961C32.764 45.69 32.4549 45.6333 32.1449 45.6172C31.8777 45.6041 31.6198 45.4758 31.5036 45.2743C31.3409 45.003 31.3326 44.6915 31.3284 44.3953C31.3265 44.024 31.3604 43.6531 31.3498 43.2822C31.3209 42.988 31.0584 42.7711 30.8632 42.5423C30.76 42.4374 30.787 42.2979 30.787 42.173C30.8004 41.4603 30.622 40.7339 30.1795 40.1158C29.797 39.5549 29.2212 39.1077 28.8081 38.5644C28.3424 37.9406 28.2397 37.1831 28.2759 36.4647C28.2759 36.1781 28.3391 35.8708 28.1718 35.6057C27.8 34.9858 27.3307 34.4076 26.9965 33.7719C26.4225 32.5025 25.5358 31.35 24.9024 30.102C24.8875 30.0538 24.8196 30.0086 24.8475 29.9572C24.9572 29.822 25.0962 29.7032 25.1919 29.5599C24.9642 29.6311 24.7564 29.738 24.5315 29.8143C24.2224 29.5649 23.9046 29.3227 23.5923 29.0756C23.7907 29.3867 24.0142 29.6867 24.2257 29.9917C24.0565 30.2434 23.9422 30.5166 23.8181 30.7844C23.4119 31.6994 23.0415 32.6251 22.6656 33.5485C22.3481 34.3432 21.9043 35.1038 21.678 35.9222C21.585 36.2084 21.5948 36.5057 21.565 36.7988C21.4479 37.6403 21.2304 38.4698 20.9925 39.2928C20.8726 39.6687 20.7722 40.0534 20.5658 40.4051C20.4102 40.707 20.3098 41.0254 20.2108 41.3423C20.082 41.7799 19.9705 42.2224 19.9254 42.6715C19.9031 42.8749 19.9287 43.0803 19.8948 43.2834C19.8413 43.6148 19.7135 43.9359 19.5434 44.239C19.5011 44.316 19.4453 44.3926 19.4449 44.4807C19.4035 45.1808 19.3584 45.8804 19.3245 46.5808C19.3148 46.6325 19.3333 46.6996 19.278 46.7387C18.9629 47.0057 18.5196 47.177 18.0627 47.1628C17.5232 47.1452 17.0189 46.9341 16.6095 46.6544C16.8242 46.3199 17.0501 45.9904 17.2703 45.6582C17.347 45.5371 17.4483 45.4225 17.4804 45.2857C17.5906 44.8838 17.7044 44.4823 17.8164 44.0811C17.874 43.9003 17.816 43.711 17.8555 43.5297C17.96 43.355 18.0911 43.1807 18.1027 42.9807C18.145 42.3412 18.237 41.6952 18.1143 41.058C18.0813 40.84 17.9163 40.6545 17.8889 40.4361C17.8127 39.9449 17.8452 39.4476 17.8764 38.9549C17.9354 38.2587 18.0163 37.5602 18.2003 36.8778C18.2561 36.6157 18.4689 36.4069 18.5832 36.1636C18.8319 35.6747 19.042 35.1597 19.0722 34.626C19.0977 34.3708 18.936 34.139 18.929 33.8865C18.8607 33.0899 18.9262 32.2902 18.9806 31.4944C19.0048 31.2247 19.0173 30.9538 19.0591 30.686C19.3064 29.7342 19.5606 28.7836 19.8102 27.8326C19.9264 27.3391 20.1067 26.8548 20.1545 26.3521C20.2512 25.6482 20.3432 24.9444 20.4399 24.2405C20.4729 24.049 20.4264 23.8566 20.4125 23.665C20.2991 22.5148 20.1769 21.3646 20.089 20.2124C20.3744 20.2074 20.6816 20.1802 20.9139 20.03C20.6458 20.0798 20.3586 20.1224 20.0932 20.0381C19.5118 19.6112 19.2432 18.9649 19.2032 18.3361C19.0248 18.3484 18.8709 18.4304 18.7134 18.4928C18.5777 18.5357 18.5456 18.6633 18.475 18.7553C18.0748 19.3568 17.67 19.9614 17.1579 20.5044C16.8958 20.8009 16.6527 21.1109 16.4617 21.4431C16.3618 21.3201 16.28 21.1887 16.1847 21.0638C16.207 21.3308 16.2084 21.5991 16.22 21.8669C16.2461 22.1125 16.0769 22.3286 15.9635 22.5454C15.278 23.6811 14.4498 24.7532 13.6537 25.8371C14.1408 26.1958 14.6278 26.5552 15.1084 26.9207C15.0605 27.1724 15.0289 27.4265 14.9815 27.6786C14.8151 27.8043 14.5744 27.8449 14.4047 27.9667C14.3843 28.1859 14.4052 28.4227 14.2658 28.6204C14.1905 28.7338 14.0339 28.7955 13.88 28.7913C13.3553 28.794 12.8311 28.789 12.3069 28.7936C12.0936 28.4943 11.8988 28.1866 11.6897 27.8855C11.6483 27.8177 11.5763 27.7464 11.6149 27.6663C11.8119 27.0636 12.028 26.4647 12.2167 25.8601C12.2544 25.7567 12.2655 25.6486 12.2823 25.5421C12.4537 24.4133 12.6155 23.2838 12.7544 22.1523C12.8646 21.2331 13.347 20.3519 14.0855 19.6591C14.1947 19.5572 14.329 19.4699 14.4001 19.3442C14.7538 18.7836 15.1098 18.2223 15.3928 17.6342C15.7056 17.077 15.9026 16.4659 15.8719 15.8486C15.9993 15.4808 16.2224 15.1341 16.4928 14.8241C16.8604 14.4065 17.4028 14.0854 18.0214 13.9811C18.4364 13.9095 18.8709 13.9187 19.2832 13.998C19.443 14.0344 19.6006 13.9731 19.7525 13.9382C20.5584 13.7145 21.3341 13.4244 22.1144 13.1466C22.2217 13.3593 22.3021 13.5807 22.4188 13.79C22.4239 13.4214 22.4527 13.0482 22.4262 12.6826C21.9787 12.3589 21.7379 11.8933 21.566 11.4339C21.5 11.2665 21.4577 11.0933 21.4516 10.9171C21.2369 10.7611 21.0338 10.5485 21.0566 10.2986C21.0696 10.1105 21.2304 9.96529 21.3847 9.84C21.3215 9.40665 21.2286 8.971 21.2746 8.53344C21.3006 8.33879 21.3582 8.12691 21.5455 7.99242C21.8876 7.74682 22.3179 7.6085 22.7422 7.48896V7.48896Z" fill="white" stroke="white" stroke-width="0.0938"/>
</svg>
