<svg width="50" height="50" viewBox="0 0 50 50" fill="none" xmlns="http://www.w3.org/2000/svg">
<!--<rect width="50" height="50" rx="2" fill="black"/>-->
<path d="M28.9233 46.0692C28.8672 46.025 28.8682 46.0073 28.9391 45.7775C28.9635 45.6985 28.9831 45.6003 28.9826 45.5593C28.9812 45.4268 28.9088 45.1516 28.8326 44.9887C28.7149 44.7369 28.6316 44.5192 28.6202 44.4332C28.6103 44.3586 28.5871 44.2939 28.5456 44.2249C28.5357 44.2085 28.5014 44.146 28.4694 44.086L28.3581 43.8777C28.3289 43.8232 28.2653 43.7199 28.2166 43.6482C28.1679 43.5765 28.1024 43.4605 28.0711 43.3903C28.0121 43.2579 27.9769 43.1901 27.9087 43.0772C27.8677 43.0093 27.822 42.9006 27.7825 42.7768C27.7703 42.7387 27.7473 42.6898 27.7313 42.6682C27.7153 42.6466 27.7022 42.6174 27.7022 42.6032C27.7022 42.5891 27.6643 42.503 27.6181 42.412C27.5719 42.321 27.5341 42.2331 27.5341 42.2167C27.5341 42.2003 27.5152 42.1642 27.4921 42.1364C27.469 42.1087 27.4501 42.073 27.4501 42.0571C27.4501 42.0195 27.3662 41.8233 27.3337 41.7848C27.3199 41.7684 27.3023 41.7148 27.2945 41.6657C27.2692 41.5057 27.1993 41.2875 27.0975 41.0507C27.0623 40.9689 26.999 40.7636 26.9568 40.5945C26.9145 40.4253 26.8607 40.2468 26.8371 40.1977C26.7975 40.1153 26.7366 39.9292 26.6943 39.7612C26.6664 39.6506 26.6342 39.5609 26.6135 39.5361C26.603 39.5235 26.5878 39.4789 26.5798 39.4369C26.5718 39.395 26.5375 39.3245 26.5035 39.2802C26.4696 39.236 26.4419 39.1861 26.4419 39.1695C26.4419 39.1357 26.404 39.0151 26.3777 38.9652C26.3683 38.9474 26.3543 38.9005 26.3464 38.8608C26.3385 38.8212 26.3237 38.7838 26.3134 38.7778C26.3032 38.7719 26.2948 38.7412 26.2948 38.7098C26.2948 38.6783 26.2762 38.6227 26.2534 38.5863C26.1773 38.4644 25.9857 37.8231 26.0086 37.7667C26.014 37.7535 26.005 37.7182 25.9886 37.6883C25.9722 37.6584 25.9589 37.6149 25.959 37.5916C25.9599 37.457 25.8027 36.9016 25.5512 36.1507C25.5238 36.0688 25.5009 35.984 25.5003 35.9622C25.4993 35.9276 25.474 35.8106 25.4122 35.5555C25.3743 35.3993 25.3246 35.2258 25.307 35.1885C25.2966 35.1667 25.2728 35.097 25.2541 35.0337C25.2197 34.9177 25.1365 34.8077 24.9273 34.6015C24.8765 34.5514 24.808 34.4755 24.7751 34.4329C24.7209 34.3626 24.7162 34.3438 24.7253 34.233C24.7372 34.0872 24.7241 34.0086 24.6856 33.9946C24.67 33.989 24.6192 34.0128 24.5728 34.0475C24.4881 34.1109 24.2371 34.216 23.9423 34.3116C23.8556 34.3397 23.7327 34.3824 23.6692 34.4066C23.6057 34.4307 23.4828 34.4559 23.3961 34.4624C23.2904 34.4704 23.2144 34.4882 23.1651 34.5164C23.1109 34.5474 23.0417 34.5617 22.9025 34.5704C22.7985 34.577 22.6662 34.5969 22.6084 34.6146C22.5133 34.6439 22.2734 34.6664 21.7512 34.6952C21.5498 34.7062 21.5057 34.6913 21.5057 34.6122C21.5057 34.5455 21.5608 34.5041 21.6495 34.5041C21.6923 34.5041 21.746 34.4923 21.7688 34.4779C21.7916 34.4634 21.8433 34.4394 21.8838 34.4244C21.9632 34.395 22.0525 34.3416 22.1358 34.2736C22.1647 34.2501 22.2091 34.2249 22.2344 34.2177C22.2598 34.2104 22.3307 34.1492 22.392 34.0817C22.519 33.9416 22.5771 33.8907 22.6111 33.8898C22.6242 33.8894 22.6744 33.8406 22.7229 33.7813C22.7713 33.7221 22.8599 33.6386 22.9197 33.5959C22.9796 33.5532 23.0426 33.4924 23.0597 33.4607C23.0768 33.429 23.1217 33.3721 23.1595 33.3342C23.1972 33.2963 23.2281 33.2574 23.2281 33.2478C23.2281 33.2237 23.3288 33.1058 23.4516 32.9861C23.5889 32.8523 23.7475 32.6666 23.8026 32.5752C23.8274 32.534 23.8622 32.4959 23.8799 32.4905C23.8977 32.4851 23.9276 32.4559 23.9465 32.4257C23.9654 32.3955 24.011 32.341 24.0478 32.3047C24.1033 32.2498 24.1125 32.2281 24.1017 32.1773C24.0946 32.1437 24.0747 32.1015 24.0575 32.0835C24.0403 32.0656 24.0263 32.0375 24.0263 32.0211C24.0263 32.0047 24.0202 31.9855 24.0128 31.9785C23.9888 31.9558 23.9016 31.7414 23.8459 31.568C23.781 31.366 23.6963 31.1761 23.6468 31.1216C23.6269 31.0998 23.6041 31.0507 23.5961 31.0125C23.5767 30.9202 23.5046 30.7181 23.4678 30.6525C23.4512 30.6229 23.4435 30.5753 23.4501 30.5434C23.4579 30.5059 23.4437 30.4481 23.408 30.3722C23.3784 30.3091 23.3541 30.2466 23.3541 30.2331C23.3541 30.2197 23.3318 30.1686 23.3045 30.1196C23.2744 30.0654 23.2493 29.9764 23.2405 29.8924C23.232 29.8112 23.2091 29.7285 23.185 29.6917C23.1625 29.6572 23.1441 29.5961 23.1441 29.5557C23.1441 29.5154 23.1339 29.4644 23.1214 29.4424C23.0979 29.4009 23.072 29.319 22.9876 29.0197C22.9588 28.9176 22.9219 28.8313 22.9007 28.8167C22.8698 28.7953 22.8679 28.7831 22.8885 28.7404C22.9223 28.6703 22.921 28.2725 22.8867 28.2299C22.8625 28.1997 22.8518 28.2 22.745 28.2344C22.5416 28.2997 22.4826 28.3038 22.4351 28.2556C22.412 28.2322 22.388 28.1769 22.3817 28.1326C22.3752 28.0868 22.3482 28.0296 22.3191 27.9998C22.291 27.971 22.2622 27.9318 22.2551 27.9127C22.227 27.8372 22.0981 27.9036 22.0635 28.0114C22.0463 28.0649 21.9552 28.1359 21.9037 28.1359C21.8424 28.1359 21.7359 27.9868 21.6726 27.8121C21.5916 27.5884 21.5812 27.4827 21.6217 27.2928C21.6403 27.2055 21.6606 27.1051 21.6669 27.0696C21.687 26.956 21.5697 26.7468 21.4863 26.7475C21.4681 26.7477 21.4114 26.7615 21.3605 26.7783C21.2795 26.8049 21.2639 26.8051 21.2373 26.7801C21.1384 26.6866 21.2145 26.1853 21.3564 25.9961C21.378 25.9673 21.4119 25.8802 21.4318 25.8025C21.4746 25.6355 21.4643 25.6064 21.3324 25.5229C21.2313 25.4589 21.2129 25.4045 21.2607 25.3113C21.2993 25.2363 21.3535 24.9344 21.3845 24.6221C21.4065 24.4003 21.4056 24.3889 21.3617 24.3217C21.3239 24.264 21.3198 24.2423 21.3381 24.1968C21.363 24.135 21.3509 23.9497 21.3139 23.8247C21.2994 23.7757 21.291 23.6292 21.2934 23.4672C21.2972 23.215 21.2938 23.1868 21.251 23.12C21.2254 23.0801 21.1975 23.0072 21.1889 22.9581C21.1804 22.909 21.1503 22.81 21.1222 22.7382C21.094 22.6663 21.0652 22.5725 21.0582 22.5299C21.0511 22.4872 21.0364 22.4186 21.0256 22.3776C21.0086 22.3134 21.0129 22.2932 21.0562 22.2329C21.0839 22.1943 21.1066 22.1417 21.1066 22.1159C21.1066 22.0901 21.0553 21.9745 20.9926 21.859C20.9299 21.7435 20.8671 21.5977 20.853 21.5348C20.839 21.472 20.8063 21.3849 20.7803 21.3413C20.7341 21.2636 20.7021 21.1778 20.6637 21.0288C20.5541 20.6043 20.5368 20.4553 20.5261 19.8454C20.5168 19.3165 20.5134 19.2762 20.4701 19.1907C20.4329 19.1173 20.4147 19.1007 20.3766 19.1057C20.3394 19.1106 20.3294 19.1023 20.3293 19.0661C20.3293 19.0408 20.2819 18.9458 20.224 18.8548C20.1454 18.7315 20.1126 18.6558 20.0949 18.5572C20.0675 18.4046 20.0722 17.3597 20.1006 17.2888C20.1105 17.264 20.1238 17.0253 20.1302 16.7583C20.1415 16.2786 20.141 16.2712 20.0892 16.1289C20.0604 16.0497 20.0261 15.9358 20.013 15.8758C19.9998 15.8158 19.9762 15.7474 19.9605 15.7239C19.9161 15.6575 19.9547 15.2498 20.0213 15.0823L20.104 14.874C20.1213 14.8303 20.1501 14.7678 20.1681 14.7351C20.1861 14.7023 20.258 14.5624 20.3281 14.4241C20.3981 14.2857 20.479 14.155 20.5079 14.1336C20.5369 14.1121 20.5608 14.0735 20.5612 14.0478C20.5618 14.0173 20.5853 13.9872 20.6287 13.9614C20.6654 13.9396 20.7164 13.8922 20.7422 13.8561C20.7679 13.82 20.8269 13.762 20.8733 13.7271C20.9641 13.6591 21.0748 13.5301 21.1905 13.3578C21.2302 13.2986 21.2893 13.2227 21.3217 13.1891C21.3679 13.1414 21.3779 13.1161 21.3677 13.0724C21.3483 12.989 21.265 12.8604 21.2066 12.8235C21.1222 12.7702 20.9267 12.5591 20.8782 12.4689C20.8533 12.4227 20.77 12.3222 20.6929 12.2457C20.5841 12.1375 20.5396 12.1065 20.4936 12.1065C20.4558 12.1065 20.4344 12.0961 20.4344 12.0776C20.4344 12.046 20.1874 11.8486 20.1478 11.8486C20.1342 11.8486 20.0753 11.8129 20.0168 11.7692C19.9583 11.7256 19.8966 11.6899 19.8797 11.6899C19.8627 11.6899 19.8056 11.6545 19.7527 11.6113C19.6999 11.5681 19.6166 11.5159 19.5677 11.4953C19.5187 11.4747 19.438 11.4256 19.3883 11.3861C19.2714 11.2933 19.1775 11.2756 19.0825 11.3285C19.0433 11.3504 18.9794 11.3745 18.9404 11.3821C18.8065 11.4082 18.6805 11.4537 18.6552 11.4851C18.6394 11.5046 18.6127 11.5122 18.5841 11.5051C18.5588 11.4989 18.4776 11.5154 18.4021 11.5423C18.3272 11.5689 18.2339 11.5907 18.1949 11.5907C18.1558 11.5907 18.1239 11.5996 18.1239 11.6105C18.1239 11.6214 18.1085 11.6304 18.0897 11.6304C18.071 11.6304 17.9509 11.6668 17.8228 11.7113C17.6948 11.7557 17.5707 11.7925 17.5471 11.793C17.4769 11.7944 17.2811 11.8489 17.1623 11.9C17.0144 11.9637 16.9064 11.9625 16.8232 11.8964C16.7876 11.8682 16.7585 11.8342 16.7585 11.8209C16.7585 11.8076 16.7458 11.7803 16.7303 11.7602C16.7031 11.7251 16.697 11.7255 16.5597 11.7713C16.4747 11.7996 16.4046 11.8368 16.3859 11.8635C16.3633 11.8958 16.3335 11.9083 16.2782 11.909C16.2363 11.9095 16.1688 11.9217 16.1284 11.9362C16.0879 11.9507 15.9509 11.996 15.8238 12.0369C15.6967 12.0778 15.5644 12.1229 15.5297 12.137C15.4951 12.1512 15.41 12.1783 15.3407 12.1972C15.2714 12.2162 15.2057 12.2393 15.1947 12.2485C15.1837 12.2577 15.1576 12.2652 15.1366 12.2652C15.1157 12.2652 15.0821 12.2732 15.0621 12.283C14.9585 12.3336 14.502 12.4786 14.3745 12.5014C14.3282 12.5097 14.2432 12.5354 14.1854 12.5585C14.0099 12.6289 13.633 12.7232 13.5389 12.7202C13.4435 12.7172 13.3308 12.7405 13.255 12.7788C13.229 12.7919 13.1988 12.7974 13.1879 12.7911C13.1769 12.7847 13.1275 12.7968 13.078 12.8179C13.0286 12.8391 12.9125 12.8671 12.8201 12.8801C12.7276 12.8931 12.622 12.921 12.5853 12.9423C12.5479 12.9639 12.4879 12.9791 12.4488 12.9768C12.4104 12.9746 12.3235 12.9882 12.2557 13.0071C12.1879 13.0259 12.1205 13.037 12.1059 13.0317C12.0913 13.0264 12.0475 13.0424 12.0086 13.0672C11.9697 13.092 11.9142 13.1174 11.8853 13.1238C11.7103 13.1624 11.4556 13.2301 11.3287 13.2718C11.2478 13.2983 11.0919 13.3374 10.9821 13.3587C10.8724 13.3799 10.7448 13.4053 10.6986 13.4153L10.5095 13.4558C10.3867 13.482 10.1877 13.5262 10.0684 13.5536C10.0222 13.5642 9.92767 13.5831 9.85835 13.5954C9.78904 13.6078 9.6931 13.6309 9.64516 13.6467C9.59722 13.6626 9.51215 13.6833 9.45611 13.6929C9.40008 13.7024 9.29752 13.7252 9.2282 13.7434C9.09579 13.7782 8.90736 13.8074 8.71356 13.8229C8.65002 13.8281 8.5744 13.8407 8.54552 13.851C8.48112 13.874 8.33358 13.9002 8.03087 13.9424C7.90379 13.9601 7.77619 13.9795 7.7473 13.9855C7.71842 13.9916 7.65226 13.9987 7.60027 14.0014C7.54828 14.0041 7.43013 14.0155 7.33771 14.0267C6.99692 14.0682 6.82119 14.0189 6.67683 13.8412C6.48323 13.603 6.47325 13.567 6.59567 13.5492C6.71696 13.5316 6.88899 13.479 6.92497 13.4486C6.95544 13.4228 7.10579 13.3648 7.26419 13.3178C7.29307 13.3092 7.39705 13.2646 7.49524 13.2188C7.59344 13.1729 7.76359 13.1054 7.87333 13.0688C7.98308 13.0323 8.16268 12.9699 8.27243 12.9303C8.38218 12.8906 8.53342 12.8418 8.60851 12.8217C8.68361 12.8016 8.81121 12.7565 8.89208 12.7216C8.97295 12.6867 9.08165 12.6463 9.13364 12.6319C9.28355 12.5903 9.53526 12.5049 9.6317 12.4629C9.68036 12.4418 9.76398 12.4151 9.81753 12.4038C9.87108 12.3925 9.94942 12.3667 9.99162 12.3464C10.1367 12.2769 10.2156 12.2484 10.2994 12.2352C10.3456 12.2279 10.3929 12.2149 10.4044 12.2063C10.4464 12.1751 10.9316 11.9836 11.0058 11.969C11.0477 11.9607 11.1139 11.9357 11.1528 11.9132C11.1918 11.8908 11.3258 11.835 11.4506 11.7892C11.5755 11.7433 11.7407 11.671 11.8179 11.6284C11.895 11.5859 11.9684 11.551 11.9809 11.551C11.9934 11.551 12.0597 11.5231 12.1282 11.489C12.3423 11.3826 12.4078 11.3526 12.4263 11.3526C12.4362 11.3526 12.4763 11.3303 12.5154 11.303C12.5546 11.2758 12.6111 11.2534 12.6411 11.2534C12.671 11.2534 12.7736 11.2228 12.869 11.1854C12.9644 11.148 13.0706 11.1115 13.105 11.1044C13.1394 11.0972 13.1933 11.0712 13.2248 11.0466C13.2563 11.022 13.3282 10.9911 13.3845 10.978C13.4407 10.9648 13.5327 10.9321 13.5888 10.9053C13.6449 10.8784 13.7406 10.8465 13.8015 10.8343C13.8624 10.8221 13.9547 10.7909 14.0066 10.7649C14.0585 10.739 14.1176 10.7178 14.138 10.7178C14.1584 10.7178 14.2955 10.6635 14.4428 10.5972C14.59 10.5309 14.7388 10.4649 14.7735 10.4506C14.8081 10.4362 14.9666 10.3653 15.1257 10.2929C15.2847 10.2204 15.4428 10.1559 15.477 10.1494C15.5112 10.143 15.55 10.1254 15.5633 10.1103C15.5765 10.0953 15.6045 10.083 15.6256 10.083C15.6466 10.083 15.6761 10.067 15.6912 10.0474C15.7063 10.0278 15.76 10.0004 15.8105 9.98636C15.861 9.97235 15.9239 9.94051 15.9503 9.9156C16.0368 9.83395 16.1424 9.78301 16.198 9.79619C16.2332 9.80453 16.2757 9.79334 16.3308 9.76117C16.3754 9.73516 16.4291 9.71736 16.4501 9.7216C16.4753 9.72669 16.4923 9.71517 16.4998 9.68793C16.5069 9.66234 16.5284 9.64648 16.5561 9.64639C16.5807 9.64632 16.6293 9.62853 16.6639 9.60685C16.6986 9.58517 16.7577 9.56737 16.7952 9.5673C16.8327 9.56723 16.8635 9.55824 16.8635 9.54733C16.8635 9.53642 16.9048 9.52749 16.9554 9.52749C17.055 9.52749 17.2836 9.44325 17.2836 9.40651C17.2836 9.39424 17.2458 9.34156 17.1995 9.28943C17.1533 9.2373 17.1155 9.17983 17.1155 9.16171C17.1155 9.14358 17.101 9.10215 17.0832 9.06964C17.0654 9.03713 17.0582 8.99974 17.0674 8.98631C17.0837 8.96259 17.0894 8.91417 17.1017 8.69428C17.1073 8.59481 17.127 8.53002 17.1818 8.43018C17.1927 8.4104 17.1959 8.37739 17.189 8.35682C17.1796 8.32905 17.1927 8.31148 17.2394 8.28862C17.2741 8.27169 17.3168 8.25783 17.3343 8.25783C17.3788 8.25783 17.4096 8.19488 17.4096 8.10414C17.4096 8.046 17.4238 8.01436 17.4677 7.97466C17.5316 7.91682 17.6776 7.86106 17.7651 7.86106C17.796 7.86106 17.8311 7.8518 17.8431 7.84049C17.8581 7.82628 17.883 7.82644 17.9236 7.84099C17.987 7.86376 18.0608 7.85131 18.0608 7.81784C18.0608 7.80526 18.0876 7.8018 18.129 7.80902C18.1686 7.81591 18.2415 7.80763 18.3023 7.78932C18.4457 7.74617 18.4841 7.74211 18.8723 7.72905C19.0974 7.72147 19.2352 7.7251 19.2825 7.73983C19.341 7.75806 19.5043 7.87756 19.5803 7.9577C19.7662 8.1537 19.879 8.22557 19.996 8.22243C20.0368 8.22133 20.063 8.23236 20.0712 8.25417C20.0989 8.32788 20.1175 8.33464 20.2041 8.3025C20.2499 8.28553 20.2873 8.25934 20.2873 8.24428C20.2873 8.22923 20.3022 8.21151 20.3204 8.20491C20.3386 8.19831 20.362 8.17181 20.3724 8.14602C20.3904 8.10137 20.4763 8.07724 20.4763 8.11684C20.4763 8.15054 20.5343 8.15539 20.5931 8.12659C20.6256 8.11069 20.6635 8.1018 20.6773 8.10683C20.6912 8.11186 20.7293 8.08963 20.7619 8.05744C20.7946 8.02525 20.8332 8.00322 20.8477 8.00848C20.8622 8.01374 20.8792 8.01028 20.8854 8.0008C20.8916 7.99132 20.9793 7.95913 21.0803 7.92926C21.1813 7.8994 21.2782 7.86514 21.2955 7.85313C21.3557 7.81144 21.4212 7.78171 21.4528 7.78171C21.4703 7.78171 21.4846 7.76903 21.4846 7.75353C21.4846 7.71535 21.5906 7.69603 21.7128 7.71191C21.8027 7.72359 21.8188 7.71961 21.8643 7.67433C21.8923 7.64648 21.925 7.62353 21.937 7.62334C21.9491 7.62316 21.994 7.59176 22.0369 7.55357C22.0951 7.50166 22.1332 7.48413 22.1878 7.48413C22.2409 7.48413 22.2695 7.47163 22.2926 7.43829C22.3342 7.37833 22.4518 7.31745 22.6083 7.27484C22.6777 7.25598 22.7722 7.22426 22.8184 7.20435C22.9328 7.15506 23.3445 7.01507 23.4513 6.98913C23.4991 6.97754 23.5498 6.95479 23.5641 6.93858C23.5783 6.92237 23.629 6.89936 23.6768 6.88745C23.7245 6.87553 23.8064 6.84012 23.8587 6.80873C23.911 6.77735 24.0175 6.72903 24.0953 6.70135C24.1732 6.67367 24.2744 6.62868 24.3202 6.60137C24.366 6.57406 24.4261 6.55172 24.4537 6.55172C24.4814 6.55172 24.5957 6.51155 24.7077 6.46245C24.8197 6.41335 24.9211 6.37317 24.9331 6.37317C24.945 6.37317 24.9829 6.35085 25.0173 6.32357C25.0516 6.29629 25.1049 6.26925 25.1358 6.26348C25.1667 6.25771 25.2345 6.23901 25.2865 6.22193C25.3385 6.20485 25.4422 6.1739 25.5171 6.15317C25.592 6.13244 25.6849 6.10125 25.7237 6.08388C25.7625 6.06651 25.8592 6.03527 25.9387 6.01447C26.0182 5.99366 26.1772 5.93732 26.2919 5.88926C26.4067 5.8412 26.5322 5.79568 26.5709 5.78809C26.6096 5.7805 26.6744 5.75377 26.7148 5.7287C26.7553 5.70362 26.8261 5.67205 26.8724 5.65854C26.9186 5.64504 26.9658 5.62759 26.9774 5.61978C26.9889 5.61196 27.0899 5.57251 27.2017 5.5321C27.3135 5.49169 27.4284 5.44122 27.4571 5.41994C27.4857 5.39866 27.5195 5.38125 27.5322 5.38125C27.5448 5.38125 27.5904 5.3634 27.6336 5.34158C27.6767 5.31975 27.7247 5.3019 27.7402 5.3019C27.7558 5.3019 27.841 5.26662 27.9296 5.2235C28.1525 5.11497 28.4888 4.96465 28.5087 4.96465C28.5177 4.96465 28.5492 4.94679 28.5785 4.92497C28.6079 4.90315 28.6458 4.88529 28.6627 4.88529C28.701 4.88529 28.762 4.85969 29.1885 4.66463C29.3764 4.57869 29.5349 4.50836 29.5406 4.50836C29.5463 4.50836 29.6383 4.46764 29.745 4.41787C29.8518 4.36811 30.0217 4.30178 30.1227 4.27049C30.2237 4.2392 30.3865 4.17725 30.4846 4.13284C30.5827 4.08842 30.6807 4.05208 30.7024 4.05208C30.7444 4.05208 30.967 3.94704 31.0225 3.90104C31.0407 3.88591 31.0757 3.87354 31.1003 3.87354C31.1347 3.87354 31.1472 3.88839 31.1547 3.93801C31.1601 3.97347 31.1738 4.05665 31.1852 4.12284C31.2076 4.25336 31.1875 4.4078 31.1391 4.47724C31.0926 4.54384 30.8755 4.74 30.7819 4.80001C30.7342 4.83055 30.6371 4.90018 30.5661 4.95473C30.4951 5.00929 30.4053 5.07409 30.3666 5.09873C30.3278 5.12338 30.2138 5.19926 30.1132 5.26736C30.0126 5.33546 29.8862 5.41711 29.8324 5.44881C29.7786 5.48051 29.7144 5.52344 29.6898 5.54419C29.582 5.63505 29.4415 5.73835 29.4257 5.73835C29.4082 5.73835 29.192 5.85749 29.1455 5.89281C29.1314 5.90347 29.0656 5.93932 28.9993 5.97247C28.933 6.00561 28.8537 6.0513 28.8232 6.074C28.7926 6.0967 28.7562 6.11528 28.7422 6.11528C28.7282 6.11528 28.6988 6.13411 28.6768 6.15712C28.6548 6.18013 28.5811 6.227 28.513 6.26127C28.3626 6.33701 28.346 6.34674 28.2293 6.42793C28.1784 6.46328 28.1252 6.4922 28.111 6.4922C28.0969 6.4922 28.0723 6.50698 28.0564 6.52503C28.0406 6.54309 27.9993 6.57002 27.9646 6.58488C27.9299 6.59973 27.8496 6.64767 27.786 6.69139C27.7225 6.73512 27.6038 6.80103 27.5223 6.83787C27.4407 6.87471 27.3381 6.92789 27.2941 6.95605C27.2502 6.98421 27.1657 7.0307 27.1063 7.05936C27.0469 7.08802 26.9747 7.12376 26.9458 7.13879C26.917 7.15383 26.8724 7.16626 26.8469 7.16642C26.8214 7.16658 26.7835 7.18297 26.7629 7.20283C26.7422 7.2227 26.678 7.26409 26.6203 7.29481C26.5625 7.32554 26.4898 7.37624 26.4587 7.40749C26.4259 7.44037 26.3801 7.46429 26.35 7.46429C26.3214 7.46429 26.257 7.49331 26.207 7.52877C26.0412 7.64627 25.9462 7.70236 25.9131 7.70236C25.895 7.70236 25.8553 7.72093 25.8247 7.74363C25.7941 7.76633 25.7168 7.81127 25.6529 7.84349C25.589 7.87571 25.5111 7.92823 25.4798 7.9602C25.4154 8.02605 25.0771 8.21046 24.9188 8.26597C24.8611 8.28624 24.7949 8.31829 24.7718 8.3372C24.7487 8.35611 24.588 8.4364 24.4147 8.5156C24.2414 8.59481 24.0855 8.66747 24.0681 8.67707C24.0508 8.68667 24.0225 8.69984 24.0051 8.70632C23.97 8.71945 23.8076 8.79474 23.7426 8.828C23.7195 8.83982 23.6249 8.88215 23.5325 8.92207C23.4401 8.96198 23.3503 9.00286 23.333 9.01291C23.3156 9.02296 23.2542 9.05485 23.1964 9.08377C23.1387 9.11269 23.0609 9.15831 23.0236 9.18514C22.9863 9.21198 22.9156 9.24247 22.8665 9.2529C22.8173 9.26333 22.7309 9.29868 22.6746 9.33144C22.6182 9.3642 22.5421 9.39463 22.5055 9.39906C22.4122 9.41034 22.0386 9.57843 22.0234 9.61598C22.0165 9.63304 22.0212 9.66855 22.0339 9.69489C22.0719 9.77365 22.0394 9.83133 21.8941 9.94261C21.7444 10.0573 21.7069 10.1053 21.7249 10.1589C21.7443 10.2165 22.0859 10.4986 22.188 10.5412C22.2403 10.5631 22.2984 10.6029 22.317 10.6297C22.3739 10.7118 22.5408 10.7776 22.6977 10.7798C22.7732 10.7809 22.869 10.7954 22.9107 10.8121C22.9523 10.8288 23.0479 10.8585 23.1229 10.878C23.2758 10.9177 23.4508 10.9728 23.506 10.9984C23.5261 11.0078 23.5529 11.0154 23.5657 11.0154C23.5784 11.0154 23.6059 11.0352 23.6267 11.0595C23.652 11.0891 23.7085 11.1123 23.7981 11.1298L23.9887 11.1672C24.0201 11.1734 24.0515 11.1953 24.0584 11.2159C24.0653 11.2365 24.0963 11.2588 24.1273 11.2655C24.3178 11.3066 24.543 11.3769 24.5802 11.4069C24.6629 11.4737 24.6721 11.4838 24.7062 11.5463C24.7251 11.5808 24.7831 11.6325 24.835 11.6612C24.8869 11.69 24.9294 11.7244 24.9294 11.7377C24.9294 11.7713 25.0404 11.8684 25.0789 11.8684C25.1605 11.8684 25.2064 11.6345 25.1618 11.4457C25.1511 11.4 25.1305 11.2911 25.1161 11.2038C25.0765 10.9629 25.0418 10.9075 24.7955 10.6917C24.5556 10.4816 24.5064 10.4077 24.4749 10.2096L24.4555 10.0882L24.5347 10.0039C24.5783 9.9575 24.6587 9.88953 24.7133 9.85283C24.8058 9.79074 24.8208 9.78696 24.9288 9.79838C24.9927 9.80514 25.0544 9.81712 25.0659 9.825C25.0775 9.83289 25.1176 9.84483 25.1551 9.85154C25.2117 9.86166 25.2288 9.85566 25.2562 9.81617C25.2862 9.77298 25.2862 9.76307 25.2563 9.70856C25.223 9.64769 25.2127 9.51762 25.2365 9.45896C25.2437 9.4413 25.2815 9.41424 25.3205 9.39884C25.3765 9.37675 25.3915 9.35943 25.3915 9.31683C25.3915 9.28713 25.4072 9.24644 25.4264 9.2264C25.4682 9.18273 25.5042 9.12648 25.554 9.0268C25.5897 8.95534 25.6471 8.92936 25.6751 8.97204C25.695 9.00247 25.7822 8.9956 25.8124 8.96121C25.8286 8.9428 25.8366 8.89327 25.8324 8.83722C25.8194 8.66481 25.8276 8.58941 25.8612 8.57166C25.879 8.56226 25.9058 8.5436 25.9208 8.5302C25.9359 8.5168 25.9918 8.48646 26.0451 8.46277C26.1352 8.42272 26.1444 8.422 26.1767 8.45246C26.2053 8.47944 26.2187 8.48091 26.2528 8.46081C26.3109 8.42654 26.3301 8.43019 26.3434 8.47805C26.3536 8.51492 26.3648 8.51811 26.4415 8.50587C26.4932 8.49763 26.5515 8.50118 26.5859 8.51464C26.632 8.53265 26.6562 8.53105 26.7055 8.50678C26.7841 8.46808 26.8703 8.4676 26.9037 8.50567C26.9235 8.52821 26.9741 8.53468 27.1161 8.53281C27.2366 8.53123 27.3135 8.53902 27.3337 8.55484C27.3594 8.57496 27.376 8.5689 27.4269 8.52079C27.4806 8.47003 27.4874 8.45172 27.4776 8.38279L27.4663 8.30332L27.5571 8.2896C27.6354 8.27778 27.6527 8.28183 27.6824 8.31904C27.7067 8.34949 27.7453 8.36451 27.8135 8.37004C27.934 8.37982 27.9527 8.35341 27.9474 8.18083C27.9424 8.01812 27.9732 7.9926 28.1584 8.00582C28.2538 8.01263 28.2957 8.00773 28.3133 7.98772C28.3446 7.9521 28.3742 7.95266 28.3742 7.98887C28.3742 8.03336 28.4155 8.04674 28.4691 8.01964C28.5063 8.00081 28.5339 8.00025 28.5857 8.0173C28.623 8.02959 28.6793 8.03964 28.7109 8.03964C28.7424 8.03964 28.8021 8.05303 28.8436 8.0694C28.8851 8.08576 28.9467 8.09915 28.9804 8.09915C29.0157 8.09915 29.047 8.11184 29.054 8.12891C29.0606 8.14528 29.0815 8.15867 29.1003 8.15867C29.1191 8.15867 29.222 8.19884 29.3288 8.24794C29.4357 8.29704 29.5317 8.33741 29.5421 8.33766C29.5525 8.3379 29.5846 8.35555 29.6135 8.37689C29.6424 8.39823 29.6832 8.41588 29.7042 8.41613C29.7252 8.41637 29.7733 8.43889 29.8112 8.46617C29.8491 8.49345 29.8878 8.51576 29.8973 8.51576C29.9068 8.51576 29.985 8.55723 30.0711 8.60792C30.221 8.69615 30.23 8.6988 30.2829 8.67018C30.3694 8.62343 30.4603 8.61486 30.5499 8.64502C30.6592 8.68179 30.7688 8.68278 30.7688 8.64698C30.7688 8.63185 30.7345 8.588 30.6925 8.54952C30.6306 8.49272 30.6188 8.46998 30.6298 8.42853C30.6456 8.36908 30.7134 8.34655 30.8197 8.36539C30.9091 8.38122 31.09 8.54471 31.1784 8.6895L31.2414 8.79275L31.3702 8.79312C31.4914 8.79348 31.5021 8.78966 31.5519 8.72797C31.5998 8.66869 31.6038 8.6498 31.5935 8.52977C31.5871 8.45386 31.57 8.38749 31.5536 8.37464C31.5379 8.36229 31.525 8.33523 31.525 8.3145C31.525 8.2392 31.241 7.99317 31.0629 7.91419C30.9268 7.85387 30.7802 7.82185 30.639 7.82163C30.5127 7.82143 30.4945 7.81624 30.4553 7.76914C30.4313 7.74039 30.4117 7.68859 30.4117 7.65402C30.4117 7.53504 30.1481 7.2471 29.9391 7.13778C29.8698 7.10153 29.7683 7.0659 29.7136 7.05862C29.5971 7.04311 29.5505 7.00655 29.5505 6.93063C29.5505 6.8635 29.6083 6.83029 29.7397 6.82188C29.7916 6.81856 29.8955 6.79093 29.9706 6.76048C30.0457 6.73003 30.1497 6.7021 30.2017 6.69841C30.6186 6.66881 30.7914 6.65267 30.8665 6.63631C30.9145 6.62587 31.1224 6.62024 31.3286 6.62381C31.6708 6.62973 31.7951 6.6443 31.9136 6.69236C32.0036 6.72886 32.1466 6.76942 32.1863 6.7697C32.2092 6.76986 32.2754 6.79154 32.3334 6.81788C32.3913 6.84423 32.4907 6.8862 32.5542 6.91115C32.6178 6.9361 32.6839 6.96691 32.7013 6.97961C32.7186 6.99232 32.758 7.00838 32.7889 7.0153C32.8198 7.02221 32.8718 7.04897 32.9045 7.07476C32.9371 7.10054 32.9843 7.12768 33.0092 7.13505C33.0342 7.14242 33.066 7.1615 33.08 7.17744C33.0941 7.19339 33.1263 7.20643 33.1518 7.20643C33.2044 7.20643 33.2682 7.26529 33.3195 7.36104C33.3387 7.39697 33.3763 7.43578 33.403 7.44728C33.4298 7.45878 33.4662 7.49633 33.4841 7.53074C33.502 7.56514 33.5435 7.62327 33.5763 7.65991C33.6091 7.69656 33.6757 7.77244 33.7243 7.82854C33.7729 7.88464 33.8343 7.95285 33.8608 7.98013C33.9804 8.10322 34.0099 8.14516 34.0169 8.20236C34.0211 8.23602 34.056 8.30022 34.0945 8.34503C34.1331 8.38983 34.1748 8.4622 34.1872 8.50585C34.2493 8.72416 34.3659 8.99984 34.4108 9.03467C34.4483 9.0638 34.4497 9.07144 34.4227 9.10219C34.3868 9.14299 34.3936 9.20627 34.4389 9.25426C34.4626 9.27929 34.4676 9.31025 34.4575 9.3696C34.4466 9.43414 34.4525 9.46117 34.4862 9.50173C34.5096 9.52978 34.529 9.57608 34.5295 9.60461C34.5299 9.63315 34.543 9.67832 34.5586 9.705C34.5799 9.74116 34.5814 9.76526 34.5648 9.79969C34.5467 9.83724 34.5511 9.85676 34.5881 9.90412C34.6478 9.98037 34.6472 10.0482 34.5865 10.0734C34.5605 10.0841 34.5402 10.1041 34.5413 10.1177C34.5425 10.1314 34.5448 10.1776 34.5466 10.2206C34.549 10.2796 34.5599 10.3016 34.5917 10.3112C34.6398 10.3256 34.6474 10.3849 34.6053 10.4178C34.5844 10.4342 34.5789 10.4829 34.5845 10.6015C34.5892 10.7003 34.5832 10.773 34.5691 10.7891C34.5557 10.8044 34.5519 10.841 34.5602 10.8763C34.5679 10.9098 34.5628 10.9795 34.5488 11.0312C34.5298 11.1011 34.529 11.1508 34.5457 11.2241C34.5653 11.3103 34.563 11.3314 34.5272 11.3889C34.5047 11.4252 34.4912 11.4626 34.4974 11.472C34.5035 11.4813 34.4851 11.5111 34.4565 11.5382C34.4278 11.5652 34.4003 11.6082 34.3952 11.6337C34.3902 11.6592 34.3748 11.738 34.3611 11.809C34.3474 11.8799 34.3141 12.0049 34.2872 12.0867C34.2603 12.1685 34.2286 12.2712 34.2169 12.3148C34.1657 12.5042 34.1415 12.5776 34.1052 12.6534C34.084 12.6978 34.0666 12.7455 34.0666 12.7595C34.0666 12.7734 34.0537 12.8085 34.0379 12.8375C33.9859 12.9331 33.9196 13.0794 33.9196 13.0986C33.9196 13.109 33.8807 13.1958 33.8332 13.2915C33.7565 13.4459 33.6833 13.6171 33.5904 13.8597C33.5742 13.9019 33.5459 13.964 33.5275 13.9976C33.4798 14.0848 33.3603 14.441 33.3436 14.5459C33.3359 14.5945 33.3094 14.6748 33.2849 14.7244C33.2369 14.8213 33.1879 14.9997 33.1857 15.0856C33.185 15.1147 33.1647 15.1817 33.1406 15.2344C33.1053 15.312 33.0962 15.3763 33.0933 15.5704C33.0908 15.7392 33.0812 15.8201 33.0612 15.8429C33.0441 15.8624 33.039 15.8894 33.0486 15.9103C33.0573 15.9296 33.0677 16.0971 33.0716 16.2826C33.0785 16.6061 33.0985 16.7726 33.1408 16.8579C33.1713 16.9194 33.2076 17.0398 33.2015 17.0589C33.1985 17.0684 33.2066 17.1163 33.2195 17.1654C33.2803 17.3955 33.3199 17.5737 33.3141 17.5908C33.3106 17.6011 33.3197 17.6307 33.3343 17.6565C33.3552 17.6933 33.3555 17.7117 33.3357 17.7416C33.2959 17.8018 33.3052 17.8314 33.3816 17.8864C33.4543 17.9388 33.4575 17.9474 33.4958 18.1909C33.5082 18.2705 33.5321 18.3165 33.6002 18.3928C33.6488 18.4472 33.6885 18.5105 33.6885 18.5335C33.6885 18.5809 33.7315 18.6486 33.8152 18.7333C33.8467 18.7651 33.8915 18.8293 33.9147 18.876C33.9383 18.9236 34.0116 19.0058 34.0811 19.0629C34.2492 19.201 34.2991 19.3469 34.1878 19.3744C34.1236 19.3902 34.0831 19.3628 33.9655 19.224C33.9075 19.1556 33.8218 19.0646 33.775 19.0219C33.7282 18.9791 33.6663 18.8985 33.6375 18.8428C33.6086 18.7871 33.5256 18.6774 33.453 18.599C33.2853 18.4181 32.9534 17.9862 32.9534 17.949C32.9534 17.9441 32.9215 17.8783 32.8825 17.8027C32.8436 17.7271 32.8052 17.622 32.7972 17.5691C32.7811 17.4631 32.7371 17.3081 32.6796 17.1555C32.6374 17.0433 32.5512 16.5389 32.5539 16.4202C32.5549 16.3772 32.5452 16.1234 32.5323 15.856C32.5042 15.2716 32.5041 15.4085 32.5329 14.9165C32.5462 14.6888 32.5659 14.4807 32.5767 14.4539C32.5874 14.4271 32.5963 14.3534 32.5963 14.29C32.5963 14.2266 32.609 14.1401 32.6246 14.0978C32.6402 14.0556 32.6588 13.9495 32.6661 13.8622C32.6733 13.775 32.6983 13.6566 32.7217 13.5992C32.7452 13.5418 32.7643 13.4659 32.7643 13.4305C32.7643 13.3952 32.7791 13.3038 32.7972 13.2274C32.8813 12.8717 32.8863 12.4695 32.8085 12.3041C32.7853 12.2545 32.7598 12.1742 32.7519 12.1255C32.744 12.0769 32.7117 11.9836 32.68 11.9181C32.5673 11.6852 32.5366 11.57 32.5245 11.3348C32.5181 11.2104 32.5087 11.1046 32.5036 11.0998C32.4985 11.095 32.4096 11.1014 32.306 11.1142C32.169 11.131 32.0846 11.1315 31.996 11.116C31.9291 11.1043 31.831 11.0948 31.7779 11.0948C31.72 11.0948 31.6606 11.0809 31.6295 11.0602C31.6009 11.0412 31.5309 11.0032 31.4739 10.9759L31.3111 10.8978C31.2786 10.8822 31.2519 10.857 31.2519 10.8418C31.2519 10.826 31.2361 10.8171 31.2152 10.821C31.1758 10.8284 31.1761 10.8208 31.1989 11.2138C31.2102 11.4075 31.1477 11.6975 31.061 11.8533C31.0505 11.8723 31.0419 11.9096 31.0419 11.9363C31.0419 11.963 31.0146 12.0279 30.9811 12.0804C30.9477 12.133 30.9041 12.2251 30.8841 12.2851C30.8215 12.4737 30.7935 12.5232 30.7494 12.5232C30.7039 12.5232 30.6845 12.5448 30.6533 12.6304C30.6418 12.6621 30.6137 12.6978 30.5909 12.7097C30.5234 12.7451 30.2806 12.9405 30.2342 12.9968C30.1696 13.075 30.0902 13.1368 30.0534 13.1375C30.0354 13.1379 30.0023 13.1513 29.9799 13.1673C29.9575 13.1833 29.922 13.1967 29.9011 13.197C29.8802 13.1974 29.8283 13.2233 29.7856 13.2545C29.7253 13.2988 29.6637 13.3186 29.5085 13.3437C29.3988 13.3615 29.2411 13.388 29.1582 13.4027C29.0752 13.4173 28.9571 13.4256 28.8956 13.421C28.8341 13.4164 28.6704 13.4272 28.5318 13.4448C28.2225 13.4843 28.2546 13.4825 28.1519 13.4656C28.0711 13.4524 28.0647 13.4549 28.0432 13.5081C28.0306 13.5392 28.0146 13.5976 28.0075 13.6379C27.9986 13.6888 27.9811 13.7153 27.9504 13.7245C27.8846 13.7442 27.7424 13.6925 27.6794 13.6259C27.6286 13.5722 27.6192 13.5693 27.5633 13.5913C27.5299 13.6044 27.471 13.6458 27.4324 13.6832C27.3935 13.7208 27.3161 13.7656 27.2589 13.7836C27.1437 13.8197 27.114 13.856 27.114 13.9606C27.114 14.0165 27.1327 14.0509 27.2011 14.1211C27.2491 14.1702 27.3191 14.2242 27.3568 14.2411C27.428 14.273 27.5136 14.3484 27.691 14.5356C27.7485 14.5963 27.8102 14.6459 27.8281 14.6459C27.8461 14.6459 27.8794 14.6579 27.9022 14.6726C27.925 14.6873 27.9886 14.7153 28.0434 14.7348C28.0983 14.7543 28.1432 14.7774 28.1432 14.7861C28.1432 14.7948 28.2023 14.8586 28.2745 14.9279C28.3467 14.9972 28.4229 15.0786 28.4438 15.1088C28.4646 15.1391 28.4977 15.1692 28.5173 15.1758C28.5722 15.1944 28.6219 15.2506 28.6297 15.3028C28.6336 15.3288 28.6573 15.3586 28.6823 15.369C28.7288 15.3883 28.8364 15.581 28.8364 15.645C28.8364 15.6984 28.8747 15.7552 28.977 15.8532C29.0501 15.9232 29.0675 15.9523 29.0578 15.9887C29.0501 16.0176 29.0603 16.0554 29.085 16.0893C29.1067 16.1192 29.1404 16.1685 29.1599 16.1989C29.181 16.2317 29.2206 16.2589 29.2574 16.2659C29.3011 16.2741 29.3195 16.2892 29.3195 16.3169C29.3195 16.3648 29.4877 16.5172 29.6031 16.5738C29.6493 16.5965 29.727 16.6496 29.7759 16.6918C29.8247 16.734 29.8776 16.7686 29.8934 16.7686C29.9092 16.7686 29.9401 16.7874 29.9621 16.8104C29.9841 16.8334 30.0459 16.8732 30.0993 16.8988C30.1527 16.9243 30.2019 16.9587 30.2086 16.9751C30.2152 16.9915 30.2566 17.0235 30.3004 17.0464C30.4766 17.1381 30.507 17.1568 30.5329 17.1893C30.5478 17.208 30.572 17.2188 30.5867 17.2135C30.6014 17.2082 30.6608 17.2465 30.7187 17.2987C30.7766 17.3508 30.8639 17.4274 30.9126 17.4688C30.9646 17.5129 31.0065 17.5686 31.0139 17.6034C31.0208 17.636 31.057 17.687 31.0943 17.7166C31.1316 17.7462 31.1737 17.7913 31.1877 17.8167C31.2018 17.8422 31.2451 17.8756 31.2839 17.8909C31.3525 17.918 31.462 18.0301 31.462 18.0733C31.462 18.0851 31.4865 18.1222 31.5164 18.1557C31.5552 18.1993 31.5891 18.2168 31.6347 18.2168C31.6698 18.2168 31.7281 18.2337 31.7641 18.2543C31.8001 18.275 31.8624 18.2984 31.9024 18.3064C31.9831 18.3226 32.0197 18.34 32.1415 18.4201C32.1872 18.4501 32.2372 18.4747 32.2528 18.4747C32.2684 18.4747 32.2812 18.4922 32.2812 18.5136C32.2812 18.535 32.2988 18.5685 32.3203 18.588C32.3624 18.6262 32.3864 18.6982 32.3966 18.8174C32.4042 18.9071 32.4334 18.944 32.5251 18.9802C32.5711 18.9984 32.6089 19.0357 32.6394 19.0931C32.6645 19.1403 32.7015 19.1968 32.7216 19.2186C32.7619 19.2623 32.8273 19.4402 32.8273 19.5058C32.8273 19.5524 32.899 19.6951 32.9321 19.7144C32.9438 19.7212 32.9534 19.7509 32.9534 19.7802C32.9535 19.8528 33.0257 19.9594 33.0905 19.9826C33.1542 20.0055 33.1877 20.0767 33.159 20.1283C33.1307 20.1792 33.1558 20.2872 33.2058 20.3299C33.2344 20.3543 33.2475 20.391 33.2475 20.4467C33.2476 20.4929 33.2657 20.556 33.2895 20.5929C33.3126 20.6286 33.3318 20.6777 33.3322 20.702C33.3326 20.7263 33.3464 20.7685 33.363 20.7958C33.3795 20.8231 33.3933 20.8629 33.3937 20.8842C33.3941 20.9056 33.4381 20.961 33.4915 21.0073C33.573 21.0779 33.5864 21.0996 33.5751 21.1422C33.5612 21.1945 33.5971 21.2799 33.6705 21.3688C33.692 21.3948 33.7095 21.4406 33.7095 21.4705C33.7095 21.5005 33.7228 21.5353 33.7389 21.548C33.7551 21.5606 33.773 21.6041 33.7788 21.6446C33.7953 21.7607 33.8254 21.8529 33.8869 21.9757C33.9228 22.0474 33.9395 22.1067 33.9317 22.1357C33.9226 22.1701 33.9299 22.1849 33.9606 22.1941C33.9833 22.2009 34.0262 22.2339 34.0561 22.2674C34.1009 22.3177 34.1096 22.3459 34.1057 22.4279C34.1013 22.5173 34.1076 22.533 34.1678 22.5837C34.2046 22.6148 34.2347 22.6562 34.2347 22.6757C34.2347 22.6953 34.2607 22.7341 34.2924 22.7621C34.3955 22.8528 34.5287 22.9955 34.5287 23.0154C34.5287 23.0352 34.7069 23.1566 34.736 23.1566C34.7697 23.1566 35.0656 23.4226 35.0898 23.4747C35.1038 23.5048 35.1416 23.548 35.1738 23.5707C35.206 23.5934 35.2491 23.6272 35.2694 23.6459C35.3224 23.6945 35.3481 23.6602 35.3624 23.5214C35.3782 23.3694 35.4185 23.3055 35.5163 23.2778C35.6295 23.2458 35.6648 23.2497 35.8144 23.3103C36.0103 23.3898 36.2718 23.5941 36.2724 23.6682C36.2726 23.6868 36.3096 23.7397 36.3547 23.7855C36.3998 23.8314 36.4429 23.8872 36.4504 23.9095C36.4579 23.9318 36.4728 23.9501 36.4836 23.9501C36.5187 23.9501 36.5043 24.0297 36.4585 24.0882L36.4138 24.1453L36.4585 24.2325C36.5263 24.3648 36.5178 24.4007 36.3914 24.5163C36.2835 24.615 36.2745 24.619 36.1361 24.6295C36.0219 24.6381 35.9729 24.6324 35.8966 24.6015C35.8207 24.5708 35.7903 24.5672 35.7506 24.5843C35.7073 24.6029 35.7024 24.6151 35.7141 24.6742C35.7303 24.7556 35.6946 24.8314 35.5766 24.9654C35.5317 25.0165 35.495 25.0726 35.495 25.0901C35.495 25.1298 35.3913 25.3265 35.3655 25.3357C35.308 25.3564 35.2256 25.4452 35.2143 25.4988C35.2071 25.5326 35.1819 25.586 35.1583 25.6173C35.1057 25.6871 34.9401 25.7951 34.8857 25.7951C34.8588 25.7951 34.8326 25.8232 34.8053 25.8815C34.7738 25.9487 34.739 25.9819 34.6494 26.0303C34.586 26.0646 34.5097 26.0927 34.4799 26.0927C34.4501 26.0927 34.4015 26.103 34.372 26.1158C34.3011 26.1463 34.2456 26.1172 34.1552 26.002C34.0655 25.8876 33.9924 25.8821 33.9105 25.9836C33.8796 26.0218 33.8242 26.0676 33.7872 26.0855C33.7503 26.1034 33.687 26.144 33.6465 26.1759L33.524 26.2723C33.497 26.2935 33.4639 26.3109 33.4504 26.311C33.437 26.3111 33.3462 26.3808 33.2488 26.4658L33.0716 26.6205L33.1007 26.7186C33.1167 26.7726 33.161 26.8554 33.1991 26.9026C33.2372 26.9498 33.2745 27.0123 33.2818 27.0415C33.2892 27.0706 33.3025 27.1034 33.3115 27.1143C33.3204 27.1252 33.3446 27.1743 33.3654 27.2234C33.3861 27.2726 33.4328 27.3497 33.4693 27.3949C33.5647 27.5132 33.5846 27.6866 33.5164 27.8045C33.4474 27.9235 33.3268 27.9773 33.129 27.9773H32.9775L32.9287 27.893C32.8411 27.7418 32.5904 27.6759 32.4069 27.7559C32.3094 27.7984 32.1739 27.8463 32.0552 27.8803C32.0175 27.8911 31.9717 27.9216 31.9534 27.948C31.9343 27.9755 31.8909 28.0012 31.8519 28.0081C31.8145 28.0148 31.7433 28.0552 31.6938 28.0979C31.6408 28.1437 31.5827 28.1757 31.5527 28.1757C31.5247 28.1757 31.467 28.198 31.4245 28.2253C31.382 28.2526 31.3347 28.2749 31.3194 28.2749C31.304 28.2749 31.2516 28.3128 31.2028 28.3592C31.1108 28.4466 30.9707 28.5526 30.9472 28.5526C30.9208 28.5526 30.694 28.7277 30.6097 28.8131C30.5627 28.8608 30.4732 28.94 30.411 28.9891C30.1828 29.1691 29.7795 29.5691 29.5985 29.795C29.5558 29.8482 29.5111 29.8954 29.499 29.8999C29.4525 29.9174 29.0677 30.278 29.0675 30.3043C29.0675 30.313 29.0225 30.3637 28.9677 30.4169C28.8584 30.5228 28.8056 30.5812 28.6788 30.7364C28.6326 30.793 28.5428 30.8942 28.4793 30.9612C28.4157 31.0283 28.326 31.126 28.2797 31.1783C28.2335 31.2307 28.1225 31.3465 28.0329 31.4357C27.9434 31.5249 27.8469 31.6433 27.8185 31.699C27.7645 31.8047 27.6893 31.8704 27.5393 31.9425C27.4902 31.9661 27.45 31.9949 27.45 32.0064C27.45 32.0179 27.3993 32.078 27.3374 32.1399C27.2754 32.2018 27.2154 32.2703 27.2041 32.2922C27.1911 32.3173 27.1902 32.4046 27.2018 32.5302C27.2118 32.6393 27.2253 32.8197 27.2319 32.931C27.24 33.0696 27.2531 33.1407 27.2734 33.1566C27.2897 33.1694 27.303 33.1873 27.303 33.1964C27.303 33.2054 27.326 33.2448 27.354 33.2839C27.382 33.3229 27.4114 33.3835 27.4193 33.4186C27.4271 33.4537 27.4511 33.5005 27.4724 33.5225C27.5192 33.5708 27.6192 33.7751 27.6816 33.95C27.7066 34.0201 27.7545 34.1127 27.7881 34.1558C27.8217 34.1989 27.8491 34.2492 27.8491 34.2676C27.8491 34.2859 27.8628 34.3117 27.8796 34.3248C27.8963 34.3379 27.9209 34.3799 27.9343 34.4181C27.9476 34.4563 27.9811 34.5248 28.0086 34.5703C28.0362 34.6157 28.0588 34.6848 28.0589 34.7237C28.0593 34.8256 28.1154 34.9911 28.1979 35.1336C28.2571 35.2358 28.2713 35.2843 28.2803 35.4147C28.2868 35.509 28.3081 35.6084 28.3333 35.6623C28.362 35.7237 28.3749 35.7921 28.3736 35.8772C28.3712 36.0349 28.3934 36.2145 28.4182 36.239C28.4287 36.2494 28.4373 36.2868 28.4373 36.3222C28.4373 36.3575 28.4456 36.3913 28.4558 36.3973C28.5007 36.4235 28.4945 36.5183 28.4419 36.6103C28.3923 36.6969 28.3905 36.7081 28.4204 36.7404C28.493 36.8185 28.5266 36.9077 28.5023 36.9579C28.4897 36.9842 28.4793 37.0202 28.4793 37.0379C28.4793 37.0556 28.4633 37.0868 28.4438 37.1071C28.4138 37.1385 28.4122 37.154 28.4333 37.2093C28.4471 37.2451 28.4583 37.2973 28.4583 37.3252C28.4583 37.3531 28.4726 37.4083 28.4902 37.448C28.5175 37.5098 28.518 37.5279 28.4934 37.5744C28.4658 37.6266 28.4611 37.7551 28.4846 37.8172C28.4907 37.8335 28.5093 37.9585 28.5258 38.0949C28.557 38.3533 28.5574 38.7069 28.5274 39.4903C28.5148 39.8204 28.5168 39.9282 28.5361 39.9433C28.5736 39.9726 28.6053 39.945 28.6053 39.8832C28.6053 39.8533 28.6171 39.8176 28.6316 39.804C28.646 39.7904 28.6593 39.7551 28.6611 39.7256C28.6629 39.6962 28.6794 39.5873 28.6977 39.4836C28.7161 39.38 28.7311 39.2038 28.7312 39.0921C28.7313 38.9017 28.7356 38.8814 28.7995 38.7663C28.9161 38.5561 28.9973 38.4925 29.393 38.3014C29.5894 38.2065 29.7956 38.0978 29.8512 38.0597C29.9456 37.9951 29.9596 37.9914 30.0652 38.0031C30.1273 38.01 30.183 38.0082 30.189 37.9991C30.1949 37.99 30.2665 37.9707 30.348 37.9562C30.4296 37.9416 30.5068 37.9178 30.5196 37.9032C30.5324 37.8886 30.5595 37.8767 30.5798 37.8767C30.6001 37.8767 30.6284 37.8633 30.6428 37.8469C30.6572 37.8306 30.6985 37.8172 30.7347 37.8172C30.8036 37.8172 31.0465 37.7146 31.1797 37.6291C31.2227 37.6016 31.2759 37.5791 31.2979 37.5791C31.32 37.5791 31.3683 37.5495 31.4053 37.5134C31.4934 37.4272 31.6448 37.3154 31.7279 37.2749C31.7645 37.2572 31.8117 37.2224 31.833 37.1975C31.8542 37.1727 31.8976 37.1366 31.9293 37.1173C31.9672 37.0943 31.9871 37.065 31.9871 37.0324C31.9871 37.005 32.0249 36.9152 32.0711 36.8328C32.1173 36.7504 32.1551 36.657 32.1551 36.6252C32.1551 36.5623 32.222 36.4842 32.2649 36.4967C32.2796 36.501 32.3172 36.5098 32.3485 36.5163C32.3904 36.5249 32.4104 36.5452 32.4245 36.5937C32.4496 36.6793 32.431 36.8579 32.3941 36.8868C32.3782 36.8993 32.3652 36.9181 32.3652 36.9286C32.3652 36.9391 32.3321 37.0111 32.2917 37.0886C32.2512 37.1661 32.2182 37.2593 32.2182 37.2956C32.2182 37.3576 32.2217 37.3609 32.2759 37.3485C32.3077 37.3412 32.3588 37.3187 32.3894 37.2985C32.4201 37.2783 32.4544 37.2617 32.4656 37.2617C32.4769 37.2617 32.499 37.247 32.5149 37.2289C32.5308 37.2109 32.5679 37.1863 32.5975 37.1744C32.6805 37.1408 32.8915 36.9672 32.993 36.8489C33.1435 36.6735 33.2832 36.6211 33.3734 36.7062C33.4185 36.7488 33.4289 36.8487 33.3966 36.929C33.3863 36.9547 33.3106 37.0392 33.2286 37.1167C33.0932 37.2445 33.0794 37.265 33.0794 37.3372C33.0794 37.4049 33.0609 37.4382 32.9565 37.5589C32.8889 37.637 32.8039 37.718 32.7675 37.7389C32.6936 37.7814 32.6867 37.8009 32.7328 37.837C32.7501 37.8506 32.7643 37.8729 32.7643 37.8866C32.7643 37.9263 32.5922 38.1346 32.5593 38.1346C32.5429 38.1346 32.4922 38.1592 32.4468 38.1892C32.3715 38.2388 32.3652 38.2497 32.3766 38.3108C32.3857 38.3596 32.3759 38.4014 32.3404 38.4645C32.3137 38.5122 32.2846 38.5512 32.276 38.5512C32.2673 38.5512 32.2602 38.5675 32.2602 38.5874C32.2602 38.6294 32.177 38.7097 32.1328 38.7104C32.1162 38.7107 32.0707 38.736 32.0316 38.7666C31.9621 38.821 31.9613 38.8234 31.9954 38.8725C32.04 38.9368 32.0104 39.0273 31.9448 39.0273C31.9198 39.0273 31.8497 39.0769 31.7787 39.1448C31.7111 39.2094 31.6168 39.2811 31.569 39.3041C31.4944 39.34 31.4852 39.3513 31.5036 39.3837C31.5546 39.4738 31.5113 39.5548 31.4042 39.5698C31.3666 39.5751 31.3068 39.6024 31.2713 39.6307C31.2358 39.6589 31.1892 39.682 31.1678 39.682C31.1464 39.682 31.1142 39.6959 31.0962 39.7129C31.0666 39.7408 31.0666 39.7483 31.0964 39.7912C31.148 39.8656 31.1094 39.9005 30.9176 39.9528C30.6355 40.0297 30.6047 40.046 30.597 40.1217C30.5913 40.1779 30.5764 40.1939 30.4957 40.2301C30.4438 40.2535 30.3938 40.2684 30.3847 40.2633C30.3451 40.2411 30.1466 40.3056 30.0967 40.3568C30.0678 40.3865 30.0063 40.4219 29.9601 40.4356C29.8166 40.4782 29.8034 40.4885 29.7721 40.5824C29.7613 40.6151 29.7449 40.6184 29.6441 40.6086C29.5356 40.598 29.5264 40.6006 29.4934 40.6505C29.4741 40.6797 29.4349 40.7223 29.4063 40.7451C29.336 40.8013 29.3574 40.8374 29.4796 40.8691C29.6376 40.9101 29.7134 40.9535 29.8036 41.0543C29.8945 41.1561 29.9369 41.2404 29.9144 41.2748C29.9064 41.287 29.8984 41.4313 29.8966 41.5955C29.8934 41.8873 29.8687 42.048 29.7912 42.2808C29.7749 42.3299 29.7526 42.4192 29.7418 42.4792C29.7309 42.5392 29.7061 42.6419 29.6867 42.7074C29.6503 42.8302 29.6543 42.8774 29.7223 43.1234C29.7455 43.2076 29.8376 43.3854 29.8668 43.4024C29.9086 43.4268 30.0126 43.5963 30.0126 43.6401C30.0126 43.6677 30.0304 43.697 30.0546 43.7092C30.0791 43.7215 30.0967 43.7507 30.0967 43.7789C30.0967 43.8056 30.1132 43.8655 30.1334 43.9121C30.1635 43.9815 30.1702 44.0586 30.1702 44.3374V44.6779L30.0796 44.8018C29.9913 44.9227 29.9896 44.928 30.0109 45.0168C30.0458 45.1619 30.0118 45.3137 29.9127 45.455C29.8935 45.4823 29.8549 45.5671 29.8269 45.6434C29.7674 45.8057 29.7297 45.8602 29.5777 46.0037L29.4656 46.1096L29.2192 46.109C29.0056 46.1084 28.9663 46.1031 28.9232 46.0693L28.9233 46.0692ZM27.3647 29.87C27.4431 29.7983 27.5346 29.723 27.568 29.7029C27.6013 29.6827 27.6948 29.6065 27.7756 29.5336C27.8565 29.4607 27.9629 29.3845 28.012 29.3642C28.0611 29.344 28.1012 29.3182 28.1012 29.3069C28.1012 29.2736 28.17 29.2181 28.2951 29.1506C28.3594 29.1158 28.4173 29.0746 28.4236 29.0589C28.4299 29.0433 28.4874 29.0072 28.5512 28.9787C28.6152 28.9501 28.6884 28.8988 28.7144 28.8644C28.7786 28.7792 28.8743 28.6975 28.9624 28.6525C29.0029 28.6319 29.0862 28.5708 29.1475 28.5169C29.2089 28.4629 29.2815 28.409 29.3089 28.3973C29.3721 28.3701 29.4903 28.2762 29.8341 27.9798C29.8803 27.94 29.9447 27.8945 29.9772 27.8787C30.0097 27.8629 30.0509 27.8272 30.0686 27.7994C30.0864 27.7716 30.1401 27.731 30.1881 27.7092C30.236 27.6874 30.2843 27.65 30.2954 27.6261C30.3065 27.6022 30.3301 27.5774 30.3479 27.571C30.4986 27.5168 30.8062 27.1881 30.9149 26.9652C30.9548 26.8834 31.0186 26.777 31.0567 26.7289C31.0948 26.6807 31.1259 26.6253 31.1259 26.6058C31.1259 26.5862 31.1496 26.5373 31.1785 26.4972C31.2073 26.457 31.231 26.4021 31.231 26.3751C31.231 26.3482 31.2459 26.2719 31.2641 26.2055C31.2913 26.1063 31.2927 26.0697 31.2722 26.0003C31.2432 25.9026 31.2108 25.8727 31.0944 25.836C30.9401 25.7874 30.9326 25.768 31.0027 25.5968C31.0787 25.4112 31.0912 25.3919 31.1988 25.2943C31.3089 25.1945 31.391 25.1724 31.441 25.2294C31.4554 25.2457 31.4925 25.2591 31.5235 25.2591C31.5774 25.2591 31.7023 25.3482 31.7472 25.4185C31.7579 25.4353 31.826 25.4888 31.8987 25.5376C31.9714 25.5863 32.0734 25.6559 32.1255 25.6923C32.2345 25.7684 32.2428 25.7655 32.3434 25.6174C32.407 25.5239 32.4079 25.5191 32.4036 25.2867L32.3994 25.0508L32.4923 24.8624C32.5832 24.678 32.5851 24.6698 32.5816 24.4854C32.5777 24.2815 32.5865 24.2579 32.7525 24.0288C32.7882 23.9795 32.8304 23.9021 32.8462 23.8568C32.8736 23.7784 32.8719 23.7683 32.8102 23.6439C32.7747 23.5721 32.7365 23.5133 32.7254 23.5133C32.7144 23.5133 32.6801 23.4727 32.6493 23.423C32.6184 23.3733 32.5417 23.2818 32.4787 23.2197C32.3962 23.1381 32.307 23.0072 32.1589 22.7496C31.9662 22.4145 31.921 22.3258 31.8479 22.1382C31.8316 22.0966 31.7829 22.0162 31.7396 21.9597C31.6964 21.9031 31.6469 21.8309 31.6297 21.7991C31.6126 21.7673 31.5597 21.7003 31.5122 21.6503C31.4647 21.6002 31.3868 21.5066 31.3391 21.4422C31.2914 21.3777 31.1944 21.2751 31.1236 21.214C30.9775 21.0881 30.7036 20.7885 30.6458 20.6915L30.5426 20.5178C30.507 20.4577 30.443 20.3104 30.4004 20.1904C30.3143 19.9478 30.2551 19.8403 30.1604 19.7546C30.1254 19.7229 30.0966 19.6786 30.0965 19.6561C30.0961 19.5377 29.9775 19.2751 29.881 19.1787C29.8592 19.1569 29.8206 19.108 29.7952 19.0701C29.7698 19.0321 29.7163 18.9814 29.6761 18.9574C29.6359 18.9334 29.5734 18.8907 29.5372 18.8627C29.5009 18.8346 29.461 18.8117 29.4484 18.8117C29.4266 18.8117 29.2801 18.7454 29.0254 18.6204C28.8092 18.5142 28.6143 18.38 28.5566 18.2977C28.5253 18.2531 28.4897 18.2165 28.4775 18.2165C28.4652 18.2165 28.3327 18.1005 28.1828 17.9586C28.033 17.8168 27.9025 17.7007 27.8927 17.7007C27.8829 17.7007 27.859 17.6689 27.8394 17.6301C27.8199 17.5913 27.7905 17.5546 27.774 17.5486C27.7576 17.5427 27.7441 17.5262 27.7441 17.5121C27.7441 17.4594 27.5017 17.2803 27.3747 17.2392C27.3064 17.2171 27.2319 17.1869 27.2091 17.1721C27.1863 17.1574 27.1548 17.1453 27.1391 17.1453C27.1234 17.1453 27.0541 17.114 26.9851 17.0758C26.9161 17.0376 26.8464 17.0064 26.8301 17.0064C26.8139 17.0064 26.7892 17.0421 26.7753 17.086C26.7614 17.1298 26.7374 17.1755 26.722 17.1876C26.7065 17.1997 26.6939 17.2215 26.6939 17.236C26.6939 17.2504 26.6519 17.3042 26.6007 17.3554C26.5329 17.4232 26.5007 17.4761 26.4823 17.5498C26.454 17.6635 26.4144 17.7425 26.3102 17.8933C26.2293 18.0103 26.0726 18.1769 26.0435 18.1769C26.0328 18.1769 25.9928 18.213 25.9546 18.2572C25.9164 18.3014 25.8514 18.3543 25.81 18.3749C25.7687 18.3954 25.6777 18.4642 25.6077 18.5276C25.4897 18.6347 25.475 18.6582 25.4045 18.8521C25.3305 19.0558 25.304 19.2513 25.3471 19.2765C25.3573 19.2824 25.4351 19.2791 25.5199 19.269C25.6047 19.259 25.6838 19.2571 25.6956 19.2648C25.7228 19.2826 25.8499 19.2805 26.0061 19.2597C26.0932 19.248 26.1358 19.2504 26.1584 19.2681C26.1834 19.2877 26.1963 19.2875 26.2219 19.2675C26.2463 19.2483 26.2663 19.2476 26.3055 19.2645C26.3338 19.2766 26.4398 19.2962 26.5412 19.308C26.73 19.3299 27.0109 19.407 27.2715 19.5084C27.3524 19.5399 27.4384 19.5656 27.4627 19.5656C27.4907 19.5656 27.5922 19.6454 27.741 19.7844C27.945 19.9749 27.9873 20.0053 28.0681 20.0196C28.1191 20.0286 28.2065 20.0674 28.2623 20.1058C28.4136 20.21 28.6129 20.2992 28.6654 20.2862C28.6901 20.2801 28.7104 20.284 28.7104 20.2948C28.7104 20.3057 28.7576 20.3337 28.8154 20.3572C28.8732 20.3807 28.9204 20.409 28.9204 20.4202C28.9204 20.4553 29.0334 20.5788 29.0927 20.6085C29.1239 20.6241 29.1794 20.6368 29.2162 20.6368C29.2588 20.6368 29.3194 20.6615 29.3834 20.705C29.4386 20.7424 29.5555 20.8013 29.6432 20.8357C29.7308 20.8702 29.8081 20.9068 29.8148 20.9171C29.8215 20.9274 29.8871 20.9716 29.9605 21.0154C30.0988 21.0979 30.0919 21.0887 30.2334 21.3808C30.3038 21.5263 30.3488 21.6534 30.3488 21.7072C30.3488 21.7333 30.3616 21.7687 30.3773 21.7859C30.4243 21.8375 30.4538 21.9452 30.4538 22.0651C30.4538 22.1756 30.4506 22.1817 30.3166 22.33C30.2412 22.4135 30.1726 22.4818 30.1641 22.4818C30.1557 22.4818 30.1365 22.5004 30.1216 22.523C30.0874 22.5747 30.115 22.6112 30.2006 22.6274C30.2341 22.6337 30.274 22.6535 30.2894 22.6713C30.3047 22.6892 30.3369 22.723 30.3608 22.7465C30.3848 22.7701 30.4105 22.8049 30.4179 22.824C30.4254 22.8431 30.4459 22.8587 30.4636 22.8587C30.4813 22.8587 30.4958 22.8666 30.4958 22.8762C30.4958 22.8858 30.5265 22.9052 30.5641 22.9193C30.6016 22.9334 30.6574 22.9613 30.6881 22.9812C30.7188 23.0011 30.7636 23.0174 30.7879 23.0174C30.8207 23.0174 30.8319 23.0299 30.8319 23.0668C30.8319 23.0939 30.865 23.175 30.9054 23.247C30.9458 23.3189 30.9789 23.3944 30.9789 23.4147C30.9789 23.435 30.9884 23.4571 30.9999 23.4638C31.0115 23.4706 31.0209 23.534 31.0209 23.6048C31.0209 23.6825 31.0339 23.7573 31.0536 23.7933C31.0787 23.8391 31.083 23.8843 31.0721 23.9884C31.0608 24.0965 31.0642 24.1273 31.0887 24.141C31.1641 24.1831 31.1358 24.4061 31.0551 24.4061C31.0015 24.4061 30.9634 24.4769 30.9504 24.6005C30.9432 24.6692 30.9266 24.7444 30.9134 24.7676C30.9002 24.7909 30.8883 24.8542 30.8869 24.9084C30.8841 25.0166 30.836 25.0727 30.7863 25.0257C30.7526 24.9939 30.728 24.786 30.7509 24.7272C30.7871 24.6345 30.7719 24.5118 30.7163 24.4494C30.6875 24.417 30.6638 24.3799 30.6638 24.3668C30.6638 24.3538 30.6339 24.3038 30.5973 24.2557C30.5464 24.1888 30.5285 24.1413 30.521 24.0541C30.5126 23.9551 30.5011 23.9305 30.4353 23.8692C30.3079 23.7506 30.1881 23.58 30.1617 23.4796C30.0877 23.1984 30.0821 23.1878 29.9869 23.1461C29.8958 23.1061 29.8697 23.0628 29.834 22.8926C29.8174 22.8132 29.7725 22.8067 29.656 22.8666C29.572 22.9097 29.4995 22.9247 29.2528 22.95C28.9105 22.9851 28.7933 22.9869 28.6644 22.9588C28.6146 22.948 28.5447 22.9388 28.5092 22.9386C28.4393 22.9381 28.2856 22.8513 28.1832 22.7546C28.1266 22.7011 27.9752 22.4339 27.9752 22.3875C27.9752 22.3335 27.7584 21.9699 27.6649 21.8671C27.537 21.7265 27.4921 21.6455 27.4921 21.5559C27.4921 21.5282 27.4646 21.4671 27.4311 21.4202C27.3976 21.3733 27.3632 21.3145 27.3549 21.2895C27.3056 21.1429 27.2151 21.0754 27.1568 21.1417C27.142 21.1586 27.1095 21.1725 27.0846 21.1725C27.0597 21.1725 27.0207 21.1846 26.9979 21.1994C26.9196 21.2502 26.7882 21.2794 26.6099 21.2853C26.5117 21.2885 26.3699 21.2955 26.2948 21.3006C26.2197 21.3058 26.1231 21.3103 26.0802 21.3107C25.939 21.3118 25.9356 21.3924 26.0674 21.6089C26.0774 21.6253 26.1135 21.6922 26.1477 21.7577C26.1819 21.8232 26.237 21.8946 26.2702 21.9164C26.3034 21.9382 26.3711 21.9851 26.4208 22.0205C26.4705 22.056 26.5357 22.0853 26.5657 22.0857C26.5958 22.086 26.6387 22.0994 26.6611 22.1154C26.6836 22.1314 26.719 22.1445 26.7399 22.1445C26.7608 22.1445 26.7968 22.1624 26.8199 22.1842C26.843 22.206 26.8884 22.2239 26.9208 22.2239C26.9533 22.2239 27.0109 22.2456 27.0489 22.2721C27.087 22.2986 27.1573 22.3263 27.2053 22.3337C27.3038 22.3488 27.3628 22.3931 27.4534 22.5196C27.4974 22.5809 27.5123 22.6209 27.5035 22.6539C27.495 22.6858 27.5013 22.7046 27.5231 22.7125C27.5407 22.7189 27.5551 22.7369 27.5551 22.7526C27.5551 22.8033 27.6543 22.8786 27.7209 22.8786C27.7554 22.8786 27.7902 22.8885 27.7981 22.9007C27.8061 22.9128 27.8562 22.9407 27.9096 22.9628C27.963 22.9848 28.0338 23.0334 28.067 23.0708C28.142 23.1554 28.3401 23.2436 28.5266 23.2754C28.6045 23.2888 28.6683 23.3055 28.6683 23.3127C28.6683 23.3199 28.7109 23.3695 28.7629 23.423C28.8609 23.5239 28.8834 23.5989 28.8221 23.6211C28.7901 23.6327 28.7899 23.6367 28.8199 23.665C28.8409 23.6849 28.905 23.6995 28.9969 23.7054C29.0761 23.7105 29.1599 23.7223 29.183 23.7317C29.2061 23.7411 29.2697 23.7543 29.3243 23.7612C29.3789 23.768 29.4285 23.7812 29.4346 23.7906C29.4408 23.7999 29.4835 23.8135 29.5297 23.8209C29.599 23.832 29.6488 23.8668 29.8149 24.0204C29.9831 24.1759 30.0206 24.2221 30.0435 24.3013C30.0586 24.3535 30.0775 24.4111 30.0854 24.4294C30.1116 24.4893 30.0263 24.545 29.9084 24.545C29.7712 24.545 29.7442 24.5849 29.8033 24.7003C29.826 24.7448 29.8446 24.792 29.8446 24.8053C29.8446 24.8186 29.8604 24.8459 29.8796 24.866C29.9019 24.8893 29.9163 24.9435 29.9195 25.0164C29.9223 25.079 29.9347 25.1547 29.947 25.1847C29.9662 25.231 29.9615 25.2503 29.9161 25.3136C29.8308 25.4323 29.7148 25.4707 29.6235 25.4103C29.5629 25.3703 29.3864 25.3991 29.3366 25.4572C29.2702 25.5346 29.2874 25.5868 29.4023 25.6571C29.4594 25.6921 29.5113 25.7333 29.5176 25.7488C29.5239 25.7642 29.5447 25.7742 29.5638 25.771C29.583 25.7677 29.6028 25.7762 29.6079 25.7899C29.6134 25.8046 29.599 25.8147 29.5723 25.8147C29.5456 25.8147 29.5142 25.8366 29.4943 25.8692C29.476 25.8992 29.4221 25.9481 29.3745 25.9779C29.3269 26.0077 29.2455 26.0627 29.1935 26.1003C29.0612 26.1957 28.9055 26.2709 28.8404 26.2709C28.8101 26.2709 28.7471 26.2836 28.7006 26.299C28.654 26.3144 28.5497 26.3411 28.4688 26.3584C28.3506 26.3836 28.3084 26.4034 28.2535 26.459C28.2159 26.4971 28.1852 26.537 28.1852 26.5477C28.1852 26.5792 28.2506 26.6019 28.3817 26.6158C28.612 26.6403 28.6473 26.7039 28.4862 26.8047C28.4322 26.8385 28.3807 26.8661 28.3717 26.8661C28.3435 26.8661 28.1642 26.987 28.1642 27.0061C28.1642 27.0278 28.0191 27.1183 27.9017 27.1697C27.6764 27.2685 27.6191 27.2804 27.3649 27.2812C27.2207 27.2817 27.1106 27.2737 27.1031 27.2622C27.0829 27.2315 26.9475 27.1835 26.8808 27.1835C26.8011 27.1835 26.7407 27.2644 26.7727 27.3282C26.8627 27.5083 26.9581 27.7991 26.9788 27.9572C26.9867 28.0172 27.0115 28.0951 27.034 28.1304C27.0565 28.1657 27.0683 28.2047 27.0602 28.217C27.0348 28.2559 27.0297 28.4356 27.0529 28.4765C27.0651 28.498 27.0781 28.5886 27.0817 28.6778C27.0854 28.767 27.0988 28.9873 27.1115 29.1673C27.1243 29.3473 27.1375 29.5973 27.1408 29.7228C27.1469 29.947 27.1584 30.0006 27.2007 30.0006C27.2124 30.0006 27.2862 29.9418 27.3647 29.8701L27.3647 29.87ZM33.086 25.6187C33.1459 25.5655 33.2422 25.483 33.2999 25.4352C33.3577 25.3875 33.4127 25.3368 33.4223 25.3227C33.4318 25.3086 33.4571 25.3023 33.4787 25.3088C33.5049 25.3166 33.5253 25.3075 33.5401 25.2813C33.5882 25.1964 33.4921 25.1202 33.3368 25.1202C33.2351 25.1202 33.1426 25.1608 33.1421 25.2057C33.142 25.2187 33.0948 25.3008 33.0372 25.3881C32.9079 25.5841 32.8859 25.6312 32.9017 25.6783C32.9216 25.7376 32.9696 25.7221 33.086 25.6187ZM28.2021 21.4088C28.2379 21.397 28.2868 21.3591 28.3108 21.3245C28.3348 21.2899 28.3925 21.2125 28.4391 21.1525C28.6807 20.8409 28.6944 20.7918 28.57 20.6842C28.5274 20.6473 28.473 20.6113 28.4492 20.6042C28.4254 20.5971 28.3766 20.5702 28.3408 20.5445C28.305 20.5188 28.2294 20.4892 28.1728 20.4788C28.0752 20.4608 28.0672 20.4627 28.0214 20.5135C27.9947 20.5431 27.9554 20.5985 27.934 20.6367C27.9126 20.6749 27.8517 20.7506 27.7986 20.8049C27.6936 20.9124 27.6943 20.9078 27.7473 21.1368C27.7648 21.2121 27.7912 21.2496 27.8838 21.3302C28.0068 21.4374 28.0688 21.4527 28.2021 21.4088V21.4088ZM26.4944 20.6866C26.761 20.6515 26.865 20.6291 27.009 20.5756C27.0725 20.552 27.1789 20.5183 27.2453 20.5008C27.3299 20.4785 27.3661 20.4591 27.3661 20.4362C27.3661 20.3919 27.1656 20.2505 27.0615 20.2213C26.974 20.1967 26.8541 20.155 26.7464 20.1117C26.4799 20.0046 25.9063 19.9542 25.7632 20.0253C25.7422 20.0357 25.6467 20.0519 25.5509 20.0612C25.3185 20.0839 25.2152 20.1297 25.2066 20.214C25.1972 20.3056 25.256 20.3533 25.3812 20.3557C25.4981 20.3579 25.5475 20.3922 25.5825 20.4953C25.6248 20.6197 25.6587 20.642 25.7838 20.6272C25.8682 20.6172 25.9055 20.622 25.9475 20.6479C26.0614 20.7184 26.1851 20.7272 26.4944 20.6866H26.4944Z" fill="white"/>
</svg>
