<svg width="50" height="50" viewBox="0 0 50 50" fill="none" xmlns="http://www.w3.org/2000/svg">
<!--<rect width="50" height="50" rx="2" fill="black"/>-->
<path d="M30.8643 47.276C30.8207 47.2674 30.7519 47.2437 30.7114 47.2232C30.6709 47.2027 30.5481 47.1508 30.4385 47.1078C30.0239 46.945 29.9095 46.8664 29.8671 46.7153C29.8335 46.5956 29.763 46.5162 29.8237 46.4405C29.8603 46.3949 29.7568 46.1978 29.764 46.1403C29.799 45.8624 29.6458 45.4587 29.73 45.4141C29.7854 45.3847 30.3395 45.737 30.3948 45.7884C30.4378 45.8284 30.458 45.8316 30.6655 45.8316C30.879 45.8316 30.8933 45.8292 30.9653 45.7797C31.0261 45.738 31.0623 45.7277 31.1487 45.7277C31.3145 45.7277 31.9183 45.532 32.0901 45.4226C32.1624 45.3766 32.2988 45.2967 32.3932 45.2452C32.5154 45.1786 32.6099 45.1073 32.721 44.9983C32.8632 44.8586 32.8874 44.8235 32.9939 44.6016C33.181 44.2114 33.1886 44.1988 33.311 44.0725C33.4495 43.9297 33.5857 43.861 33.7785 43.8371C34.0045 43.809 34.0231 43.7886 34.1967 43.3791C34.2312 43.2977 34.288 43.1941 34.3229 43.1488C34.3957 43.0544 34.4024 43.015 34.3488 42.9981C34.2842 42.9778 34.2339 42.8957 34.2342 42.8112C34.2348 42.7057 34.2681 42.6477 34.3576 42.598C34.4488 42.5473 34.4605 42.5192 34.4481 42.3797C34.4355 42.2386 34.465 42.137 34.5914 41.8854L34.6947 41.6796L34.6331 41.432C34.4856 40.8388 34.3915 40.5719 34.2855 40.4457C34.2163 40.3633 34.2018 40.3289 34.1382 40.0957C34.0378 39.7274 33.8538 39.4248 33.6835 39.3477C33.5813 39.3015 33.1084 39.3027 32.9369 39.3498C30.4165 41.0353 31.3052 38.7005 29.0285 39.3041C28.8841 39.2815 28.7665 39.2523 28.727 39.2293C28.6914 39.2085 28.6572 39.1914 28.6511 39.1914C28.6451 39.1914 28.6454 39.2361 28.6518 39.2908C28.6665 39.4142 28.7347 39.5894 28.8242 39.7334C28.9511 39.9377 29.0203 40.1915 29.1022 40.7525C29.1643 41.1782 29.1789 41.234 29.2747 41.4111C29.3355 41.5235 29.3359 41.5263 29.327 41.7367C29.3184 41.9379 29.3139 41.9573 29.2391 42.1116C29.1958 42.2011 29.1603 42.2925 29.1603 42.3148C29.0058 42.8086 28.9637 43.8024 28.467 44.0397C28.3504 44.0938 28.2892 44.0047 28.1017 43.9168C27.7674 43.7599 27.7142 43.9109 27.7599 43.5901C27.7986 43.318 27.9388 42.6242 27.8945 42.5757C27.8336 42.5092 27.6822 42.4881 27.4465 42.5134C27.1792 42.5421 27.0386 42.5791 26.9122 42.654C26.7872 42.7281 26.5698 42.9542 26.4889 43.0943C26.3969 43.2535 26.1542 43.4136 25.8893 43.4899C25.7379 43.5335 25.6407 43.5224 25.0582 43.3951C24.7936 43.3373 24.4904 43.281 24.3844 43.27C24.2655 43.2577 24.1446 43.2317 24.0689 43.2023C23.9482 43.1554 23.6594 43.0794 23.0758 42.941C22.5858 42.8249 22.538 42.8361 22.4886 42.7614C22.4393 42.6868 22.0925 42.4546 22.06 42.2263C21.7811 40.2662 22.3742 41.3489 22.4508 41.32C22.5249 41.292 22.5529 41.612 22.7954 41.6751C22.8562 41.6909 22.9644 41.7039 23.0357 41.7039C23.1375 41.7039 23.1848 41.7141 23.2552 41.7511C23.3635 41.8082 23.3841 41.8093 23.4287 41.7606C23.4476 41.7398 23.4794 41.7228 23.4991 41.7228C23.5189 41.7228 23.5687 41.7398 23.6099 41.7606C23.713 41.8127 23.7661 41.808 23.9532 41.7303C24.0424 41.6933 24.1825 41.6363 24.2646 41.6036C24.3896 41.554 24.4352 41.5227 24.5449 41.4116C24.7075 41.2469 24.8015 41.126 24.8243 41.0522C24.8371 41.0108 24.8673 40.9827 24.9363 40.9483C25.02 40.9065 25.0539 40.9012 25.2311 40.9024C25.4578 40.9039 25.5432 40.9282 25.7022 41.0367C25.7741 41.0857 25.829 41.1074 25.8979 41.1139C26.0261 41.1261 26.097 41.0938 26.1543 40.997C26.2156 40.8934 26.4915 40.6208 26.5745 40.5818C26.7314 40.5081 26.7708 40.3925 26.7496 40.0682C26.725 39.6916 26.6412 39.3044 26.5279 39.0438C26.485 38.9451 26.4831 38.9436 26.4156 38.9533C20.5199 38.0549 20.2083 33.9054 23.2598 30.6114C23.316 30.5525 23.3619 30.4875 23.3619 30.467C23.3619 30.381 23.824 29.8249 24.0918 29.5886C24.1645 29.5244 24.2805 29.4378 24.3496 29.3963C24.4302 29.3477 24.488 29.2971 24.5113 29.2546C24.5912 29.109 25.1682 28.5759 25.3879 28.4448C25.469 28.3964 25.528 28.3431 25.5702 28.2802C25.6837 28.1113 25.7301 28.0621 25.8388 27.9951C25.898 27.9586 26.0114 27.8637 26.0908 27.7841C26.1702 27.7045 26.286 27.6079 26.3483 27.5695C26.4105 27.531 26.71 27.3036 27.0137 27.0642C27.5498 26.6415 27.9344 26.3608 28.0228 26.3275C28.0712 26.3093 28.2007 26.1935 28.7513 25.6763C30.7645 23.9019 30.2912 21.1937 28.936 20.4714C26.0431 18.1926 24.6681 24.335 16.9438 25.1464C16.154 25.2049 16.0081 25.221 15.7517 25.2779C15.6416 25.3023 15.3497 25.3533 15.1032 25.3911C14.5431 25.4772 14.3109 25.5255 14.227 25.5737C14.1732 25.6047 14.142 25.6092 14.0531 25.5989C13.9595 25.5882 13.9314 25.5932 13.848 25.635C13.6459 25.7365 13.2983 25.8074 12.8483 25.8391L12.5295 25.8616L12.519 25.9381C12.4408 26.509 12.3529 27.0725 12.3377 27.1006C12.3271 27.1202 12.3184 27.1711 12.3184 27.2138C12.3184 27.2566 12.3044 27.3751 12.2873 27.4773C12.2585 27.6492 12.2585 27.6677 12.2873 27.7249C12.3134 27.7768 12.3185 27.8584 12.3187 28.2325C12.3187 28.5577 12.3266 28.7101 12.347 28.796C12.3665 28.8778 12.3695 28.9281 12.3567 28.9613C12.3406 29.0032 12.3273 29.0089 12.2452 29.0089C12.1286 29.0089 12.058 29.0586 12.0401 29.1532C12.0204 29.2572 12.059 29.3454 12.1961 29.5095C12.3509 29.6948 12.3938 29.7816 12.3943 29.9106C12.395 29.9928 12.3856 30.0196 12.3407 30.0694C12.2943 30.1209 12.2708 30.1305 12.1738 30.1381C12.1117 30.143 12.0502 30.1555 12.0371 30.1659C12.0009 30.1945 12.0087 30.2952 12.0525 30.3665C12.1084 30.4572 12.0962 30.5107 12.0197 30.5107C11.9865 30.5107 11.955 30.515 11.9497 30.5203C11.9443 30.5255 11.9379 31.1758 11.9354 31.9654L11.9307 33.401L12.0054 33.5414C12.0686 33.6604 12.0799 33.6993 12.0797 33.7965C12.0797 33.8595 12.0761 34.2809 12.0719 34.7328L12.0645 35.5546L12.1373 35.6918L12.2101 35.829L12.1852 36.0151C12.1715 36.1174 12.1663 36.2244 12.1735 36.253C12.1808 36.2816 12.2279 36.3486 12.2783 36.402C12.4311 36.564 12.4432 36.652 12.3632 37.0213L12.3126 37.2548L12.3468 37.4636C12.3914 37.7359 12.3806 37.7704 12.2003 37.9287L12.0654 38.0471L12.0779 38.2226C12.093 38.4354 12.075 38.48 11.9394 38.5662C11.8875 38.5992 11.8393 38.6407 11.8325 38.6584C11.8108 38.7144 11.821 40.624 11.8439 40.7825C11.8729 40.9838 11.8576 41.0434 11.7452 41.1664C11.6474 41.2733 11.6245 41.3551 11.669 41.4375C11.6834 41.4641 11.6756 41.4797 11.6318 41.5117C11.5515 41.5705 11.5334 41.6566 11.5686 41.812C11.5845 41.8823 11.602 41.988 11.6073 42.0469C11.617 42.1533 11.6164 42.1547 11.5278 42.2485L11.4386 42.343L11.1573 43.4386C10.7867 47.5237 11.5615 47.6792 10.2642 46.2883C10.2101 46.2272 10.2066 46.2132 10.1955 46.0088C10.1836 45.7881 10.1563 45.6519 10.1241 45.6519C10.1141 45.6519 10.1059 45.6643 10.1059 45.6796C10.1059 45.6948 10.0889 45.7162 10.0682 45.7272C10.0346 45.745 10.0244 45.735 9.97287 45.6339L9.91516 45.5207V43.9328C10.5177 43.6346 11.1264 36.5123 10.6788 36.0028C10.6778 34.8675 10.6719 33.9133 10.6657 33.8823C10.6507 33.8082 10.6819 33.7737 10.7543 33.7842C10.8681 33.8007 10.9002 33.7152 10.8307 33.5804C10.7727 33.4677 10.7807 33.4168 10.8695 33.3364C10.9722 33.2434 10.9811 33.1793 10.9183 32.9854C10.8914 32.9022 10.8693 32.812 10.8691 32.7848C10.8685 32.7109 10.9344 32.6425 11.0385 32.6082C11.1839 32.5604 11.2042 32.5272 11.193 32.3554C11.1878 32.2759 11.1836 31.1652 11.1836 29.8872C11.1836 27.718 11.1859 27.553 11.2181 27.4031C11.2909 27.0638 11.3485 26.8557 11.4144 26.6939C11.5696 26.3126 11.6494 25.7771 11.5863 25.5396C11.542 25.3725 11.5455 25.1061 11.5937 24.9805C11.6487 24.8371 11.6425 24.7986 11.5392 24.6429C11.3813 24.405 11.3764 24.3913 11.347 24.1033C11.3343 23.9797 11.3124 23.892 11.2707 23.7979C11.2236 23.6915 11.2122 23.6399 11.2122 23.5329C11.2122 23.1926 11.2948 23.0459 11.6034 22.8374C11.7328 22.7501 11.8226 22.6716 11.8226 22.6458C11.8226 22.6363 11.8095 22.5919 11.7936 22.5472C11.7777 22.5026 11.7306 22.2656 11.689 22.0206C11.6044 21.5228 11.5441 21.261 11.4692 21.0652C11.3942 20.8693 11.3504 20.6085 11.3257 20.2109C11.2895 19.6283 11.3303 19.1906 11.4492 18.8883C11.5044 18.7478 11.5234 18.6632 11.5466 18.4538C11.5942 18.0256 11.6742 17.6194 11.7736 17.3011C11.8363 17.0999 11.8693 16.9426 11.9251 16.5786C11.9673 16.303 11.9853 16.1237 11.9776 16.0565C11.9763 16.0448 11.9258 16.0157 11.8655 15.9921C11.8052 15.9684 11.7444 15.9403 11.7305 15.9297C11.6938 15.9016 11.6246 15.758 11.5746 15.6057C11.523 15.4487 11.4503 15.3009 11.3468 15.1423C11.1977 14.9137 11.1639 14.6874 11.1666 13.9338C11.1696 13.0865 11.22 12.9174 11.4958 12.8287C11.6225 12.788 11.6608 12.7514 11.6761 12.6566C11.7097 12.4487 11.882 12.3183 12.1608 12.2899C12.3327 12.2723 12.3757 12.2491 12.3757 12.1739C12.3757 12.0342 12.4755 10.2208 12.4912 10.0756C12.5126 9.87774 12.5261 9.83291 12.6875 9.42586C12.7458 9.27905 12.7991 9.11328 12.8061 9.05748C12.813 9.00169 12.8389 8.90928 12.8635 8.85213C12.8882 8.79499 12.9263 8.64779 12.9483 8.52502C13.0297 8.07002 13.1508 7.56204 13.2603 7.21589C13.3345 6.98131 13.391 6.65404 13.4328 6.21684C13.5223 5.27914 13.5204 4.69731 13.4259 4.18606C13.3374 3.70753 13.3436 3.61118 13.4952 3.09982L13.5847 2.79756L13.6965 2.68638C13.7659 2.61736 13.8213 2.54146 13.8425 2.48624C13.9007 2.3346 14.1055 2.07773 14.1551 2.09413C14.1667 2.09791 14.2066 2.16027 14.2439 2.23265C14.2812 2.30503 14.4399 2.5425 14.5966 2.76037C14.7533 2.97824 14.9098 3.21175 14.9444 3.27927C14.9789 3.3468 15.0446 3.44032 15.0903 3.48708C15.2517 3.65213 15.2655 3.69952 15.1947 3.84478C15.1715 3.89222 15.0329 4.0883 14.8866 4.2805C14.7404 4.4727 14.5955 4.68311 14.5646 4.748C14.4466 4.9958 14.448 5.4337 14.5684 5.92876C14.6006 6.06126 14.6388 6.27657 14.6534 6.40725C14.6751 6.60272 14.6871 6.65256 14.7212 6.68845C14.7763 6.74652 14.7911 6.94177 14.7612 7.21564C14.7218 7.57636 14.6323 7.79937 14.2836 8.40648C14.0182 8.8685 13.9444 9.02992 13.7405 9.5938C13.5167 10.2127 13.4422 10.6002 13.4429 11.1406C13.4435 11.4076 13.4504 11.4503 13.5117 11.5535C13.5352 11.5928 13.539 11.696 13.5348 12.1705L13.5297 12.7404L13.6107 12.8506C13.8797 13.2165 13.9108 13.4058 13.8367 14.2266C13.8095 14.5279 13.7801 14.8722 13.7713 14.9917L13.7553 15.2089L13.9707 15.4285C14.1073 15.5677 14.1976 15.6764 14.2175 15.7258C14.2358 15.7711 14.2952 15.846 14.36 15.9054C14.5661 16.0944 15.1687 16.4689 15.6549 16.7102C16.0877 16.9249 16.099 16.9291 17.4121 17.3678C17.6906 17.4608 18.0339 17.5904 18.175 17.6558C19.1108 17.8964 20.0931 17.6254 20.7046 17.2316C20.9092 17.0998 21.2876 16.7783 21.3513 16.7481C21.4908 16.6819 21.512 16.6437 21.5119 16.4595C21.5119 16.1434 21.4437 16.08 20.9784 15.9622C20.2367 16.2603 19.5489 16.1551 19.2162 16.5706C18.6147 17.3221 18.1293 16.4871 18.9451 15.4386C18.9519 15.3935 18.9968 15.2894 19.0448 15.2072C19.3256 14.7262 19.331 14.7049 19.2158 14.5333C19.1757 14.4734 19.0612 14.3395 18.9615 14.2356L18.7803 14.0468L18.7013 14.1042C18.4855 14.2528 18.252 13.7991 18.0904 14.5274C17.8855 14.5298 17.7737 14.4236 17.7735 14.2266C17.7735 14.1111 17.7438 14.0004 17.6959 13.9353C17.609 12.4162 18.3372 13.4449 18.7228 12.7481C18.7479 12.6955 18.7709 12.6759 18.8186 12.6663C18.9735 12.6351 19.0002 12.5375 19.0016 11.9957C19.0031 11.4398 18.9854 11.4185 18.6713 11.5992C17.1696 11.2172 18.7097 9.73763 18.6231 9.56989C17.9929 8.86239 17.6414 7.80474 17.626 7.12084C17.6161 0.89628 18.0954 7.82697 20.7456 8.9276C20.8228 8.9276 20.9777 8.801 21.6264 8.20777C22.8289 6.61692 23.8825 4.29403 26.6797 4.13251C27.9843 4.05724 29.7703 2.54148 30.8773 2.8074C30.914 2.81871 31.0434 2.8347 31.1647 2.84293C31.3541 2.85577 31.3979 2.86514 31.4733 2.90891C31.5372 2.94598 31.5985 2.96301 31.6975 2.97124C31.8544 2.98427 31.933 3.02736 31.8911 3.07736C31.8776 3.09348 31.8392 3.1125 31.8059 3.11964C31.7725 3.12679 31.6722 3.15735 31.583 3.18755C31.466 3.2272 31.3725 3.24475 31.2468 3.25065C31.1187 3.25663 31.0556 3.26873 31.0083 3.29624C30.9662 3.32079 30.8817 3.33995 30.7626 3.35194C30.5329 3.37509 30.3817 3.41394 30.1741 3.5032C27.8141 5.39364 25.0053 6.9814 26.3571 10.1744C26.3359 10.5951 26.3247 10.6975 26.298 10.7138C26.2884 10.7197 26.2804 10.8409 26.2802 10.9831C26.2795 11.2135 26.2744 11.2562 26.2307 11.374C26.1524 11.5847 25.9765 12.1161 25.9581 12.1972C25.9418 12.2691 25.9428 12.2713 25.9925 12.2713C26.0674 12.2713 26.4306 12.1485 26.6661 12.0434C27.7464 11.7036 28.594 10.673 29.742 10.4298C34.087 9.47624 34.7382 13.1249 34.5276 14.9187C34.3757 16.2132 34.9574 16.5246 36.3325 18.6966C36.3325 18.7404 36.4077 18.8513 36.5871 19.072C36.6926 19.2019 36.8061 19.3592 36.8393 19.4215C36.8725 19.4838 36.9744 19.6478 37.0656 19.7859C37.235 20.0423 37.2862 20.1388 37.2862 20.2023C37.2862 20.222 37.3049 20.2617 37.3278 20.2905C37.3922 20.3717 37.5345 20.6446 37.7758 21.15C38.1273 21.8861 38.1965 22.0667 38.3164 22.5593C38.3571 22.7266 38.4123 22.911 38.4391 22.969C38.4659 23.027 38.4878 23.0975 38.4878 23.1256C38.4878 23.1537 38.5045 23.2329 38.5249 23.3016C38.6271 23.6459 38.6683 24.0502 38.6684 24.711C38.6684 25.2947 38.6566 25.4153 38.5704 25.7019C38.4945 25.9542 38.1069 26.8974 38.0577 26.9496C38.0332 26.9756 37.9569 27.1201 37.8881 27.2707C37.8193 27.4214 37.7427 27.5616 37.7177 27.5824C37.6928 27.6032 37.6356 27.6882 37.5906 27.7713C37.483 27.9702 37.3422 28.1703 37.099 28.4703C36.9896 28.6054 36.8749 28.7597 36.8443 28.8133C36.7145 29.0404 36.4633 29.3068 34.1412 31.6804C33.5843 32.2496 33.4524 32.4003 33.4524 32.4669C33.4524 32.5019 33.4856 32.5631 33.5492 32.6453C33.6596 32.7879 33.7184 32.9044 33.719 32.9817C33.719 33.011 33.7287 33.0521 33.74 33.073C33.7581 33.1065 33.7723 33.1096 33.8561 33.0981C33.9885 33.0801 34.1064 33.1161 34.1774 33.1962C34.2088 33.2315 34.2344 33.2761 34.2344 33.2953C34.2344 33.3415 34.2655 33.3644 34.3632 33.3903C34.5592 33.4422 34.5549 33.653 34.3536 33.8672C34.3188 33.9042 34.3091 33.9303 34.3176 33.964C34.3241 33.9894 34.4389 34.1239 34.5729 34.2628C34.894 34.5959 34.9267 34.6396 35.0186 34.8584C35.0615 34.9607 35.1955 35.2484 35.3162 35.4977C35.5802 36.0432 35.6506 36.2023 35.7022 36.3708C35.7238 36.4413 35.7812 36.5627 35.8298 36.6406C35.8784 36.7185 35.9526 36.8418 35.9948 36.9145C36.1016 37.0988 36.2105 37.2595 36.4881 37.6418C36.6201 37.8237 36.7476 38.0107 36.7714 38.0574C37.3218 38.7335 39.2062 40.8747 37.5723 40.6356C37.3153 40.5132 37.0368 40.3851 36.9534 40.3509C36.87 40.3168 36.7884 40.2717 36.7722 40.2507C36.7375 40.2061 36.5524 40.1189 36.461 40.1042C36.4147 40.0967 36.39 40.1029 36.3698 40.1271C36.3062 40.2029 36.3725 40.4901 36.514 40.7515C36.5917 40.8951 36.6272 41.0156 36.6667 41.2689C36.674 41.3157 36.7091 41.4292 36.7447 41.5213C36.7803 41.6133 36.8223 41.7433 36.8379 41.8101C36.8536 41.8768 36.9 41.9928 36.9412 42.0677C36.9823 42.1427 37.0816 42.3698 37.1617 42.5724C37.2418 42.775 37.3404 42.9918 37.3807 43.0541C37.4927 43.2275 37.5231 43.3745 37.5214 43.7342C37.5196 44.0851 37.4724 44.358 37.3801 44.5494C37.3172 44.68 37.3826 45.302 37.2114 45.4324C36.9681 45.6178 36.5758 45.7144 36.4326 45.6788C36.3672 45.6626 36.4159 45.3652 36.4882 45.0821C36.5775 44.7322 36.3887 44.5489 36.2111 44.636C35.9815 44.7487 35.8994 45.0342 35.758 45.3661C35.6791 45.5516 35.7431 45.8177 35.6277 45.8871C35.5887 45.9106 35.4069 45.9456 35.3597 45.9842C33.9009 46.3475 32.3536 47.5336 30.8651 47.2754L30.8643 47.276ZM16.2093 23.5783C16.3614 23.5515 16.62 23.5181 16.7839 23.5041C17.0344 23.4826 17.0909 23.472 17.1378 23.4377C17.1779 23.4082 17.2386 23.3921 17.3547 23.3801C17.5642 23.3584 17.6522 23.3378 17.9324 23.2453C18.2027 23.156 18.417 23.0599 18.6368 22.9295C18.7231 22.8782 18.8324 22.8191 18.8796 22.7981C18.9268 22.7771 19.0775 22.6717 19.2144 22.5639C19.5248 22.3197 19.6405 22.2433 19.8431 22.1493C20.0433 22.0564 20.0999 22.0094 20.1885 21.8624C20.312 21.6576 20.428 21.5038 20.5665 21.3611C20.7267 21.1961 20.8451 21.1075 20.9491 21.0747C21.0541 21.0416 21.1204 20.992 21.1861 20.8974C21.2169 20.8531 21.3057 20.7733 21.3835 20.72C21.5323 20.6182 21.5934 20.5518 21.663 20.4164C21.6862 20.3712 21.7377 20.299 21.7775 20.2559C21.9234 20.0974 21.9283 20.0298 21.8096 19.8062C21.7637 19.7194 21.7199 19.6118 21.7124 19.5669C21.7049 19.522 21.6873 19.481 21.6733 19.4757C21.6382 19.4623 21.4242 19.5644 20.7648 19.9091C20.2016 20.2035 19.9848 20.3022 19.8467 20.327C19.5127 20.3871 18.8741 20.2819 18.5334 20.1107C18.2786 19.9827 17.5875 19.7833 16.9566 19.4689C14.8578 18.4808 15.5052 18.8679 13.8191 17.6531L13.4774 17.3254C13.1405 17.0021 12.9968 16.8827 12.9731 16.9063C12.9664 16.9129 12.9493 17.048 12.9352 17.2066C12.921 17.3652 12.8973 17.5459 12.8824 17.6083C12.8475 17.7549 12.8399 17.8553 12.7951 18.7606C12.7449 19.7741 12.7219 20.1091 12.6892 20.3002C12.6377 20.6017 12.6613 21.0149 12.7768 21.8304C12.8311 22.2136 12.8443 22.2515 12.9537 22.3351C13.0138 22.381 13.1238 22.4068 13.3791 22.4346C13.656 22.4648 13.6811 22.4794 14.1112 22.8595C14.6346 23.322 14.9477 23.5506 15.1508 23.6186C15.2768 23.6608 15.8683 23.6383 16.2093 23.5783L16.2093 23.5783Z" fill="white"/>
</svg>
