<svg width="50" height="50" viewBox="0 0 50 50" fill="none" xmlns="http://www.w3.org/2000/svg">
<rect width="50" height="50" rx="2" fill="black"/>
<path d="M27.9961 4.03711C28.0334 3.97974 28.131 3.97034 28.1806 4.01924C28.2475 4.06721 28.221 4.15232 28.2269 4.21909C28.2318 4.29174 28.2133 4.36251 28.2032 4.43375C28.2027 4.52097 28.1483 4.59715 28.1441 4.68391C28.0095 4.96205 27.9586 5.26676 27.8535 5.55453C27.8059 5.65328 27.743 5.74568 27.7085 5.8496C27.6433 6.12257 27.6117 6.40141 27.5484 6.67485C27.5114 6.83379 27.5189 6.99672 27.5204 7.15848C27.5307 7.3106 27.449 7.44885 27.4071 7.59227C27.3498 7.69548 27.3868 7.81609 27.3382 7.92166C27.2842 8.05379 27.2634 8.19463 27.2508 8.33452C27.2305 8.32864 27.2105 8.323 27.1907 8.31712C27.1817 8.35098 27.173 8.3853 27.1737 8.42034C27.1807 8.39048 27.2146 8.32817 27.2303 8.39071C27.1832 8.68225 27.1216 8.97168 27.0725 9.26298C27.0386 9.38219 27.0625 9.50656 27.0327 9.62623C27.0193 9.78141 27.0285 9.93753 27.027 10.0932C27.0244 10.2079 26.9476 10.309 26.9532 10.4252C26.9535 10.5552 26.9006 10.6784 26.8949 10.8077C26.8317 11.0155 26.8201 11.233 26.7582 11.4408C26.7507 11.5807 26.7199 11.7195 26.7284 11.8598C26.7333 11.9445 26.7379 12.0303 26.7189 12.1137C26.6551 12.3105 26.6061 12.5113 26.5585 12.7116C26.4809 12.8997 26.4855 13.105 26.4256 13.2971C26.3927 13.4015 26.4272 13.5131 26.3886 13.6168C26.3437 13.7353 26.2941 13.8536 26.2768 13.9787C26.2522 14.1837 26.1602 14.3741 26.0867 14.5669C26.0389 14.7994 26.0247 15.0362 25.9931 15.2706C26.0083 15.3247 26.0186 15.3898 26.0684 15.4274C26.3121 15.5812 26.486 15.849 26.4552 16.1252C26.4436 16.2635 26.3357 16.3761 26.3321 16.5151C26.2894 16.7391 26.1573 16.9359 26.0892 17.1527C26.0587 17.2566 26.0062 17.3535 25.962 17.4532C26.1262 17.5439 26.2113 17.7278 26.1643 17.8985C26.3861 18.0786 26.6906 18.1531 26.982 18.1679C27.1257 18.1865 27.2645 18.2274 27.4073 18.25C27.5934 18.2667 27.7427 18.3993 27.826 18.545C27.8871 18.5961 27.9781 18.5984 28.0537 18.624C28.1341 18.6421 28.2015 18.6899 28.2783 18.7153C28.424 18.7211 28.5764 18.716 28.7131 18.7712C28.802 18.8192 28.8796 18.8841 28.9429 18.9586C29.0087 19.0383 29.1001 19.0957 29.1711 19.1716C29.2184 19.2241 29.2793 19.2697 29.3533 19.2852C29.4908 19.3139 29.628 19.352 29.7485 19.4206C29.8572 19.4462 29.967 19.4744 30.061 19.5337C30.153 19.5802 30.2155 19.66 30.2957 19.7199C30.4028 19.7575 30.4864 19.8311 30.5894 19.8756C30.795 19.9818 30.9202 20.1678 31.0682 20.3289C31.1319 20.2917 31.19 20.2468 31.2411 20.1955C31.3511 20.0773 31.5256 20.0481 31.669 19.9769C31.7939 19.9125 31.9556 19.9285 32.0699 19.849C32.181 19.6766 32.3727 19.5758 32.54 19.4563C32.7849 19.3254 33.0791 19.3522 33.3418 19.272C33.4011 19.2335 33.4433 19.173 33.514 19.1495C33.6944 19.0837 33.8935 19.095 34.0796 19.0498C34.1685 19.0207 34.2785 19.1232 34.3458 19.0393C34.4422 18.9548 34.5155 18.8481 34.6291 18.7802C34.7175 18.7284 34.8012 18.6692 34.894 18.6236C34.9475 18.5989 34.9814 18.5523 35.0189 18.5119C34.9305 18.3617 34.8686 18.1698 34.9716 18.0123C35.0526 17.9072 35.1726 17.8235 35.3124 17.7969C35.2875 17.6803 35.2487 17.5667 35.2227 17.4504C35.2147 17.2806 35.2114 17.1059 35.27 16.9427C35.3173 16.8518 35.336 16.7497 35.3982 16.6651C35.4545 16.5941 35.4417 16.5021 35.473 16.4222C35.5082 16.3275 35.4728 16.2238 35.5152 16.1304C35.546 16.0503 35.5681 15.9677 35.5825 15.8838C35.546 15.845 35.5062 15.8078 35.4799 15.7625C35.4758 15.6292 35.5164 15.485 35.4427 15.3611C35.3576 15.2817 35.214 15.2866 35.1346 15.1987C35.0747 15.1328 35.0117 15.0451 35.0503 14.957C35.086 14.8921 35.134 14.8295 35.1949 14.783C35.389 14.7221 35.5784 14.8531 35.775 14.8237C35.9842 14.7943 36.1797 14.708 36.3509 14.5961C36.43 14.5298 36.5172 14.4566 36.5298 14.3532C36.4755 14.2979 36.3774 14.3059 36.3162 14.2575C36.2316 14.1938 36.1638 14.1113 36.0641 14.0654C35.8678 13.9432 35.6128 13.87 35.381 13.9472C35.2846 13.9711 35.1895 14.0297 35.0865 14.0019C35.021 13.9678 34.9773 13.9093 34.9261 13.8602C34.8619 13.7969 34.856 13.705 34.8483 13.6234C34.8372 13.508 34.9765 13.4475 35.0824 13.4372C35.1451 13.4261 35.2443 13.4419 35.2643 13.3671C35.288 13.2839 35.3049 13.1979 35.362 13.1264C35.4082 13.0448 35.5398 12.9874 35.6231 13.0594C35.7578 13.1781 35.795 13.3544 35.886 13.4986C35.9698 13.6034 36.0975 13.6716 36.2298 13.7142C36.1836 13.4595 36.1615 13.2002 36.1705 12.942C36.023 12.9148 35.9012 12.8287 35.7876 12.7434C35.6234 12.619 35.5229 12.4295 35.5046 12.2367C35.4943 12.0757 35.6318 11.9588 35.7441 11.8535C35.9161 11.7206 36.1625 11.7103 36.3756 11.742C36.3792 11.4655 36.3398 11.1909 36.29 10.9189C36.2692 10.7987 36.2013 10.6906 36.1846 10.5697C36.1607 10.404 36.044 10.2516 36.0669 10.0812C36.124 9.98831 36.2121 9.9159 36.2895 9.83713C36.3483 9.77483 36.4395 9.75484 36.5192 9.72263C36.7544 9.64763 36.9946 9.58627 37.236 9.52914C37.3431 9.50186 37.4595 9.49551 37.5688 9.51879C37.8008 9.59638 38.0537 9.60108 38.2845 9.68408C38.4341 9.73368 38.6204 9.784 38.6836 9.93306C38.7067 9.98526 38.7399 10.0327 38.7753 10.0788C38.7116 10.2274 38.5983 10.3549 38.5433 10.5067C38.5315 10.6384 38.5518 10.7729 38.5117 10.9017C38.4824 11.2737 38.4451 11.6468 38.4595 12.0204C38.6949 12.0126 38.9331 12.0239 39.1626 12.0752C39.2914 12.0978 39.3826 12.2123 39.388 12.3291C39.4206 12.4878 39.3708 12.6609 39.2431 12.7749C39.1392 12.9 38.9601 12.931 38.8031 12.9658C38.8121 13.0676 38.8308 13.1687 38.838 13.2705C38.8221 13.4358 38.8054 13.6008 38.7926 13.7659C39.0149 13.7694 39.2292 13.6472 39.333 13.4682C39.4309 13.3387 39.4738 13.1687 39.6257 13.0784C39.7817 12.971 40.0369 13.0732 40.059 13.2505C40.0701 13.306 40.0395 13.357 39.9996 13.3963C39.9231 13.4746 39.8454 13.5618 39.8275 13.6685C39.8598 13.7941 40.0032 13.8837 39.9819 14.0224C39.9958 14.1308 39.8819 14.2389 39.7624 14.2244C39.6142 14.2095 39.4733 14.1491 39.3225 14.1522C39.2017 14.1526 39.0806 14.1501 38.9609 14.1625C38.8676 14.1708 38.7887 14.2215 38.7072 14.2592C38.6579 14.2754 38.6607 14.328 38.6533 14.3668C38.8111 14.4209 38.892 14.5636 39.0256 14.6487C39.1105 14.715 39.2251 14.7301 39.3199 14.7809C39.4176 14.8253 39.5389 14.865 39.6422 14.8112C39.7426 14.7759 39.8642 14.7113 39.9673 14.7745C40.0387 14.8121 40.1276 14.8728 40.113 14.9586C40.0775 15.0745 40.0038 15.1813 39.8994 15.2553C39.8347 15.3009 39.763 15.3785 39.8125 15.4561C39.8616 15.5377 39.8634 15.6294 39.8257 15.7152C39.8717 15.901 39.719 16.0524 39.6907 16.2268C39.7627 16.2141 39.8388 16.1838 39.9125 16.2094C40.0634 16.2456 40.1641 16.4121 40.0978 16.5459C40.0562 16.6561 39.9251 16.6935 39.8272 16.7499C39.9056 16.804 39.9948 16.86 40.0274 16.9493C40.1083 17.1409 39.8637 17.3674 39.6535 17.2919C39.5795 17.2735 39.5381 17.2051 39.4666 17.1842C39.3554 17.1732 39.2436 17.1927 39.1367 17.2157C39.0804 17.2656 39.049 17.3384 38.9778 17.3737C38.9133 17.4083 38.837 17.409 38.7651 17.4141C38.7296 17.4529 38.6916 17.4906 38.6684 17.5366C38.6628 17.6408 38.6237 17.74 38.5803 17.8352C38.5122 17.9333 38.3677 17.9309 38.2817 18.0083C38.1012 18.1498 38.0622 18.3936 37.862 18.5185C37.7322 18.6158 37.6315 18.7816 37.4444 18.7849C37.2393 18.7769 37.0304 18.8048 36.8289 18.7623C36.7821 18.7571 36.7384 18.7757 36.695 18.7865C36.6603 18.9318 36.5495 19.0465 36.4652 19.1693C36.4012 19.3569 36.2805 19.5222 36.2052 19.7058C36.1602 19.8259 36.0708 19.9256 35.9975 20.0319C35.8855 20.188 35.7079 20.2849 35.5617 20.4102C35.4542 20.4995 35.3111 20.5604 35.2474 20.6862C35.2191 20.8642 35.2797 21.0396 35.2679 21.2176C35.2674 21.625 35.2679 22.0327 35.2674 22.4402C35.2674 22.5855 35.2653 22.7329 35.2998 22.8754C35.3471 22.928 35.4082 22.9729 35.4332 23.0397C35.5087 23.1747 35.4846 23.3291 35.4887 23.4749C35.491 23.6705 35.483 23.8666 35.4918 24.062C35.5498 24.2696 35.5791 24.4831 35.611 24.6951C35.6146 25.1423 35.6087 25.5898 35.6138 26.0372C35.611 26.1646 35.6501 26.2885 35.6673 26.4143C35.6979 26.5502 35.6822 26.6891 35.686 26.8269C35.686 27.41 35.6855 27.9933 35.686 28.5766C35.684 28.6688 35.6963 28.7631 35.6673 28.8531C35.5956 29.0669 35.6277 29.2984 35.5411 29.5091C35.4566 29.7285 35.3944 29.957 35.3774 30.1895C35.3409 30.2986 35.289 30.4039 35.2767 30.5194C35.1831 30.8015 35.1399 31.1041 34.9613 31.3564C34.9022 31.496 34.8133 31.6228 34.71 31.7387C34.6406 31.8367 34.5651 31.9343 34.4589 32.002C34.3818 32.0486 34.3201 32.1175 34.2335 32.1499C33.9578 32.223 33.6684 32.1981 33.3855 32.2014C33.2583 32.1974 33.1485 32.2696 33.0246 32.2834C32.9573 32.2936 32.8838 32.283 32.8242 32.3192C32.7247 32.3704 32.6022 32.4019 32.4906 32.3653C32.321 32.3138 32.1478 32.2712 31.982 32.2101C31.8433 32.1396 31.733 32.0298 31.6456 31.9106C31.503 31.7615 31.3354 31.619 31.2784 31.421C31.1751 31.2377 31.1085 31.0383 30.9916 30.8612C30.9024 30.7047 30.7906 30.561 30.6817 30.4157C30.5323 30.2633 30.4427 30.0713 30.4013 29.8724C30.253 29.5771 30.0353 29.3168 29.8369 29.0492C29.7033 28.935 29.6126 28.7845 29.4671 28.6815C29.418 28.6411 29.3731 28.5966 29.3276 28.5534C29.3636 28.6883 29.3695 28.8292 29.418 28.9615C29.4527 29.0586 29.4622 29.1609 29.4813 29.2613C29.4946 29.3666 29.5964 29.4435 29.5995 29.5517C29.6087 29.7047 29.6272 29.8604 29.6956 30.0019C29.7606 30.1874 29.8279 30.3727 29.9258 30.5462C29.9986 30.7597 30.0926 30.9692 30.2463 31.1455C30.4188 31.0874 30.6308 31.1469 30.7256 31.2934C30.8024 31.4008 30.7904 31.5351 30.7857 31.6576C30.7845 31.7495 30.7205 31.8233 30.6799 31.903C30.6434 32.0331 30.6177 32.1826 30.7022 32.3027C30.7726 32.3954 30.7521 32.5143 30.7994 32.6154C30.8459 32.7264 30.8783 32.8442 30.9484 32.9458C31.0594 33.1216 31.0564 33.3337 31.1509 33.5145C31.3118 33.6565 31.449 33.8286 31.5069 34.0294C31.5932 34.2394 31.6497 34.4615 31.7785 34.6548C31.9155 34.872 32.0764 35.0766 32.21 35.296C32.3261 35.4902 32.4906 35.655 32.6083 35.8485C32.6867 35.9543 32.7435 36.0817 32.8651 36.1537C32.9671 36.2192 33.0187 36.3262 33.0974 36.4116C33.1688 36.5016 33.2593 36.5769 33.3395 36.6606C33.4559 36.765 33.6234 36.8009 33.7417 36.9041C33.8989 36.9944 34.0066 37.1519 34.0215 37.3217C34.0233 37.4317 33.9961 37.5401 33.9897 37.6502C33.9843 37.7583 33.9223 37.8531 33.8974 37.957C33.8943 38.052 33.9054 38.1484 33.8833 38.2422C33.8606 38.3348 33.8789 38.4298 33.8696 38.5236C33.8231 38.7658 33.8794 39.0209 33.7771 39.2546C33.7147 39.3938 33.6856 39.5424 33.6327 39.6846C33.5887 39.8146 33.5751 39.9519 33.5204 40.0791C33.4949 40.2025 33.477 40.3316 33.3983 40.4391C33.3492 40.4896 33.4204 40.5383 33.4497 40.5794C33.5882 40.7278 33.6903 40.9051 33.8583 41.0287C33.9311 41.0819 33.975 41.1585 34.0321 41.2229C34.2387 41.2918 34.3929 41.4392 34.564 41.5589C34.6941 41.6168 34.8249 41.676 34.9433 41.7531C35.0518 41.8349 35.0901 41.9706 35.0806 42.0952C35.0706 42.277 35.0955 42.4611 35.1659 42.632C35.2165 42.739 35.3067 42.8281 35.3437 42.9414C35.3658 43.0046 35.3887 43.0683 35.4167 43.1307C35.5791 43.1603 35.7171 43.0488 35.8783 43.062C36.0332 43.0538 36.1795 43.1297 36.2774 43.2353C36.3393 43.323 36.3863 43.4189 36.4401 43.5111C36.5059 43.563 36.5966 43.5814 36.66 43.6373C36.7078 43.6808 36.7379 43.7368 36.777 43.7869C36.8307 43.7412 36.8646 43.6804 36.9209 43.6369C37.0219 43.5306 37.0715 43.3869 37.0514 43.2466C37.0137 43.2621 36.9772 43.2793 36.9397 43.2943C36.9453 43.2372 36.9522 43.1791 36.9795 43.1274C37.0116 43.0676 36.9916 42.9985 36.9939 42.935C36.9612 42.9355 36.9291 42.9365 36.8975 42.9383C36.9062 42.9146 36.9152 42.8911 36.9245 42.868C36.8952 42.8814 36.8664 42.8951 36.8381 42.9094C36.8566 42.8542 36.8744 42.7987 36.8731 42.7406C36.8438 42.722 36.814 42.7044 36.7852 42.6875C36.8546 42.5476 36.9458 42.4166 36.9892 42.2668C36.9602 42.2692 36.9314 42.272 36.9029 42.2751C36.9412 42.2031 36.953 42.115 37.0242 42.0625C37.0846 42.0193 37.1067 41.9511 37.1422 41.8918C37.1095 41.8991 37.0771 41.9062 37.045 41.9137C37.071 41.8491 37.1237 41.8006 37.1763 41.7541C37.2725 41.6772 37.2547 41.5443 37.3413 41.4611C37.3257 41.4289 37.3102 41.3974 37.2953 41.3659C37.3406 41.3186 37.4046 41.281 37.4207 41.2166C37.385 41.2246 37.3498 41.2335 37.3149 41.2429C37.3853 41.1218 37.4341 40.9921 37.4896 40.8653C37.4953 40.8249 37.4801 40.7849 37.4852 40.7452C37.541 40.6754 37.5852 40.5971 37.6554 40.5378C37.6245 40.524 37.5937 40.5098 37.5639 40.4964C37.615 40.4377 37.6536 40.3655 37.7304 40.3312C37.7176 40.3248 37.6924 40.3121 37.6795 40.3058C37.7425 40.2373 37.7754 40.1501 37.863 40.1019C37.8389 40.1031 37.8152 40.105 37.7921 40.1078C37.7995 40.0714 37.7977 40.0347 37.7728 40.0048C37.8461 39.9124 37.8995 39.8052 37.9956 39.7295C38.0555 39.6839 38.0838 39.6159 38.1 39.5485C38.1293 39.5372 38.1586 39.5259 38.1881 39.5148C38.174 39.4751 38.1591 39.4368 38.1426 39.3987C38.2102 39.3926 38.2688 39.3637 38.2991 39.3056C38.2526 39.3035 38.2064 39.3016 38.1606 39.2999C38.2696 39.2647 38.349 39.1847 38.4508 39.137C38.4382 39.1257 38.4125 39.1032 38.3999 39.0919C38.4644 39.0916 38.5304 39.0883 38.5913 39.0651C38.57 39.055 38.5271 39.0347 38.5058 39.0249C38.5076 39.0136 38.5112 38.991 38.513 38.9797C38.5947 38.956 38.6201 38.8793 38.6512 38.8149C38.7658 38.8278 38.8566 38.7526 38.9375 38.6896C39.0256 38.6386 39.1246 38.6028 39.2187 38.5655C39.2752 38.4879 39.3777 38.4723 39.4664 38.4406C39.5772 38.3903 39.7116 38.4575 39.8167 38.3872C39.8419 38.3254 39.8241 38.2556 39.8259 38.1914C39.8151 38.1058 39.8593 38.0263 39.8691 37.9429C39.8912 37.7865 40.0279 37.6636 40.0559 37.5117C39.9912 37.4289 39.9184 37.3466 39.8814 37.2505C39.8771 37.1552 39.8426 37.0643 39.839 36.9697C39.8341 36.9121 39.8807 36.8644 39.8807 36.8089C39.8663 36.76 39.8375 36.7151 39.83 36.6653C39.8138 36.583 39.9485 36.5642 39.9351 36.4823C39.9177 36.4396 39.8611 36.4226 39.8426 36.3808C39.8038 36.2872 39.7776 36.1887 39.7365 36.097C39.5885 35.9343 39.5247 35.7194 39.5242 35.5106C39.5291 35.4401 39.5479 35.3493 39.6368 35.3315C39.7637 35.2826 39.8753 35.3794 39.9845 35.4236C40.0842 35.4582 40.1502 35.5388 40.2381 35.591C40.3312 35.6442 40.3949 35.7283 40.4797 35.7911C40.5237 35.7669 40.5655 35.7396 40.6118 35.7189C40.6768 35.7084 40.7344 35.7495 40.7938 35.7683C40.8058 35.7387 40.8174 35.7093 40.829 35.6801C40.8876 35.6806 40.9459 35.6952 41.0047 35.6905C41.0461 35.6595 41.086 35.6171 41.1458 35.6244C41.2037 35.6326 41.2445 35.5974 41.2879 35.5687C41.3543 35.5809 41.4221 35.6162 41.491 35.5955C41.6115 35.4608 41.6249 35.2628 41.7857 35.1568C41.8942 35.0926 41.9271 34.9534 42.053 34.9083C42.134 34.8746 42.2195 34.9212 42.2753 34.9743C42.3375 35.0569 42.3701 35.1544 42.3935 35.2518C42.4115 35.331 42.4542 35.406 42.4524 35.489C42.4578 35.5616 42.4241 35.6338 42.4467 35.7062C42.4665 35.805 42.4352 35.903 42.3879 35.9914C42.3614 36.061 42.4416 36.1036 42.4704 36.16C42.5601 36.2729 42.5552 36.4163 42.5793 36.5482C42.5942 36.6131 42.5672 36.6749 42.5308 36.7295C42.5639 36.7595 42.6032 36.7878 42.621 36.8298C42.6505 36.9721 42.5647 37.1113 42.603 37.2533C42.6217 37.3711 42.7271 37.4574 42.7507 37.5742C42.8147 37.7237 42.7307 37.8942 42.8045 38.0407C42.8803 38.1307 42.8528 38.2483 42.8494 38.3531C42.88 38.4848 42.9697 38.5965 43.0519 38.7056C43.0938 38.7752 43.1211 38.8514 43.1573 38.9238C43.1599 39.0815 43.246 39.2339 43.2018 39.3926C43.2133 39.6039 43.23 39.8264 43.1398 40.0272C43.1684 40.1367 43.1519 40.2519 43.0969 40.3528C43.0581 40.4196 42.9576 40.4428 42.9448 40.5239C42.8589 40.8009 42.7266 41.0638 42.6544 41.3445C42.6811 41.4994 42.6675 41.6579 42.6999 41.8131C42.7286 41.9346 42.6364 42.0444 42.6523 42.1657C42.6729 42.3282 42.6225 42.4907 42.6549 42.6534C42.7006 42.8887 42.6765 43.1288 42.6456 43.3644C42.631 43.4838 42.6762 43.5964 42.7268 43.7041C42.7387 43.8181 42.7333 43.9336 42.7474 44.0483C42.8142 44.0368 42.8975 44.0109 42.9491 44.0683C43.0283 44.1485 43.1473 44.2122 43.1581 44.3309C43.1853 44.4146 43.1167 44.5058 43.0216 44.5127C42.8669 44.5343 42.7109 44.5498 42.5552 44.5613C42.4665 44.5738 42.3946 44.5183 42.3247 44.4793C42.2715 44.5169 42.2429 44.59 42.1689 44.5978C41.9667 44.6293 41.7618 44.6443 41.5586 44.6662C41.447 44.6798 41.3237 44.6248 41.298 44.519C41.1032 44.5362 40.9151 44.5926 40.7346 44.6591C40.6082 44.6782 40.4792 44.6676 40.352 44.6754C40.1867 44.6845 40.0117 44.6514 39.857 44.7203C39.7933 44.7473 39.7234 44.7562 39.6543 44.7621C39.4839 44.7772 39.3135 44.8051 39.1421 44.7943C39.0426 44.7828 38.9452 44.7431 38.844 44.7593C38.6276 44.7866 38.4109 44.8275 38.1917 44.8145C37.9944 44.8157 37.7975 44.8376 37.5999 44.8315C37.5086 44.831 37.4665 44.7214 37.3714 44.7433C37.1476 44.7567 36.9219 44.7106 36.6999 44.7471C36.5781 44.7494 36.4609 44.7099 36.3396 44.7052C36.2201 44.7062 36.1047 44.6443 35.9903 44.701C35.9901 44.658 35.9924 44.6163 35.9975 44.5747C35.7734 44.6518 35.5887 44.8037 35.3566 44.8639C35.1639 44.9337 34.9536 44.949 34.7483 44.9436C34.4114 44.938 34.0729 44.9587 33.7373 44.9229C33.5296 44.8823 33.3161 44.9018 33.1054 44.8989C32.9607 44.8968 32.8437 44.9819 32.7211 45.0391C32.5955 45.1122 32.4518 45.1602 32.3416 45.2537C32.2097 45.3438 32.1008 45.4585 31.9723 45.5516C31.8225 45.624 31.6901 45.7254 31.5308 45.7809C31.3982 45.8159 31.2591 45.7926 31.124 45.8006C30.9939 45.8091 30.8685 45.7717 30.749 45.7301C30.6704 45.7009 30.6046 45.6468 30.521 45.629C30.4429 45.6092 30.3679 45.574 30.3157 45.5164C30.2756 45.4698 30.2163 45.4345 30.1494 45.4399C29.9924 45.4472 29.8418 45.3964 29.6856 45.3941C29.5897 45.3934 29.5003 45.3591 29.4075 45.3419C29.3219 45.3191 29.2286 45.328 29.1474 45.2923C29.0534 45.2563 28.9719 45.1982 28.8786 45.1618C28.7098 45.1122 28.5867 44.9883 28.434 44.9112C28.324 44.858 28.2274 44.783 28.111 44.7414C28.0889 44.8634 28.0421 44.9968 27.9172 45.0619C27.7553 45.1606 27.5531 45.1162 27.376 45.0847C27.256 45.0624 27.1588 44.9895 27.0432 44.9568C26.9245 44.925 26.8276 44.8484 26.7063 44.8228C26.6281 44.807 26.5616 44.7659 26.4917 44.7332C26.327 44.6756 26.1689 44.6034 26.0111 44.5322C25.8654 44.6081 25.6932 44.6408 25.567 44.7461C25.4709 44.8181 25.3591 44.8696 25.2553 44.9316C25.1515 44.9928 25.0189 45.001 24.9251 45.0779C24.8593 45.1287 24.7891 45.1769 24.7064 45.202C24.6059 45.2337 24.4974 45.2765 24.3903 45.2474C24.2464 45.2192 24.1089 45.1453 24.0446 45.0203C23.901 44.9573 23.8128 45.1105 23.6889 45.1446C23.5273 45.1917 23.3672 45.2714 23.1927 45.2568C23.0526 45.2333 22.9077 45.241 22.7723 45.1964C22.5225 45.1851 22.2832 45.1051 22.0596 45.0059C21.9769 44.9662 21.8957 44.906 21.7959 44.9201C21.5868 44.9048 21.4413 45.0929 21.2326 45.0776C21.0183 45.0734 20.8034 45.0837 20.5894 45.0727C20.437 45.0395 20.2617 45.0047 20.1648 44.8811C20.1178 44.8247 20.0708 44.7687 20.0201 44.7156C19.7709 44.8444 19.5136 44.9603 19.2692 45.0969C19.1903 45.1388 19.0919 45.1435 19.0217 45.1999C18.8984 45.2961 18.7557 45.3682 18.6149 45.4402C18.4759 45.5352 18.3209 45.6073 18.1775 45.6965C18.1022 45.7451 18.0071 45.7461 17.9208 45.7668C17.7206 45.8248 17.5086 45.7905 17.3027 45.7994C17.1524 45.8135 17.0115 45.7576 16.8656 45.7374C16.725 45.6946 16.5852 45.649 16.4474 45.6001C16.3259 45.5874 16.2033 45.6088 16.0861 45.6363C15.8726 45.7127 15.6354 45.6953 15.4146 45.6565C15.2028 45.6083 14.9913 45.5272 14.8356 45.3835C14.7446 45.266 14.6683 45.139 14.6066 45.0073C14.4596 44.9255 14.2841 44.9084 14.1158 44.9135C14.0166 44.9836 13.8963 45.0487 13.7657 45.028C13.608 45.0118 13.4697 44.9048 13.4296 44.764C13.3774 44.6201 13.4617 44.4729 13.5532 44.3598C13.6473 44.2804 13.7041 44.163 13.8269 44.1158C13.94 44.0685 14.0615 44.0271 14.1877 44.0321C14.3491 44.0361 14.5128 44.0203 14.6719 44.0523C14.777 44.0659 14.8772 44.1078 14.9852 44.1007C15.0715 44.0949 15.1689 44.1203 15.2447 44.0713C15.3486 44.0142 15.4717 43.9919 15.5685 43.9235C15.7564 43.7981 15.9879 43.717 16.1285 43.5405C16.2072 43.4511 16.3261 43.406 16.4338 43.3531C16.5343 43.1885 16.5965 42.9917 16.7818 42.8866C16.808 42.7592 16.7872 42.6252 16.7934 42.4956C16.7923 42.284 16.7954 42.0729 16.7923 41.8615C16.7826 41.6718 16.8838 41.4973 16.9874 41.3393C17.0642 41.2117 17.165 41.0974 17.2711 40.9892C17.4281 40.8787 17.6335 40.8588 17.8105 40.7856C17.791 40.6986 17.7571 40.6159 17.7226 40.5336C17.6548 40.3794 17.6867 40.2103 17.6807 40.0488C17.6921 39.9602 17.6152 39.8948 17.5728 39.8228C17.5127 39.7598 17.4297 39.7189 17.3685 39.6566C17.2729 39.5753 17.2529 39.4516 17.1848 39.3543C17.1069 39.1946 17.0277 39.0169 17.0802 38.8398C17.1238 38.711 17.1041 38.5753 17.1354 38.4446C17.177 38.1672 17.2634 37.8956 17.3883 37.6403C17.4433 37.5404 17.4271 37.4228 17.4798 37.3226C17.5263 37.2241 17.5836 37.1296 17.6216 37.0278C17.6576 36.9225 17.7422 36.8402 17.7961 36.7433C17.903 36.5844 17.9753 36.4097 18.0768 36.2484C18.1757 36.0187 18.3178 35.8036 18.3782 35.5607C18.4016 35.4554 18.4438 35.354 18.4674 35.2489C18.48 35.0806 18.5288 34.9167 18.5851 34.7571C18.6008 34.6771 18.6167 34.597 18.6583 34.5246C18.6918 34.4258 18.7013 34.3214 18.7254 34.221C18.7133 34.1068 18.71 33.9911 18.7318 33.878C18.7491 33.7919 18.7354 33.701 18.7745 33.6189C18.8118 33.5387 18.8164 33.4484 18.8657 33.373C18.941 33.2627 18.9158 33.1266 18.9539 33.0057C19.0287 32.7727 19.1017 32.5381 19.1397 32.2976C19.1587 32.2207 19.1027 32.1525 19.0945 32.0782C19.0682 31.9684 19.1178 31.8595 19.1032 31.7497C19.1029 31.663 19.1423 31.58 19.1371 31.493C19.1343 31.3898 19.1692 31.2894 19.162 31.1862C19.169 30.9494 19.1428 30.7108 19.1862 30.4764C19.1852 30.2615 19.3 30.0614 19.2857 29.846C19.2854 29.6814 19.2844 29.5169 19.2854 29.3523C19.2839 29.2253 19.3337 29.1035 19.3347 28.9768C19.3278 28.7986 19.3586 28.6197 19.4142 28.4495C19.4889 28.1511 19.4478 27.8433 19.4622 27.5405C19.4846 27.4088 19.4874 27.2751 19.481 27.1425C19.4774 27.0402 19.501 26.9377 19.482 26.8363C19.4761 26.7813 19.4542 26.723 19.4861 26.6718C19.4345 26.5648 19.4602 26.4413 19.4116 26.333C19.3607 26.2342 19.3646 26.1218 19.3165 26.0226C19.2494 26.1239 19.1659 26.2154 19.0919 26.3127C19.0467 26.3816 19.0048 26.4526 18.9562 26.5199C18.8819 26.6024 18.7974 26.6821 18.7588 26.7856C18.7303 26.8472 18.718 26.9146 18.682 26.9736C18.5818 27.1157 18.5735 27.2946 18.4695 27.4354C18.4376 27.5262 18.3739 27.6028 18.3402 27.6926C18.2382 27.9282 18.068 28.1292 17.9007 28.3277C17.8288 28.4123 17.7779 28.5103 17.7471 28.6138C17.7234 28.698 17.6412 28.749 17.5867 28.8155C17.5055 28.9049 17.4322 29.0154 17.3037 29.0516C17.1493 29.0993 16.9869 29.1423 16.8224 29.1275C16.7934 29.1271 16.7543 29.1137 16.7368 29.144C16.6464 29.259 16.5484 29.3927 16.3899 29.4311C16.2043 29.4637 15.9885 29.4659 15.8374 29.3469C15.6988 29.2834 15.5572 29.2251 15.4138 29.1722C15.1964 29.0452 14.9618 28.9366 14.7803 28.7659C14.6444 28.6089 14.4881 28.4664 14.317 28.3418C14.235 28.2621 14.125 28.1953 14.0906 28.0846C14.0464 27.9679 13.997 27.8454 14.0235 27.7201C14.0487 27.5976 14.0492 27.4674 14.1127 27.3545C14.1913 27.201 14.2163 27.0315 14.2779 26.8728C14.3275 26.751 14.3532 26.6212 14.4172 26.5044C14.4925 26.3628 14.5123 26.2046 14.5755 26.0591C14.6711 25.8681 14.6937 25.6556 14.7721 25.4593C14.794 25.4019 14.8176 25.3453 14.8299 25.2855C14.8467 25.1856 14.9194 25.1019 14.9315 25.0008C14.9723 24.8463 14.9384 24.6865 14.9731 24.5313C14.9487 24.3778 14.8754 24.2334 14.7919 24.0996C14.7233 24.0136 14.6472 23.932 14.5866 23.8412C14.5493 23.7611 14.5115 23.6797 14.4483 23.6134C14.3668 23.5271 14.3368 23.4091 14.2427 23.3317C14.1438 23.2483 14.0633 23.1491 13.9811 23.0524C13.8588 22.9043 13.7953 22.7261 13.6935 22.5674C13.6331 22.3972 13.4959 22.2634 13.3743 22.1277C13.3682 22.2509 13.3836 22.3758 13.3535 22.4976C13.3404 22.6849 13.3373 22.8766 13.2782 23.0581C13.2631 23.1665 13.2132 23.2685 13.2184 23.3795C13.177 23.54 13.1443 23.7056 13.0644 23.8553C13.0354 23.9094 13.0354 23.9715 13.0212 24.0296C12.9801 24.1586 13.0518 24.287 13.0505 24.4173C13.0467 24.5649 13.0629 24.714 13.0343 24.8607C13.0166 24.9785 13.0367 25.097 13.0403 25.2152C13.0318 25.3895 13.1081 25.5564 13.1007 25.7306C13.0973 25.8634 13.1112 25.9979 13.0814 26.1291C13.0683 26.218 13.029 26.301 13.0122 26.3892C12.9678 26.5751 13.0205 26.7679 12.976 26.9541C12.957 27.0816 12.9819 27.2113 12.9614 27.3393C12.9251 27.5572 12.838 27.7674 12.8264 27.9891C12.8164 28.0742 12.7946 28.1603 12.8205 28.2454C12.8514 28.3585 12.8023 28.4692 12.7794 28.5792C12.746 28.7805 12.7221 28.9839 12.7311 29.1879C12.7208 29.5465 12.7714 29.9159 12.6412 30.2617C12.6131 30.3762 12.5707 30.4874 12.5376 30.6007C12.5409 30.7395 12.4708 30.8692 12.4823 31.0087C12.4882 31.0938 12.451 31.1737 12.4343 31.256C12.4327 32.2202 12.4343 33.1846 12.4335 34.1488C12.4345 34.2173 12.4207 34.2847 12.4081 34.352C12.3801 34.526 12.2721 34.6793 12.25 34.8544C12.2058 34.9755 12.212 35.1044 12.1835 35.2285C12.1464 35.4817 12.0488 35.7241 12.03 35.9802C12.0059 36.2651 11.9303 36.5444 11.9164 36.8303C11.9203 36.9733 11.8676 37.1115 11.865 37.2545C11.862 37.3262 11.8298 37.3927 11.8196 37.4635C11.8003 37.7463 11.736 38.0242 11.7168 38.3073C11.7121 38.3969 11.662 38.4789 11.6664 38.5699C11.6541 38.6868 11.6363 38.8036 11.6427 38.9219C11.6512 39.0648 11.5952 39.2024 11.5939 39.3453C11.5924 39.4337 11.5438 39.5149 11.5459 39.604C11.5448 39.671 11.5271 39.7368 11.5068 39.8012C11.4405 40.179 11.4901 40.5632 11.467 40.9434C11.431 41.0901 11.4595 41.2413 11.4413 41.3894C11.4343 41.4628 11.3793 41.5211 11.3539 41.589C11.3338 41.7891 11.3189 41.9899 11.3102 42.1909C11.2796 42.3938 11.2549 42.5974 11.2372 42.8017C11.2071 43.0448 11.1665 43.2873 11.1254 43.5287C11.1267 44.0424 11.1257 44.5564 11.1262 45.0701C11.1426 45.2646 11.0224 45.436 10.9656 45.617C10.9203 45.7637 10.8265 45.9109 10.6711 45.9784C10.5845 46.0179 10.4832 46.0226 10.3917 45.9948C10.3305 45.9718 10.2671 45.9929 10.2054 46.0012C9.9998 46.0146 9.805 45.8589 9.78984 45.6706C9.78264 45.5213 9.78675 45.3715 9.78675 45.2222C9.7829 45.1301 9.83198 45.0466 9.84175 44.9566C9.85511 44.8508 9.89597 44.7504 9.91268 44.6455C9.94737 44.4908 9.95354 44.3293 10.0204 44.1821C10.0843 44.0481 10.0903 43.8993 10.1486 43.7636C10.1676 43.6082 10.1519 43.4507 10.1571 43.2945C10.1632 43.1189 10.1355 42.9386 10.1913 42.7676C10.227 42.6731 10.2594 42.5777 10.2987 42.4846C10.3475 42.375 10.4223 42.276 10.4632 42.1639C10.4981 41.9861 10.4621 41.8039 10.4829 41.6252C10.5061 41.5098 10.5518 41.3983 10.6158 41.297C10.6929 41.1548 10.6145 40.9991 10.6256 40.8505C10.6335 40.5839 10.6053 40.3154 10.649 40.0507C10.6564 39.9366 10.6389 39.8217 10.6631 39.7091C10.6921 39.5692 10.6587 39.4255 10.6867 39.2854C10.7081 39.1876 10.6872 39.0858 10.7196 38.9896C10.7607 38.8782 10.7443 38.7575 10.78 38.6449C10.8245 38.5053 10.8432 38.3604 10.8548 38.2161C10.8633 38.1204 10.9067 38.0256 10.8854 37.9292C10.8571 37.7597 10.8754 37.5876 10.8705 37.4169C10.8741 37.293 10.8584 37.1672 10.8864 37.0452C10.9823 36.7534 11.054 36.4556 11.1583 36.1659C11.1724 36.1048 11.1645 36.0413 11.1814 35.9806C11.1945 35.9207 11.2344 35.8657 11.229 35.8031C11.2159 35.6745 11.2069 35.5435 11.23 35.4159C11.2701 35.2957 11.3284 35.1801 11.3472 35.055C11.358 34.9696 11.4097 34.8935 11.414 34.8076C11.4189 34.7131 11.442 34.6203 11.441 34.5257C11.4487 34.3992 11.4204 34.2697 11.4634 34.1467C11.5029 34.0254 11.5271 33.9008 11.5502 33.7767C11.6027 33.6074 11.6309 33.431 11.6219 33.2552C11.6145 33.1327 11.6479 33.0111 11.6289 32.8893C11.6132 32.8169 11.6476 32.7424 11.6165 32.6723C11.5687 32.5414 11.5921 32.4027 11.5867 32.2677C11.5829 32.1031 11.6019 31.9369 11.5654 31.7744C11.5592 31.6677 11.5549 31.5591 11.5775 31.4537C11.598 31.3416 11.5803 31.2276 11.588 31.1147C11.5957 31.0011 11.6728 30.9008 11.663 30.7853C11.6846 30.6123 11.7258 30.4413 11.7592 30.2702C11.7612 30.1126 11.7705 29.9542 11.736 29.799C11.7466 29.5159 11.7065 29.2291 11.7728 28.9502C11.7856 28.872 11.7946 28.7922 11.827 28.7184C11.8859 28.5846 11.8635 28.4313 11.9393 28.3032C11.9753 28.2381 12.0123 28.1732 12.039 28.1045C11.9948 27.9447 12.002 27.7777 12.0146 27.6148C12.0426 27.5285 12.0051 27.4425 12.0079 27.3557C12.0087 27.245 12.0041 27.1342 12.009 27.024C12.0144 26.9064 12.0948 26.8102 12.1539 26.711C12.1588 26.625 12.1025 26.5476 12.1064 26.4611C12.1107 26.3642 12.0575 26.2763 12.058 26.1804C12.0478 25.9194 12.1064 25.6619 12.129 25.4029C12.1308 25.282 12.1197 25.1595 12.1485 25.0405C12.1878 24.8952 12.1256 24.7492 12.1287 24.6035C12.1305 24.4619 12.1254 24.3202 12.1308 24.1788C12.1344 24.0735 12.2058 23.9818 12.2043 23.8765C12.2035 23.3816 12.2025 22.8869 12.2045 22.3922C12.2284 22.2817 12.2199 22.167 12.2567 22.0591C12.2904 21.9676 12.269 21.8672 12.3104 21.7772C12.3497 21.6086 12.34 21.4339 12.3412 21.2625C12.3574 21.0897 12.4081 20.9209 12.4176 20.7474C12.453 20.5602 12.4299 20.3702 12.4389 20.1817C12.4592 19.9858 12.5247 19.7935 12.5119 19.5951C12.5011 19.4686 12.5633 19.3513 12.5761 19.2271C12.6209 19.0929 12.68 18.9617 12.6843 18.819C12.6807 18.6565 12.7681 18.5044 12.7586 18.3417C12.7581 18.1844 12.818 18.0233 12.7632 17.8691C12.7272 17.7741 12.7347 17.673 12.7352 17.5745C12.7422 17.3547 12.717 17.1332 12.7583 16.9157C12.7637 16.6195 12.7565 16.3232 12.7612 16.027C12.7645 15.9466 12.8156 15.8716 12.8059 15.7909C12.7067 15.6976 12.6155 15.5965 12.5355 15.4888C12.435 15.3028 12.5083 15.0625 12.6859 14.9377C12.6363 14.794 12.4916 14.7134 12.3605 14.637C12.2914 14.5989 12.2557 14.5295 12.2022 14.4771C12.1423 14.4073 12.0604 14.3502 12.0254 14.2648C11.9938 14.1818 11.974 14.0948 11.9771 14.0067C11.9149 13.9686 11.8496 13.9246 11.8252 13.8571C11.7651 13.728 11.8548 13.5653 12.0007 13.5277C12.0526 13.5103 12.1087 13.5146 12.1629 13.5113C12.1259 13.4071 12.03 13.3279 12.0172 13.215C11.9614 13.0707 12.0786 12.9131 12.2366 12.8833C12.1431 12.725 12.1498 12.517 12.2886 12.382C12.2174 12.2877 12.1729 12.169 12.2156 12.0559C12.2503 11.9203 12.3862 11.8314 12.5252 11.7938C12.6627 11.7623 12.7617 11.6635 12.8858 11.608C13.0051 11.5539 13.1199 11.4806 13.2574 11.4754C13.2538 11.2448 13.2523 11.0139 13.253 10.783C13.2505 10.6636 13.2978 10.5488 13.2998 10.4299C13.1338 10.3908 12.9809 10.3168 12.8483 10.2183C12.7329 10.1303 12.6836 9.97516 12.7296 9.84443C12.7689 9.73087 12.755 9.60885 12.7997 9.49623C12.701 9.42617 12.6108 9.34435 12.5527 9.24231C12.3921 9.15531 12.1935 9.05563 12.1644 8.86918C12.1115 8.69708 12.1768 8.50546 12.3094 8.37756C12.3569 8.3256 12.4214 8.2908 12.4757 8.24566C12.5078 8.2024 12.5101 8.14738 12.5196 8.09754C12.5535 7.76697 12.7689 7.47025 13.0397 7.25889C13.1785 7.19517 13.2749 7.08043 13.4042 7.00402C13.4733 6.96358 13.5548 6.94242 13.6187 6.8947C13.6843 6.8298 13.7357 6.75081 13.8179 6.70143C13.9469 6.63207 14.1096 6.59398 14.2527 6.65112C14.3995 6.70002 14.4591 6.84179 14.556 6.94125C14.6963 7.02706 14.8505 7.09149 14.9924 7.17472C15.0597 7.22221 15.1114 7.28569 15.1802 7.33201C15.2789 7.39784 15.3663 7.48107 15.421 7.58193C15.4547 7.6487 15.5269 7.69385 15.5508 7.76579C15.5973 7.89557 15.5762 8.03453 15.5806 8.16878C15.5883 8.36275 15.5606 8.56024 15.4788 8.74057C15.4344 8.83815 15.4354 8.94935 15.373 9.04081C15.311 9.16801 15.2329 9.28698 15.1556 9.40689C15.089 9.49529 15.042 9.59498 14.9615 9.67444C14.8811 9.82797 14.7379 9.94436 14.5835 10.0349C14.492 10.0741 14.4198 10.1402 14.3422 10.1978C14.3288 10.2747 14.3838 10.3556 14.3489 10.4336C14.3059 10.5347 14.3352 10.6443 14.3075 10.7475C14.2548 10.9001 14.2085 11.0543 14.1543 11.2067C14.1433 11.4242 14.1679 11.6449 14.1294 11.8612C14.1214 11.9945 14.088 12.1368 14.1589 12.2619C14.2049 12.3566 14.3065 12.41 14.3766 12.4878C14.4535 12.3686 14.5969 12.2729 14.7549 12.296C14.9127 12.3011 15.045 12.4091 15.0918 12.5433C15.1291 12.7314 15.0718 12.9209 15.0014 13.0968C14.9687 13.1807 14.8788 13.2592 14.9166 13.3542C14.9307 13.4353 14.9551 13.516 14.9533 13.599C14.952 13.7257 14.9662 13.8571 14.9104 13.9768C14.8572 14.1207 14.7223 14.2152 14.6005 14.3095C14.6154 14.3541 14.6323 14.3984 14.6542 14.4409C14.7117 14.5495 14.7081 14.6779 14.7824 14.7804C14.9569 14.7538 15.1689 14.76 15.2879 14.8989C15.364 15.0014 15.4691 15.0811 15.5806 15.1502C15.6988 15.2158 15.8348 15.2537 15.9443 15.3325C16.0268 15.3983 16.0936 15.4822 16.193 15.5285C16.3195 15.5892 16.4238 15.6807 16.55 15.7416C16.7435 15.8441 16.8694 16.0173 16.9992 16.1782C17.1719 16.3521 17.3312 16.5395 17.4502 16.7483C17.4826 16.8506 17.533 16.9477 17.617 17.0236C17.7512 17.0319 17.8899 17.0093 18.0187 17.0537C18.1104 17.0845 18.2173 17.0932 18.2896 17.1598C18.3862 17.246 18.4725 17.3441 18.5306 17.4562C18.6039 17.5524 18.7061 17.6293 18.7668 17.7339C18.8444 17.8693 18.9626 17.9789 19.0772 18.088C19.2782 18.0863 19.4797 18.0372 19.6801 18.0762C19.777 18.0981 19.8749 18.1162 19.9705 18.1428C20.0458 18.0654 20.0826 17.9634 20.1648 17.8912C20.2548 17.7927 20.4005 17.7715 20.53 17.7464C20.5249 17.657 20.4981 17.5693 20.5051 17.4793C20.5113 17.3406 20.4845 17.1964 20.54 17.0634C20.5963 16.9263 20.6279 16.7786 20.7138 16.6531C20.786 16.5376 20.8384 16.4123 20.926 16.3054C21.0018 16.13 21.1154 15.9513 21.319 15.8817C21.1936 15.7331 21.2223 15.5379 21.2216 15.363C21.2265 15.2412 21.2974 15.1328 21.3968 15.0553C21.3552 15.0038 21.3161 14.9504 21.2732 14.9001C21.1136 14.865 20.9659 14.7543 20.9371 14.601C20.9014 14.4839 20.9666 14.3711 21.0031 14.2617C21.0538 14.1447 21.0422 13.997 21.1609 13.9126C21.2611 13.8409 21.2925 13.7226 21.3735 13.6363C21.4313 13.5712 21.4467 13.4861 21.4942 13.4158C21.5772 13.2865 21.5919 13.1292 21.6875 13.0058C21.7222 12.9392 21.7242 12.8612 21.7672 12.797C21.8409 12.6794 21.8561 12.5348 21.9563 12.4309C22.0809 12.3096 22.166 12.1605 22.2467 12.0129C22.3289 11.8951 22.4202 11.7825 22.524 11.6797C22.6366 11.5459 22.7381 11.4049 22.8468 11.2687C22.9575 11.0872 23.1261 10.945 23.2608 10.7788C23.407 10.6398 23.5006 10.4649 23.6255 10.3109C23.7301 10.1915 23.8295 10.0668 23.8981 9.92648C24.0392 9.74427 24.1495 9.54419 24.2713 9.35093C24.4206 9.17436 24.5625 8.99261 24.72 8.82192C24.7763 8.74903 24.8446 8.68438 24.9261 8.635C24.9461 8.50687 25.0142 8.38179 25.1263 8.30091C25.2252 8.24307 25.2196 8.12363 25.2761 8.03899C25.3306 7.95952 25.3506 7.86336 25.418 7.79071C25.5038 7.67527 25.5891 7.55889 25.7022 7.4639C25.7891 7.29062 25.9132 7.13521 26.006 6.96429C26.0993 6.85378 26.1951 6.74398 26.2756 6.62502C26.3288 6.51686 26.3894 6.41153 26.4315 6.29891C26.494 6.13528 26.6053 5.9928 26.724 5.85949C26.805 5.7558 26.8954 5.65353 26.9314 5.52751C26.9491 5.4605 27.0008 5.40948 27.0506 5.36058C27.0856 5.32766 27.0802 5.27734 27.099 5.23691C27.1198 5.16919 27.1892 5.13157 27.2418 5.08643C27.3308 5.01284 27.3436 4.88894 27.4449 4.82499C27.5212 4.78196 27.5441 4.69849 27.6055 4.64301C27.6798 4.57647 27.6949 4.47702 27.7507 4.3999C27.8427 4.28493 27.9067 4.1535 27.9961 4.03712L27.9961 4.03711ZM14.068 11.9586C14.0274 11.9673 14.0215 12.0319 14.0651 12.0404C14.1019 12.0343 14.107 11.964 14.068 11.9586ZM36.9196 12.8402C36.8448 12.8814 36.7611 12.9007 36.6773 12.9188C36.5855 12.9362 36.54 13.0265 36.5506 13.1057C36.5573 13.2063 36.5532 13.3265 36.6323 13.405C36.7009 13.4722 36.7983 13.4273 36.8821 13.4196C36.9425 13.4073 36.9998 13.4351 37.0594 13.4393C37.1221 13.4179 37.1874 13.4012 37.2473 13.3728C37.3049 13.3001 37.3069 13.2054 37.3416 13.1236C37.375 13.0446 37.3699 12.9439 37.3136 12.875C37.2149 12.7692 37.0471 12.8149 36.9196 12.8402H36.9196ZM37.743 12.8365C37.7106 12.9021 37.6646 12.9736 37.6932 13.0479C37.7266 13.1381 37.7381 13.243 37.8062 13.3175C37.907 13.3559 38 13.4245 38.1139 13.4243C38.2346 13.416 38.3601 13.3942 38.461 13.3295C38.5266 13.2113 38.5196 13.0695 38.4675 12.9484C38.3531 12.9105 38.2352 12.8828 38.1226 12.8417C38.0023 12.793 37.8677 12.8196 37.743 12.8365H37.743ZM37.3295 13.4927C37.2529 13.5917 37.2373 13.7163 37.2283 13.8341C37.2809 13.8715 37.367 13.8592 37.4233 13.9032C37.5081 13.8329 37.4786 13.716 37.4832 13.6227C37.4518 13.52 37.4601 13.4135 37.4452 13.3091C37.4056 13.3697 37.3745 13.4351 37.3295 13.4927ZM37.5508 13.3124C37.5271 13.3845 37.5158 13.4612 37.5382 13.535C37.5703 13.6547 37.5534 13.7784 37.5613 13.9001C37.6353 13.8919 37.704 13.8541 37.7803 13.879C37.7772 13.8247 37.7751 13.7704 37.7749 13.7163C37.7844 13.5578 37.6831 13.4076 37.5508 13.3124ZM36.5411 13.7473C36.5842 13.8249 36.6711 13.8834 36.6752 13.9766C36.6901 14.0201 36.6709 14.0889 36.7356 14.1005C36.7366 14.0252 36.7312 13.9481 36.7035 13.8769C36.6673 13.8181 36.6002 13.784 36.5411 13.7473ZM38.2002 14.1233C38.2452 14.0732 38.257 14.0071 38.2937 13.9526C38.3351 13.89 38.3755 13.8266 38.4153 13.7631C38.2737 13.8303 38.1709 13.974 38.2002 14.1233ZM37.0969 14.4348C37.0556 14.4336 37.0147 14.432 36.9744 14.4301C36.9751 14.3704 37.0085 14.305 36.9615 14.2533C36.9371 14.3041 36.9078 14.3527 36.8852 14.404C36.88 14.4524 36.8872 14.5011 36.8957 14.5491C36.9078 14.5528 36.9319 14.5603 36.944 14.5639C36.9481 14.5338 36.953 14.5039 36.9587 14.4743C36.9918 14.4771 37.025 14.4799 37.0589 14.4828C37.07 14.53 37.073 14.5782 37.0738 14.6266C37.0815 14.6262 37.0967 14.6257 37.1044 14.6252C37.1067 14.5754 37.1065 14.5251 37.1149 14.4757C37.1543 14.4799 37.2126 14.4595 37.2331 14.5039C37.2648 14.5596 37.2514 14.6278 37.2676 14.6885C37.3174 14.6288 37.3064 14.5481 37.3408 14.482C37.3724 14.486 37.4046 14.4907 37.4369 14.4957C37.438 14.5603 37.438 14.6248 37.4393 14.6897C37.4593 14.6868 37.4997 14.6814 37.5197 14.6788C37.5256 14.6102 37.5256 14.5411 37.531 14.4724C37.5775 14.4759 37.6222 14.4889 37.6603 14.5147C37.6585 14.5674 37.6549 14.6201 37.6598 14.6727C37.7029 14.6266 37.6734 14.5648 37.6705 14.5117C37.7204 14.4945 37.7839 14.4828 37.8235 14.5262C37.8414 14.5742 37.8391 14.6259 37.8479 14.6758C37.8818 14.669 37.9162 14.6624 37.9512 14.6558C37.9538 14.5984 37.9548 14.5413 37.9571 14.4842C37.9902 14.486 38.0237 14.4889 38.0573 14.4924C38.0679 14.5498 38.0671 14.6116 38.1033 14.6621C38.1105 14.602 38.109 14.5415 38.1149 14.4813C38.1434 14.5074 38.165 14.5389 38.1868 14.5705C38.1907 14.5333 38.1827 14.4931 38.2015 14.4588C38.2408 14.4301 38.284 14.4061 38.3241 14.3779C38.2979 14.329 38.2611 14.2864 38.2185 14.2488C38.2154 14.3022 38.2136 14.356 38.1948 14.4073C38.0668 14.3831 37.9538 14.467 37.8286 14.4555C37.8245 14.392 37.8245 14.3285 37.8237 14.2653C37.7936 14.2657 37.7638 14.2664 37.7343 14.2674C37.7204 14.3332 37.7096 14.3993 37.6955 14.4651C37.661 14.4599 37.6271 14.4548 37.5937 14.4494C37.5955 14.3854 37.5986 14.3212 37.5963 14.2573C37.5837 14.2599 37.558 14.265 37.5454 14.2676C37.5331 14.3236 37.5405 14.3812 37.5377 14.4378C37.4966 14.4397 37.4513 14.4529 37.4151 14.4294C37.373 14.3847 37.3933 14.3231 37.3915 14.27C37.3557 14.2674 37.3203 14.2646 37.2851 14.2615C37.2815 14.3205 37.2815 14.3798 37.2804 14.4393C37.2239 14.4435 37.1674 14.4407 37.1124 14.4299C37.1262 14.3659 37.1417 14.302 37.1468 14.2368C37.0954 14.2911 37.1049 14.368 37.0969 14.4348ZM38.4539 14.8368C38.3441 14.9868 38.248 15.1639 38.0519 15.2335C37.8982 15.2462 37.7386 15.2118 37.5891 15.2572C37.487 15.293 37.376 15.2756 37.2702 15.2702C37.1661 15.2234 37.0656 15.1693 36.96 15.1258C36.886 15.098 36.8623 15.0221 36.8179 14.9683C36.7641 14.9748 36.7048 14.9882 36.6747 15.0336C36.5971 15.1385 36.5118 15.2382 36.4239 15.336C36.466 15.4025 36.5164 15.4719 36.5154 15.5521C36.5113 15.6696 36.5385 15.797 36.4673 15.9028C36.4306 15.9816 36.3231 16.0178 36.3093 16.1065C36.2843 16.1859 36.2941 16.2696 36.2933 16.3514C36.2928 16.4396 36.3445 16.5205 36.3419 16.6089C36.3447 16.6646 36.3314 16.7255 36.3689 16.7744C36.474 16.9397 36.6775 17.0354 36.8813 17.0554C36.9777 17.0615 37.0656 17.1059 37.1627 17.1078C37.2311 17.0918 37.2948 17.0462 37.3691 17.0594C37.494 17.0833 37.6238 17.0883 37.7505 17.0739C37.8456 17.046 37.9327 16.9971 38.0329 16.9825C37.9193 16.8332 37.9265 16.642 37.9388 16.4688C37.9656 16.362 38.0501 16.2588 38.1701 16.2304C38.3056 16.1939 38.4592 16.2781 38.4991 16.3999C38.5459 16.5003 38.4539 16.6042 38.5058 16.7058C38.6499 16.6507 38.7586 16.525 38.9195 16.4972C38.9599 16.4142 39.012 16.3357 39.0907 16.2783C39.1542 16.2346 39.1398 16.1563 39.1444 16.093C39.1495 15.9691 39.2436 15.8716 39.2875 15.7587C39.1912 15.6868 39.0881 15.6162 39.0287 15.5135C38.9362 15.3896 38.8861 15.2443 38.7908 15.1223C38.7062 15.0052 38.6075 14.8796 38.4538 14.8368H38.4539ZM41.6806 43.0129C41.6819 43.1206 41.7053 43.2292 41.7634 43.3242C41.814 43.477 41.9037 43.6251 41.8844 43.7904C41.8657 43.8844 41.9579 43.9554 41.9559 44.0476C41.9564 44.0822 41.9523 44.1174 41.95 44.1532C42.0003 44.1628 42.0504 44.1734 42.1021 44.1814C42.1211 44.084 42.0862 43.9926 42.0592 43.9007C42.0391 43.8475 42.0713 43.7993 42.1039 43.7584C42.0378 43.6286 42.0129 43.48 42.0579 43.3413C42.015 43.2793 41.969 43.2162 41.9538 43.1434C41.9327 43.0606 41.9484 42.9748 41.9253 42.893C41.9029 42.8043 41.9101 42.7039 41.8428 42.6303C41.7606 42.7465 41.7318 42.8845 41.6806 43.0129V43.0129ZM15.3262 44.0462C15.2876 44.0535 15.2936 44.1137 15.337 44.0902C15.3776 44.0838 15.3683 44.0217 15.3262 44.0462Z" fill="white"/>
<path d="M14.068 11.9585C14.1071 11.9639 14.1019 12.0342 14.0652 12.0403C14.0215 12.0319 14.0274 11.9672 14.068 11.9585Z" fill="white" stroke="white" stroke-width="0.0938"/>
<path d="M15.3257 44.0447C15.3679 44.0203 15.3771 44.0824 15.3365 44.0887C15.2931 44.1122 15.2872 44.052 15.3257 44.0447Z" fill="white" stroke="white" stroke-width="0.0938"/>
</svg>
